<svg width="100" height="100" viewBox="0 0 100 100" fill="none" xmlns="http://www.w3.org/2000/svg">
<path d="M30.9043 63.7816L39.9459 86.7186H36.1328V97.4608H41.9922V86.7186H45.8262L36.7637 63.7586L52.9297 44.6361L50 41.1748L30.9043 63.7816Z" fill="#96B499"/>
<path d="M69.9917 63.029L50.895 40.4263C50.785 40.2961 50.6479 40.1915 50.4933 40.1197C50.3387 40.0479 50.1703 40.0107 49.9999 40.0107C49.8295 40.0107 49.6611 40.0479 49.5065 40.1197C49.3519 40.1915 49.2148 40.2961 49.1048 40.4263L30.0081 63.029C29.8715 63.1907 29.7812 63.3863 29.7468 63.5951C29.7124 63.804 29.7352 64.0182 29.8128 64.2151L38.2442 85.5999H36.1269C35.8161 85.5999 35.518 85.7234 35.2982 85.9431C35.0784 86.1629 34.955 86.461 34.955 86.7718V97.514C34.955 97.8248 35.0784 98.1228 35.2982 98.3426C35.518 98.5624 35.8161 98.6858 36.1269 98.6858H63.873C64.1838 98.6858 64.4818 98.5624 64.7016 98.3426C64.9214 98.1228 65.0448 97.8248 65.0448 97.514V86.7718C65.0448 86.461 64.9214 86.1629 64.7016 85.9431C64.4818 85.7234 64.1838 85.5999 63.873 85.5999H62.3581L70.1972 64.1884C70.2683 63.9942 70.2867 63.7846 70.2506 63.581C70.2145 63.3774 70.1252 63.1869 69.9917 63.029ZM49.9999 65.3495C50.5024 65.3495 50.9935 65.4985 51.4113 65.7777C51.8291 66.0568 52.1548 66.4535 52.3471 66.9177C52.5394 67.382 52.5897 67.8928 52.4918 68.3856C52.3938 68.8784 52.1519 69.3311 51.7966 69.6864C51.4414 70.0418 50.9887 70.2838 50.4959 70.3819C50.0031 70.48 49.4923 70.4298 49.0281 70.2375C48.5638 70.0453 48.167 69.7198 47.8877 69.3021C47.6085 68.8843 47.4594 68.3932 47.4593 67.8907C47.4599 67.2171 47.7278 66.5711 48.2041 66.0947C48.6804 65.6183 49.3262 65.3503 49.9999 65.3495ZM62.7011 96.3421H37.2987V87.9437H62.7011V96.3421ZM59.8624 85.5999H40.7638L32.2501 64.0069L48.828 44.3855V63.1489C47.6697 63.4352 46.6562 64.1356 45.9788 65.1179C45.3015 66.1002 45.0071 67.2965 45.1513 68.4809C45.2955 69.6654 45.8683 70.7561 46.7615 71.5472C47.6548 72.3383 48.8067 72.775 49.9999 72.775C51.1931 72.775 52.345 72.3383 53.2383 71.5472C54.1315 70.7561 54.7043 69.6654 54.8485 68.4809C54.9927 67.2965 54.6983 66.1002 54.021 65.1179C53.3436 64.1356 52.3301 63.4352 51.1718 63.1489V44.3855L67.7622 64.0218L59.8624 85.5999Z" fill="#2C4928"/>
<path d="M37.0393 66.3389L39.2192 65.4786L40.1094 67.7344L37.9295 68.5946L37.0393 66.3389Z" fill="#2C4928"/>
<path d="M38.6636 70.4458L40.8433 69.5856L45.973 82.5848L43.7933 83.4449L38.6636 70.4458Z" fill="#2C4928"/>
<path d="M84.8436 2.74746C83.3699 2.74943 81.9424 3.26235 80.8044 4.19882C79.6663 5.13528 78.8882 6.43736 78.6026 7.8832H57.6663V2.48633C57.6663 2.17553 57.5428 1.87746 57.3231 1.65769C57.1033 1.43792 56.8052 1.31445 56.4944 1.31445H43.3569C43.0461 1.31445 42.7481 1.43792 42.5283 1.65769C42.3085 1.87746 42.1851 2.17553 42.1851 2.48633V7.8832H21.3981C21.0938 6.32697 20.2193 4.94046 18.946 3.99531C17.6728 3.05016 16.0925 2.61448 14.5148 2.77363C12.937 2.93278 11.4756 3.67528 10.4167 4.85568C9.35789 6.03607 8.77793 7.56929 8.79048 9.15496C8.80304 10.7406 9.4072 12.2645 10.4846 13.428C11.562 14.5914 13.035 15.3107 14.6151 15.4449C16.1951 15.579 17.7683 15.1184 19.0264 14.1532C20.2846 13.188 21.137 11.7878 21.4167 10.227H40.0874C37.5214 11.9677 35.4196 14.3091 33.9648 17.0473C32.5099 19.7855 31.7461 22.8378 31.7397 25.9385V31.6742H26.7267C26.4158 31.6742 26.1178 31.7977 25.898 32.0175C25.6782 32.2372 25.5548 32.5353 25.5548 32.8461V45.9834C25.5548 46.2942 25.6782 46.5923 25.898 46.812C26.1178 47.0318 26.4158 47.1553 26.7267 47.1553H39.8632C40.174 47.1553 40.472 47.0318 40.6918 46.812C40.9116 46.5923 41.035 46.2942 41.035 45.9834V32.8461C41.035 32.5353 40.9116 32.2372 40.6918 32.0175C40.472 31.7977 40.174 31.6742 39.8632 31.6742H34.0819V25.9377C34.0875 23.062 34.8364 20.2366 36.2559 17.7356C37.6754 15.2347 39.7173 13.1432 42.1835 11.6641V15.623C42.1835 15.9338 42.307 16.2319 42.5267 16.4517C42.7465 16.6715 43.0446 16.7949 43.3554 16.7949H56.4929C56.8037 16.7949 57.1017 16.6715 57.3215 16.4517C57.5413 16.2319 57.6647 15.9338 57.6647 15.623V11.6646C60.1312 13.1434 62.1734 15.2349 63.5929 17.736C65.0125 20.237 65.7612 23.0627 65.7663 25.9385V31.6742H59.985C59.6742 31.6742 59.3762 31.7977 59.1564 32.0175C58.9366 32.2372 58.8132 32.5353 58.8132 32.8461V45.9834C58.8132 46.2942 58.9366 46.5923 59.1564 46.812C59.3762 47.0318 59.6742 47.1553 59.985 47.1553H73.1249C73.4357 47.1553 73.7338 47.0318 73.9535 46.812C74.1733 46.5923 74.2968 46.2942 74.2968 45.9834V32.8461C74.2968 32.5353 74.1733 32.2372 73.9535 32.0175C73.7338 31.7977 73.4357 31.6742 73.1249 31.6742H68.1116V25.9377C68.1058 22.8369 67.3422 19.7845 65.8874 17.0462C64.4325 14.3079 62.3304 11.9666 59.7642 10.2262H78.5831C78.7961 11.4172 79.3443 12.5227 80.1636 13.413C80.9828 14.3033 82.039 14.9414 83.2082 15.2524C84.3774 15.5635 85.6111 15.5346 86.7644 15.1691C87.9178 14.8035 88.9429 14.1166 89.7195 13.1889C90.4961 12.2612 90.992 11.1312 91.1489 9.9315C91.3058 8.73185 91.1172 7.51233 90.6053 6.4161C90.0934 5.31986 89.2794 4.3924 88.2588 3.74258C87.2383 3.09276 86.0535 2.74755 84.8436 2.74746ZM15.1571 13.1238C14.3628 13.1238 13.5862 12.8882 12.9258 12.4468C12.2653 12.0055 11.7505 11.3782 11.4466 10.6443C11.1426 9.91039 11.0631 9.10283 11.2181 8.32374C11.3731 7.54465 11.7556 6.82901 12.3174 6.26732C12.8791 5.70564 13.5947 5.32313 14.3738 5.16818C15.1529 5.01322 15.9605 5.09277 16.6944 5.39677C17.4283 5.70076 18.0555 6.21556 18.4968 6.87605C18.9382 7.53654 19.1737 8.31306 19.1737 9.10742C19.1725 10.1723 18.749 11.1932 17.996 11.9462C17.243 12.6992 16.222 13.1227 15.1571 13.1238ZM38.6913 44.8115H27.8985V34.018H38.6913V44.8115ZM71.953 44.8115H61.1593V34.018H71.953V44.8115ZM55.3226 14.452H44.5288V3.6582H55.3226V14.452ZM84.8427 13.1238C84.0483 13.1239 83.2717 12.8883 82.6112 12.447C81.9507 12.0057 81.4359 11.3785 81.1319 10.6446C80.8278 9.91067 80.7483 9.1031 80.9032 8.32398C81.0582 7.54486 81.4407 6.82919 82.0024 6.26746C82.5641 5.70574 83.2797 5.32319 84.0588 5.1682C84.838 5.01321 85.6455 5.09274 86.3794 5.39673C87.1133 5.70071 87.7406 6.21551 88.182 6.87601C88.6233 7.5365 88.8589 8.31304 88.8589 9.10742C88.8576 10.1721 88.4342 11.1927 87.6815 11.9457C86.9288 12.6986 85.9083 13.1223 84.8436 13.1238H84.8427Z" fill="#417D19"/>
</svg>
