<svg width="20" height="24" viewBox="0 0 20 24" fill="none" xmlns="http://www.w3.org/2000/svg">
<path d="M19.5753 9.57592C19.5753 4.17361 15.1026 -0.179227 9.66026 0.00568095C4.89264 0.170599 0.929611 3.89375 0.46984 8.64138C0.379885 9.59091 0.42986 10.5105 0.599776 11.39C0.599776 11.39 0.614768 11.495 0.659746 11.6899C0.809671 12.3495 1.02456 12.9892 1.30442 13.5889C2.26894 15.8678 4.48784 19.6759 9.46536 23.8088C9.77521 24.0637 10.22 24.0637 10.5298 23.8088C15.5124 19.6759 17.7262 15.8678 18.6908 13.5889C18.9706 12.9892 19.1855 12.3495 19.3354 11.6899C19.3804 11.495 19.3954 11.39 19.3954 11.39C19.5154 10.8003 19.5753 10.1956 19.5753 9.57592ZM10.0001 15.508C6.7817 15.508 4.17799 12.8993 4.17799 9.68586C4.17799 6.46746 6.78669 3.86376 10.0001 3.86376C13.2135 3.86376 15.8222 6.47246 15.8222 9.68586C15.8222 12.8993 13.2185 15.508 10.0001 15.508Z" fill="white"/>
</svg>
