<svg width="100" height="100" viewBox="0 0 100 100" fill="none" xmlns="http://www.w3.org/2000/svg">
<path d="M52.9169 18.0828C51.3861 17.9231 49.8449 17.8879 48.3085 17.9774C34.3007 18.7996 23.1269 30.2162 23.078 43.7026C23.0487 52.0346 27.0878 59.4498 33.4276 64.1588C34.9931 65.3113 36.289 66.7906 37.2256 68.494C38.1622 70.1974 38.717 72.0842 38.8515 74.0235H44.7108C44.5764 72.0841 44.0216 70.1972 43.085 68.4937C42.1484 66.7902 40.8525 65.3108 39.287 64.1582C32.9472 59.4492 28.9081 52.044 28.9374 43.7119C28.9843 30.6297 39.5007 19.4889 52.9169 18.0828Z" fill="#96B499"/>
<path d="M69.6574 24.4774C63.991 19.1344 56.1851 16.3362 48.2406 16.8045C41.1973 17.2104 34.5586 20.2285 29.6222 25.2688C24.6715 30.3202 21.9314 36.8645 21.9074 43.6963C21.8769 52.1534 25.8215 59.9473 32.7293 65.0768C34.1581 66.1232 35.3414 67.4686 36.1968 69.0193C37.0522 70.57 37.5591 72.2886 37.682 74.0553L40.0209 73.9047C39.8764 71.7984 39.2742 69.7488 38.2561 67.8992C37.2381 66.0495 35.8288 64.4441 34.1265 63.1952C27.823 58.5141 24.2242 51.4102 24.2512 43.7047C24.2734 37.487 26.7754 31.5223 31.2965 26.9092C35.8257 22.285 41.9168 19.5163 48.3789 19.1442C55.6818 18.7172 62.8515 21.2803 68.0504 26.1827C73.0156 30.8645 75.75 37.1184 75.75 43.7918C75.75 51.4161 72.1261 58.5133 65.8086 63.2645C64.1287 64.5137 62.7384 66.1107 61.7325 67.9466C60.7267 69.7825 60.129 71.8139 59.9804 73.902L62.3191 74.0582C62.445 72.3064 62.9476 70.6024 63.7927 69.0626C64.6377 67.5229 65.8052 66.1838 67.2154 65.1368C74.1283 59.9393 78.0929 52.1592 78.0929 43.7913C78.0929 36.4663 75.0976 29.6069 69.6574 24.4774Z" fill="#2C4928"/>
<path d="M50.0001 48.0151C48.5845 48.0151 47.9228 47.5028 47.0851 46.8542C46.1347 46.1183 44.9521 45.2026 42.7351 45.2026V47.5464C44.1507 47.5464 44.8125 48.0587 45.6501 48.7073C46.4173 49.3013 47.3367 50.012 48.8287 50.2642V73.98H51.1724V50.264C52.664 50.0116 53.5833 49.3013 54.3503 48.7073C55.1882 48.0587 55.8501 47.5464 57.266 47.5464V45.2026C55.0488 45.2026 53.866 46.1183 52.9156 46.8542C52.0773 47.5028 51.4156 48.0151 50.0001 48.0151Z" fill="#2C4928"/>
<path d="M48.8281 3.41797H51.1719V13.3984H48.8281V3.41797Z" fill="#2C4928"/>
<path d="M81.6875 43.9136H91.6678V46.2573H81.6875V43.9136Z" fill="#2C4928"/>
<path d="M8.33228 43.9136H18.3126V46.2573H8.33228V43.9136Z" fill="#2C4928"/>
<path d="M71.5708 21.8604L78.6268 14.8043L80.2837 16.4612L73.2277 23.5172L71.5708 21.8604Z" fill="#2C4928"/>
<path d="M19.6963 73.7192L26.7523 66.6632L28.4092 68.3201L21.3532 75.3761L19.6963 73.7192Z" fill="#2C4928"/>
<path d="M71.5627 68.3213L73.2196 66.6644L80.2757 73.7204L78.6188 75.3773L71.5627 68.3213Z" fill="#2C4928"/>
<path d="M19.7036 16.4497L21.3605 14.7928L28.4166 21.8489L26.7597 23.5058L19.7036 16.4497Z" fill="#2C4928"/>
<path d="M42.9785 22.0649C39.0801 23.2339 35.5409 25.3706 32.6908 28.2759C28.5281 32.5233 26.2244 38.0052 26.2039 43.7114L28.5476 43.7198C28.5658 38.6274 30.6316 33.7255 34.3648 29.9167C36.9372 27.2946 40.1313 25.3663 43.6498 24.3112L42.9785 22.0649Z" fill="#2C4928"/>
<path d="M48.4929 21.0938C47.6075 21.1459 46.7255 21.2463 45.8511 21.3945L46.2435 23.7051C47.0336 23.5713 47.8304 23.4805 48.6304 23.4332L48.4929 21.0938Z" fill="#2C4928"/>
<path d="M62.9894 72.8081H37.0105C36.6997 72.8081 36.4016 72.9316 36.1819 73.1513C35.9621 73.3711 35.8386 73.6692 35.8386 73.98V78.163C35.8386 78.4738 35.9621 78.7719 36.1819 78.9916C36.4016 79.2114 36.6997 79.3349 37.0105 79.3349H37.706V81.5897H37.0105C36.6997 81.5897 36.4016 81.7132 36.1819 81.933C35.9621 82.1527 35.8386 82.4508 35.8386 82.7616V86.9446C35.8386 87.2554 35.9621 87.5535 36.1819 87.7733C36.4016 87.993 36.6997 88.1165 37.0105 88.1165H37.706V91.0743C37.706 91.3851 37.8295 91.6832 38.0492 91.903C38.269 92.1227 38.5671 92.2462 38.8779 92.2462H39.708L41.4119 96.9792C41.4935 97.2061 41.6433 97.4023 41.8406 97.541C42.0379 97.6797 42.2732 97.7542 42.5144 97.7542H57.4855C57.7267 97.7542 57.962 97.6797 58.1593 97.541C58.3566 97.4023 58.5064 97.2061 58.588 96.9792L60.2929 92.2462H61.1226C61.4334 92.2462 61.7315 92.1227 61.9513 91.903C62.171 91.6832 62.2945 91.3851 62.2945 91.0743V88.1165H62.9904C63.3012 88.1165 63.5993 87.993 63.819 87.7733C64.0388 87.5535 64.1623 87.2554 64.1623 86.9446V82.7616C64.1623 82.4508 64.0388 82.1527 63.819 81.933C63.5993 81.7132 63.3012 81.5897 62.9904 81.5897H62.2945V79.3349H62.9904C63.3012 79.3349 63.5993 79.2114 63.819 78.9916C64.0388 78.7719 64.1623 78.4738 64.1623 78.163V73.98C64.1623 73.826 64.1319 73.6735 64.073 73.5313C64.014 73.3891 63.9276 73.2598 63.8187 73.151C63.7098 73.0422 63.5805 72.9559 63.4382 72.897C63.2959 72.8382 63.1434 72.808 62.9894 72.8081ZM38.1824 75.1519H61.8175V76.9911H38.1824V75.1519ZM61.8175 83.9335V85.7728H38.1824V83.9335H61.8175ZM56.6613 95.4102H43.338L42.199 92.2462H57.8009L56.6613 95.4102ZM59.9492 89.9024H40.0498V88.1167H59.9498L59.9492 89.9024ZM59.9492 81.5899H40.0498V79.3349H59.9498L59.9492 81.5899Z" fill="#417D19"/>
</svg>
