<svg width="72" height="67" viewBox="0 0 72 67" fill="none" xmlns="http://www.w3.org/2000/svg">
<path d="M16.1958 57.3988L18.6403 55.7477L14.5364 51.9288L19.3345 45.7771C17.8198 43.5613 16.7258 41.1197 16.1002 38.5589L8.01563 37.3681V29.6317L16.1002 28.4409C16.7224 25.8806 17.8131 23.4389 19.3247 21.2227L14.5315 15.071L18.6377 11.2521L16.1945 9.60107L10.3171 15.071L15.1155 21.2227C13.6007 23.4385 12.5067 25.8801 11.8811 28.4409L3.79688 29.6317V37.3681L11.8814 38.5589C12.5036 41.1192 13.5943 43.5609 15.1059 45.7771L10.3127 51.9288L16.1958 57.3988Z" fill="#96B499"/>
<path d="M27.0254 52.9341L25.1929 54.1717C26.9033 54.954 28.7055 55.5487 30.5635 55.9438L31.8432 63.467H36.0619L34.7822 55.9438C32.0304 55.3616 29.4065 54.3435 27.0254 52.9341Z" fill="#96B499"/>
<path d="M34.7822 11.0563L36.0619 3.5332H31.8432L30.5635 11.0563C28.7059 11.4483 26.9036 12.0399 25.1929 12.8192L27.0254 14.0523C29.4073 12.6472 32.0311 11.6338 34.7822 11.0563Z" fill="#96B499"/>
<path d="M35.9998 16.0776C25.6764 16.0776 17.2776 23.8931 17.2776 33.4996C17.2776 43.1061 25.6764 50.9216 35.9998 50.9216C46.3233 50.9216 54.7221 43.1061 54.7221 33.4996C54.7221 23.8931 46.3233 16.0776 35.9998 16.0776ZM35.9998 49.3512C32.6307 49.3512 29.3373 48.4215 26.536 46.6797C23.7346 44.9379 21.5513 42.4622 20.262 39.5657C18.9727 36.6692 18.6354 33.4819 19.2927 30.407C19.95 27.3321 21.5724 24.5076 23.9547 22.2907C26.3371 20.0739 29.3724 18.5642 32.6767 17.9525C35.9811 17.3409 39.4062 17.6548 42.5189 18.8546C45.6315 20.0544 48.292 22.0861 50.1637 24.6929C52.0355 27.2997 53.0346 30.3644 53.0346 33.4996C53.0295 37.7023 51.2331 41.7315 48.0396 44.7032C44.846 47.6749 40.5162 49.3465 35.9998 49.3512Z" fill="#2C4928"/>
<path d="M26.9687 16.1914L26.2304 14.7793C25.3024 15.1998 24.4066 15.6795 23.5496 16.215L24.4902 17.5186C25.2825 17.0236 26.1107 16.5802 26.9687 16.1914Z" fill="#2C4928"/>
<path d="M23.0855 18.4779L22.0308 17.2524C19.4075 19.1976 17.2903 21.6691 15.8374 24.4824C14.3846 27.2958 13.6335 30.3782 13.6404 33.4996H15.3279C15.3216 30.6137 16.0161 27.7638 17.3594 25.1626C18.7027 22.5615 20.6601 20.2764 23.0855 18.4779Z" fill="#2C4928"/>
<path d="M68.2964 28.8567L60.7894 27.7473C60.1796 25.4618 59.2052 23.2742 57.8986 21.2575L62.365 15.5318C62.483 15.3806 62.5391 15.1951 62.5233 15.0088C62.5075 14.8225 62.4208 14.6475 62.2788 14.5153L56.4007 9.04541C56.2586 8.91332 56.0707 8.83269 55.8705 8.81801C55.6703 8.80333 55.4711 8.85557 55.3086 8.96532L49.1555 13.1214C46.9883 11.9058 44.6377 10.9991 42.1818 10.4317L40.9894 3.44607C40.9579 3.26153 40.8567 3.0935 40.704 2.97218C40.5512 2.85086 40.357 2.7842 40.1562 2.78418H31.8436C31.6428 2.7842 31.4486 2.85086 31.2959 2.97218C31.1431 3.0935 31.0419 3.26153 31.0104 3.44607L29.818 10.4317C27.362 10.9992 25.0113 11.9059 22.844 13.1217L16.691 8.96558C16.5285 8.85583 16.3292 8.80359 16.1291 8.81827C15.9289 8.83295 15.7409 8.91358 15.5989 9.04567L9.72075 14.5156C9.57871 14.6477 9.49199 14.8227 9.47619 15.0091C9.46039 15.1954 9.51654 15.3809 9.63454 15.5321L14.1009 21.2579C12.7943 23.2745 11.8198 25.4621 11.2101 27.7476L3.70312 28.857C3.50478 28.8863 3.32418 28.9805 3.19378 29.1226C3.06338 29.2647 2.99172 29.4455 2.9917 29.6323V37.3677C2.99172 37.5546 3.06338 37.7353 3.19378 37.8774C3.32418 38.0196 3.50478 38.1137 3.70312 38.143L11.2101 39.2525C11.8198 41.538 12.7943 43.7255 14.1009 45.7422L9.63482 51.4677C9.51682 51.6189 9.46067 51.8044 9.47647 51.9907C9.49227 52.1771 9.57899 52.352 9.72103 52.4842L15.5992 57.9541C15.7412 58.0862 15.9292 58.1668 16.1293 58.1815C16.3295 58.1962 16.5287 58.1439 16.6912 58.0342L22.8443 53.8781C25.0115 55.0939 27.3623 56.0006 29.8183 56.568L31.0107 63.5537C31.0422 63.7383 31.1434 63.9063 31.2961 64.0276C31.4489 64.1489 31.6431 64.2156 31.8439 64.2156H40.1565C40.3573 64.2156 40.5515 64.1489 40.7042 64.0276C40.857 63.9063 40.9582 63.7383 40.9897 63.5537L42.1821 56.568C44.6381 56.0006 46.9888 55.0939 49.1561 53.8781L55.3091 58.0342C55.4716 58.1439 55.6709 58.1962 55.871 58.1815C56.0712 58.1668 56.2592 58.0862 56.4012 57.9541L62.2793 52.4842C62.4214 52.352 62.5081 52.1771 62.5239 51.9907C62.5397 51.8044 62.4836 51.6189 62.3656 51.4677L57.8992 45.7421C59.2057 43.7253 60.1802 41.5377 60.79 39.2522L68.297 38.1428C68.4953 38.1135 68.6759 38.0193 68.8063 37.8772C68.9367 37.7351 69.0084 37.5543 69.0084 37.3674V29.6321C69.0083 29.4451 68.9366 29.2643 68.8061 29.1222C68.6756 28.9801 68.4949 28.8859 68.2964 28.8567ZM67.3203 36.6972L59.9656 37.7833C59.7988 37.808 59.6438 37.8787 59.5206 37.9862C59.3974 38.0938 59.3118 38.2333 59.2748 38.3867C58.6786 40.859 57.6283 43.2169 56.1702 45.3567C56.0798 45.4895 56.0343 45.6444 56.0397 45.8016C56.045 45.9587 56.1009 46.1107 56.2001 46.2379L60.5758 51.847L55.7165 56.3687L49.6888 52.2972C49.5521 52.2048 49.3887 52.1528 49.2198 52.1478C49.051 52.1428 48.8844 52.1851 48.7417 52.2692C46.4422 53.626 43.9084 54.6034 41.2517 55.1582C41.0869 55.1926 40.9369 55.2723 40.8213 55.3869C40.7057 55.5015 40.6298 55.6458 40.6033 55.8011L39.4361 62.6444H32.5639L31.396 55.8011C31.3695 55.6458 31.2935 55.5015 31.1779 55.3869C31.0623 55.2723 30.9124 55.1926 30.7476 55.1582C28.0909 54.6034 25.557 53.626 23.2576 52.2692C23.1149 52.1851 22.9483 52.1428 22.7794 52.1478C22.6106 52.1528 22.4472 52.2048 22.3105 52.2972L16.2827 56.3687L11.4234 51.8477L15.7991 46.2385C15.8983 46.1113 15.9542 45.9593 15.9596 45.8022C15.9649 45.6451 15.9194 45.4901 15.8291 45.3573C14.371 43.2175 13.3207 40.8595 12.7245 38.3872C12.6875 38.2339 12.6018 38.0944 12.4786 37.9868C12.3555 37.8793 12.2004 37.8086 12.0336 37.784L4.67892 36.6978V30.3023L12.0336 29.2156C12.2004 29.1909 12.3555 29.1202 12.4786 29.0127C12.6018 28.9051 12.6875 28.7656 12.7245 28.6123C13.3207 26.14 14.371 23.782 15.8291 21.6422C15.9194 21.5094 15.9649 21.3544 15.9596 21.1973C15.9542 21.0402 15.8983 20.8882 15.7991 20.761L11.4234 15.1518L16.2827 10.6301L22.3105 14.7017C22.4472 14.794 22.6106 14.8461 22.7794 14.8511C22.9483 14.8561 23.1149 14.8138 23.2576 14.7297C25.557 13.3728 28.0909 12.3955 30.7476 11.8407C30.9124 11.8063 31.0623 11.7266 31.1779 11.6119C31.2935 11.4973 31.3695 11.353 31.396 11.1978L32.5639 4.35449H39.4359L40.6031 11.1978C40.6296 11.353 40.7056 11.4973 40.8212 11.6119C40.9368 11.7266 41.0867 11.8063 41.2515 11.8407C43.9082 12.3955 46.4421 13.3728 48.7415 14.7297C48.8843 14.8138 49.0508 14.8561 49.2197 14.8511C49.3886 14.8461 49.5519 14.794 49.6886 14.7017L55.7164 10.6301L60.5757 15.1518L56.2007 20.761C56.1015 20.8882 56.0456 21.0402 56.0402 21.1973C56.0349 21.3544 56.0804 21.5094 56.1707 21.6422C57.6289 23.782 58.6792 26.1399 59.2753 28.6122C59.3123 28.7655 59.398 28.905 59.5211 29.0126C59.6443 29.1202 59.7994 29.1909 59.9662 29.2156L67.3209 30.3023L67.3203 36.6972Z" fill="#2C4928"/>
<path d="M35.9999 21.1284C33.3704 21.1284 30.8 21.854 28.6137 23.2134C26.4274 24.5728 24.7233 26.505 23.7171 28.7656C22.7108 31.0262 22.4476 33.5137 22.9605 35.9136C23.4735 38.3134 24.7397 40.5178 26.599 42.248C28.4584 43.9782 30.8273 45.1565 33.4062 45.6339C35.9852 46.1112 38.6583 45.8662 41.0876 44.9299C43.5169 43.9935 45.5933 42.4078 47.0542 40.3733C48.515 38.3388 49.2947 35.9469 49.2947 33.5C49.2908 30.22 47.8888 27.0754 45.3964 24.7561C42.904 22.4367 39.5247 21.1321 35.9999 21.1284ZM35.9999 44.3013C33.7042 44.3013 31.46 43.6678 29.5512 42.4809C27.6424 41.2941 26.1547 39.6071 25.2761 37.6335C24.3976 35.6598 24.1677 33.488 24.6156 31.3928C25.0635 29.2975 26.169 27.3729 27.7923 25.8624C29.4156 24.3518 31.4838 23.323 33.7354 22.9063C35.987 22.4895 38.3209 22.7034 40.4418 23.5209C42.5628 24.3385 44.3756 25.7229 45.6511 27.4991C46.9265 29.2754 47.6072 31.3637 47.6072 33.5C47.6038 36.3637 46.3798 39.1092 44.2037 41.1341C42.0277 43.159 39.0773 44.298 35.9999 44.3013Z" fill="#417D19"/>
<path d="M36 27.4756C34.7195 27.4756 33.4679 27.8289 32.4032 28.4908C31.3385 29.1528 30.5087 30.0936 30.0187 31.1944C29.5287 32.2952 29.4005 33.5065 29.6503 34.6752C29.9 35.8438 30.5166 36.9172 31.422 37.7598C32.3274 38.6023 33.4809 39.1761 34.7368 39.4086C35.9926 39.641 37.2943 39.5217 38.4773 39.0658C39.6602 38.6098 40.6713 37.8376 41.3827 36.8469C42.0941 35.8562 42.4738 34.6915 42.4738 33.5C42.4719 31.9028 41.7892 30.3715 40.5756 29.2421C39.3619 28.1127 37.7164 27.4774 36 27.4756ZM36 37.954C35.0533 37.954 34.1279 37.6928 33.3407 37.2034C32.5536 36.714 31.9401 36.0184 31.5778 35.2045C31.2155 34.3907 31.1207 33.4951 31.3053 32.6311C31.49 31.7671 31.9459 30.9734 32.6152 30.3505C33.2846 29.7276 34.1375 29.3034 35.066 29.1315C35.9945 28.9596 36.9569 29.0478 37.8315 29.3849C38.7061 29.722 39.4537 30.2929 39.9796 31.0254C40.5056 31.7579 40.7863 32.619 40.7863 33.5C40.7849 34.6808 40.2801 35.8129 39.3828 36.6479C38.4855 37.483 37.269 37.9527 36 37.954Z" fill="#417D19"/>
</svg>
