<svg width="16" height="16" viewBox="0 0 16 16" fill="none" xmlns="http://www.w3.org/2000/svg">
<path d="M13.7143 16C10.0782 15.9962 6.59211 14.5501 4.021 11.979C1.44989 9.40789 0.00378169 5.92181 0 2.28571C0 1.67951 0.240816 1.09812 0.66947 0.66947C1.09812 0.240816 1.67951 0 2.28571 0H4.57143C5.17764 0 5.75902 0.240816 6.18767 0.66947C6.61633 1.09812 6.85714 1.67951 6.85714 2.28571V6.18857L4.28571 8.76C5.08467 9.9174 6.08886 10.9187 7.24857 11.7143L9.82 9.14286H13.7143C14.3205 9.14286 14.9019 9.38367 15.3305 9.81233C15.7592 10.241 16 10.8224 16 11.4286V13.7143C16 14.3205 15.7592 14.9019 15.3305 15.3305C14.9019 15.7592 14.3205 16 13.7143 16ZM9.34286 12.8571C10.7292 13.4284 12.2149 13.7197 13.7143 13.7143V11.4286H10.76L9.34286 12.8571ZM2.28571 2.28571C2.28028 3.78513 2.57159 5.2708 3.14286 6.65714L4.57143 5.22857V2.28571H2.28571Z" fill="black"/>
</svg>
