<svg width="100" height="100" viewBox="0 0 100 100" fill="none" xmlns="http://www.w3.org/2000/svg">
<path d="M52.9297 9.32246C51.9583 9.19508 50.9797 9.13108 50 9.13086C37.9824 9.13086 28.2402 18.6113 28.2402 30.3066C28.2402 42.002 37.9824 51.4844 50 51.4844C50.9797 51.4842 51.9583 51.4201 52.9297 51.2926C42.2979 49.8998 34.0996 41.035 34.0996 30.3066C34.0996 19.5783 42.2979 10.715 52.9297 9.32246Z" fill="#96B499"/>
<path d="M64.5186 95.4311L61.3362 93.5613V56.1883H58.9925V92.1844L50.594 87.2494C50.414 87.1436 50.2091 87.0879 50.0003 87.0879C49.7915 87.0879 49.5865 87.1436 49.4065 87.2494L41.0081 92.1844V56.1883H38.6644V93.5613L35.4819 95.4311V53.6094H33.1382V97.4789C33.1382 97.6854 33.1927 97.8882 33.2963 98.0668C33.3999 98.2454 33.5488 98.3935 33.728 98.4961C33.9072 98.5986 34.1104 98.652 34.3168 98.6508C34.5233 98.6496 34.7258 98.5939 34.9038 98.4893L49.9999 89.6188L65.0975 98.4893C65.2756 98.5939 65.4781 98.6496 65.6845 98.6508C65.891 98.652 66.0941 98.5986 66.2733 98.4961C66.4525 98.3935 66.6015 98.2454 66.7051 98.0668C66.8086 97.8882 66.8632 97.6854 66.8632 97.4789V53.6094H64.5194L64.5186 95.4311Z" fill="#417D19"/>
<path d="M79.7238 30.3074C79.7238 14.34 66.3896 1.34961 49.9999 1.34961C33.6103 1.34961 20.2761 14.34 20.2761 30.3074C20.2761 46.2748 33.6103 59.2654 49.9999 59.2654C66.3896 59.2654 79.7238 46.275 79.7238 30.3074ZM22.6199 30.3074C22.6199 15.6324 34.9023 3.69336 49.9999 3.69336C65.0976 3.69336 77.38 15.6324 77.38 30.3074C77.38 44.9824 65.0976 56.9217 49.9999 56.9217C34.9023 56.9217 22.6199 44.9826 22.6199 30.3074Z" fill="#2C4928"/>
<path d="M72.932 30.3069C72.932 17.9839 62.6447 7.9585 49.9999 7.9585C37.3552 7.9585 27.0679 17.9839 27.0679 30.3069C27.0679 42.63 37.3552 52.656 49.9999 52.656C62.6447 52.656 72.932 42.63 72.932 30.3069ZM29.4116 30.3069C29.4116 19.2771 38.6474 10.3022 49.9999 10.3022C61.3525 10.3022 70.5882 19.2771 70.5882 30.3069C70.5882 41.3368 61.3525 50.3122 49.9999 50.3122C38.6474 50.3122 29.4116 41.3376 29.4116 30.3069Z" fill="#2C4928"/>
<path d="M56.9559 42.8876C57.1494 42.9894 57.3675 43.0349 57.5856 43.0191C57.8037 43.0033 58.013 42.9269 58.1899 42.7983C58.3668 42.6698 58.5042 42.4944 58.5865 42.2918C58.6689 42.0893 58.693 41.8678 58.6561 41.6523L57.3279 33.907L62.9553 28.4218C63.1119 28.2691 63.2227 28.0756 63.2751 27.8632C63.3275 27.6508 63.3194 27.428 63.2517 27.22C63.184 27.012 63.0594 26.8271 62.892 26.6862C62.7247 26.5453 62.5212 26.454 62.3047 26.4228L54.5287 25.2931L51.0508 18.2459C50.954 18.0498 50.8043 17.8848 50.6186 17.7693C50.4329 17.6539 50.2186 17.5928 50 17.5928C49.7814 17.5928 49.5671 17.6539 49.3814 17.7693C49.1957 17.8848 49.046 18.0498 48.9492 18.2459L45.4713 25.2931L37.6953 26.4228C37.4788 26.4542 37.2755 26.5455 37.1083 26.6865C36.9411 26.8274 36.8166 27.0124 36.749 27.2204C36.6814 27.4284 36.6734 27.6511 36.7258 27.8634C36.7782 28.0758 36.889 28.2692 37.0457 28.4218L42.6722 33.9064L41.3441 41.6517C41.3073 41.8671 41.3314 42.0884 41.4138 42.2908C41.4961 42.4932 41.6334 42.6685 41.8101 42.797C41.9869 42.9255 42.196 43.002 42.4139 43.0179C42.6318 43.0338 42.8498 42.9885 43.0433 42.8871L50 39.2306L56.9559 42.8876ZM44.0553 39.7083L45.0865 33.6958C45.1186 33.5086 45.1047 33.3163 45.046 33.1356C44.9873 32.9549 44.8855 32.7912 44.7494 32.6585L40.3812 28.4007L46.418 27.5236C46.606 27.4963 46.7846 27.4237 46.9383 27.312C47.092 27.2003 47.2163 27.0529 47.3004 26.8826L50 21.4125L52.6996 26.8826C52.7837 27.0529 52.908 27.2003 53.0617 27.312C53.2154 27.4237 53.394 27.4963 53.582 27.5236L59.6188 28.4007L55.2506 32.6585C55.1145 32.7912 55.0127 32.9549 54.954 33.1356C54.8953 33.3163 54.8814 33.5086 54.9135 33.6958L55.9447 39.7083L50.5453 36.8695C50.3771 36.7811 50.19 36.7349 50 36.7349C49.81 36.7349 49.6229 36.7811 49.4547 36.8695L44.0553 39.7083Z" fill="#2C4928"/>
<path d="M46.6221 14.3943L46.1645 12.0957C45.0918 12.3094 44.0391 12.6137 43.0178 13.0053L43.8577 15.1928C44.7549 14.849 45.6797 14.5819 46.6221 14.3943Z" fill="#2C4928"/>
<path d="M41.5134 16.3057L40.348 14.2725C34.5396 17.6018 30.9314 23.7451 30.9314 30.3076H33.2751C33.2751 24.5834 36.4318 19.2185 41.5134 16.3057Z" fill="#2C4928"/>
<path d="M47.9934 61.0317H52.0069V63.3755H47.9934V61.0317Z" fill="#417D19"/>
<path d="M47.9934 66.5581H52.0069V68.9019H47.9934V66.5581Z" fill="#417D19"/>
<path d="M47.9934 72.084H52.0069V74.4277H47.9934V72.084Z" fill="#417D19"/>
<path d="M47.9934 77.6104H52.0069V79.9541H47.9934V77.6104Z" fill="#417D19"/>
<path d="M47.9934 83.1362H52.0069V85.48H47.9934V83.1362Z" fill="#417D19"/>
</svg>
