<svg width="492" height="559" viewBox="0 0 492 559" fill="none" xmlns="http://www.w3.org/2000/svg">
<path d="M243.692 78.3468C247.66 83.3936 251.745 88.4404 255.713 93.4872C256.764 94.809 257.581 94.809 258.164 93.1267C258.631 92.0452 258.981 90.8436 259.448 89.7621C260.032 86.2775 261.666 83.2734 263.183 80.1492C263.883 78.5871 264.933 79.4282 265.634 80.2693C267.501 82.4323 268.551 84.9557 268.785 87.8396C269.018 91.0839 269.018 94.2081 267.851 97.3324C265.75 108.267 262.483 118.962 261.899 130.137C261.315 141.432 265.284 151.165 272.52 159.576C273.57 160.778 273.92 160.417 274.504 159.216C279.289 149.002 282.44 138.187 284.891 127.133C287.575 114.636 286.875 101.899 286.992 89.2815C286.642 85.917 287.342 82.6726 288.976 79.6685C289.909 78.1064 290.376 77.8661 291.543 79.1879C293.994 82.0718 295.511 85.3162 294.578 89.4017C293.878 92.646 293.761 95.7703 295.278 98.7743C295.628 99.4953 295.978 100.336 297.029 100.336C299.246 99.2549 301.23 97.6928 303.448 96.4912C304.265 96.0106 305.198 95.0493 306.015 96.0106C306.716 96.8517 307.182 98.0533 306.249 99.255C305.899 101.057 304.848 102.499 303.681 103.701C298.546 109.349 295.511 116.198 293.177 123.408C289.909 133.381 286.758 143.354 283.49 153.328C281.39 159.696 281.74 166.065 283.724 172.434C286.408 181.085 289.209 189.857 292.01 198.509C292.827 201.032 293.294 203.556 293.761 206.199C293.994 207.04 294.111 208.002 295.045 208.242C296.095 208.482 296.562 207.521 297.029 206.8C298.079 205.478 298.546 204.036 298.779 202.354C299.48 193.822 303.098 186.853 308.933 180.965C315.235 174.597 321.888 168.468 328.307 162.22C332.392 158.255 336.01 154.049 339.161 149.242C341.729 145.397 343.246 141.192 343.479 136.505C343.596 135.544 343.479 134.583 343.246 133.501C342.429 130.137 343.246 126.412 341.729 123.047C340.795 121.124 340.445 118.841 339.278 117.039C337.41 113.434 336.243 109.589 335.31 105.624C335.076 104.542 335.193 103.34 336.127 102.74C337.294 102.019 338.227 102.98 338.694 103.821C340.795 107.065 342.546 110.55 343.363 114.395C343.713 116.078 344.413 117.64 345.347 119.082C347.097 121.845 349.198 122.446 351.999 120.884C353.166 120.163 354.333 119.322 355.384 118.361C359.935 114.035 364.02 109.349 367.171 103.821C371.84 95.6501 377.675 88.6807 385.495 83.6339C389.463 81.1105 392.381 77.2653 394.948 73.2999C395.999 70.1757 398.45 67.8927 400.084 65.1289C400.434 64.5281 400.901 63.8071 401.834 63.9273C402.885 64.2878 403.235 65.2491 403.585 66.2104C404.985 70.4161 402.418 78.3468 398.917 80.75C398.566 80.9903 398.216 81.1105 397.749 81.1105C393.314 84.2347 388.879 87.3589 384.444 90.6033C378.025 95.4098 374.057 101.538 374.524 110.07C374.641 111.271 374.874 112.473 375.224 113.554C376.508 117.399 378.492 118.601 382.344 117.88C385.728 117.159 388.996 116.678 392.614 116.799C391.797 118.721 390.397 119.923 388.996 121.124C385.261 124.128 380.826 125.09 376.391 126.171C372.423 127.133 368.455 128.094 364.837 130.016C356.434 134.342 352.116 141.552 350.599 150.684C349.898 155.13 352.233 157.774 356.667 157.894C360.636 158.014 364.72 157.774 368.689 157.413C371.256 156.452 373.941 156.572 376.508 157.413C377.792 158.735 376.742 159.576 375.691 160.177C374.057 161.138 372.073 161.499 370.323 162.34C358.535 167.026 346.397 170.391 334.493 174.597C330.291 176.038 326.673 178.442 323.405 181.566C317.92 186.613 314.885 192.981 312.901 200.191C310.334 209.684 307.999 219.297 305.549 228.91C303.798 235.879 301.814 242.728 297.496 248.616C294.928 252.101 291.777 254.985 289.092 258.47C288.742 258.95 288.275 259.311 288.159 260.032C289.209 259.791 289.909 259.07 290.493 258.349C296.562 250.779 304.148 245.372 312.434 240.686C327.49 232.395 342.779 224.824 357.601 216.052C373.707 206.439 385.845 192.621 395.065 176.038C398.683 169.55 401.251 162.701 404.402 155.971C405.219 154.529 405.686 152.847 406.503 151.405C407.086 150.324 407.786 150.204 408.603 151.045C409.537 152.006 410.471 152.847 411.288 153.929C412.572 155.851 414.206 157.654 413.038 160.417C412.105 163.662 410.121 166.426 408.487 169.309C405.452 174.597 402.535 179.884 399.383 185.051C397.399 188.295 397.283 191.539 397.866 195.144C398.1 196.226 398.683 195.985 399.383 195.985C403.468 195.385 407.203 193.943 410.821 191.9C414.206 189.376 418.29 188.175 421.908 186.252C422.959 185.651 424.009 185.171 425.176 184.81C425.76 184.57 426.46 184.33 426.927 184.93C427.394 185.651 426.927 186.252 426.46 186.853C424.359 189.376 421.908 191.66 419.224 193.582C417.473 194.784 415.956 196.226 413.739 196.586C408.253 199.47 401.951 200.071 396.115 201.753C387.362 204.156 380.243 209.203 374.524 216.413C373.707 217.494 373.474 218.095 374.524 219.177C380.476 224.944 387.362 227.107 395.065 224.103C409.187 218.576 421.325 222.421 432.646 231.674C433.113 232.034 433.579 232.515 434.046 232.875C438.831 236.6 440.815 242.007 441.982 247.775C442.216 249.217 442.566 250.539 441.866 251.981C441.166 253.543 440.349 253.663 439.298 252.221C438.715 251.38 438.364 250.419 438.131 249.458C436.964 244.891 434.863 241.046 431.479 237.802C430.662 236.961 430.078 235.999 429.378 235.158C420.041 227.468 409.537 224.584 397.749 226.867C391.447 228.069 389.346 233.957 393.781 238.883C397.983 243.57 402.885 247.415 407.786 251.26C408.72 251.62 409.654 252.101 410.471 252.822C413.622 255.466 417.007 257.869 420.274 260.272C421.325 261.113 422.725 261.954 422.025 263.516C421.325 265.079 419.691 264.478 418.29 264.237C416.423 263.757 414.672 262.795 413.155 261.594C410.588 259.551 407.436 258.349 405.452 255.586C402.068 253.062 398.683 250.419 395.298 247.895C389.58 243.57 383.394 240.445 376.158 239.845C371.606 239.364 367.171 240.325 362.853 241.286C355.851 242.728 348.731 243.449 341.729 244.531C330.641 246.213 320.838 251.14 311.734 257.869C302.631 264.598 294.344 272.529 285.708 279.859C275.787 288.39 265.984 296.922 256.18 305.453C249.061 311.701 243.342 318.911 240.891 328.524C240.074 331.889 239.724 335.253 239.841 338.738C239.958 341.622 239.841 344.626 239.958 347.51C240.074 349.192 239.257 349.432 237.973 349.072C234.706 348.471 232.838 346.308 232.605 342.703C231.788 328.764 234.589 315.667 240.774 303.41C241.942 301.247 242.992 298.964 242.992 296.08C239.374 299.205 236.69 302.689 235.406 307.135C232.138 318.671 228.987 330.327 227.119 342.343C227.119 342.463 227.003 342.583 227.003 342.703C222.801 341.622 219.417 338.017 219.066 332.97C218.6 326.481 217.666 320.113 217.666 313.624C217.549 296.681 224.902 284.304 239.374 276.494C244.626 273.61 250.228 271.447 255.83 269.645C266.567 266.16 275.087 259.791 279.289 248.496C281.506 242.368 283.607 236.24 285.474 229.991C288.392 220.138 287.809 210.525 284.307 200.912C282.557 196.106 280.339 191.66 278.005 187.214C273.803 179.403 267.735 174.356 258.981 172.914C253.262 172.073 247.894 169.91 242.642 167.627C239.724 166.426 237.507 164.383 235.756 161.739C232.488 157.534 232.371 152.847 233.772 147.921C234.939 146.358 235.172 146.358 236.34 147.8C237.39 149.122 238.207 150.564 238.907 152.126C240.191 155.371 241.591 158.495 244.393 160.658C244.743 160.898 244.743 161.379 245.093 161.739C251.862 165.705 259.098 165.224 266.684 163.902C264.817 159.576 263.183 155.371 261.199 151.405C256.647 142.393 254.313 132.78 253.846 122.566C253.613 117.52 253.146 112.353 251.395 107.426C249.061 101.178 245.56 95.4098 242.875 89.2815C241.475 86.1573 240.424 82.7928 239.374 79.4282C239.374 79.3081 239.257 79.1879 239.257 79.0677C238.907 77.5056 239.491 75.583 240.541 75.3427C241.942 75.1024 242.525 76.4242 243.225 77.3855C243.576 77.6258 243.692 77.9863 243.692 78.3468Z" fill="#201C17"/>
<path d="M146.935 214.009C147.519 214.49 147.986 215.09 148.569 215.571C151.37 217.854 154.288 219.897 156.856 222.3C158.957 224.343 160.007 224.223 162.224 222.18C166.076 218.575 167.01 214.61 164.909 209.683C161.291 201.152 156.039 193.822 149.736 187.093C145.885 182.887 141.45 179.282 137.949 174.716C131.063 165.824 127.095 155.73 124.877 144.676C122.893 134.702 120.442 124.849 117.408 115.236C116.941 113.914 116.474 112.592 115.54 111.511C115.424 111.511 115.19 111.391 115.19 111.391C110.755 106.344 104.336 104.782 98.8509 101.658C97.9172 101.057 96.1665 100.937 96.2832 99.4947C96.3999 98.0527 98.1506 98.4132 99.201 98.0527C99.3177 98.0527 99.4344 97.9326 99.5511 97.9326C101.185 97.6922 102.819 97.4519 104.453 96.9713C106.554 96.2503 107.137 95.0487 106.554 92.8858C106.087 90.9632 105.153 89.1607 104.686 87.2382C104.453 86.1567 104.336 85.0752 105.27 84.3543C106.204 83.6333 107.254 84.2341 107.954 84.9551C110.872 87.7188 113.673 90.4825 115.307 94.3277C119.158 100.937 122.31 107.906 124.06 115.356C126.628 126.531 129.195 137.706 131.88 148.881C132.93 153.087 134.097 157.172 135.498 161.258C137.015 165.584 139.466 169.189 142.967 172.072C151.721 179.523 160.357 187.093 169.227 194.423C171.911 196.586 174.712 198.508 177.747 199.95C182.182 202.113 186.383 201.272 189.301 197.186C194.203 190.097 197.237 182.166 198.405 173.514C199.572 164.622 198.054 155.851 197.821 147.079C197.704 142.873 197.354 138.667 197.121 134.462C196.187 132.179 196.304 129.655 196.304 127.252C195.954 120.884 195.837 114.635 195.487 108.267C195.37 107.185 195.72 106.104 195.954 105.142C196.187 104.301 196.537 103.58 197.471 103.58C198.288 103.58 198.871 104.181 199.105 105.022C199.805 106.704 199.688 108.507 199.922 110.309C200.389 114.996 200.855 119.682 201.322 124.248C201.439 125.209 201.089 126.531 202.723 126.651C205.057 126.291 206.458 124.609 207.741 122.806C208.908 121.244 209.842 119.682 210.893 118C211.359 117.399 211.826 116.678 212.41 116.197C212.76 115.957 213.11 115.717 213.577 115.837C213.927 116.077 213.927 116.558 213.927 117.038C213.81 118.48 213.11 119.802 212.76 121.124C210.776 128.694 209.142 136.264 208.208 144.075C206.808 154.048 206.574 164.262 205.757 174.356C204.707 186.612 200.038 197.186 192.569 206.679C190.118 209.803 187.55 212.687 185.45 216.172C181.482 222.661 180.431 229.75 181.598 237.32C181.832 238.762 182.299 240.084 182.999 241.286C187.784 250.178 192.336 259.19 198.755 267.121C207.274 277.815 211.476 290.432 213.694 303.89C214.744 310.499 215.211 317.228 215.327 323.837C215.327 324.198 215.327 324.558 215.327 324.919C215.444 326 215.211 327.322 214.394 327.562C213.46 327.802 212.643 326.721 212.06 325.76C210.192 322.515 208.442 319.391 206.691 316.147C206.458 315.666 206.224 314.705 205.407 315.065C204.473 315.426 204.94 316.267 205.057 316.868C205.29 318.67 205.874 320.473 206.691 322.155C212.993 334.892 221.396 345.586 234.001 352.075C237.619 353.998 241.471 355.44 244.972 357.603C249.757 360.486 251.974 364.211 251.157 370.099C249.874 378.751 247.773 387.162 244.272 395.574C243.221 393.171 242.171 391.128 241.237 388.965C238.786 383.558 236.335 378.15 233.884 372.743C233.651 372.262 233.534 371.301 232.834 371.421C232.017 371.541 232.484 372.503 232.367 373.103C232.25 374.666 232.601 375.987 233.184 377.429C235.868 383.197 238.319 389.085 241.004 394.853C243.104 399.299 243.805 403.745 242.521 408.671C241.354 412.877 240.654 417.203 239.837 421.529C238.903 421.529 238.786 420.808 238.553 420.207C234.118 408.071 226.532 398.217 218.245 388.725C209.959 379.232 201.789 369.739 194.436 359.405C189.885 353.036 188.017 345.827 187.434 338.136C187.317 337.415 187.434 336.694 188.017 335.973C189.418 337.415 190.352 339.098 191.285 340.78C192.802 343.303 194.32 345.827 195.837 348.47C196.42 349.552 197.121 350.273 198.405 350.513C199.455 347.99 198.405 345.827 197.004 344.024C188.834 332.369 186.967 319.391 188.017 305.452C188.601 298.243 189.068 291.033 187.55 283.943C185.333 273.129 178.681 265.799 169.811 260.271C160.007 254.263 150.087 248.496 140.283 242.608C134.097 238.883 127.795 235.278 121.609 231.553C120.209 231.673 119.275 230.712 118.225 230.111C115.424 228.549 112.973 226.506 110.405 224.463C109.705 223.982 109.005 223.382 109.355 222.42C109.705 221.339 110.639 221.339 111.572 221.219C113.906 220.978 116.007 221.82 118.341 221.82C116.124 215.09 112.389 209.203 107.838 203.915C99.6678 194.423 89.1639 188.655 77.7263 184.209C76.2091 183.608 74.6919 183.127 73.2914 182.527C72.8245 182.286 71.8908 182.527 72.1242 181.565C72.241 180.724 73.0579 180.844 73.6415 180.844C75.5088 180.844 77.1428 181.325 79.0101 181.565C79.5937 181.685 80.294 181.806 80.8775 181.806C83.7953 181.205 86.4796 182.166 89.2806 182.527C92.3151 182.887 95.3496 183.368 98.2673 183.848C98.7341 183.969 99.201 183.969 99.6678 183.969C101.652 183.848 102.235 183.127 101.652 181.085C100.485 177.48 98.7341 174.115 96.5167 171.111C91.2647 164.022 85.4292 157.172 79.9438 150.323C79.2436 149.482 78.5433 148.521 78.0765 147.559C77.7263 146.718 77.3762 145.877 78.1932 145.156C79.0101 144.435 79.9438 144.916 80.6441 145.517C83.4451 148.16 86.4796 150.564 89.1639 153.327C94.4159 159.095 99.201 165.343 103.169 172.072C103.986 173.514 104.686 174.836 105.27 176.398C110.639 186.492 114.607 197.307 120.092 207.28C124.76 215.811 131.18 222.661 139.349 227.707C144.951 231.072 149.97 235.518 155.105 239.483C156.972 240.925 159.073 241.766 161.174 242.728C162.224 243.208 162.458 242.728 162.808 242.007C163.625 239.964 163.625 238.041 161.991 236.239C156.039 229.75 150.087 223.382 144.018 216.893C142.967 216.412 142.267 215.331 141.217 214.73C139.933 213.769 139.933 212.687 140.866 211.486C141.8 210.164 142.851 210.164 144.018 211.005C144.601 211.966 146.002 212.687 146.935 214.009Z" fill="#201C17"/>
<path d="M163.861 432.224C164.911 437.391 166.895 442.197 168.996 447.004C173.081 456.496 178.216 465.268 183.818 473.8C184.052 474.28 184.168 475.122 185.102 474.641C185.919 474.16 185.452 473.559 185.219 472.959C184.168 469.474 182.301 466.35 180.434 463.346C177.749 459.14 175.298 454.934 174.248 450.008C173.664 447.244 174.014 444.48 175.182 441.957C177.049 438.232 179.967 435.468 183.118 432.103C182.534 443.519 182.884 454.333 188.02 464.667C188.72 463.826 188.487 463.225 188.487 462.625C187.786 455.896 187.086 449.166 186.269 442.437C185.219 434.867 187.553 428.018 190.821 421.289C191.054 420.808 191.521 420.207 192.105 420.448C192.922 420.808 193.272 421.649 193.505 422.491C193.972 424.894 194.439 427.417 194.789 429.82C196.54 445.802 203.425 459.02 214.98 470.075C228.401 482.932 241.473 496.15 254.661 509.248C255.478 509.968 256.295 510.569 255.245 512.011C254.194 513.333 253.611 513.333 252.444 512.372C247.659 508.406 242.757 504.561 237.972 500.596C237.622 500.235 237.155 499.394 236.454 500.115C235.871 500.716 236.571 501.076 236.921 501.557C240.656 506.364 244.741 510.689 249.876 514.054C255.595 517.779 259.796 523.306 264.465 528.353C265.282 529.315 265.282 530.156 264.348 531.117C263.298 532.198 262.714 531.117 262.131 530.636C258.513 527.873 254.895 525.109 251.16 522.225C251.16 524.027 251.16 525.59 251.16 527.512C244.507 524.027 238.205 520.663 231.436 517.058C232.953 520.182 234.82 522.345 237.155 524.027C240.189 526.19 243.574 527.752 247.192 528.353C260.497 530.516 268.55 538.807 273.335 551.184C274.035 552.986 274.735 554.909 275.436 556.712C275.552 556.952 275.552 557.192 275.319 557.432C274.735 557.793 274.035 557.913 273.335 557.913C267.032 557.913 260.73 558.033 254.428 557.913C251.277 558.033 248.125 557.913 244.974 557.913C243.924 557.913 242.873 558.033 242.29 556.832C239.722 539.889 233.537 524.628 222.916 511.29C215.797 502.278 206.46 498.673 195.372 499.635C189.187 500.235 182.884 500.115 176.699 499.755C173.664 499.635 171.914 497.351 171.213 494.468C170.046 489.781 169.58 484.975 168.763 480.168C168.179 476.924 167.712 473.559 167.245 470.315C166.895 467.671 166.662 465.148 166.895 462.384C167.129 459.38 167.829 456.016 166.195 453.372C164.211 450.008 164.094 446.403 163.627 442.798C162.81 442.317 162.81 441.356 162.694 440.515C162.11 436.79 161.643 432.945 161.176 429.22C161.176 428.739 161.06 428.258 161.176 427.778C161.41 426.456 160.71 425.014 161.993 423.932C163.16 424.533 163.044 425.735 163.16 426.696C163.16 428.499 163.627 430.421 163.861 432.224Z" fill="#201C17"/>
<path d="M186.618 556.71C186.851 551.784 185.917 547.097 183.933 542.651C181.249 536.643 178.565 530.515 175.764 524.507C175.063 522.825 174.48 521.263 174.363 519.22C175.88 519.941 177.048 521.022 178.215 521.984C180.666 523.906 183.116 525.709 185.451 527.631C186.384 528.472 187.318 528.953 188.135 527.511C189.069 526.069 187.551 525.949 187.085 525.588C183.817 522.945 180.315 520.662 177.164 517.778C173.079 514.053 171.562 509.367 171.796 503.839C171.796 502.397 172.262 502.157 173.43 502.998C175.297 504.32 176.814 505.882 178.331 507.564C181.833 511.409 185.918 514.654 190.703 516.696C191.169 516.937 191.52 517.177 191.986 517.297C192.687 517.417 193.62 517.417 193.97 516.696C194.321 515.975 193.387 515.735 192.92 515.375C188.602 512.491 184.284 509.727 179.849 506.723C182.766 504.079 186.151 503.238 189.769 502.878C205.525 501.676 217.313 508.405 225.366 522.344C231.551 533.038 235.519 544.574 237.27 556.831C237.037 557.551 236.336 557.792 235.753 557.792C232.251 557.792 228.75 558.272 225.366 557.431C222.098 556.11 218.48 555.629 215.562 553.586C208.676 548.78 204.358 541.93 201.09 534.24C200.039 531.717 199.222 529.193 198.055 526.79C199.106 528.953 199.923 531.236 200.74 533.519C202.14 537.124 203.307 540.729 204.708 544.334C206.458 548.78 209.26 552.385 212.994 555.268C213.694 555.749 215.095 556.11 214.161 557.672C213.344 558.152 212.411 558.032 211.477 558.032C204.124 558.032 196.772 558.032 189.419 558.032C188.602 557.792 187.201 558.152 186.618 556.71Z" fill="#201C17"/>
<path d="M107.375 302.089C117.178 307.737 126.982 313.504 136.786 319.152C137.953 319.873 139.353 320.113 140.754 320.354C143.438 320.834 145.889 319.873 148.34 318.792C149.157 318.431 149.04 317.95 148.807 317.229C145.072 306.054 139.703 296.081 130.367 288.751C129.9 288.39 129.316 288.03 128.849 287.549C124.531 282.983 119.396 282.142 113.56 283.944C106.091 286.228 98.5047 286.949 90.9186 284.665C89.2847 284.185 87.7674 283.464 86.1335 282.262C96.6374 279.498 107.842 280.58 117.295 273.971C114.844 270.967 111.926 268.564 107.958 268.323C103.173 268.083 98.2713 268.083 93.4862 268.444C88.4677 268.684 83.4492 269.165 78.4306 267.843C75.046 266.881 72.8285 264.598 71.7782 261.114C71.5447 260.273 70.9612 259.191 71.7782 258.47C72.5951 257.749 73.4121 258.59 74.2291 258.951C78.8975 261.835 84.1494 262.195 89.4014 262.556C90.4518 262.676 91.5022 262.556 92.4358 263.156C100.839 263.156 109.125 263.998 117.528 264.719C122.197 265.079 125.581 267.602 127.916 271.568C130.133 275.173 132.234 279.018 134.451 282.743C138.77 290.313 143.088 297.763 147.29 305.453C151.491 312.904 157.21 318.191 165.263 321.075C169.931 322.757 174.25 325.16 178.451 327.684C182.303 329.967 184.17 333.451 184.287 338.017C184.287 341.262 184.287 344.386 184.287 347.63C184.287 348.111 184.52 348.832 183.82 349.072C183.236 349.193 183.003 348.592 182.653 348.231C179.968 345.107 177.284 342.103 174.95 338.738C171.799 334.052 167.364 331.529 161.762 331.529C155.109 331.409 148.457 331.529 141.804 331.288C130.367 330.688 121.847 325.04 116.128 314.826C114.027 310.981 111.226 307.977 107.258 306.295C106.324 305.934 105.391 305.694 104.574 305.333C102.706 305.934 100.956 305.213 99.3217 304.612C96.7541 303.771 94.1865 302.81 91.7356 301.728C91.0353 301.368 90.335 301.128 89.8682 300.407C89.0512 299.325 89.2847 298.364 90.6852 298.364C96.1706 298.003 101.539 298.003 106.441 301.008C106.791 301.128 107.141 301.488 107.375 302.089Z" fill="#201C17"/>
<path d="M290.025 391.487C290.959 391.607 291.426 390.886 292.009 390.406C295.277 387.882 298.429 385.239 301.696 382.595C302.28 383.797 301.58 384.518 300.996 385.239C298.312 388.363 295.744 391.487 292.593 394.01C278.471 404.344 264.349 414.558 250.227 424.892C246.959 427.295 244.158 430.299 241.591 433.423C234.588 441.955 231.204 451.808 230.853 462.743C230.737 466.468 230.62 470.193 230.62 473.798C230.62 475 230.27 475.24 229.22 475.12C226.419 474.639 224.551 472.596 224.668 469.712C224.901 463.104 225.718 456.495 226.769 450.006C226.885 448.924 227.702 447.963 228.169 447.002C229.103 445.44 229.686 443.878 230.153 442.075C230.27 441.474 230.387 440.994 229.803 440.633C229.103 440.273 228.753 440.393 228.286 441.114C227.352 442.315 226.535 443.397 226.068 444.959C224.201 451.688 222.217 458.297 220.35 465.026C219.883 466.829 219.182 467.069 217.665 466.348C213.814 464.545 212.297 461.662 213.697 457.576C215.798 451.207 218.716 445.199 221.283 438.951C224.434 431.02 227.819 423.21 231.087 415.039C233.304 419.605 235.405 423.811 237.389 428.257C238.09 429.819 238.556 430.059 239.84 428.857C246.026 423.21 252.211 417.562 257.697 411.314C260.615 407.949 262.599 403.864 264.233 399.778C266.683 393.41 269.018 387.041 271.469 380.793C271.585 378.75 272.402 376.947 273.102 375.145C275.087 370.218 276.37 364.811 279.755 360.485C280.455 359.524 281.272 357.842 282.323 358.442C283.606 359.163 282.089 360.605 281.739 361.567C280.455 365.051 279.288 368.536 278.705 372.261C278.121 375.505 277.654 378.75 277.187 382.114C276.954 383.676 276.954 385.239 276.02 386.56C275.553 389.084 274.97 391.727 274.62 394.251C274.386 395.813 274.153 397.495 275.553 398.577C277.071 399.658 278.938 399.538 280.455 398.577C283.723 396.414 287.341 394.611 290.025 391.487Z" fill="#201C17"/>
<path d="M194.676 384.279C195.609 385.24 195.959 386.322 196.31 387.283C200.745 401.943 205.063 416.482 209.498 431.142C212.065 439.914 211.365 447.364 207.28 454.574C205.413 452.891 204.129 450.849 202.962 448.565C199.694 442.077 198.06 435.107 196.776 428.138C195.259 420.087 194.676 411.916 195.376 403.745C195.843 398.698 194.792 393.772 194.442 388.845C194.326 387.403 194.092 385.841 194.676 384.279Z" fill="#201C17"/>
<path d="M224.672 412.759C224.789 413.72 224.439 414.681 224.089 415.643C221.521 422.732 218.954 429.822 216.269 436.911C215.919 437.752 215.686 439.074 214.752 438.834C213.818 438.594 213.468 437.512 213.468 436.431C212.768 427.058 212.184 417.685 211.367 408.313C210.434 397.979 208.45 388.005 204.598 378.392C204.248 377.551 203.198 376.35 204.481 375.749C205.415 375.268 206.465 376.229 207.049 377.311C212.768 388.005 218.37 398.7 224.089 409.514C224.439 410.476 224.672 411.557 224.672 412.759Z" fill="#201C17"/>
<path d="M220.233 61.6441C217.432 48.7868 211.946 37.131 203.66 26.9172C203.31 26.4366 202.96 26.0761 202.726 25.5955C202.259 24.7543 201.793 24.7543 201.209 25.4753C197.941 29.5608 194.557 33.6463 192.222 38.3327C191.989 38.6931 191.639 39.0536 191.405 39.5343C180.901 58.64 177.867 79.0676 182.185 100.577C184.053 109.829 187.321 118.601 192.222 126.532C193.506 129.295 195.257 131.819 197.124 134.222C196.891 129.055 196.657 123.888 196.541 118.721C196.424 114.395 195.957 110.069 196.307 105.744C196.424 104.902 196.541 103.701 197.358 103.701C198.175 103.701 198.525 104.782 198.758 105.623C198.875 105.864 198.758 106.224 198.875 106.465C199.575 113.434 200.275 120.524 200.976 127.493C201.909 127.613 202.493 127.253 203.076 126.892C203.893 127.132 204.477 126.532 205.177 126.051C206.811 124.97 207.978 123.287 209.029 121.605C210.312 119.682 211.246 117.399 213.464 115.717C213.23 117.64 212.997 119.322 212.763 120.884C213.113 120.403 213.464 119.803 213.697 119.322C222.45 101.057 224.668 81.7112 220.233 61.6441Z" fill="url(#paint0_linear)"/>
<path d="M275.438 39.6535C272.87 27.0365 267.851 15.6211 259.915 5.52745C258.982 3.36454 256.997 1.92259 255.83 0C255.714 0 255.597 0 255.364 0C255.13 0.360486 254.78 0.841135 254.547 1.20162C250.462 6.36859 246.844 11.7759 244.043 17.784C243.693 18.505 243.226 19.2259 242.876 19.9469C233.772 40.7349 232.605 61.8835 239.374 83.5127C242.059 92.1643 246.027 100.215 251.512 107.305C251.279 105.262 250.462 103.46 249.645 101.657C246.26 94.4474 242.292 87.3578 240.074 79.5473C239.608 77.7449 239.608 76.4231 240.891 75.2215C242.175 75.8223 242.525 77.1441 243.459 77.9852C243.459 78.8263 243.926 79.4271 244.393 80.1481C245.56 81.8304 246.96 83.3925 248.244 84.9546C250.578 87.8385 252.796 90.8425 255.247 93.7264C256.414 95.1684 257.581 95.2885 258.281 93.9668C259.098 92.4046 260.032 90.9627 259.798 89.0401C261.316 86.2764 262.249 83.2723 263.533 80.3884C264 79.4271 264.35 79.4271 264.934 80.1481C266.918 82.4312 268.085 85.0748 268.202 88.199C268.318 91.203 267.968 94.0869 267.851 97.091C268.085 96.7305 268.435 96.2498 268.668 95.8894C277.072 77.9852 279.406 59.2399 275.438 39.6535Z" fill="url(#paint1_linear)"/>
<path d="M36.6482 141.193C39.5659 146.841 42.8338 152.128 47.1521 156.814C53.8045 165.105 61.7408 171.594 70.9609 176.641C73.5285 178.323 76.3296 179.405 79.0139 180.727C79.4807 180.967 80.4144 180.727 80.2977 181.688C84.3826 182.289 88.5841 183.01 92.669 183.61C95.0032 183.971 97.2206 184.572 99.6716 184.452C101.772 184.331 102.356 183.49 101.772 181.448C101.072 179.044 100.022 176.761 98.8546 174.598C95.7034 168.951 91.2684 164.264 87.3003 159.218C84.2658 155.372 81.2314 151.527 78.1969 147.562C77.7301 146.961 77.0298 146 77.8468 145.279C78.6638 144.558 79.364 145.519 79.9476 146C82.7486 148.523 85.5497 151.046 88.3507 153.57C90.5682 156.213 92.7857 158.977 95.0032 161.621C98.6212 166.187 101.422 171.234 104.573 176.16C102.473 163.543 97.6875 152.128 90.3348 141.914C85.3162 134.224 78.7805 128.095 71.5444 122.688C64.3084 116.92 56.2554 112.835 47.6189 110.191C41.7834 107.908 35.5978 107.187 29.4121 106.346C27.4281 106.106 27.0779 106.827 27.3114 108.629C28.3617 120.285 31.3962 131.1 36.6482 141.193Z" fill="url(#paint2_linear)"/>
<path d="M260.726 216.17C255.007 217.612 249.522 219.535 244.503 222.899C239.368 225.663 234.933 229.388 231.198 233.954C227.347 237.919 224.429 242.486 221.978 247.532C217.31 256.905 215.443 266.999 215.909 277.453C215.909 278.414 215.909 279.135 217.31 278.775C222.328 277.573 227.23 275.891 231.665 273.127C236.567 270.363 241.236 267.359 244.97 263.033C257.342 250.416 262.71 235.036 262.01 217.252C262.01 216.05 261.543 215.93 260.726 216.17Z" fill="url(#paint3_linear)"/>
<path d="M51.2357 224.584C52.5195 224.704 53.6866 224.824 54.9704 224.944C59.8722 225.185 59.8722 225.185 58.7051 220.378C56.1375 209.684 51.119 200.311 43.2994 192.621C38.3976 187.454 32.7955 183.368 26.2597 180.605C21.3579 178.081 16.2227 176.639 10.854 176.038C7.23602 175.317 3.61801 175.317 0 175.558C0 175.798 0 176.159 0 176.399C0.11671 176.759 0.35013 177.12 0.35013 177.601C2.91775 190.338 8.86996 201.032 18.2068 209.804C19.0237 210.525 19.9574 211.366 20.7744 212.087C25.0926 215.572 29.6443 218.576 34.7796 220.498C40.1482 222.781 45.6336 223.983 51.2357 224.584Z" fill="url(#paint4_linear)"/>
<path d="M343.008 299.922C342.775 300.282 342.424 300.763 342.191 301.124C338.223 308.814 336.122 317.105 335.539 325.877C335.188 331.765 335.889 337.533 337.172 343.3C337.523 344.742 338.106 345.103 339.39 344.382C340.791 343.541 342.424 343.06 343.708 341.979C348.027 339.696 351.995 336.691 355.379 333.087C361.098 327.679 365.3 321.311 368.334 313.981C373.469 301.724 374.52 288.987 371.369 276.01C371.135 275.169 371.252 273.967 369.618 274.688C364.133 277.331 358.881 280.576 354.446 285.022C349.777 289.107 346.042 294.154 343.008 299.922Z" fill="url(#paint5_linear)"/>
<path d="M68.7422 273.85C71.4265 274.09 74.1108 273.85 76.7952 273.489C82.6307 272.648 88.2328 271.206 93.4847 268.443C89.75 267.722 86.0153 268.082 82.2805 267.962C76.0949 267.722 72.2435 264.237 72.1268 258.71C72.9437 258.469 73.4106 259.551 74.2276 259.551C74.8111 260.272 75.6281 260.512 76.3283 260.873C81.5803 263.035 87.0657 263.516 92.551 263.396C89.2831 258.95 85.315 255.465 80.9967 252.221C75.9782 248.496 70.4928 246.093 64.6573 244.17C58.2383 241.767 51.4691 241.166 44.6999 241.647C39.448 241.767 34.3127 242.848 29.2942 244.651C26.96 245.252 24.9759 246.333 22.7585 247.294C21.5914 247.775 21.7081 248.256 22.4083 249.217C23.9256 251.38 25.5595 253.543 27.4269 255.465C33.2624 261.714 40.0315 266.76 48.0845 269.764C54.6203 272.408 61.5062 273.97 68.7422 273.85Z" fill="url(#paint6_linear)"/>
<path d="M107.719 299.083C98.6161 293.796 88.8124 291.032 78.3085 291.393C70.6057 291.152 63.2529 292.835 56.2503 296.079C47.4971 299.684 40.3778 305.452 34.4255 312.782C33.6086 313.743 34.1921 313.983 34.8924 314.464C41.7783 318.549 49.131 321.193 57.0673 322.034C64.7701 322.995 72.2396 322.515 79.5923 319.991C89.1625 317.228 97.449 312.301 104.452 305.091C100.017 304.37 95.815 302.568 91.7302 300.885C90.7965 300.525 89.9795 300.044 89.7461 298.843C96.7487 298.482 100.834 298.242 107.486 302.087C107.719 301.126 110.054 300.525 107.719 299.083Z" fill="url(#paint7_linear)"/>
<path d="M185.449 359.045C180.08 353.158 173.545 348.952 166.425 345.707C159.656 342.463 152.653 340.901 145.184 341.021C136.197 340.42 127.678 342.463 119.391 346.308C121.025 349.312 123.009 351.956 125.227 354.479C130.829 360.848 137.364 366.015 145.184 369.259C152.187 372.624 159.539 374.186 167.242 374.306C167.826 374.306 168.409 374.306 168.876 374.306C170.393 374.306 172.027 374.546 173.545 373.946C179.847 373.585 185.916 371.783 191.751 369.259C192.918 368.779 192.568 368.298 192.101 367.577C190.001 364.573 187.9 361.809 185.449 359.045Z" fill="url(#paint8_linear)"/>
<path d="M290.725 379.112C296.211 376.589 300.879 372.744 305.314 368.658C307.532 366.616 309.866 364.693 311.5 361.929C311.85 361.088 312.784 360.728 313.367 360.007C320.253 351.355 325.738 341.862 328.89 331.048C333.091 318.431 333.908 305.453 332.157 292.235C332.041 291.274 331.574 291.154 330.757 291.394C327.256 292.596 323.754 293.677 320.603 295.48C312.9 298.724 306.014 303.41 299.829 309.178C291.542 316.388 285.123 324.919 280.338 334.893C279.871 335.734 279.404 336.455 279.054 337.296C272.752 350.995 270.301 365.414 271.351 380.554C273.335 375.387 275.436 370.1 277.42 364.933C278.471 362.17 280.338 359.646 282.322 358.324C280.221 362.65 278.704 366.976 278.121 371.662C276.837 376.349 276.603 381.275 275.786 386.082C277.654 385.361 279.638 384.52 281.505 383.799C284.656 382.357 288.041 381.516 290.725 379.112Z" fill="url(#paint9_linear)"/>
<path d="M103.172 213.888C96.7532 211.605 90.3342 211.125 83.6817 212.206C77.6128 212.687 72.2441 214.97 66.9922 217.974C66.1752 218.455 66.2919 218.815 66.7588 219.416C72.3609 226.145 79.0133 231.192 87.2997 233.715C93.7188 235.998 100.138 236.839 106.907 235.758C111.926 235.397 116.594 233.955 121.029 231.552C117.294 229.269 113.676 226.866 110.292 224.102C109.825 223.622 108.658 223.501 109.124 222.42C109.475 221.459 110.408 221.819 111.109 221.819C112.392 221.819 113.559 221.819 114.843 222.059C116.127 222.3 116.711 222.18 117.644 221.699C113.443 218.094 108.541 215.691 103.172 213.888Z" fill="url(#paint10_linear)"/>
<path d="M161.764 424.174C162.23 426.937 162.814 429.701 163.748 432.345C163.631 424.174 161.53 416.604 157.562 409.634C154.761 403.986 150.91 399.3 146.008 395.335C142.74 392.211 138.888 390.048 134.804 388.125C134.22 387.885 133.637 387.644 133.403 388.606C131.769 395.215 131.186 401.824 132.353 408.553C132.353 408.913 132.353 409.274 132.586 409.634C133.403 415.642 135.27 421.17 138.305 426.337C141.106 431.744 144.841 436.43 149.509 440.155C152.31 442.799 155.461 444.721 158.729 446.524C161.764 448.086 161.764 448.086 162.464 444.842C162.581 444.241 162.814 443.64 163.047 443.039C162.347 438.473 161.764 433.907 161.063 429.341C161.063 428.86 161.063 428.5 161.063 428.019C161.647 426.697 160.947 425.255 161.764 424.174Z" fill="url(#paint11_linear)"/>
<path d="M148.924 143.833C153.709 149.962 159.544 154.768 166.43 158.373C170.749 160.776 175.3 162.459 180.085 163.66C181.603 164.021 181.719 163.54 181.719 162.338C181.836 159.094 181.719 155.85 181.369 152.605C179.969 140.229 175.3 129.294 167.247 119.921C162.462 114.033 156.627 109.467 149.858 106.223C145.539 103.699 140.754 102.257 135.736 101.176C135.269 106.703 135.502 112.111 136.553 117.398C138.42 127.131 142.388 136.143 148.924 143.833Z" fill="url(#paint12_linear)"/>
<path d="M391.448 351.113C385.613 349.19 379.777 347.388 373.592 346.907C372.074 346.307 370.44 346.427 368.923 346.307C357.836 345.586 346.982 347.028 336.595 350.873C316.054 358.203 300.648 371.781 290.261 391.367C291.428 391.968 292.011 391.007 292.712 390.526C295.629 388.484 298.197 385.84 301.348 383.917C299.131 386.921 296.68 389.805 293.879 392.449C293.412 392.93 292.712 393.17 292.712 394.131C292.945 394.251 293.179 394.372 293.412 394.492C303.449 397.736 313.603 398.938 324.107 398.217C328.775 397.856 333.443 397.376 337.878 395.813C340.913 395.333 343.831 394.251 346.748 393.17C356.552 389.445 365.539 384.278 373.241 376.948C374.759 375.987 375.926 374.545 377.21 373.223C383.045 367.215 387.947 360.486 391.798 352.916C392.148 352.435 392.965 351.594 391.448 351.113Z" fill="url(#paint13_linear)"/>
<path d="M84.9647 90.6005C92.2007 101.175 102.004 108.264 113.909 112.35C114.726 112.59 115.426 112.59 115.543 111.509C113.792 109.105 111.575 107.303 108.89 105.981C105.272 104.299 101.654 102.497 98.0362 100.694C97.4526 100.334 96.519 100.213 96.2855 99.4925C97.2192 98.7715 98.503 99.0119 99.4367 98.411C101.187 98.411 102.821 98.0506 104.455 97.5699C107.023 96.7288 107.723 95.407 107.023 92.7634C106.439 90.961 105.856 89.2787 105.155 87.5965C104.805 86.6352 104.339 85.3134 105.389 84.7126C106.323 84.1118 107.256 85.0731 108.073 85.794C110.758 88.3174 112.975 91.3215 115.309 94.2054C115.193 93.3642 115.193 92.5231 115.076 91.682C112.858 80.2666 107.84 70.4133 100.02 62.0019C95.9354 57.3156 91.267 53.7108 85.7817 50.947C82.8639 48.9043 79.4793 47.8228 76.2115 46.6212C74.8109 46.1405 74.5775 46.6212 74.4608 47.8228C73.6438 53.4704 73.7605 59.2382 74.5775 64.8858C75.978 74.2585 79.2459 82.9101 84.9647 90.6005Z" fill="url(#paint14_linear)"/>
<path d="M410.818 191.777C416.303 189.854 421.205 186.49 426.924 184.928C423.423 189.854 418.754 193.339 413.852 196.343C415.253 196.824 416.537 197.424 417.937 197.785C423.423 199.347 429.025 200.308 434.86 199.828C435.094 199.828 435.327 199.828 435.56 199.828C441.513 199.828 447.348 198.626 452.95 196.343C454.234 195.862 455.401 195.502 456.568 195.021C466.955 190.335 475.242 183.125 481.544 173.392C482.011 172.671 482.711 172.19 481.311 171.59C471.974 167.504 462.17 165.581 452.016 167.023C445.597 167.504 439.529 169.306 433.693 172.19C424.239 176.396 416.537 183.005 410.818 191.777Z" fill="url(#paint15_linear)"/>
<path d="M151.374 88.5596C153.825 93.366 156.976 97.812 160.944 101.417C161.878 103.219 162.578 102.619 163.512 101.177C173.432 85.4353 175.883 68.6127 170.748 50.5883C168.88 44.0996 166.079 37.9713 161.761 32.8044C160.244 29.8003 157.676 27.6374 155.575 25.2341C154.875 24.5132 154.525 24.7535 154.175 25.4745C153.241 27.0366 152.074 28.4785 151.374 30.1608C151.14 30.5213 150.907 30.7616 150.673 31.1221C144.604 42.7778 142.62 55.2747 144.488 68.2522C145.538 75.5821 147.639 82.4313 151.374 88.5596Z" fill="url(#paint16_linear)"/>
<path d="M286.988 89.1586C287.455 85.4336 288.155 81.8287 290.256 78.344C292.94 81.4682 295.041 84.5924 294.107 89.0384C293.29 92.8836 293.29 96.7288 295.624 100.213C296.091 100.934 296.558 101.415 297.375 100.814C299.359 99.6127 301.343 98.5312 303.21 97.3296C306.128 95.5271 306.128 95.5271 306.362 99.132C307.529 98.5312 307.996 97.3296 308.462 96.128C309.513 94.2054 310.797 92.4029 311.73 90.3602C319.433 73.2972 319.667 56.114 311.964 38.9309C310.213 35.0857 310.913 34.7252 307.295 37.9696C303.094 41.214 299.709 45.1793 296.791 49.7455C296.558 49.9858 296.325 50.2261 296.091 50.5866C291.656 57.4358 288.738 65.006 287.338 73.177C286.521 78.5843 286.054 83.8714 286.988 89.1586Z" fill="url(#paint17_linear)"/>
<path d="M490.879 277.217C490.178 274.934 489.478 272.65 488.661 270.367C486.677 264.96 483.876 259.913 480.258 255.467C474.773 247.897 467.77 242.249 459.367 238.404C451.43 234.198 442.91 232.636 434.04 232.756C438.125 237.443 441.043 242.73 441.627 249.219C441.743 250.661 441.627 251.982 440.576 253.064C439.526 251.742 439.059 250.3 438.592 248.738C437.075 243.09 433.924 238.644 429.489 235.16C429.605 235.76 429.722 236.361 429.956 236.962C433.224 247.777 438.826 257.149 447.345 264.479C448.396 265.441 449.446 266.402 450.497 267.243C456.449 271.809 462.868 275.294 470.221 276.976C476.64 279.139 483.292 279.259 489.945 279.019C491.229 278.899 491.229 278.178 490.879 277.217Z" fill="url(#paint18_linear)"/>
<path d="M219.3 198.509C222.101 207.041 227.586 213.41 235.172 217.856C236.106 218.336 236.456 218.096 236.689 217.255C237.506 214.611 238.207 211.968 238.323 209.204C238.674 204.397 238.557 199.591 236.923 195.025C234.122 185.292 228.17 178.322 219.533 173.275C218.599 176.039 217.782 178.563 217.666 181.326C216.499 187.214 217.199 192.982 219.3 198.509Z" fill="url(#paint19_linear)"/>
<path d="M410.816 154.169C412.1 156.092 413.384 157.894 413.034 160.417C416.302 158.134 419.336 155.611 421.787 152.367C422.954 150.925 424.238 149.603 425.405 148.041C429.49 142.633 432.408 136.625 434.392 130.137C438.243 117.159 438.01 104.302 433.458 91.5646C432.991 90.2428 432.524 89.8823 431.357 90.7235C427.622 93.1267 424.004 95.7703 420.853 99.0147C416.768 102.74 413.501 107.186 410.816 112.232C406.498 119.442 404.397 127.253 403.347 135.544C401.129 135.544 398.912 135.183 396.811 135.904C392.026 136.145 387.708 137.947 383.506 140.35C376.737 144.316 371.835 149.963 368.801 157.293C371.485 157.534 374.169 156.813 376.854 157.774C377.087 158.976 376.387 159.336 375.453 159.696C373.703 160.417 371.718 160.898 370.085 161.98C371.018 162.941 372.185 163.061 373.352 162.941C378.604 162.58 383.74 161.619 388.525 159.216C389.225 158.855 390.042 158.495 390.392 157.654C390.392 157.534 390.392 157.534 390.392 157.413C390.742 157.534 391.092 157.413 391.442 157.293C395.877 154.77 399.612 151.525 402.413 147.079C402.53 146.839 402.647 146.599 402.763 146.479C403.23 148.762 403.23 151.165 403.814 153.448C404.047 154.409 404.047 155.491 404.981 156.092C405.798 154.289 406.731 152.487 407.665 150.444C408.599 151.886 409.649 153.088 410.816 154.169Z" fill="url(#paint20_linear)"/>
<path d="M326.904 95.4086C328.655 104.06 332.623 111.39 339.392 117.038C339.509 116.437 339.275 115.956 339.042 115.355C337.991 112.231 337.058 108.987 336.007 105.863C335.657 104.781 335.774 103.459 336.591 102.979C337.408 102.618 338.225 103.7 338.808 104.421C339.275 105.021 339.509 105.742 339.859 106.463C341.026 109.107 342.31 111.751 343.477 114.274C344.994 111.27 345.578 108.026 345.928 104.661C346.278 100.576 346.394 96.49 345.227 92.5247C344.994 91.4432 344.644 90.4819 344.41 89.4005C342.426 81.4698 337.875 75.3416 331.689 70.2948C330.872 69.5738 330.522 69.9343 330.172 70.7754C329.355 72.5778 328.421 74.2601 328.071 76.3029C326.904 79.1867 326.437 82.1908 326.437 85.1948C326.32 85.5553 326.32 85.9158 326.32 86.2763C325.854 89.5206 326.32 92.4045 326.904 95.4086Z" fill="url(#paint21_linear)"/>
<path d="M401.605 64.0461C402.772 65.0074 403.239 66.4493 403.355 67.8912C403.822 73.2985 401.605 77.6244 397.753 81.1091C397.987 81.4696 398.337 81.83 398.454 82.1905C399.154 83.8728 399.854 83.7526 401.021 82.551C403.005 80.6284 404.873 78.7058 406.39 76.4228C415.96 62.1235 416.777 47.2234 408.957 31.8426C408.14 30.2805 407.557 30.2805 406.506 31.4822C404.639 33.5249 402.655 35.3273 401.138 37.7306C397.987 41.6959 395.886 46.2621 394.719 51.0686C392.735 58.5186 392.501 65.9687 394.952 73.4187C397.17 70.2945 399.387 67.1703 401.605 64.0461Z" fill="url(#paint22_linear)"/>
<path d="M245.44 161.619C245.323 148.761 239.838 139.389 228.517 133.741C225.133 132.059 225.133 132.179 225.016 135.904C224.899 136.024 224.899 136.144 224.899 136.264C224.316 139.148 224.782 142.032 225.483 144.796C227.117 151.645 230.268 157.533 235.987 161.739C233.769 157.173 233.186 152.486 234.586 147.56C235.17 146.719 235.52 146.959 236.103 147.68C237.27 149.482 238.437 151.285 239.138 153.448C240.422 156.812 242.172 159.816 245.44 161.619Z" fill="url(#paint23_linear)"/>
<path d="M441.517 277.335C440.116 273.37 438.015 269.765 435.331 266.641C428.328 257.628 419.108 252.582 407.904 251.26C408.137 251.5 408.488 251.861 408.838 252.101C412.572 255.345 416.541 258.229 420.625 261.113C421.442 261.714 422.143 262.555 421.793 263.396C421.442 264.357 420.275 264.237 419.342 263.997C417.474 263.516 415.724 262.795 414.09 261.594C411.289 259.551 408.371 257.628 405.57 255.586C405.687 256.186 405.803 256.667 405.92 257.268C407.787 264.598 410.938 271.207 416.19 276.494C419.225 280.099 422.843 282.862 427.044 284.905C432.063 287.789 437.548 289.111 443.15 289.591C444.201 289.712 444.434 289.471 444.318 288.27C443.734 284.545 443.034 280.82 441.517 277.335Z" fill="url(#paint24_linear)"/>
<path d="M120.793 197.065C119.626 197.185 119.509 197.666 119.859 198.627C121.96 204.635 125.345 209.442 130.597 212.686C134.448 215.33 138.766 216.651 143.435 216.772C142.618 215.57 141.684 214.609 140.517 213.768C139.116 212.686 140.517 212.085 140.867 211.364C141.217 210.523 141.684 210.283 142.618 210.884C144.018 211.845 145.185 213.167 146.819 213.888C147.053 213.047 146.469 212.446 146.119 211.725C142.968 205.236 138.066 200.79 131.414 198.387C128.146 196.945 124.528 196.825 120.793 197.065Z" fill="url(#paint25_linear)"/>
<path d="M203.89 219.656C200.739 220.978 198.988 223.742 199.338 226.866C199.688 229.99 202.022 232.393 205.174 232.754C207.158 233.114 209.025 232.513 210.542 231.071C212.76 228.908 213.343 225.664 211.943 222.9C210.309 220.017 207.508 218.815 203.89 219.656Z" fill="url(#paint26_linear)"/>
<path d="M435.795 146.958C434.744 149.481 435.328 152.485 437.195 154.408C439.179 156.451 441.863 156.931 444.548 155.73C447.582 154.048 448.749 151.885 448.399 148.76C447.932 145.276 445.832 143.473 442.564 142.993C439.179 142.752 436.845 144.194 435.795 146.958Z" fill="url(#paint27_linear)"/>
<path d="M43.0616 290.189C45.0457 289.348 46.2128 287.785 46.6796 285.743C47.4966 282.138 46.0961 279.855 42.0112 277.692C39.2102 276.73 36.2925 277.812 34.6585 280.335C33.1413 282.739 33.258 286.223 35.1254 288.386C37.2261 290.91 40.1439 291.51 43.0616 290.189Z" fill="url(#paint28_linear)"/>
<path d="M173.551 183.247C176.469 181.685 177.752 179.282 177.169 176.037C176.702 173.153 175.068 171.351 172.267 170.75C169.466 170.029 166.665 171.111 165.148 173.634C163.63 176.157 163.981 179.642 165.848 181.805C167.949 183.968 170.75 184.569 173.551 183.247Z" fill="url(#paint29_linear)"/>
<path d="M363.432 60.8024C366.7 59.1201 368.101 56.4765 367.517 53.1119C366.934 50.228 364.6 48.1853 361.332 47.9449C358.414 47.8248 356.196 49.2667 355.029 51.7902C353.979 54.3136 354.446 57.3176 356.313 59.2402C358.297 61.4032 360.748 61.8838 363.432 60.8024Z" fill="url(#paint30_linear)"/>
<path d="M123.599 60.8008C124.416 60.3201 125.233 60.0798 125.816 59.3588C127.567 57.3161 128.15 55.033 127.333 52.5095C126.283 49.5055 124.065 48.1837 121.148 47.9434C118.23 47.9434 116.012 49.3853 114.962 52.0289C113.912 54.5523 114.495 57.5564 116.363 59.479C118.347 61.4016 120.914 61.8822 123.599 60.8008Z" fill="url(#paint31_linear)"/>
<path d="M167.6 282.14C166.549 278.535 162.931 276.612 159.43 277.694C155.812 278.775 153.944 282.26 154.878 285.985C155.695 289.229 158.73 291.152 161.881 290.671C162.114 290.671 162.464 290.551 162.815 290.551C166.549 289.59 168.65 285.865 167.6 282.14Z" fill="url(#paint32_linear)"/>
<path d="M50.8821 97.089C51.349 96.8487 51.6991 96.6084 52.166 96.4882C55.0837 95.7672 56.3675 91.6817 55.784 89.2785C55.0837 86.0341 52.5161 83.9913 49.2482 83.9913C46.3304 83.8712 44.3464 85.4333 43.296 87.9567C42.1289 90.6003 42.5957 93.1237 44.4631 95.2866C46.097 97.089 48.1978 98.0503 50.8821 97.089Z" fill="url(#paint33_linear)"/>
<path d="M114.023 165.945C112.389 168.348 112.389 171.472 114.023 173.875C115.657 176.158 118.458 177.12 121.142 176.279C124.41 175.077 126.161 172.674 126.044 169.67C125.927 166.666 124.06 164.262 121.142 163.421C118.341 162.58 115.657 163.541 114.023 165.945Z" fill="url(#paint34_linear)"/>
<path d="M226.306 17.0726C230.157 15.7508 232.025 12.9871 231.441 9.62257C230.858 6.01772 228.29 3.85481 224.672 3.97497C220.704 4.09514 218.019 7.3395 218.486 11.5452C218.72 15.2702 222.221 17.7936 226.306 17.0726Z" fill="url(#paint35_linear)"/>
<path d="M286.526 37.2509C290.261 36.8904 292.945 33.7662 292.595 30.0411C292.128 25.8355 288.861 23.3121 284.426 24.033C280.808 25.1145 278.823 28.1186 279.407 31.8436C280.107 35.3283 282.908 37.4912 286.526 37.2509Z" fill="url(#paint36_linear)"/>
<path d="M25.5591 164.021C29.4105 162.939 31.5113 159.334 30.3442 155.489C29.2938 151.884 25.6758 149.962 22.1745 151.163C18.5565 152.245 16.6891 155.729 17.6228 159.454C18.6732 162.819 22.0578 164.862 25.5591 164.021Z" fill="url(#paint37_linear)"/>
<path d="M228.754 113.794C226.069 113.314 223.502 114.395 222.101 116.798C220.701 119.202 220.934 122.566 222.685 124.729C224.552 126.892 227.236 127.613 229.921 126.652C232.372 125.931 233.655 124.128 234.122 121.725C234.939 117.88 233.305 115.357 228.754 113.794Z" fill="url(#paint38_linear)"/>
<path d="M308.579 135.664C305.661 135.664 303.444 137.106 302.393 139.75C301.343 142.273 301.927 145.277 303.911 147.2C305.895 149.242 308.462 149.603 311.147 148.521C314.414 146.839 315.698 144.196 314.998 140.951C314.181 137.707 311.847 135.784 308.579 135.664Z" fill="url(#paint39_linear)"/>
<path d="M460.653 204.994C457.619 204.874 455.285 206.196 454.118 208.719C452.951 211.243 453.534 214.367 455.402 216.41C457.386 218.453 460.07 218.933 462.754 217.732C465.672 216.29 467.073 213.766 466.722 210.762C466.256 207.518 464.155 205.595 460.653 204.994Z" fill="url(#paint40_linear)"/>
<path d="M340.676 193.101C339.159 195.505 339.276 198.749 340.909 201.032C342.66 203.315 345.344 204.156 348.029 203.195C351.18 201.993 352.697 199.83 352.697 196.826C352.697 193.582 351.063 191.539 347.562 190.337C344.994 189.617 342.193 190.698 340.676 193.101Z" fill="url(#paint41_linear)"/>
<defs>
<linearGradient id="paint0_linear" x1="180.206" y1="79.6611" x2="222.457" y2="79.6611" gradientUnits="userSpaceOnUse">
<stop stop-color="#97C15A"/>
<stop offset="1" stop-color="#405C40"/>
</linearGradient>
<linearGradient id="paint1_linear" x1="235.057" y1="53.6887" x2="277.336" y2="53.6887" gradientUnits="userSpaceOnUse">
<stop stop-color="#97C15A"/>
<stop offset="1" stop-color="#405C40"/>
</linearGradient>
<linearGradient id="paint2_linear" x1="27.1652" y1="145.444" x2="104.526" y2="145.444" gradientUnits="userSpaceOnUse">
<stop stop-color="#97C15A"/>
<stop offset="1" stop-color="#405C40"/>
</linearGradient>
<linearGradient id="paint3_linear" x1="215.827" y1="247.404" x2="262.096" y2="247.404" gradientUnits="userSpaceOnUse">
<stop stop-color="#97C15A"/>
<stop offset="1" stop-color="#405C40"/>
</linearGradient>
<linearGradient id="paint4_linear" x1="0.150089" y1="200.135" x2="59.3526" y2="200.135" gradientUnits="userSpaceOnUse">
<stop stop-color="#97C15A"/>
<stop offset="1" stop-color="#405C40"/>
</linearGradient>
<linearGradient id="paint5_linear" x1="335.592" y1="309.567" x2="373.305" y2="309.567" gradientUnits="userSpaceOnUse">
<stop stop-color="#97C15A"/>
<stop offset="1" stop-color="#405C40"/>
</linearGradient>
<linearGradient id="paint6_linear" x1="21.8736" y1="257.559" x2="93.4429" y2="257.559" gradientUnits="userSpaceOnUse">
<stop stop-color="#97C15A"/>
<stop offset="1" stop-color="#405C40"/>
</linearGradient>
<linearGradient id="paint7_linear" x1="34.029" y1="306.989" x2="108.742" y2="306.989" gradientUnits="userSpaceOnUse">
<stop stop-color="#97C15A"/>
<stop offset="1" stop-color="#405C40"/>
</linearGradient>
<linearGradient id="paint8_linear" x1="119.447" y1="357.661" x2="192.457" y2="357.661" gradientUnits="userSpaceOnUse">
<stop stop-color="#97C15A"/>
<stop offset="1" stop-color="#405C40"/>
</linearGradient>
<linearGradient id="paint9_linear" x1="271.109" y1="338.889" x2="333.025" y2="338.889" gradientUnits="userSpaceOnUse">
<stop stop-color="#97C15A"/>
<stop offset="1" stop-color="#405C40"/>
</linearGradient>
<linearGradient id="paint10_linear" x1="66.4155" y1="223.95" x2="121.081" y2="223.95" gradientUnits="userSpaceOnUse">
<stop stop-color="#97C15A"/>
<stop offset="1" stop-color="#405C40"/>
</linearGradient>
<linearGradient id="paint11_linear" x1="131.889" y1="417.545" x2="163.824" y2="417.545" gradientUnits="userSpaceOnUse">
<stop stop-color="#97C15A"/>
<stop offset="1" stop-color="#405C40"/>
</linearGradient>
<linearGradient id="paint12_linear" x1="135.444" y1="132.371" x2="181.746" y2="132.371" gradientUnits="userSpaceOnUse">
<stop stop-color="#97C15A"/>
<stop offset="1" stop-color="#405C40"/>
</linearGradient>
<linearGradient id="paint13_linear" x1="290.053" y1="372.342" x2="392.325" y2="372.342" gradientUnits="userSpaceOnUse">
<stop stop-color="#97C15A"/>
<stop offset="1" stop-color="#405C40"/>
</linearGradient>
<linearGradient id="paint14_linear" x1="73.9066" y1="79.429" x2="115.578" y2="79.429" gradientUnits="userSpaceOnUse">
<stop stop-color="#97C15A"/>
<stop offset="1" stop-color="#405C40"/>
</linearGradient>
<linearGradient id="paint15_linear" x1="410.795" y1="183.241" x2="482.04" y2="183.241" gradientUnits="userSpaceOnUse">
<stop stop-color="#97C15A"/>
<stop offset="1" stop-color="#405C40"/>
</linearGradient>
<linearGradient id="paint16_linear" x1="143.835" y1="63.7754" x2="173.374" y2="63.7754" gradientUnits="userSpaceOnUse">
<stop stop-color="#97C15A"/>
<stop offset="1" stop-color="#405C40"/>
</linearGradient>
<linearGradient id="paint17_linear" x1="286.458" y1="68.4863" x2="317.678" y2="68.4863" gradientUnits="userSpaceOnUse">
<stop stop-color="#97C15A"/>
<stop offset="1" stop-color="#405C40"/>
</linearGradient>
<linearGradient id="paint18_linear" x1="429.561" y1="255.84" x2="491.045" y2="255.84" gradientUnits="userSpaceOnUse">
<stop stop-color="#97C15A"/>
<stop offset="1" stop-color="#405C40"/>
</linearGradient>
<linearGradient id="paint19_linear" x1="217.048" y1="195.773" x2="238.378" y2="195.773" gradientUnits="userSpaceOnUse">
<stop stop-color="#97C15A"/>
<stop offset="1" stop-color="#405C40"/>
</linearGradient>
<linearGradient id="paint20_linear" x1="368.652" y1="126.753" x2="436.996" y2="126.753" gradientUnits="userSpaceOnUse">
<stop stop-color="#97C15A"/>
<stop offset="1" stop-color="#405C40"/>
</linearGradient>
<linearGradient id="paint21_linear" x1="326.069" y1="93.5802" x2="346.117" y2="93.5802" gradientUnits="userSpaceOnUse">
<stop stop-color="#97C15A"/>
<stop offset="1" stop-color="#405C40"/>
</linearGradient>
<linearGradient id="paint22_linear" x1="393.228" y1="56.9946" x2="414.314" y2="56.9946" gradientUnits="userSpaceOnUse">
<stop stop-color="#97C15A"/>
<stop offset="1" stop-color="#405C40"/>
</linearGradient>
<linearGradient id="paint23_linear" x1="224.654" y1="147.275" x2="245.394" y2="147.275" gradientUnits="userSpaceOnUse">
<stop stop-color="#97C15A"/>
<stop offset="1" stop-color="#405C40"/>
</linearGradient>
<linearGradient id="paint24_linear" x1="405.493" y1="270.443" x2="444.347" y2="270.443" gradientUnits="userSpaceOnUse">
<stop stop-color="#97C15A"/>
<stop offset="1" stop-color="#405C40"/>
</linearGradient>
<linearGradient id="paint25_linear" x1="119.69" y1="206.886" x2="146.924" y2="206.886" gradientUnits="userSpaceOnUse">
<stop stop-color="#97C15A"/>
<stop offset="1" stop-color="#405C40"/>
</linearGradient>
<linearGradient id="paint26_linear" x1="199.232" y1="226.104" x2="212.531" y2="226.104" gradientUnits="userSpaceOnUse">
<stop stop-color="#97C15A"/>
<stop offset="1" stop-color="#405C40"/>
</linearGradient>
<linearGradient id="paint27_linear" x1="435.213" y1="149.698" x2="448.365" y2="149.698" gradientUnits="userSpaceOnUse">
<stop stop-color="#97C15A"/>
<stop offset="1" stop-color="#405C40"/>
</linearGradient>
<linearGradient id="paint28_linear" x1="33.7572" y1="284.113" x2="46.9532" y2="284.113" gradientUnits="userSpaceOnUse">
<stop stop-color="#97C15A"/>
<stop offset="1" stop-color="#405C40"/>
</linearGradient>
<linearGradient id="paint29_linear" x1="164.238" y1="177.182" x2="177.374" y2="177.182" gradientUnits="userSpaceOnUse">
<stop stop-color="#97C15A"/>
<stop offset="1" stop-color="#405C40"/>
</linearGradient>
<linearGradient id="paint30_linear" x1="354.479" y1="54.6326" x2="367.686" y2="54.6326" gradientUnits="userSpaceOnUse">
<stop stop-color="#97C15A"/>
<stop offset="1" stop-color="#405C40"/>
</linearGradient>
<linearGradient id="paint31_linear" x1="114.45" y1="54.6359" x2="127.689" y2="54.6359" gradientUnits="userSpaceOnUse">
<stop stop-color="#97C15A"/>
<stop offset="1" stop-color="#405C40"/>
</linearGradient>
<linearGradient id="paint32_linear" x1="154.583" y1="284.107" x2="167.847" y2="284.107" gradientUnits="userSpaceOnUse">
<stop stop-color="#97C15A"/>
<stop offset="1" stop-color="#405C40"/>
</linearGradient>
<linearGradient id="paint33_linear" x1="42.5621" y1="90.6947" x2="55.86" y2="90.6947" gradientUnits="userSpaceOnUse">
<stop stop-color="#97C15A"/>
<stop offset="1" stop-color="#405C40"/>
</linearGradient>
<linearGradient id="paint34_linear" x1="112.796" y1="169.873" x2="126.045" y2="169.873" gradientUnits="userSpaceOnUse">
<stop stop-color="#97C15A"/>
<stop offset="1" stop-color="#405C40"/>
</linearGradient>
<linearGradient id="paint35_linear" x1="218.316" y1="10.4995" x2="231.504" y2="10.4995" gradientUnits="userSpaceOnUse">
<stop stop-color="#97C15A"/>
<stop offset="1" stop-color="#405C40"/>
</linearGradient>
<linearGradient id="paint36_linear" x1="279.384" y1="30.5741" x2="292.639" y2="30.5741" gradientUnits="userSpaceOnUse">
<stop stop-color="#97C15A"/>
<stop offset="1" stop-color="#405C40"/>
</linearGradient>
<linearGradient id="paint37_linear" x1="17.4315" y1="157.468" x2="30.6927" y2="157.468" gradientUnits="userSpaceOnUse">
<stop stop-color="#97C15A"/>
<stop offset="1" stop-color="#405C40"/>
</linearGradient>
<linearGradient id="paint38_linear" x1="221.211" y1="120.372" x2="234.392" y2="120.372" gradientUnits="userSpaceOnUse">
<stop stop-color="#97C15A"/>
<stop offset="1" stop-color="#405C40"/>
</linearGradient>
<linearGradient id="paint39_linear" x1="301.867" y1="142.386" x2="315.09" y2="142.386" gradientUnits="userSpaceOnUse">
<stop stop-color="#97C15A"/>
<stop offset="1" stop-color="#405C40"/>
</linearGradient>
<linearGradient id="paint40_linear" x1="453.547" y1="211.706" x2="466.734" y2="211.706" gradientUnits="userSpaceOnUse">
<stop stop-color="#97C15A"/>
<stop offset="1" stop-color="#405C40"/>
</linearGradient>
<linearGradient id="paint41_linear" x1="339.602" y1="196.887" x2="352.737" y2="196.887" gradientUnits="userSpaceOnUse">
<stop stop-color="#97C15A"/>
<stop offset="1" stop-color="#405C40"/>
</linearGradient>
</defs>
</svg>
