<svg width="23" height="24" viewBox="0 0 23 24" fill="none" xmlns="http://www.w3.org/2000/svg">
<path d="M22.1588 14.2328V23.0604H17.4808V14.8244C17.4808 12.7564 16.8054 11.3442 15.1117 11.3442C13.8191 11.3442 13.0513 12.295 12.7122 13.2156C12.589 13.5446 12.5573 14.0015 12.5573 14.4629V23.06H7.87898C7.87898 23.06 7.94178 9.11094 7.87898 7.66703H12.5576V9.84836C12.5482 9.86553 12.5349 9.88233 12.5266 9.89874H12.5576V9.84836C13.1793 8.80178 14.288 7.30557 16.7737 7.30557C19.8514 7.30557 22.1588 9.5056 22.1588 14.2328ZM2.98509 0.24707C1.38484 0.24707 0.337891 1.39632 0.337891 2.90627C0.337891 4.38415 1.35449 5.56661 2.92369 5.56661H2.95404C4.58568 5.56661 5.60019 4.38415 5.60019 2.90627C5.56914 1.39632 4.58568 0.24707 2.98509 0.24707ZM0.615937 23.0604H5.29249V7.66703H0.615937V23.0604Z" fill="#F1F2F2"/>
</svg>
