<svg width="28" height="27" viewBox="0 0 28 27" fill="none" xmlns="http://www.w3.org/2000/svg">
<path d="M27.3395 16.3644V26.2893H21.6029V17.0295C21.6029 14.7045 20.7746 13.1167 18.6975 13.1167C17.1124 13.1167 16.1708 14.1857 15.755 15.2207C15.6039 15.5906 15.565 16.1043 15.565 16.6231V26.2889H9.82789C9.82789 26.2889 9.9049 10.6058 9.82789 8.98245H15.5654V11.4349C15.5539 11.4542 15.5376 11.4731 15.5273 11.4916H15.5654V11.4349C16.3278 10.2583 17.6874 8.57606 20.7357 8.57606C24.5099 8.57606 27.3395 11.0496 27.3395 16.3644ZM3.8264 0.640137C1.86397 0.640137 0.580078 1.93225 0.580078 3.62989C0.580078 5.29149 1.82675 6.62094 3.7511 6.62094H3.78832C5.78925 6.62094 7.03336 5.29149 7.03336 3.62989C6.99528 1.93225 5.78925 0.640137 3.8264 0.640137ZM0.921052 26.2893H6.65602V8.98245H0.921052V26.2893Z" fill="#016633"/>
</svg>
