<svg width="28" height="28" viewBox="0 0 28 28" fill="none" xmlns="http://www.w3.org/2000/svg">
<path d="M22.283 0.883789H5.7156C2.8371 0.883789 0.49707 3.23247 0.49707 6.11827V22.738C0.49707 25.6253 2.83859 27.9725 5.7156 27.9725H22.2847C25.1631 27.9725 27.5032 25.6238 27.5032 22.738V6.11827C27.503 3.23247 25.1615 0.883789 22.283 0.883789ZM23.9271 3.91256L24.5181 3.91107V8.40679L20.0031 8.42183L19.9881 3.92611L23.9271 3.91256ZM14.0001 9.89622C17.7456 9.89622 18.5181 13.423 18.5181 14.4295C18.5181 16.9256 16.4901 18.9597 14.0001 18.9597C11.5087 18.9597 9.48219 16.9256 9.48219 14.4295C9.48054 13.423 10.2546 9.89622 14.0001 9.89622ZM24.5436 22.4099C24.5436 23.8409 23.3842 25.0054 21.9546 25.0054H5.99455C4.56651 25.0054 3.40555 23.8423 3.40555 22.4099V11.4129H7.1555C6.80752 12.272 6.61095 13.4456 6.61095 14.4296C6.61095 18.5132 9.92295 21.8368 13.9955 21.8368C18.0681 21.8368 21.3784 18.5132 21.3784 14.4296C21.3784 13.4456 21.1819 12.272 20.8354 11.4129H24.5403V22.4099H24.5436Z" fill="#016633"/>
</svg>
