<svg width="34" height="25" viewBox="0 0 34 25" fill="none" xmlns="http://www.w3.org/2000/svg">
<path d="M13.3934 7.39113C12.1555 7.14279 11 8.08949 11 9.35206V11.9263V14.7678C11 16.1038 12.2846 17.0641 13.5659 16.6861L19.5 14.9355L22.2753 14.1167C24.1157 13.5737 24.2095 11.002 22.4135 10.3265L20 9.41864L13.5 7.41252L13.3934 7.39113ZM30.2222 0.391113H3.77778C1.7 0.391113 0 1.59478 0 3.06593V21.7897C0 23.2608 1.7 24.4645 3.77778 24.4645H30.2222C32.3 24.4645 34 23.2608 34 21.7897V3.06593C34 1.59478 32.3 0.391113 30.2222 0.391113ZM31.6279 19.7897C31.6279 20.8943 30.7325 21.7897 29.6279 21.7897H4.37209C3.26753 21.7897 2.37209 20.8943 2.37209 19.7897V5.06593C2.37209 3.96136 3.26752 3.06593 4.37209 3.06593H29.6279C30.7325 3.06593 31.6279 3.96137 31.6279 5.06594V12.4278V19.7897Z" fill="#016633"/>
</svg>
