<svg width="88" height="100" viewBox="0 0 88 100" fill="none" xmlns="http://www.w3.org/2000/svg">
<path d="M43.6685 14.0394C44.3795 14.9438 45.1115 15.8482 45.8226 16.7525C46.0108 16.9894 46.1572 16.9894 46.2618 16.6879C46.3455 16.4941 46.4082 16.2788 46.4919 16.085C46.5964 15.4606 46.8892 14.9223 47.1611 14.3624C47.2866 14.0825 47.4748 14.2332 47.6003 14.3839C47.9349 14.7715 48.1232 15.2237 48.165 15.7405C48.2068 16.3219 48.2068 16.8817 47.9977 17.4416C47.6212 19.401 47.0356 21.3174 46.9311 23.32C46.8265 25.344 47.5376 27.0882 48.8342 28.5955C49.0225 28.8108 49.0852 28.7462 49.1898 28.5309C50.0472 26.7006 50.6119 24.7627 51.0511 22.7817C51.5321 20.5423 51.4067 18.2598 51.4276 15.9989C51.3648 15.396 51.4903 14.8146 51.7831 14.2763C51.9504 13.9963 52.0341 13.9533 52.2432 14.1901C52.6824 14.7069 52.9543 15.2883 52.787 16.0204C52.6615 16.6018 52.6406 17.1616 52.9125 17.7C52.9752 17.8292 53.038 17.9799 53.2262 17.9799C53.6236 17.7861 53.9791 17.5062 54.3765 17.2908C54.5229 17.2047 54.6902 17.0325 54.8366 17.2047C54.962 17.3554 55.0457 17.5708 54.8784 17.7861C54.8157 18.1091 54.6274 18.3675 54.4183 18.5828C53.4981 19.5948 52.9543 20.8222 52.536 22.1142C51.9504 23.9014 51.3858 25.6886 50.8002 27.4758C50.4237 28.617 50.4864 29.7582 50.842 30.8995C51.323 32.4498 51.8249 34.0217 52.3269 35.572C52.4733 36.0242 52.5569 36.4764 52.6406 36.9501C52.6824 37.1009 52.7033 37.2731 52.8706 37.3162C53.0589 37.3593 53.1425 37.187 53.2262 37.0578C53.4144 36.8209 53.4981 36.5626 53.5399 36.2611C53.6654 34.7323 54.3137 33.4834 55.3594 32.4283C56.4888 31.2871 57.6809 30.1889 58.8311 29.0692C59.5631 28.3586 60.2115 27.605 60.7761 26.7437C61.2363 26.0546 61.5081 25.301 61.55 24.4612C61.5709 24.2889 61.55 24.1167 61.5081 23.9229C61.3617 23.32 61.5081 22.6525 61.2363 22.0496C61.0689 21.705 61.0062 21.2959 60.7971 20.9729C60.4624 20.3269 60.2533 19.6379 60.086 18.9273C60.0442 18.7335 60.0651 18.5182 60.2324 18.4105C60.4415 18.2813 60.6088 18.4536 60.6925 18.6043C61.0689 19.1857 61.3827 19.8102 61.5291 20.4992C61.5918 20.8007 61.7173 21.0806 61.8846 21.339C62.1983 21.8342 62.5748 21.9419 63.0767 21.662C63.2858 21.5328 63.495 21.382 63.6832 21.2098C64.4989 20.4346 65.2308 19.5948 65.7955 18.6043C66.6321 17.1401 67.6778 15.8912 69.079 14.9869C69.7901 14.5347 70.313 13.8456 70.7731 13.135C70.9613 12.5752 71.4005 12.1661 71.6933 11.6708C71.756 11.5632 71.8397 11.434 72.007 11.4555C72.1952 11.5201 72.258 11.6924 72.3207 11.8646C72.5717 12.6183 72.1116 14.0394 71.4841 14.4701C71.4214 14.5131 71.3587 14.5347 71.275 14.5347C70.4803 15.0945 69.6855 15.6544 68.8908 16.2357C67.7405 17.097 67.0295 18.1952 67.1131 19.724C67.134 19.9394 67.1758 20.1547 67.2386 20.3485C67.4686 21.0375 67.8242 21.2528 68.5143 21.1237C69.1208 20.9945 69.7064 20.9083 70.3548 20.9299C70.2084 21.2744 69.9574 21.4897 69.7064 21.705C69.0372 22.2433 68.2425 22.4156 67.4477 22.6094C66.7367 22.7817 66.0256 22.9539 65.3772 23.2984C63.8714 24.0736 63.0976 25.3656 62.8257 27.0021C62.7002 27.7988 63.1185 28.2725 63.9133 28.294C64.6243 28.3156 65.3563 28.2725 66.0674 28.2079C66.5275 28.0356 67.0085 28.0572 67.4686 28.2079C67.6987 28.4447 67.5105 28.5955 67.3222 28.7031C67.0295 28.8754 66.6739 28.94 66.3602 29.0907C64.2479 29.9305 62.0728 30.5334 59.9396 31.2871C59.1867 31.5454 58.5383 31.9761 57.9528 32.5359C56.9698 33.4403 56.426 34.5815 56.0705 35.8735C55.6104 37.5746 55.1921 39.2972 54.7529 41.0198C54.4392 42.2687 54.0837 43.4961 53.3098 44.5512C52.8497 45.1756 52.2851 45.6924 51.804 46.3168C51.7413 46.403 51.6576 46.4676 51.6367 46.5968C51.8249 46.5537 51.9504 46.4245 52.055 46.2953C53.1425 44.9387 54.5019 43.9698 55.9868 43.13C58.6847 41.6443 61.4245 40.2877 64.0806 38.7158C66.9667 36.9932 69.1418 34.517 70.794 31.5454C71.4423 30.3827 71.9024 29.1553 72.4671 27.9495C72.6135 27.6911 72.6972 27.3896 72.8436 27.1313C72.9481 26.9375 73.0736 26.9159 73.22 27.0667C73.3873 27.2389 73.5546 27.3896 73.701 27.5834C73.9311 27.928 74.2239 28.251 74.0147 28.7462C73.8474 29.3276 73.4919 29.8228 73.1991 30.3396C72.6553 31.2871 72.1325 32.2345 71.5678 33.1604C71.2123 33.7418 71.1913 34.3232 71.2959 34.9691C71.3377 35.1629 71.4423 35.1199 71.5678 35.1199C72.2998 35.0122 72.969 34.7538 73.6174 34.3878C74.2239 33.9356 74.9559 33.7202 75.6042 33.3757C75.7924 33.2681 75.9807 33.1819 76.1898 33.1173C76.2944 33.0743 76.4199 33.0312 76.5035 33.1389C76.5872 33.2681 76.5035 33.3757 76.4199 33.4834C76.0434 33.9356 75.6042 34.3447 75.1232 34.6892C74.8095 34.9045 74.5376 35.1629 74.1402 35.2275C73.1573 35.7443 72.0279 35.852 70.9822 36.1534C69.4137 36.5841 68.1379 37.4885 67.1131 38.7804C66.9667 38.9742 66.9249 39.0819 67.1131 39.2757C68.1797 40.3092 69.4137 40.6968 70.794 40.1585C73.3246 39.168 75.4996 39.857 77.5283 41.5151C77.6119 41.5797 77.6956 41.6658 77.7793 41.7304C78.6367 42.3979 78.9923 43.3669 79.2014 44.4004C79.2432 44.6588 79.306 44.8957 79.1805 45.1541C79.055 45.434 78.9086 45.4555 78.7204 45.1971C78.6158 45.0464 78.5531 44.8741 78.5113 44.7019C78.3021 43.8836 77.9257 43.1946 77.3192 42.6132C77.1728 42.4625 77.0682 42.2902 76.9427 42.1395C75.2696 40.7614 73.3873 40.2446 71.275 40.6538C70.1456 40.8691 69.7692 41.9242 70.5639 42.807C71.3168 43.6468 72.1952 44.3358 73.0736 45.0249C73.2409 45.0895 73.4082 45.1756 73.5546 45.3048C74.1193 45.7785 74.7258 46.2092 75.3114 46.6398C75.4996 46.7906 75.7506 46.9413 75.6251 47.2212C75.4996 47.5011 75.2068 47.3935 74.9559 47.3504C74.6212 47.2643 74.3075 47.092 74.0357 46.8767C73.5755 46.5106 73.0109 46.2953 72.6553 45.8C72.0488 45.3479 71.4423 44.8741 70.8358 44.422C69.811 43.6468 68.7026 43.0869 67.4059 42.9793C66.5903 42.8931 65.7955 43.0654 65.0217 43.2377C63.7669 43.4961 62.4911 43.6253 61.2363 43.819C59.2494 44.1205 57.4926 45.0033 55.8614 46.2092C54.2301 47.415 52.7452 48.8362 51.1975 50.1496C49.4198 51.6785 47.6631 53.2073 45.9063 54.7361C44.6305 55.8558 43.6057 57.1478 43.1665 58.8704C43.0201 59.4733 42.9574 60.0762 42.9783 60.7006C42.9992 61.2174 42.9783 61.7557 42.9992 62.2725C43.0201 62.574 42.8737 62.617 42.6437 62.5524C42.0581 62.4448 41.7235 62.0572 41.6816 61.4112C41.5352 58.9134 42.0372 56.5664 43.1456 54.37C43.3548 53.9825 43.543 53.5733 43.543 53.0566C42.8946 53.6164 42.4136 54.2408 42.1836 55.0375C41.598 57.1047 41.0333 59.1934 40.6987 61.3466C40.6987 61.3681 40.6778 61.3897 40.6778 61.4112C39.9249 61.2174 39.3183 60.5714 39.2556 59.6671C39.172 58.5043 39.0046 57.3631 39.0046 56.2003C38.9837 53.1642 40.3013 50.9464 42.8947 49.5467C43.8358 49.0299 44.8397 48.6424 45.8435 48.3194C47.7676 47.6949 49.2943 46.5537 50.0473 44.5296C50.4446 43.4315 50.8211 42.3333 51.1557 41.2136C51.6785 39.4479 51.574 37.7253 50.9466 36.0027C50.6328 35.1414 50.2355 34.3447 49.8172 33.548C49.0643 32.1484 47.9768 31.244 46.4082 30.9856C45.3834 30.8349 44.4214 30.4473 43.4802 30.0382C42.9574 29.8228 42.56 29.4568 42.2463 28.9831C41.6607 28.2294 41.6398 27.3896 41.8908 26.5068C42.0999 26.2269 42.1417 26.2269 42.3509 26.4853C42.5391 26.7221 42.6855 26.9805 42.811 27.2605C43.041 27.8418 43.292 28.4017 43.794 28.7893C43.8567 28.8323 43.8567 28.9185 43.9194 28.9831C45.1325 29.6936 46.4291 29.6075 47.7885 29.3707C47.4539 28.5955 47.1611 27.8418 46.8056 27.1313C45.9899 25.5163 45.5716 23.7937 45.488 21.9634C45.4462 21.0591 45.3625 20.1332 45.0488 19.2503C44.6305 18.1306 44.0031 17.097 43.5221 15.9989C43.2711 15.439 43.0829 14.8361 42.8947 14.2332C42.8947 14.2117 42.8737 14.1901 42.8737 14.1686C42.811 13.8887 42.9156 13.5442 43.1038 13.5011C43.3548 13.458 43.4593 13.6949 43.5848 13.8672C43.6476 13.9102 43.6685 13.9748 43.6685 14.0394Z" fill="#201C17"/>
<path d="M26.33 38.3496C26.4346 38.4358 26.5182 38.5434 26.6228 38.6296C27.1247 39.0387 27.6476 39.4047 28.1077 39.8354C28.4841 40.2014 28.6724 40.1799 29.0697 39.8139C29.7599 39.1679 29.9272 38.4573 29.5508 37.5745C28.9024 36.0456 27.9613 34.7322 26.8319 33.5263C26.1418 32.7727 25.347 32.1267 24.7196 31.3085C23.4857 29.7151 22.7746 27.9063 22.3772 25.9253C22.0217 24.1381 21.5825 22.3724 21.0387 20.6498C20.9551 20.413 20.8714 20.1761 20.7041 19.9823C20.6832 19.9823 20.6414 19.9608 20.6414 19.9608C19.8466 19.0564 18.6964 18.7765 17.7134 18.2166C17.5461 18.109 17.2324 18.0874 17.2533 17.829C17.2742 17.5707 17.5879 17.6353 17.7761 17.5707C17.7971 17.5707 17.818 17.5491 17.8389 17.5491C18.1317 17.5061 18.4245 17.463 18.7173 17.3769C19.0937 17.2477 19.1983 17.0323 19.0937 16.6448C19.0101 16.3002 18.8428 15.9772 18.7591 15.6327C18.7173 15.4389 18.6964 15.2451 18.8637 15.1159C19.031 14.9867 19.2192 15.0944 19.3447 15.2236C19.8675 15.7189 20.3695 16.2141 20.6623 16.9031C21.3524 18.0874 21.9171 19.3363 22.2308 20.6714C22.6909 22.6739 23.1511 24.6764 23.6321 26.679C23.8203 27.4326 24.0294 28.1647 24.2804 28.8968C24.5523 29.672 24.9915 30.318 25.6189 30.8347C27.1875 32.1698 28.7351 33.5263 30.3246 34.8398C30.8056 35.2274 31.3075 35.5719 31.8513 35.8303C32.646 36.2179 33.3989 36.0672 33.9218 35.3351C34.8002 34.0646 35.3439 32.6435 35.5531 31.0931C35.7622 29.4997 35.4903 27.9278 35.4485 26.356C35.4276 25.6023 35.3649 24.8487 35.323 24.095C35.1557 23.6859 35.1766 23.2337 35.1766 22.8031C35.1139 21.6619 35.093 20.5422 35.0302 19.4009C35.0093 19.2071 35.0721 19.0133 35.1139 18.8411C35.1557 18.6904 35.2185 18.5612 35.3858 18.5612C35.5322 18.5612 35.6367 18.6688 35.6786 18.8195C35.8041 19.121 35.7831 19.444 35.825 19.767C35.9086 20.6068 35.9923 21.4465 36.0759 22.2648C36.0969 22.437 36.0341 22.6739 36.3269 22.6954C36.7452 22.6308 36.9962 22.3294 37.2262 22.0064C37.4354 21.7265 37.6027 21.4465 37.7909 21.1451C37.8745 21.0374 37.9582 20.9082 38.0628 20.8221C38.1255 20.779 38.1883 20.736 38.2719 20.7575C38.3347 20.8005 38.3347 20.8867 38.3347 20.9728C38.3137 21.2312 38.1883 21.4681 38.1255 21.7049C37.77 23.0615 37.4772 24.418 37.3099 25.8177C37.0589 27.6049 37.0171 29.4351 36.8707 31.2439C36.6824 33.4402 35.8459 35.3351 34.5074 37.0361C34.0682 37.596 33.6081 38.1128 33.2316 38.7372C32.5205 39.9 32.3323 41.1704 32.5415 42.527C32.5833 42.7854 32.6669 43.0222 32.7924 43.2375C33.6499 44.831 34.4656 46.4459 35.6158 47.8671C37.1426 49.7835 37.8955 52.0444 38.2928 54.456C38.4811 55.6403 38.5647 56.8462 38.5856 58.0304C38.5856 58.095 38.5856 58.1596 38.5856 58.2242C38.6065 58.418 38.5647 58.6549 38.4183 58.698C38.251 58.741 38.1046 58.5472 38 58.375C37.6654 57.7936 37.3517 57.2337 37.038 56.6524C36.9962 56.5662 36.9543 56.394 36.8079 56.4586C36.6406 56.5232 36.7243 56.6739 36.7452 56.7816C36.787 57.1045 36.8916 57.4275 37.038 57.729C38.1673 60.0114 39.6732 61.9279 41.9319 63.0906C42.5802 63.4351 43.2704 63.6935 43.8978 64.0811C44.7553 64.5979 45.1526 65.2654 45.0062 66.3205C44.7762 67.8709 44.3997 69.3781 43.7723 70.8854C43.5841 70.4548 43.3959 70.0887 43.2285 69.7011C42.7893 68.7322 42.3502 67.7632 41.911 66.7942C41.8691 66.7081 41.8482 66.5358 41.7227 66.5574C41.5763 66.5789 41.66 66.7512 41.6391 66.8588C41.6182 67.1387 41.6809 67.3756 41.7855 67.634C42.2665 68.6676 42.7057 69.7227 43.1867 70.7562C43.5632 71.5529 43.6887 72.3496 43.4586 73.2325C43.2495 73.9861 43.124 74.7613 42.9776 75.5365C42.8103 75.5365 42.7893 75.4073 42.7475 75.2996C41.9528 73.1248 40.5934 71.3591 39.1085 69.6581C37.6236 67.957 36.1596 66.2559 34.842 64.4041C34.0264 63.2629 33.6917 61.9709 33.5872 60.5928C33.5663 60.4636 33.5872 60.3344 33.6917 60.2052C33.9427 60.4636 34.11 60.7651 34.2773 61.0665C34.5492 61.5187 34.8211 61.9709 35.093 62.4446C35.1975 62.6384 35.323 62.7676 35.5531 62.8107C35.7413 62.3585 35.5531 61.9709 35.3021 61.6479C33.8381 59.5593 33.5035 57.2337 33.6917 54.736C33.7963 53.444 33.88 52.152 33.6081 50.8816C33.2107 48.9437 32.0186 47.6302 30.4291 46.6397C28.6724 45.5631 26.8947 44.5295 25.1379 43.4744C24.0294 42.8069 22.9001 42.1609 21.7916 41.4934C21.5407 41.5149 21.3734 41.3427 21.1851 41.235C20.6832 40.9551 20.244 40.589 19.7839 40.223C19.6584 40.1368 19.5329 40.0292 19.5957 39.8569C19.6584 39.6631 19.8257 39.6631 19.993 39.6416C20.4113 39.5985 20.7878 39.7493 21.206 39.7493C20.8087 38.5434 20.1394 37.4883 19.3238 36.5409C17.8598 34.8398 15.9775 33.8063 13.928 33.0095C13.6561 32.9019 13.3842 32.8158 13.1332 32.7081C13.0496 32.665 12.8823 32.7081 12.9241 32.5358C12.945 32.3851 13.0914 32.4066 13.196 32.4066C13.5306 32.4066 13.8234 32.4928 14.158 32.5358C14.2626 32.5574 14.3881 32.5789 14.4926 32.5789C15.0155 32.4712 15.4965 32.6435 15.9984 32.7081C16.5422 32.7727 17.086 32.8588 17.6088 32.9449C17.6925 32.9665 17.7761 32.9665 17.8598 32.9665C18.2153 32.9449 18.3199 32.8158 18.2153 32.4497C18.0062 31.8037 17.6925 31.2008 17.2951 30.6625C16.354 29.3921 15.3083 28.1647 14.3253 26.9373C14.1998 26.7866 14.0744 26.6144 13.9907 26.4421C13.928 26.2914 13.8652 26.1406 14.0116 26.0114C14.158 25.8822 14.3253 25.9684 14.4508 26.076C14.9527 26.5498 15.4965 26.9804 15.9775 27.4757C16.9187 28.5092 17.7761 29.6289 18.4872 30.8347C18.6336 31.0931 18.7591 31.33 18.8637 31.6099C19.8257 33.4187 20.5368 35.3566 21.5198 37.1438C22.3563 38.6726 23.5066 39.9 24.9706 40.8044C25.9745 41.4073 26.8738 42.204 27.794 42.9145C28.1286 43.1729 28.5051 43.3237 28.8815 43.4959C29.0697 43.5821 29.1116 43.4959 29.1743 43.3667C29.3207 43.0007 29.3207 42.6562 29.0279 42.3332C27.9613 41.1704 26.8947 40.0292 25.8071 38.8664C25.6189 38.7803 25.4934 38.5865 25.3052 38.4788C25.0751 38.3066 25.0751 38.1128 25.2425 37.8974C25.4098 37.6606 25.598 37.6606 25.8071 37.8113C25.9117 37.9836 26.1627 38.1128 26.33 38.3496Z" fill="#201C17"/>
<path d="M29.3634 77.453C29.5516 78.3789 29.9071 79.2402 30.2836 80.1015C31.0156 81.8026 31.9358 83.3745 32.9397 84.9033C32.9815 84.9894 33.0024 85.1402 33.1697 85.054C33.3161 84.9679 33.2325 84.8602 33.1906 84.7526C33.0024 84.1281 32.6678 83.5683 32.3332 83.03C31.8521 82.2763 31.4129 81.5227 31.2247 80.6398C31.1201 80.1446 31.1829 79.6493 31.392 79.1972C31.7267 78.5296 32.2495 78.0344 32.8142 77.4315C32.7096 79.4771 32.7724 81.415 33.6926 83.2668C33.8181 83.1161 33.7762 83.0084 33.7762 82.9008C33.6507 81.6949 33.5253 80.4891 33.3789 79.2833C33.1906 77.9267 33.6089 76.6994 34.1945 75.4935C34.2363 75.4074 34.32 75.2997 34.4246 75.3428C34.571 75.4074 34.6337 75.5581 34.6755 75.7089C34.7592 76.1395 34.8429 76.5917 34.9056 77.0224C35.2193 79.8862 36.4532 82.2548 38.5237 84.2358C40.9288 86.5398 43.2712 88.9084 45.6345 91.2554C45.7809 91.3846 45.9273 91.4923 45.7391 91.7507C45.5508 91.9875 45.4463 91.9875 45.2371 91.8153C44.3797 91.1047 43.5013 90.4157 42.6438 89.7051C42.5811 89.6405 42.4974 89.4897 42.3719 89.6189C42.2673 89.7266 42.3928 89.7912 42.4556 89.8773C43.1248 90.7386 43.8568 91.5138 44.777 92.1167C45.8018 92.7842 46.5547 93.7747 47.3913 94.6791C47.5377 94.8514 47.5377 95.0021 47.3704 95.1744C47.1821 95.3682 47.0776 95.1744 46.973 95.0882C46.3247 94.593 45.6763 94.0977 45.0071 93.5809C45.0071 93.9039 45.0071 94.1839 45.0071 94.5284C43.815 93.9039 42.6856 93.301 41.4726 92.655C41.7445 93.2149 42.0791 93.6025 42.4974 93.9039C43.0412 94.2915 43.6477 94.5714 44.296 94.6791C46.6802 95.0667 48.1233 96.5525 48.9808 98.7703C49.1062 99.0933 49.2317 99.4378 49.3572 99.7608C49.3781 99.8039 49.3781 99.8469 49.3363 99.89C49.2317 99.9546 49.1062 99.9761 48.9808 99.9761C47.8514 99.9761 46.722 99.9977 45.5927 99.9761C45.028 99.9977 44.4633 99.9761 43.8986 99.9761C43.7104 99.9761 43.5222 99.9977 43.4176 99.7824C42.9575 96.7462 41.8491 94.0116 39.9459 91.6215C38.6701 90.0065 36.997 89.3606 35.0102 89.5328C33.9017 89.6405 32.7724 89.6189 31.6639 89.5543C31.1201 89.5328 30.8064 89.1237 30.6809 88.6069C30.4718 87.7671 30.3882 86.9058 30.2418 86.0445C30.1372 85.4631 30.0535 84.8602 29.9699 84.2789C29.9071 83.8051 29.8653 83.353 29.9071 82.8577C29.949 82.3194 30.0744 81.7165 29.7816 81.2428C29.4261 80.6398 29.4052 79.9939 29.3215 79.3479C29.1751 79.2618 29.1751 79.0895 29.1542 78.9388C29.0497 78.2712 28.966 77.5822 28.8823 76.9147C28.8823 76.8286 28.8614 76.7424 28.8823 76.6563C28.9242 76.4194 28.7987 76.1611 29.0287 75.9673C29.2379 76.0749 29.217 76.2902 29.2379 76.4625C29.2379 76.7855 29.3215 77.13 29.3634 77.453Z" fill="#201C17"/>
<path d="M33.4415 99.7606C33.4833 98.8778 33.316 98.038 32.9605 97.2413C32.4794 96.1647 31.9984 95.0665 31.4965 93.9899C31.371 93.6884 31.2664 93.4085 31.2455 93.0424C31.5174 93.1716 31.7265 93.3654 31.9357 93.5377C32.3749 93.8822 32.8141 94.2052 33.2323 94.5497C33.3997 94.7004 33.567 94.7866 33.7134 94.5282C33.8807 94.2698 33.6088 94.2483 33.5251 94.1837C32.9395 93.7099 32.3121 93.3008 31.7474 92.784C31.0154 92.1165 30.7436 91.2768 30.7854 90.2863C30.7854 90.0279 30.869 89.9848 31.0782 90.1355C31.4128 90.3724 31.6847 90.6523 31.9566 90.9538C32.584 91.6428 33.316 92.2242 34.1735 92.5902C34.2571 92.6333 34.3199 92.6764 34.4035 92.6979C34.529 92.7194 34.6963 92.7194 34.7591 92.5902C34.8218 92.4611 34.6545 92.418 34.5708 92.3534C33.797 91.8366 33.0232 91.3414 32.2285 90.803C32.7513 90.3293 33.3578 90.1786 34.0062 90.114C36.8296 89.8987 38.9419 91.1045 40.3849 93.6023C41.4934 95.5187 42.2045 97.5858 42.5182 99.7821C42.4764 99.9113 42.3509 99.9544 42.2463 99.9544C41.6189 99.9544 40.9915 100.041 40.3849 99.8898C39.7994 99.6529 39.151 99.5668 38.6282 99.2008C37.3942 98.3394 36.6204 97.1121 36.0348 95.734C35.8466 95.2818 35.7002 94.8296 35.4911 94.399C35.6793 94.7866 35.8257 95.1957 35.9721 95.6048C36.223 96.2508 36.4322 96.8968 36.6832 97.5427C36.9969 98.3395 37.4988 98.9854 38.1681 99.5022C38.2935 99.5883 38.5445 99.6529 38.3772 99.9329C38.2308 100.019 38.0635 99.9975 37.8962 99.9975C36.5786 99.9975 35.261 99.9975 33.9434 99.9975C33.797 99.9544 33.546 100.019 33.4415 99.7606Z" fill="#201C17"/>
<path d="M19.2408 54.1332C20.9976 55.1452 22.7544 56.1788 24.5111 57.1908C24.7203 57.32 24.9712 57.3631 25.2222 57.4062C25.7032 57.4923 26.1424 57.32 26.5816 57.1262C26.728 57.0616 26.7071 56.9755 26.6653 56.8463C25.996 54.8438 25.034 53.0566 23.3609 51.7431C23.2772 51.6785 23.1726 51.6139 23.089 51.5277C22.3152 50.7095 21.3949 50.5588 20.3492 50.8818C19.0107 51.2909 17.6513 51.4201 16.2919 51.011C15.9991 50.9248 15.7272 50.7956 15.4344 50.5803C17.3167 50.0851 19.3245 50.2789 21.0185 49.0946C20.5793 48.5562 20.0564 48.1256 19.3454 48.0825C18.4879 48.0395 17.6095 48.0395 16.752 48.1041C15.8527 48.1471 14.9534 48.2332 14.0541 47.9964C13.4476 47.8241 13.0502 47.415 12.862 46.7906C12.8202 46.6398 12.7156 46.446 12.862 46.3168C13.0084 46.1876 13.1548 46.3384 13.3012 46.403C14.1378 46.9198 15.0789 46.9844 16.02 47.049C16.2083 47.0705 16.3965 47.049 16.5638 47.1566C18.0696 47.1566 19.5545 47.3073 21.0603 47.4365C21.8969 47.5011 22.5034 47.9533 22.9217 48.6639C23.319 49.3099 23.6955 49.9989 24.0929 50.6664C24.8667 52.023 25.6405 53.358 26.3934 54.7361C27.1463 56.0711 28.1711 57.0186 29.6142 57.5354C30.4507 57.8368 31.2246 58.2675 31.9775 58.7197C32.6676 59.1288 33.0022 59.7532 33.0232 60.5715C33.0232 61.1528 33.0232 61.7127 33.0232 62.2941C33.0232 62.3802 33.065 62.5094 32.9395 62.5525C32.8349 62.574 32.7931 62.4663 32.7304 62.4017C32.2493 61.8419 31.7683 61.3036 31.35 60.7007C30.7854 59.8609 29.9906 59.4087 28.9867 59.4087C27.7946 59.3872 26.6025 59.4087 25.4104 59.3656C23.3609 59.258 21.8341 58.2459 20.8094 56.4157C20.4329 55.7266 19.931 55.1883 19.2199 54.8868C19.0526 54.8222 18.8853 54.7792 18.7389 54.7146C18.4042 54.8222 18.0905 54.693 17.7977 54.5854C17.3376 54.4347 16.8775 54.2624 16.4383 54.0686C16.3128 54.004 16.1873 53.9609 16.1037 53.8317C15.9573 53.6379 15.9991 53.4657 16.2501 53.4657C17.2331 53.4011 18.1951 53.4011 19.0735 53.9394C19.1362 53.9609 19.199 54.0255 19.2408 54.1332Z" fill="#201C17"/>
<path d="M51.9713 70.1531C52.1386 70.1747 52.2223 70.0455 52.3268 69.9593C52.9124 69.5071 53.4771 69.0334 54.0627 68.5597C54.1673 68.775 54.0418 68.9042 53.9372 69.0334C53.4562 69.5933 52.9961 70.1531 52.4314 70.6053C49.9008 72.4571 47.3702 74.2874 44.8396 76.1392C44.254 76.5698 43.7521 77.1082 43.292 77.668C42.0371 79.1968 41.4306 80.9625 41.3679 82.922C41.347 83.5895 41.326 84.257 41.326 84.903C41.326 85.1183 41.2633 85.1614 41.0751 85.1398C40.5731 85.0537 40.2385 84.6876 40.2594 84.1709C40.3013 82.9866 40.4477 81.8023 40.6359 80.6395C40.6568 80.4457 40.8032 80.2735 40.8868 80.1012C41.0542 79.8213 41.1587 79.5414 41.2424 79.2184C41.2633 79.1107 41.2842 79.0246 41.1796 78.96C41.0542 78.8954 40.9914 78.9169 40.9078 79.0461C40.7405 79.2614 40.5941 79.4552 40.5104 79.7351C40.1758 80.941 39.8202 82.1253 39.4856 83.3311C39.402 83.6541 39.2765 83.6971 39.0046 83.5679C38.3144 83.245 38.0425 82.7282 38.2935 81.9961C38.67 80.8548 39.1928 79.7782 39.6529 78.6585C40.2176 77.2374 40.8241 75.8377 41.4097 74.3735C41.8071 75.1918 42.1835 75.9454 42.5391 76.7421C42.6645 77.022 42.7482 77.0651 42.9783 76.8498C44.0867 75.8377 45.1951 74.8257 46.1781 73.706C46.7009 73.1031 47.0565 72.371 47.3493 71.6389C47.7885 70.4976 48.2068 69.3564 48.646 68.2367C48.6669 67.8707 48.8133 67.5477 48.9387 67.2247C49.2943 66.3418 49.5243 65.3729 50.1308 64.5977C50.2563 64.4255 50.4027 64.124 50.591 64.2317C50.821 64.3608 50.5491 64.6192 50.4864 64.7915C50.2563 65.4159 50.0472 66.0404 49.9426 66.7079C49.8381 67.2893 49.7544 67.8707 49.6707 68.4736C49.6289 68.7535 49.6289 69.0334 49.4616 69.2703C49.3779 69.7225 49.2734 70.1962 49.2106 70.6484C49.1688 70.9283 49.127 71.2298 49.3779 71.4235C49.6498 71.6173 49.9845 71.5958 50.2563 71.4235C50.8419 71.036 51.4903 70.713 51.9713 70.1531Z" fill="#201C17"/>
<path d="M34.8849 68.8613C35.0522 69.0336 35.1149 69.2274 35.1777 69.3996C35.9724 72.0266 36.7462 74.6321 37.5409 77.2591C38.001 78.8309 37.8756 80.166 37.1436 81.4579C36.809 81.1565 36.5789 80.7904 36.3698 80.3813C35.7842 79.2185 35.4914 77.9696 35.2613 76.7207C34.9894 75.2781 34.8849 73.8138 35.0103 72.3496C35.094 71.4452 34.9058 70.5624 34.843 69.6796C34.8221 69.4212 34.7803 69.1413 34.8849 68.8613Z" fill="#201C17"/>
<path d="M40.2596 73.9649C40.2805 74.1372 40.2178 74.3094 40.1551 74.4817C39.6949 75.7521 39.2348 77.0225 38.7538 78.293C38.6911 78.4437 38.6492 78.6806 38.4819 78.6375C38.3146 78.5944 38.2519 78.4006 38.2519 78.2068C38.1264 76.5273 38.0218 74.8477 37.8754 73.1682C37.7081 71.3164 37.3526 69.5292 36.6624 67.8066C36.5996 67.6558 36.4114 67.4405 36.6415 67.3328C36.8088 67.2467 36.997 67.419 37.1016 67.6128C38.1264 69.5292 39.1303 71.4456 40.1551 73.3835C40.2178 73.5558 40.2596 73.7496 40.2596 73.9649Z" fill="#201C17"/>
<path d="M39.4649 11.0464C38.963 8.7424 37.98 6.65373 36.4951 4.82346C36.4324 4.73732 36.3697 4.67273 36.3278 4.5866C36.2442 4.43587 36.1605 4.43587 36.056 4.56506C35.4704 5.29717 34.8639 6.02928 34.4456 6.86906C34.4037 6.93365 34.341 6.99825 34.2992 7.08438C32.4169 10.5081 31.8731 14.1686 32.647 18.023C32.9816 19.681 33.5672 21.2529 34.4456 22.674C34.6756 23.1693 34.9893 23.6215 35.324 24.0521C35.2821 23.1262 35.2403 22.2003 35.2194 21.2744C35.1985 20.4992 35.1148 19.724 35.1776 18.9489C35.1985 18.7981 35.2194 18.5828 35.3658 18.5828C35.5122 18.5828 35.5749 18.7766 35.6168 18.9273C35.6377 18.9704 35.6168 19.035 35.6377 19.0781C35.7632 20.327 35.8886 21.5974 36.0141 22.8463C36.1814 22.8678 36.286 22.8032 36.3906 22.7386C36.537 22.7817 36.6415 22.674 36.767 22.5879C37.0598 22.3941 37.269 22.0926 37.4572 21.7912C37.6873 21.4467 37.8546 21.0375 38.2519 20.7361C38.2101 21.0806 38.1683 21.3821 38.1264 21.662C38.1892 21.5759 38.2519 21.4682 38.2938 21.3821C39.8623 18.1091 40.2597 14.6423 39.4649 11.0464Z" fill="url(#paint0_linear)"/>
<path d="M49.3571 7.10577C48.897 4.84485 47.9977 2.79924 46.5755 0.990501C46.4082 0.602914 46.0526 0.344522 45.8435 0C45.8226 0 45.8017 0 45.7598 0C45.718 0.0645979 45.6553 0.150729 45.6135 0.215326C44.8815 1.14123 44.2331 2.1102 43.7312 3.18683C43.6684 3.31603 43.5848 3.44522 43.522 3.57442C41.8908 7.29957 41.6816 11.0893 42.8946 14.9652C43.3756 16.5155 44.0867 17.9582 45.0697 19.2287C45.0279 18.8626 44.8815 18.5396 44.7351 18.2166C44.1286 16.9247 43.4175 15.6542 43.0201 14.2546C42.9365 13.9316 42.9365 13.6948 43.1665 13.4794C43.3966 13.5871 43.4593 13.824 43.6266 13.9747C43.6266 14.1254 43.7103 14.2331 43.7939 14.3623C44.0031 14.6637 44.254 14.9437 44.4841 15.2236C44.9024 15.7404 45.2997 16.2787 45.7389 16.7955C45.9481 17.0539 46.1572 17.0754 46.2827 16.8385C46.4291 16.5586 46.5964 16.3002 46.5546 15.9557C46.8265 15.4604 46.9938 14.9221 47.2238 14.4053C47.3075 14.2331 47.3702 14.2331 47.4748 14.3623C47.8303 14.7714 48.0395 15.2451 48.0604 15.805C48.0813 16.3433 48.0186 16.8601 47.9977 17.3984C48.0395 17.3338 48.1022 17.2477 48.144 17.1831C49.6499 13.9747 50.0681 10.6156 49.3571 7.10577Z" fill="url(#paint1_linear)"/>
<path d="M6.56679 25.3013C7.08964 26.3134 7.67524 27.2608 8.44906 28.1006C9.64116 29.5863 11.0633 30.7491 12.7155 31.6535C13.1756 31.9549 13.6776 32.1487 14.1586 32.3856C14.2422 32.4287 14.4096 32.3856 14.3886 32.5579C15.1206 32.6655 15.8735 32.7947 16.6055 32.9024C17.0238 32.967 17.4212 33.0746 17.8604 33.0531C18.2368 33.0316 18.3414 32.8808 18.2368 32.5148C18.1113 32.0841 17.9231 31.675 17.714 31.2874C17.1493 30.2754 16.3546 29.4356 15.6435 28.5312C15.0997 27.8422 14.556 27.1532 14.0122 26.4426C13.9285 26.3349 13.8031 26.1626 13.9495 26.0335C14.0958 25.9043 14.2213 26.0765 14.3259 26.1626C14.8278 26.6148 15.3298 27.067 15.8317 27.5192C16.2291 27.9929 16.6264 28.4882 17.0238 28.9619C17.6721 29.7801 18.1741 30.6845 18.7388 31.5674C18.3623 29.3064 17.5048 27.2608 16.1873 25.4305C15.2879 24.0524 14.1168 22.9543 12.8201 21.9853C11.5234 20.9517 10.0804 20.2196 8.53271 19.7459C7.48701 19.3368 6.37857 19.2076 5.27012 19.0569C4.91458 19.0138 4.85184 19.143 4.89367 19.466C5.0819 21.5547 5.62566 23.4926 6.56679 25.3013Z" fill="url(#paint2_linear)"/>
<path d="M46.7217 38.737C45.6969 38.9954 44.7139 39.3399 43.8146 39.9428C42.8944 40.4381 42.0997 41.1056 41.4304 41.9238C40.7403 42.6344 40.2174 43.4526 39.7782 44.357C38.9417 46.0365 38.607 47.8453 38.6907 49.7186C38.6907 49.8909 38.6907 50.0201 38.9417 49.9555C39.841 49.7402 40.7194 49.4387 41.5141 48.9435C42.3925 48.4482 43.229 47.9099 43.8983 47.1347C46.1152 44.8738 47.0772 42.1176 46.9518 38.9308C46.9518 38.7154 46.8681 38.6939 46.7217 38.737Z" fill="url(#paint3_linear)"/>
<path d="M9.18126 40.2447C9.41132 40.2662 9.62046 40.2877 9.85051 40.3093C10.7289 40.3523 10.7289 40.3523 10.5198 39.491C10.0597 37.5746 9.16035 35.8951 7.75911 34.517C6.88072 33.5911 5.87685 32.859 4.70566 32.3637C3.82727 31.9115 2.90705 31.6531 1.94501 31.5455C1.29667 31.4163 0.648335 31.4163 0 31.4594C0 31.5024 0 31.567 0 31.6101C0.020914 31.6747 0.0627422 31.7393 0.0627422 31.8254C0.522851 34.1079 1.58947 36.0243 3.26259 37.5962C3.40899 37.7254 3.5763 37.8761 3.7227 38.0053C4.49652 38.6297 5.31217 39.168 6.23238 39.5126C7.19443 39.9217 8.17739 40.137 9.18126 40.2447Z" fill="url(#paint4_linear)"/>
<path d="M61.4664 53.7451C61.4246 53.8097 61.3618 53.8958 61.32 53.9604C60.6089 55.3385 60.2325 56.8242 60.1279 58.3961C60.0652 59.4512 60.1907 60.4848 60.4207 61.5183C60.4835 61.7767 60.588 61.8413 60.8181 61.7121C61.069 61.5614 61.3618 61.4753 61.5919 61.2815C62.3657 60.8724 63.0768 60.334 63.6833 59.6881C64.7081 58.7191 65.461 57.5779 66.0048 56.2644C66.925 54.0681 67.1132 51.7856 66.5486 49.4601C66.5067 49.3093 66.5276 49.094 66.2348 49.2232C65.2519 49.6969 64.3107 50.2783 63.516 51.075C62.6794 51.8071 62.0102 52.7115 61.4664 53.7451Z" fill="url(#paint5_linear)"/>
<path d="M12.3184 49.0731C12.7994 49.1161 13.2804 49.073 13.7614 49.0084C14.8071 48.8577 15.811 48.5993 16.7522 48.1041C16.0829 47.9749 15.4137 48.0395 14.7444 48.018C13.636 47.9749 12.9458 47.3504 12.9249 46.36C13.0713 46.3169 13.1549 46.5107 13.3013 46.5107C13.4059 46.6399 13.5523 46.6829 13.6778 46.7475C14.6189 47.1351 15.6019 47.2213 16.5848 47.1997C15.9993 46.403 15.2882 45.7786 14.5144 45.1972C13.615 44.5297 12.6321 44.099 11.5864 43.7545C10.4361 43.3239 9.2231 43.2162 8.01009 43.3023C7.06896 43.3239 6.14874 43.5177 5.24943 43.8406C4.83115 43.9483 4.47561 44.1421 4.07825 44.3144C3.86911 44.4005 3.89002 44.4866 4.01551 44.6589C4.28739 45.0465 4.58018 45.4341 4.91481 45.7786C5.96051 46.8983 7.17353 47.8026 8.61659 48.3409C9.78778 48.8147 11.0217 49.0946 12.3184 49.0731Z" fill="url(#paint6_linear)"/>
<path d="M19.3035 53.5946C17.6722 52.6472 15.9154 52.152 14.0332 52.2165C12.6529 52.1735 11.3353 52.4749 10.0804 53.0563C8.51187 53.7023 7.23612 54.7359 6.1695 56.0494C6.0231 56.2216 6.12767 56.2647 6.25316 56.3508C7.48709 57.0829 8.80467 57.5567 10.2268 57.7074C11.6072 57.8796 12.9457 57.7935 14.2632 57.3413C15.9782 56.8461 17.4631 55.9632 18.7179 54.6713C17.9232 54.5421 17.1703 54.2191 16.4383 53.9176C16.271 53.853 16.1246 53.7669 16.0828 53.5516C17.3376 53.487 18.0696 53.4439 19.2617 54.133C19.3035 53.9607 19.7218 53.853 19.3035 53.5946Z" fill="url(#paint7_linear)"/>
<path d="M33.2324 64.3398C32.2703 63.2847 31.0991 62.531 29.8234 61.9497C28.6104 61.3683 27.3555 61.0884 26.017 61.1099C24.4066 61.0022 22.8799 61.3683 21.395 62.0573C21.6878 62.5956 22.0434 63.0694 22.4407 63.5215C23.4446 64.6628 24.6158 65.5887 26.017 66.1701C27.2719 66.773 28.5895 67.0529 29.9698 67.0744C30.0743 67.0744 30.1789 67.0744 30.2626 67.0744C30.5345 67.0744 30.8273 67.1175 31.0991 67.0098C32.2285 66.9452 33.316 66.6222 34.3617 66.1701C34.5709 66.0839 34.5081 65.9978 34.4245 65.8686C34.048 65.3303 33.6716 64.835 33.2324 64.3398Z" fill="url(#paint8_linear)"/>
<path d="M52.0969 67.9357C53.0799 67.4835 53.9164 66.7944 54.7112 66.0623C55.1085 65.6963 55.5268 65.3518 55.8196 64.8565C55.8823 64.7058 56.0497 64.6412 56.1542 64.512C57.3882 62.9616 58.3711 61.2606 58.9358 59.3226C59.6887 57.0617 59.8351 54.7362 59.5214 52.3676C59.5005 52.1953 59.4168 52.1738 59.2704 52.2168C58.643 52.4322 58.0156 52.626 57.4509 52.949C56.0706 53.5303 54.8366 54.3701 53.7282 55.4037C52.2433 56.6956 51.093 58.2245 50.2355 60.0117C50.1519 60.1624 50.0682 60.2916 50.0055 60.4423C48.8761 62.897 48.4369 65.481 48.6251 68.1941C48.9807 67.2682 49.3571 66.3207 49.7127 65.3948C49.9009 64.8996 50.2355 64.4474 50.5911 64.2105C50.2146 64.9857 49.9427 65.7609 49.8382 66.6007C49.6081 67.4404 49.5663 68.3233 49.4199 69.1846C49.7545 69.0554 50.1101 68.9046 50.4447 68.7754C51.0094 68.5171 51.6159 68.3663 52.0969 67.9357Z" fill="url(#paint9_linear)"/>
<path d="M18.4882 38.3281C17.3379 37.919 16.1876 37.8328 14.9955 38.0266C13.908 38.1128 12.946 38.5219 12.0048 39.0602C11.8584 39.1463 11.8793 39.2109 11.963 39.3186C12.9669 40.5244 14.159 41.4288 15.6439 41.881C16.7941 42.2901 17.9444 42.4408 19.1574 42.247C20.0567 42.1824 20.8933 41.924 21.688 41.4934C21.0188 41.0843 20.3704 40.6536 19.7639 40.1584C19.6803 40.0722 19.4711 40.0507 19.5548 39.8569C19.6175 39.6846 19.7848 39.7492 19.9103 39.7492C20.1404 39.7492 20.3495 39.7492 20.5796 39.7923C20.8096 39.8354 20.9142 39.8138 21.0815 39.7277C20.3286 39.0817 19.4502 38.6511 18.4882 38.3281Z" fill="url(#paint10_linear)"/>
<path d="M28.987 76.0105C29.0707 76.5058 29.1752 77.001 29.3426 77.4747C29.3216 76.0105 28.9452 74.654 28.2341 73.4051C27.7322 72.393 27.042 71.5533 26.1636 70.8427C25.578 70.2828 24.8879 69.8952 24.1559 69.5507C24.0513 69.5077 23.9467 69.4646 23.9049 69.6369C23.6121 70.8212 23.5075 72.0054 23.7167 73.2113C23.7167 73.2759 23.7167 73.3405 23.7585 73.4051C23.9049 74.4817 24.2395 75.4722 24.7833 76.3981C25.2852 77.3671 25.9545 78.2068 26.791 78.8744C27.293 79.3481 27.8577 79.6926 28.4433 80.0156C28.987 80.2955 28.987 80.2955 29.1125 79.7141C29.1334 79.6065 29.1752 79.4988 29.2171 79.3911C29.0916 78.5729 28.987 77.7547 28.8615 76.9364C28.8615 76.8503 28.8615 76.7857 28.8615 76.6996C28.9661 76.4627 28.8406 76.2043 28.987 76.0105Z" fill="url(#paint11_linear)"/>
<path d="M26.6866 25.7745C27.5441 26.8726 28.5898 27.7339 29.8237 28.3799C30.5975 28.8106 31.4132 29.112 32.2706 29.3274C32.5425 29.392 32.5634 29.3058 32.5634 29.0905C32.5844 28.5091 32.5634 27.9277 32.5007 27.3464C32.2497 25.1285 31.4132 23.169 29.9701 21.4895C29.1126 20.4344 28.0669 19.6161 26.8539 19.0347C26.0801 18.5826 25.2226 18.3242 24.3233 18.1304C24.2397 19.1209 24.2815 20.0898 24.4697 21.0373C24.8043 22.7814 25.5154 24.3964 26.6866 25.7745Z" fill="url(#paint12_linear)"/>
<path d="M70.1456 62.9183C69.0999 62.5738 68.0542 62.2508 66.9458 62.1647C66.6739 62.057 66.3811 62.0785 66.1092 62.057C64.1224 61.9278 62.1774 62.1862 60.316 62.8753C56.6352 64.1887 53.8745 66.6219 52.0132 70.1318C52.2223 70.2394 52.3269 70.0672 52.4524 69.981C52.9752 69.615 53.4353 69.1413 54 68.7967C53.6026 69.3351 53.1635 69.8518 52.6615 70.3256C52.5779 70.4117 52.4524 70.4548 52.4524 70.627C52.4942 70.6485 52.536 70.6701 52.5779 70.6916C54.3765 71.273 56.196 71.4883 58.0782 71.3591C58.9148 71.2945 59.7514 71.2084 60.5461 70.9285C61.0899 70.8423 61.6127 70.6485 62.1356 70.4548C63.8923 69.7872 65.5027 68.8613 66.883 67.5478C67.1549 67.3756 67.3641 67.1172 67.5941 66.8803C68.6398 65.8037 69.5182 64.5979 70.2084 63.2413C70.2711 63.1552 70.4175 63.0044 70.1456 62.9183Z" fill="url(#paint13_linear)"/>
<path d="M15.2253 16.2352C16.522 18.1301 18.2788 19.4005 20.412 20.1326C20.5584 20.1757 20.6839 20.1757 20.7048 19.9819C20.3911 19.5513 19.9937 19.2283 19.5127 18.9914C18.8644 18.69 18.216 18.367 17.5677 18.044C17.4631 17.9794 17.2958 17.9579 17.254 17.8287C17.4213 17.6995 17.6513 17.7425 17.8187 17.6349C18.1324 17.6349 18.4252 17.5703 18.718 17.4841C19.1781 17.3334 19.3036 17.0965 19.1781 16.6228C19.0735 16.2998 18.9689 15.9984 18.8434 15.6969C18.7807 15.5247 18.697 15.2878 18.8853 15.1801C19.0526 15.0725 19.2199 15.2447 19.3663 15.3739C19.8473 15.8261 20.2447 16.3644 20.663 16.8812C20.642 16.7305 20.642 16.5798 20.6211 16.429C20.2238 14.3834 19.3245 12.6178 17.9232 11.1105C17.1912 10.2707 16.3547 9.62472 15.3717 9.12947C14.8489 8.76341 14.2424 8.56962 13.6568 8.35429C13.4058 8.26816 13.364 8.35429 13.3431 8.56962C13.1967 9.58165 13.2176 10.6152 13.364 11.6273C13.6149 13.3068 14.2005 14.8572 15.2253 16.2352Z" fill="url(#paint14_linear)"/>
<path d="M73.6177 34.3658C74.6006 34.0212 75.479 33.4183 76.5038 33.1384C75.8764 34.0212 75.0398 34.6457 74.1614 35.184C74.4124 35.2701 74.6425 35.3778 74.8934 35.4424C75.8764 35.7223 76.8803 35.8946 77.926 35.8084C77.9678 35.8084 78.0096 35.8084 78.0514 35.8084C79.1181 35.8084 80.1638 35.5931 81.1676 35.184C81.3977 35.0979 81.6068 35.0333 81.816 34.9471C83.6773 34.1074 85.1622 32.8154 86.2916 31.0713C86.3752 30.9421 86.5007 30.8559 86.2498 30.7483C84.5766 30.0162 82.8198 29.6716 81.0003 29.93C79.8501 30.0162 78.7625 30.3392 77.7168 30.8559C76.0228 31.6096 74.6425 32.7939 73.6177 34.3658Z" fill="url(#paint15_linear)"/>
<path d="M27.1255 15.8696C27.5647 16.7309 28.1294 17.5276 28.8405 18.1735C29.0078 18.4965 29.1333 18.3889 29.3006 18.1305C31.0783 15.3097 31.5175 12.2951 30.5973 9.06524C30.2626 7.90248 29.7607 6.80432 28.9869 5.87841C28.715 5.3401 28.2549 4.95251 27.8784 4.52186C27.753 4.39266 27.6902 4.43573 27.6275 4.56492C27.4602 4.84485 27.251 5.10324 27.1255 5.40469C27.0837 5.46929 27.0419 5.51236 27 5.57695C25.9125 7.66562 25.557 9.90501 25.8916 12.2305C26.0798 13.544 26.4563 14.7714 27.1255 15.8696Z" fill="url(#paint16_linear)"/>
<path d="M51.4274 15.977C51.511 15.3095 51.6365 14.6635 52.013 14.039C52.494 14.5989 52.8704 15.1587 52.7031 15.9554C52.5567 16.6445 52.5567 17.3335 52.975 17.958C53.0587 18.0872 53.1423 18.1733 53.2887 18.0656C53.6442 17.8503 53.9998 17.6565 54.3344 17.4412C54.8573 17.1182 54.8573 17.1182 54.8991 17.7642C55.1082 17.6565 55.1919 17.4412 55.2755 17.2259C55.4638 16.8813 55.6938 16.5584 55.8611 16.1923C57.2415 13.1347 57.2833 10.0555 55.903 6.97635C55.5893 6.2873 55.7147 6.2227 55.0664 6.80408C54.3135 7.38547 53.707 8.09604 53.1841 8.91428C53.1423 8.95735 53.1005 9.00041 53.0587 9.06501C52.2639 10.2924 51.7411 11.6489 51.4901 13.1131C51.3437 14.0821 51.2601 15.0295 51.4274 15.977Z" fill="url(#paint17_linear)"/>
<path d="M87.9642 49.6763C87.8387 49.2672 87.7133 48.858 87.5669 48.4489C87.2113 47.4799 86.7094 46.5756 86.061 45.7788C85.0781 44.4223 83.8232 43.4102 82.3174 42.7212C80.8952 41.9675 79.3685 41.6876 77.779 41.7092C78.511 42.5489 79.0339 43.4964 79.1385 44.6591C79.1594 44.9175 79.1385 45.1544 78.9502 45.3482C78.762 45.1113 78.6783 44.8529 78.5947 44.573C78.3228 43.561 77.7581 42.7643 76.9634 42.1398C76.9843 42.2475 77.0052 42.3551 77.047 42.4628C77.6326 44.4008 78.6365 46.0803 80.1632 47.3938C80.3515 47.5661 80.5397 47.7383 80.7279 47.8891C81.7946 48.7073 82.9448 49.3318 84.2624 49.6332C85.4127 50.0208 86.6048 50.0423 87.7969 49.9993C88.027 49.9777 88.027 49.8485 87.9642 49.6763Z" fill="url(#paint18_linear)"/>
<path d="M39.2974 35.5722C39.7993 37.101 40.7822 38.2422 42.1417 39.0389C42.309 39.125 42.3717 39.082 42.4135 38.9312C42.5599 38.4575 42.6854 37.9838 42.7063 37.4886C42.7691 36.6273 42.7482 35.7659 42.4554 34.9477C41.9534 33.2036 40.8868 31.9547 39.3392 31.0503C39.1719 31.5455 39.0255 31.9977 39.0046 32.493C38.7954 33.5481 38.9209 34.5816 39.2974 35.5722Z" fill="url(#paint19_linear)"/>
<path d="M73.6174 27.6266C73.8475 27.9711 74.0775 28.2941 74.0148 28.7463C74.6004 28.3372 75.1441 27.885 75.5833 27.3036C75.7925 27.0452 76.0225 26.8083 76.2317 26.5284C76.9637 25.5595 77.4865 24.4828 77.842 23.3201C78.5322 20.9945 78.4904 18.6905 77.6747 16.4081C77.5911 16.1712 77.5074 16.1066 77.2983 16.2574C76.629 16.688 75.9807 17.1617 75.416 17.7431C74.684 18.4106 74.0984 19.2073 73.6174 20.1117C72.8436 21.4037 72.4671 22.8033 72.2789 24.289C71.8816 24.289 71.4842 24.2244 71.1077 24.3536C70.2503 24.3967 69.4764 24.7197 68.7235 25.1503C67.5105 25.8609 66.6321 26.8729 66.0884 28.1864C66.5694 28.2295 67.0504 28.1003 67.5314 28.2726C67.5733 28.4879 67.4478 28.5525 67.2805 28.6171C66.9668 28.7463 66.6112 28.8324 66.3184 29.0262C66.4857 29.1985 66.6949 29.22 66.904 29.1985C67.8452 29.1339 68.7654 28.9616 69.6228 28.531C69.7483 28.4664 69.8947 28.4018 69.9575 28.251C69.9575 28.2295 69.9575 28.2295 69.9575 28.208C70.0202 28.2295 70.083 28.208 70.1457 28.1864C70.9404 27.7342 71.6097 27.1529 72.1116 26.3562C72.1325 26.3131 72.1534 26.27 72.1743 26.2485C72.258 26.6576 72.258 27.0883 72.3626 27.4974C72.4044 27.6696 72.4044 27.8634 72.5717 27.9711C72.7181 27.6481 72.8854 27.3251 73.0527 26.9591C73.2201 27.2175 73.4083 27.4328 73.6174 27.6266Z" fill="url(#paint20_linear)"/>
<path d="M58.5801 17.0969C58.8938 18.6473 59.6049 19.9608 60.8179 20.9728C60.8388 20.8651 60.797 20.779 60.7552 20.6713C60.567 20.1115 60.3996 19.5301 60.2114 18.9703C60.1487 18.7765 60.1696 18.5396 60.316 18.4535C60.4624 18.3889 60.6088 18.5827 60.7133 18.7119C60.797 18.8195 60.8388 18.9487 60.9016 19.0779C61.1107 19.5516 61.3408 20.0254 61.5499 20.4775C61.8218 19.9392 61.9264 19.3578 61.9891 18.7549C62.0518 18.0228 62.0728 17.2907 61.8636 16.5801C61.8218 16.3863 61.759 16.2141 61.7172 16.0203C61.3617 14.5991 60.546 13.501 59.4376 12.5966C59.2912 12.4674 59.2285 12.532 59.1657 12.6827C59.0193 13.0057 58.852 13.3072 58.7893 13.6732C58.5801 14.19 58.4965 14.7283 58.4965 15.2667C58.4756 15.3313 58.4756 15.3958 58.4756 15.4604C58.3919 16.0418 58.4756 16.5586 58.5801 17.0969Z" fill="url(#paint21_linear)"/>
<path d="M71.9656 11.4769C72.1748 11.6491 72.2584 11.9075 72.2793 12.1659C72.363 13.1349 71.9656 13.91 71.2755 14.5345C71.3173 14.5991 71.38 14.6637 71.401 14.7283C71.5264 15.0297 71.6519 15.0082 71.8611 14.7929C72.2166 14.4484 72.5512 14.1038 72.8231 13.6947C74.5381 11.1323 74.6845 8.46229 73.2832 5.70611C73.1368 5.42619 73.0322 5.42619 72.844 5.64152C72.5094 6.00757 72.1539 6.33056 71.882 6.76121C71.3173 7.47179 70.9408 8.29003 70.7317 9.15134C70.3762 10.4864 70.3343 11.8214 70.7735 13.1564C71.1709 12.5966 71.5683 12.0367 71.9656 11.4769Z" fill="url(#paint22_linear)"/>
<path d="M43.9826 28.9615C43.9617 26.6575 42.9788 24.978 40.9501 23.9659C40.3436 23.6645 40.3436 23.686 40.3227 24.3535C40.3018 24.3751 40.3018 24.3966 40.3018 24.4181C40.1972 24.9349 40.2808 25.4517 40.4063 25.9469C40.6991 27.1743 41.2638 28.2294 42.2886 28.983C41.8912 28.1648 41.7867 27.325 42.0376 26.4422C42.1422 26.2915 42.2049 26.3345 42.3095 26.4637C42.5187 26.7867 42.7278 27.1097 42.8533 27.4973C43.0833 28.1002 43.397 28.6385 43.9826 28.9615Z" fill="url(#paint23_linear)"/>
<path d="M79.1183 49.6975C78.8673 48.9869 78.4909 48.3409 78.0098 47.7811C76.755 46.1661 75.1028 45.2618 73.095 45.0249C73.1369 45.068 73.1996 45.1326 73.2623 45.1756C73.9316 45.757 74.6427 46.2738 75.3747 46.7906C75.5211 46.8982 75.6466 47.049 75.5838 47.1997C75.5211 47.372 75.3119 47.3504 75.1446 47.3074C74.81 47.2212 74.4963 47.092 74.2035 46.8767C73.7015 46.5107 73.1787 46.1661 72.6768 45.8001C72.6977 45.9077 72.7186 45.9939 72.7395 46.1015C73.0741 47.415 73.6388 48.5993 74.5799 49.5468C75.1237 50.1927 75.772 50.688 76.5249 51.054C77.4242 51.5708 78.4072 51.8077 79.4111 51.8938C79.5993 51.9154 79.6411 51.8723 79.6202 51.657C79.5157 50.9894 79.3902 50.3219 79.1183 49.6975Z" fill="url(#paint24_linear)"/>
<path d="M21.6462 35.3134C21.437 35.3349 21.4161 35.4211 21.4789 35.5933C21.8553 36.67 22.4618 37.5313 23.403 38.1126C24.0931 38.5864 24.867 38.8232 25.7035 38.8448C25.5571 38.6294 25.3898 38.4572 25.1807 38.3064C24.9297 38.1126 25.1807 38.005 25.2434 37.8758C25.3062 37.7251 25.3898 37.682 25.5571 37.7897C25.8081 37.9619 26.0172 38.1988 26.31 38.328C26.3519 38.1772 26.2473 38.0696 26.1845 37.9404C25.6199 36.7776 24.7415 35.9809 23.5494 35.5503C22.9638 35.2919 22.3154 35.2703 21.6462 35.3134Z" fill="url(#paint25_linear)"/>
<path d="M36.5369 39.3616C35.9723 39.5984 35.6586 40.0937 35.7213 40.6535C35.784 41.2134 36.2023 41.644 36.767 41.7086C37.1225 41.7732 37.4572 41.6656 37.729 41.4072C38.1264 41.0196 38.231 40.4382 37.98 39.943C37.6872 39.4262 37.1853 39.2109 36.5369 39.3616Z" fill="url(#paint26_linear)"/>
<path d="M78.0934 26.3344C77.9052 26.7865 78.0098 27.3249 78.3444 27.6694C78.6999 28.0354 79.181 28.1216 79.662 27.9062C80.2057 27.6048 80.4149 27.2172 80.3521 26.6573C80.2685 26.0329 79.892 25.7099 79.3064 25.6238C78.6999 25.5807 78.2817 25.8391 78.0934 26.3344Z" fill="url(#paint27_linear)"/>
<path d="M7.71704 52.0009C8.07258 51.8502 8.28172 51.5702 8.36537 51.2042C8.51177 50.5582 8.2608 50.1491 7.52881 49.7615C7.02688 49.5892 6.50403 49.783 6.21123 50.2352C5.93935 50.6659 5.96026 51.2903 6.29489 51.6779C6.67134 52.1301 7.19419 52.2378 7.71704 52.0009Z" fill="url(#paint28_linear)"/>
<path d="M31.0993 32.8373C31.6222 32.5574 31.8522 32.1267 31.7476 31.5453C31.664 31.0285 31.3712 30.7055 30.8692 30.5979C30.3673 30.4687 29.8654 30.6625 29.5935 31.1147C29.3216 31.5669 29.3843 32.1913 29.719 32.5789C30.0954 32.9665 30.5974 33.0741 31.0993 32.8373Z" fill="url(#paint29_linear)"/>
<path d="M65.1264 10.8956C65.712 10.5941 65.963 10.1204 65.8584 9.51749C65.7538 9.0007 65.3355 8.63464 64.7499 8.59158C64.2271 8.57005 63.8297 8.82844 63.6206 9.28063C63.4324 9.73282 63.516 10.2711 63.8506 10.6157C64.2062 11.0032 64.6454 11.0894 65.1264 10.8956Z" fill="url(#paint30_linear)"/>
<path d="M22.1479 10.8953C22.2943 10.8092 22.4407 10.7661 22.5453 10.6369C22.859 10.2709 22.9636 9.86174 22.8172 9.40955C22.6289 8.87124 22.2316 8.63437 21.7087 8.59131C21.1859 8.59131 20.7885 8.8497 20.6003 9.32342C20.412 9.77561 20.5166 10.3139 20.8512 10.6585C21.2068 11.003 21.6669 11.0891 22.1479 10.8953Z" fill="url(#paint31_linear)"/>
<path d="M30.0329 50.5585C29.8446 49.9125 29.1963 49.568 28.5689 49.7618C27.9205 49.9556 27.5859 50.58 27.7532 51.2476C27.8996 51.8289 28.4434 52.1735 29.008 52.0873C29.0499 52.0873 29.1126 52.0658 29.1754 52.0658C29.8446 51.8935 30.2211 51.226 30.0329 50.5585Z" fill="url(#paint32_linear)"/>
<path d="M9.11846 17.398C9.20212 17.355 9.26486 17.3119 9.34851 17.2904C9.87137 17.1612 10.1014 16.4291 9.99685 15.9984C9.87137 15.417 9.41126 15.051 8.82566 15.051C8.30281 15.0294 7.94727 15.3094 7.75904 15.7615C7.5499 16.2353 7.63356 16.6874 7.96818 17.075C8.26098 17.398 8.63743 17.5703 9.11846 17.398Z" fill="url(#paint33_linear)"/>
<path d="M20.433 29.7368C20.1402 30.1674 20.1402 30.7273 20.433 31.1579C20.7258 31.567 21.2277 31.7393 21.7087 31.5886C22.2943 31.3732 22.608 30.9426 22.5871 30.4043C22.5662 29.8659 22.2316 29.4353 21.7087 29.2846C21.2068 29.1338 20.7258 29.3061 20.433 29.7368Z" fill="url(#paint34_linear)"/>
<path d="M40.5528 3.05933C41.2429 2.82247 41.5776 2.32722 41.473 1.72431C41.3684 1.07833 40.9083 0.690746 40.26 0.712279C39.5489 0.733811 39.0679 1.31519 39.1515 2.06883C39.1934 2.73634 39.8208 3.18853 40.5528 3.05933Z" fill="url(#paint35_linear)"/>
<path d="M51.3441 6.67519C52.0134 6.61059 52.4944 6.05075 52.4317 5.38323C52.348 4.62959 51.7624 4.1774 50.9677 4.3066C50.3193 4.50039 49.9638 5.03871 50.0684 5.70622C50.1939 6.33067 50.6958 6.71826 51.3441 6.67519Z" fill="url(#paint36_linear)"/>
<path d="M4.58013 29.392C5.2703 29.1982 5.64675 28.5522 5.43761 27.8632C5.24939 27.2172 4.60105 26.8727 3.97363 27.088C3.32529 27.2818 2.99066 27.9063 3.15798 28.5738C3.3462 29.1767 3.95271 29.5427 4.58013 29.392Z" fill="url(#paint37_linear)"/>
<path d="M40.9914 20.3916C40.5103 20.3055 40.0502 20.4993 39.7993 20.9299C39.5483 21.3606 39.5901 21.9635 39.9038 22.3511C40.2384 22.7387 40.7195 22.8679 41.2005 22.6956C41.6397 22.5664 41.8697 22.2434 41.9534 21.8128C42.0998 21.1237 41.807 20.6715 40.9914 20.3916Z" fill="url(#paint38_linear)"/>
<path d="M55.2968 24.3105C54.774 24.3105 54.3766 24.5689 54.1884 25.0427C54.0002 25.4948 54.1047 26.0332 54.4603 26.3777C54.8158 26.7437 55.2759 26.8083 55.7569 26.6145C56.3425 26.3131 56.5726 25.8394 56.4471 25.258C56.3007 24.6766 55.8824 24.3321 55.2968 24.3105Z" fill="url(#paint39_linear)"/>
<path d="M82.5476 36.7343C82.0039 36.7127 81.5856 36.9496 81.3764 37.4018C81.1673 37.854 81.2719 38.4138 81.6065 38.7799C81.962 39.1459 82.4431 39.2321 82.9241 39.0167C83.4469 38.7583 83.6979 38.3062 83.6352 37.7678C83.5515 37.1864 83.1751 36.8419 82.5476 36.7343Z" fill="url(#paint40_linear)"/>
<path d="M61.0479 34.6031C60.7761 35.0338 60.797 35.6151 61.0898 36.0243C61.4035 36.4334 61.8845 36.5841 62.3655 36.4119C62.9302 36.1965 63.202 35.8089 63.202 35.2706C63.202 34.6892 62.9093 34.3232 62.2818 34.1078C61.8217 33.9786 61.3198 34.1724 61.0479 34.6031Z" fill="url(#paint41_linear)"/>
<defs>
<linearGradient id="paint0_linear" x1="32.2922" y1="14.275" x2="39.8636" y2="14.275" gradientUnits="userSpaceOnUse">
<stop stop-color="#97C15A"/>
<stop offset="1" stop-color="#405C40"/>
</linearGradient>
<linearGradient id="paint1_linear" x1="42.121" y1="9.62083" x2="49.6972" y2="9.62083" gradientUnits="userSpaceOnUse">
<stop stop-color="#97C15A"/>
<stop offset="1" stop-color="#405C40"/>
</linearGradient>
<linearGradient id="paint2_linear" x1="4.86748" y1="26.0631" x2="18.7303" y2="26.0631" gradientUnits="userSpaceOnUse">
<stop stop-color="#97C15A"/>
<stop offset="1" stop-color="#405C40"/>
</linearGradient>
<linearGradient id="paint3_linear" x1="38.6759" y1="44.3341" x2="46.9671" y2="44.3341" gradientUnits="userSpaceOnUse">
<stop stop-color="#97C15A"/>
<stop offset="1" stop-color="#405C40"/>
</linearGradient>
<linearGradient id="paint4_linear" x1="0.0268955" y1="35.8636" x2="10.6358" y2="35.8636" gradientUnits="userSpaceOnUse">
<stop stop-color="#97C15A"/>
<stop offset="1" stop-color="#405C40"/>
</linearGradient>
<linearGradient id="paint5_linear" x1="60.1376" y1="55.4735" x2="66.8956" y2="55.4735" gradientUnits="userSpaceOnUse">
<stop stop-color="#97C15A"/>
<stop offset="1" stop-color="#405C40"/>
</linearGradient>
<linearGradient id="paint6_linear" x1="3.91968" y1="46.1538" x2="16.7447" y2="46.1538" gradientUnits="userSpaceOnUse">
<stop stop-color="#97C15A"/>
<stop offset="1" stop-color="#405C40"/>
</linearGradient>
<linearGradient id="paint7_linear" x1="6.09843" y1="55.0113" x2="19.4868" y2="55.0113" gradientUnits="userSpaceOnUse">
<stop stop-color="#97C15A"/>
<stop offset="1" stop-color="#405C40"/>
</linearGradient>
<linearGradient id="paint8_linear" x1="21.405" y1="64.0917" x2="34.4882" y2="64.0917" gradientUnits="userSpaceOnUse">
<stop stop-color="#97C15A"/>
<stop offset="1" stop-color="#405C40"/>
</linearGradient>
<linearGradient id="paint9_linear" x1="48.5817" y1="60.7277" x2="59.6768" y2="60.7277" gradientUnits="userSpaceOnUse">
<stop stop-color="#97C15A"/>
<stop offset="1" stop-color="#405C40"/>
</linearGradient>
<linearGradient id="paint10_linear" x1="11.9015" y1="40.1311" x2="21.6973" y2="40.1311" gradientUnits="userSpaceOnUse">
<stop stop-color="#97C15A"/>
<stop offset="1" stop-color="#405C40"/>
</linearGradient>
<linearGradient id="paint11_linear" x1="23.6336" y1="74.8227" x2="29.3561" y2="74.8227" gradientUnits="userSpaceOnUse">
<stop stop-color="#97C15A"/>
<stop offset="1" stop-color="#405C40"/>
</linearGradient>
<linearGradient id="paint12_linear" x1="24.271" y1="23.7205" x2="32.5682" y2="23.7205" gradientUnits="userSpaceOnUse">
<stop stop-color="#97C15A"/>
<stop offset="1" stop-color="#405C40"/>
</linearGradient>
<linearGradient id="paint13_linear" x1="51.976" y1="66.7225" x2="70.3027" y2="66.7225" gradientUnits="userSpaceOnUse">
<stop stop-color="#97C15A"/>
<stop offset="1" stop-color="#405C40"/>
</linearGradient>
<linearGradient id="paint14_linear" x1="13.2437" y1="14.2334" x2="20.7111" y2="14.2334" gradientUnits="userSpaceOnUse">
<stop stop-color="#97C15A"/>
<stop offset="1" stop-color="#405C40"/>
</linearGradient>
<linearGradient id="paint15_linear" x1="73.6136" y1="32.8361" x2="86.3805" y2="32.8361" gradientUnits="userSpaceOnUse">
<stop stop-color="#97C15A"/>
<stop offset="1" stop-color="#405C40"/>
</linearGradient>
<linearGradient id="paint16_linear" x1="25.7747" y1="11.4283" x2="31.0679" y2="11.4283" gradientUnits="userSpaceOnUse">
<stop stop-color="#97C15A"/>
<stop offset="1" stop-color="#405C40"/>
</linearGradient>
<linearGradient id="paint17_linear" x1="51.3325" y1="12.2726" x2="56.9269" y2="12.2726" gradientUnits="userSpaceOnUse">
<stop stop-color="#97C15A"/>
<stop offset="1" stop-color="#405C40"/>
</linearGradient>
<linearGradient id="paint18_linear" x1="76.9762" y1="45.8456" x2="87.994" y2="45.8456" gradientUnits="userSpaceOnUse">
<stop stop-color="#97C15A"/>
<stop offset="1" stop-color="#405C40"/>
</linearGradient>
<linearGradient id="paint19_linear" x1="38.8939" y1="35.0819" x2="42.7162" y2="35.0819" gradientUnits="userSpaceOnUse">
<stop stop-color="#97C15A"/>
<stop offset="1" stop-color="#405C40"/>
</linearGradient>
<linearGradient id="paint20_linear" x1="66.0618" y1="22.7136" x2="78.3088" y2="22.7136" gradientUnits="userSpaceOnUse">
<stop stop-color="#97C15A"/>
<stop offset="1" stop-color="#405C40"/>
</linearGradient>
<linearGradient id="paint21_linear" x1="58.4304" y1="16.7693" x2="62.0231" y2="16.7693" gradientUnits="userSpaceOnUse">
<stop stop-color="#97C15A"/>
<stop offset="1" stop-color="#405C40"/>
</linearGradient>
<linearGradient id="paint22_linear" x1="70.4646" y1="10.2133" x2="74.2431" y2="10.2133" gradientUnits="userSpaceOnUse">
<stop stop-color="#97C15A"/>
<stop offset="1" stop-color="#405C40"/>
</linearGradient>
<linearGradient id="paint23_linear" x1="40.2579" y1="26.3912" x2="43.9743" y2="26.3912" gradientUnits="userSpaceOnUse">
<stop stop-color="#97C15A"/>
<stop offset="1" stop-color="#405C40"/>
</linearGradient>
<linearGradient id="paint24_linear" x1="72.663" y1="48.4625" x2="79.6255" y2="48.4625" gradientUnits="userSpaceOnUse">
<stop stop-color="#97C15A"/>
<stop offset="1" stop-color="#405C40"/>
</linearGradient>
<linearGradient id="paint25_linear" x1="21.4485" y1="37.0733" x2="26.3289" y2="37.0733" gradientUnits="userSpaceOnUse">
<stop stop-color="#97C15A"/>
<stop offset="1" stop-color="#405C40"/>
</linearGradient>
<linearGradient id="paint26_linear" x1="35.7022" y1="40.5171" x2="38.0855" y2="40.5171" gradientUnits="userSpaceOnUse">
<stop stop-color="#97C15A"/>
<stop offset="1" stop-color="#405C40"/>
</linearGradient>
<linearGradient id="paint27_linear" x1="77.9891" y1="26.8254" x2="80.346" y2="26.8254" gradientUnits="userSpaceOnUse">
<stop stop-color="#97C15A"/>
<stop offset="1" stop-color="#405C40"/>
</linearGradient>
<linearGradient id="paint28_linear" x1="6.04971" y1="50.9122" x2="8.4144" y2="50.9122" gradientUnits="userSpaceOnUse">
<stop stop-color="#97C15A"/>
<stop offset="1" stop-color="#405C40"/>
</linearGradient>
<linearGradient id="paint29_linear" x1="29.4304" y1="31.7505" x2="31.7843" y2="31.7505" gradientUnits="userSpaceOnUse">
<stop stop-color="#97C15A"/>
<stop offset="1" stop-color="#405C40"/>
</linearGradient>
<linearGradient id="paint30_linear" x1="63.522" y1="9.78998" x2="65.8886" y2="9.78998" gradientUnits="userSpaceOnUse">
<stop stop-color="#97C15A"/>
<stop offset="1" stop-color="#405C40"/>
</linearGradient>
<linearGradient id="paint31_linear" x1="20.5085" y1="9.7906" x2="22.881" y2="9.7906" gradientUnits="userSpaceOnUse">
<stop stop-color="#97C15A"/>
<stop offset="1" stop-color="#405C40"/>
</linearGradient>
<linearGradient id="paint32_linear" x1="27.7003" y1="50.911" x2="30.0772" y2="50.911" gradientUnits="userSpaceOnUse">
<stop stop-color="#97C15A"/>
<stop offset="1" stop-color="#405C40"/>
</linearGradient>
<linearGradient id="paint33_linear" x1="7.62753" y1="16.2522" x2="10.0105" y2="16.2522" gradientUnits="userSpaceOnUse">
<stop stop-color="#97C15A"/>
<stop offset="1" stop-color="#405C40"/>
</linearGradient>
<linearGradient id="paint34_linear" x1="20.2131" y1="30.4407" x2="22.5872" y2="30.4407" gradientUnits="userSpaceOnUse">
<stop stop-color="#97C15A"/>
<stop offset="1" stop-color="#405C40"/>
</linearGradient>
<linearGradient id="paint35_linear" x1="39.1211" y1="1.88145" x2="41.4843" y2="1.88145" gradientUnits="userSpaceOnUse">
<stop stop-color="#97C15A"/>
<stop offset="1" stop-color="#405C40"/>
</linearGradient>
<linearGradient id="paint36_linear" x1="50.0643" y1="5.47873" x2="52.4395" y2="5.47873" gradientUnits="userSpaceOnUse">
<stop stop-color="#97C15A"/>
<stop offset="1" stop-color="#405C40"/>
</linearGradient>
<linearGradient id="paint37_linear" x1="3.1237" y1="28.2177" x2="5.50006" y2="28.2177" gradientUnits="userSpaceOnUse">
<stop stop-color="#97C15A"/>
<stop offset="1" stop-color="#405C40"/>
</linearGradient>
<linearGradient id="paint38_linear" x1="39.6397" y1="21.5702" x2="42.0017" y2="21.5702" gradientUnits="userSpaceOnUse">
<stop stop-color="#97C15A"/>
<stop offset="1" stop-color="#405C40"/>
</linearGradient>
<linearGradient id="paint39_linear" x1="54.0941" y1="25.5152" x2="56.4635" y2="25.5152" gradientUnits="userSpaceOnUse">
<stop stop-color="#97C15A"/>
<stop offset="1" stop-color="#405C40"/>
</linearGradient>
<linearGradient id="paint40_linear" x1="81.2742" y1="37.937" x2="83.6373" y2="37.937" gradientUnits="userSpaceOnUse">
<stop stop-color="#97C15A"/>
<stop offset="1" stop-color="#405C40"/>
</linearGradient>
<linearGradient id="paint41_linear" x1="60.8554" y1="35.2815" x2="63.2092" y2="35.2815" gradientUnits="userSpaceOnUse">
<stop stop-color="#97C15A"/>
<stop offset="1" stop-color="#405C40"/>
</linearGradient>
</defs>
</svg>
