<svg width="24" height="24" viewBox="0 0 24 24" fill="none" xmlns="http://www.w3.org/2000/svg">
<path d="M19.3846 12.923H11.0769V4.61534C11.0769 4.37052 10.9797 4.13573 10.8066 3.96262C10.6335 3.78951 10.3987 3.69226 10.1538 3.69226C8.14561 3.69226 6.18247 4.28777 4.51267 5.40349C2.84288 6.51921 1.54144 8.10502 0.77292 9.9604C0.00439954 11.8158 -0.19668 13.8574 0.195108 15.827C0.586896 17.7967 1.55396 19.6059 2.974 21.026C4.39404 22.446 6.20328 23.4131 8.17293 23.8048C10.1426 24.1966 12.1842 23.9956 14.0396 23.227C15.8949 22.4585 17.4807 21.1571 18.5965 19.4873C19.7122 17.8175 20.3077 15.8543 20.3077 13.8461C20.3077 13.6013 20.2104 13.3665 20.0373 13.1934C19.8642 13.0203 19.6294 12.923 19.3846 12.923ZM10.1538 22.1538C8.03645 22.1451 6.00226 21.3283 4.4669 19.8702C2.93154 18.412 2.01089 16.4227 1.89305 14.3085C1.7752 12.1944 2.46906 10.1151 3.83286 8.49532C5.19665 6.87559 7.12745 5.83774 9.23077 5.5938V13.8461C9.23077 14.0909 9.32802 14.3257 9.50113 14.4988C9.67424 14.6719 9.90903 14.7692 10.1538 14.7692H18.4062C18.1792 16.7994 17.2121 18.6747 15.6898 20.037C14.1675 21.3992 12.1967 22.1528 10.1538 22.1538Z" fill="#C9AB7E"/>
<path d="M13.8461 0C13.6013 0 13.3665 0.0972526 13.1934 0.270363C13.0203 0.443474 12.9231 0.678262 12.9231 0.923077V10.1538C12.9231 10.3987 13.0203 10.6334 13.1934 10.8066C13.3665 10.9797 13.6013 11.0769 13.8461 11.0769H23.0769C23.3217 11.0769 23.5565 10.9797 23.7296 10.8066C23.9027 10.6334 24 10.3987 24 10.1538C24 8.82042 23.7373 7.50006 23.2271 6.26814C22.7168 5.03621 21.9689 3.91686 21.026 2.97399C20.0831 2.03112 18.9638 1.28319 17.7319 0.772915C16.4999 0.262637 15.1796 0 13.8461 0ZM22.0984 9.23077H14.7692V1.90154C16.6407 2.11159 18.3853 2.95129 19.717 4.28297C21.0487 5.61464 21.8884 7.35925 22.0984 9.23077Z" fill="#C9AB7E"/>
</svg>
