<svg width="18" height="24" viewBox="0 0 18 24" fill="none" xmlns="http://www.w3.org/2000/svg">
<path d="M8.72727 24C8.45429 23.9992 8.19155 23.896 7.99091 23.7109C7.63636 23.4109 0 16.2818 0 8.72727C0 6.41266 0.919478 4.19284 2.55616 2.55616C4.19284 0.919478 6.41266 0 8.72727 0C11.0419 0 13.2617 0.919478 14.8984 2.55616C16.5351 4.19284 17.4545 6.41266 17.4545 8.72727C17.4545 16.1836 9.81818 23.4055 9.46909 23.7055C9.2679 23.8938 9.00287 23.999 8.72727 24ZM8.72727 2.18182C6.99131 2.18182 5.32645 2.87143 4.09894 4.09894C2.87143 5.32645 2.18182 6.99131 2.18182 8.72727C2.18182 14.04 6.86727 19.44 8.72727 21.3655C10.5764 19.4182 15.2727 13.9745 15.2727 8.72727C15.2727 6.99131 14.5831 5.32645 13.3556 4.09894C12.1281 2.87143 10.4632 2.18182 8.72727 2.18182Z" fill="#C9AB7E"/>
<path d="M8.72727 12.5454C7.97211 12.5454 7.2339 12.3215 6.606 11.9019C5.97811 11.4824 5.48872 10.8861 5.19973 10.1884C4.91074 9.49071 4.83513 8.72301 4.98245 7.98235C5.12978 7.2417 5.49343 6.56136 6.02741 6.02738C6.56139 5.4934 7.24173 5.12975 7.98238 4.98242C8.72304 4.8351 9.49074 4.91071 10.1884 5.1997C10.8861 5.48869 11.4824 5.97808 11.902 6.60597C12.3215 7.23387 12.5455 7.97208 12.5455 8.72724C12.5455 9.73989 12.1432 10.7111 11.4271 11.4271C10.7111 12.1432 9.73992 12.5454 8.72727 12.5454ZM8.72727 7.09088C8.40363 7.09088 8.08726 7.18685 7.81816 7.36666C7.54906 7.54646 7.33932 7.80203 7.21547 8.10103C7.09162 8.40004 7.05921 8.72906 7.12235 9.04648C7.18549 9.3639 7.34134 9.65547 7.57019 9.88432C7.79904 10.1132 8.09061 10.269 8.40803 10.3322C8.72546 10.3953 9.05447 10.3629 9.35348 10.239C9.65249 10.1152 9.90805 9.90545 10.0879 9.63636C10.2677 9.36726 10.3636 9.05088 10.3636 8.72724C10.3636 8.29325 10.1912 7.87704 9.88435 7.57016C9.57748 7.26328 9.16126 7.09088 8.72727 7.09088Z" fill="#C9AB7E"/>
</svg>
