<svg width="16" height="24" viewBox="0 0 16 24" fill="none" xmlns="http://www.w3.org/2000/svg">
<path d="M12.3284 3.33474H11.0147V1.59158C11.0147 0.707368 10.3074 0 9.42316 0H5.5579C4.67368 0 3.96632 0.707368 3.96632 1.59158V3.33474H2.65263C1.18737 3.33474 0 4.52211 0 5.98737V21.3474C0 22.8126 1.18737 24 2.65263 24H12.3537C13.8189 24 15.0063 22.8126 15.0063 21.3474V6.01263C14.9811 4.54737 13.7937 3.33474 12.3284 3.33474ZM5.73474 1.76842H9.22105V3.33474H5.73474V1.76842ZM13.2126 21.3474C13.2126 21.8274 12.8084 22.2316 12.3284 22.2316H2.62737C2.14737 22.2316 1.74316 21.8274 1.74316 21.3474V6.01263C1.74316 5.53263 2.14737 5.12842 2.62737 5.12842H12.3284C12.8084 5.12842 13.2126 5.53263 13.2126 6.01263V21.3474Z" fill="#C9AB7E"/>
<path d="M10.459 18.4421H4.49685C4.01685 18.4421 3.61264 18.8463 3.61264 19.3263C3.61264 19.8063 4.01685 20.2106 4.49685 20.2106H10.459C10.939 20.2106 11.3432 19.8063 11.3432 19.3263C11.3432 18.8463 10.939 18.4421 10.459 18.4421Z" fill="#C9AB7E"/>
</svg>
