<svg width="24" height="24" viewBox="0 0 24 24" fill="none" xmlns="http://www.w3.org/2000/svg">
<path d="M7.63636 10.9091H3.27273C2.40475 10.9091 1.57231 10.5643 0.958559 9.95053C0.344804 9.33678 0 8.50434 0 7.63636V3.27273C0 2.40475 0.344804 1.57231 0.958559 0.958559C1.57231 0.344804 2.40475 0 3.27273 0H7.63636C8.50434 0 9.33678 0.344804 9.95053 0.958559C10.5643 1.57231 10.9091 2.40475 10.9091 3.27273V7.63636C10.9091 8.50434 10.5643 9.33678 9.95053 9.95053C9.33678 10.5643 8.50434 10.9091 7.63636 10.9091ZM3.27273 2.18182C2.9834 2.18182 2.70592 2.29675 2.50134 2.50134C2.29675 2.70592 2.18182 2.9834 2.18182 3.27273V7.63636C2.18182 7.92569 2.29675 8.20317 2.50134 8.40775C2.70592 8.61234 2.9834 8.72727 3.27273 8.72727H7.63636C7.92569 8.72727 8.20317 8.61234 8.40775 8.40775C8.61234 8.20317 8.72727 7.92569 8.72727 7.63636V3.27273C8.72727 2.9834 8.61234 2.70592 8.40775 2.50134C8.20317 2.29675 7.92569 2.18182 7.63636 2.18182H3.27273Z" fill="#C9AB7E"/>
<path d="M7.63636 24H3.27273C2.40475 24 1.57231 23.6552 0.958559 23.0415C0.344804 22.4277 0 21.5953 0 20.7273V16.3637C0 15.4957 0.344804 14.6633 0.958559 14.0495C1.57231 13.4357 2.40475 13.0909 3.27273 13.0909H7.63636C8.50434 13.0909 9.33678 13.4357 9.95053 14.0495C10.5643 14.6633 10.9091 15.4957 10.9091 16.3637V20.7273C10.9091 21.5953 10.5643 22.4277 9.95053 23.0415C9.33678 23.6552 8.50434 24 7.63636 24ZM3.27273 15.2728C2.9834 15.2728 2.70592 15.3877 2.50134 15.5923C2.29675 15.7969 2.18182 16.0743 2.18182 16.3637V20.7273C2.18182 21.0166 2.29675 21.2941 2.50134 21.4987C2.70592 21.7033 2.9834 21.8182 3.27273 21.8182H7.63636C7.92569 21.8182 8.20317 21.7033 8.40775 21.4987C8.61234 21.2941 8.72727 21.0166 8.72727 20.7273V16.3637C8.72727 16.0743 8.61234 15.7969 8.40775 15.5923C8.20317 15.3877 7.92569 15.2728 7.63636 15.2728H3.27273Z" fill="#C9AB7E"/>
<path d="M20.7273 10.9091H16.3636C15.4957 10.9091 14.6632 10.5643 14.0495 9.95053C13.4357 9.33678 13.0909 8.50434 13.0909 7.63636V3.27273C13.0909 2.40475 13.4357 1.57231 14.0495 0.958559C14.6632 0.344804 15.4957 0 16.3636 0H20.7273C21.5953 0 22.4277 0.344804 23.0414 0.958559C23.6552 1.57231 24 2.40475 24 3.27273V7.63636C24 8.50434 23.6552 9.33678 23.0414 9.95053C22.4277 10.5643 21.5953 10.9091 20.7273 10.9091ZM16.3636 2.18182C16.0743 2.18182 15.7968 2.29675 15.5922 2.50134C15.3877 2.70592 15.2727 2.9834 15.2727 3.27273V7.63636C15.2727 7.92569 15.3877 8.20317 15.5922 8.40775C15.7968 8.61234 16.0743 8.72727 16.3636 8.72727H20.7273C21.0166 8.72727 21.2941 8.61234 21.4987 8.40775C21.7033 8.20317 21.8182 7.92569 21.8182 7.63636V3.27273C21.8182 2.9834 21.7033 2.70592 21.4987 2.50134C21.2941 2.29675 21.0166 2.18182 20.7273 2.18182H16.3636Z" fill="#C9AB7E"/>
<path d="M18.5455 24C18.2561 24 17.9786 23.8851 17.7741 23.6805C17.5695 23.4759 17.4545 23.1985 17.4545 22.9091V14.1819C17.4545 13.8925 17.5695 13.615 17.7741 13.4105C17.9786 13.2059 18.2561 13.0909 18.5455 13.0909C18.8348 13.0909 19.1123 13.2059 19.3168 13.4105C19.5214 13.615 19.6364 13.8925 19.6364 14.1819V22.9091C19.6364 23.1985 19.5214 23.4759 19.3168 23.6805C19.1123 23.8851 18.8348 24 18.5455 24Z" fill="#C9AB7E"/>
<path d="M22.9091 19.6364H14.1818C13.8925 19.6364 13.615 19.5215 13.4104 19.3169C13.2058 19.1123 13.0909 18.8348 13.0909 18.5455C13.0909 18.2562 13.2058 17.9787 13.4104 17.7741C13.615 17.5695 13.8925 17.4546 14.1818 17.4546H22.9091C23.1984 17.4546 23.4759 17.5695 23.6805 17.7741C23.8851 17.9787 24 18.2562 24 18.5455C24 18.8348 23.8851 19.1123 23.6805 19.3169C23.4759 19.5215 23.1984 19.6364 22.9091 19.6364Z" fill="#C9AB7E"/>
</svg>
