<svg width="24" height="24" viewBox="0 0 24 24" fill="none" xmlns="http://www.w3.org/2000/svg">
<path d="M16.8889 24H2.66667C1.95942 24 1.28115 23.7191 0.781048 23.219C0.280951 22.7189 0 22.0406 0 21.3333V7.11112C0 6.40388 0.280951 5.7256 0.781048 5.22551C1.28115 4.72541 1.95942 4.44446 2.66667 4.44446H9.77778C10.0135 4.44446 10.2396 4.53811 10.4063 4.70481C10.573 4.87151 10.6667 5.0976 10.6667 5.33335C10.6667 5.56909 10.573 5.79519 10.4063 5.96189C10.2396 6.12859 10.0135 6.22224 9.77778 6.22224H2.66667C2.43092 6.22224 2.20483 6.31589 2.03813 6.48258C1.87143 6.64928 1.77778 6.87538 1.77778 7.11112V21.3333C1.77778 21.5691 1.87143 21.7952 2.03813 21.9619C2.20483 22.1286 2.43092 22.2222 2.66667 22.2222H16.8889C17.1246 22.2222 17.3507 22.1286 17.5174 21.9619C17.6841 21.7952 17.7778 21.5691 17.7778 21.3333V14.2222C17.7778 13.9865 17.8714 13.7604 18.0381 13.5937C18.2048 13.427 18.4309 13.3333 18.6667 13.3333C18.9024 13.3333 19.1285 13.427 19.2952 13.5937C19.4619 13.7604 19.5556 13.9865 19.5556 14.2222V21.3333C19.5556 22.0406 19.2746 22.7189 18.7745 23.219C18.2744 23.7191 17.5961 24 16.8889 24Z" fill="#C9AB7E"/>
<path d="M18.6667 10.6667C17.6118 10.6667 16.5807 10.3539 15.7036 9.76784C14.8266 9.1818 14.143 8.34885 13.7393 7.37431C13.3356 6.39977 13.23 5.32742 13.4358 4.29285C13.6416 3.25829 14.1495 2.30798 14.8954 1.5621C15.6413 0.816219 16.5916 0.308269 17.6262 0.102481C18.6607 -0.103307 19.7331 0.00231086 20.7076 0.405978C21.6822 0.809646 22.5151 1.49323 23.1012 2.37029C23.6872 3.24736 24 4.2785 24 5.33333C24 6.74782 23.4381 8.10438 22.4379 9.10457C21.4377 10.1048 20.0812 10.6667 18.6667 10.6667ZM18.6667 1.77778C17.9634 1.77778 17.276 1.98631 16.6913 2.377C16.1066 2.76769 15.6509 3.32299 15.3818 3.97268C15.1126 4.62238 15.0422 5.33728 15.1794 6.02699C15.3166 6.7167 15.6553 7.35024 16.1525 7.84749C16.6498 8.34474 17.2833 8.68338 17.973 8.82057C18.6627 8.95776 19.3776 8.88735 20.0273 8.61824C20.677 8.34913 21.2323 7.8934 21.623 7.30869C22.0137 6.72399 22.2222 6.03656 22.2222 5.33333C22.2222 4.39034 21.8476 3.48597 21.1808 2.81918C20.514 2.15238 19.6097 1.77778 18.6667 1.77778Z" fill="#C9AB7E"/>
</svg>
