<svg width="27" height="24" viewBox="0 0 27 24" fill="none" xmlns="http://www.w3.org/2000/svg">
<path d="M1.09085 5.99758H22.1825L20.2244 7.95566C20.1231 8.05701 20.0427 8.17733 19.9878 8.30976C19.933 8.44218 19.9048 8.58411 19.9048 8.72744C19.9048 8.87077 19.933 9.0127 19.9878 9.14512C20.0427 9.27754 20.1231 9.39787 20.2244 9.49922C20.3258 9.60057 20.4461 9.68097 20.5785 9.73582C20.7109 9.79067 20.8529 9.8189 20.9962 9.8189C21.1395 9.8189 21.2815 9.79067 21.4139 9.73582C21.5463 9.68097 21.6666 9.60057 21.768 9.49922L25.586 5.68123C25.6874 5.57992 25.7679 5.45961 25.8228 5.32718C25.8777 5.19475 25.9059 5.05281 25.9059 4.90945C25.9059 4.7661 25.8777 4.62415 25.8228 4.49172C25.7679 4.35929 25.6874 4.23898 25.586 4.13767L21.768 0.319682C21.6666 0.21833 21.5463 0.137934 21.4139 0.083083C21.2815 0.028232 21.1395 0 20.9962 0C20.8529 0 20.7109 0.028232 20.5785 0.083083C20.4461 0.137934 20.3258 0.21833 20.2244 0.319682C20.1231 0.421033 20.0427 0.541355 19.9878 0.673777C19.933 0.806199 19.9048 0.948128 19.9048 1.09146C19.9048 1.23479 19.933 1.37672 19.9878 1.50914C20.0427 1.64157 20.1231 1.76189 20.2244 1.86324L22.1825 3.81587H1.09085C0.801541 3.81587 0.524079 3.9308 0.319504 4.13537C0.114929 4.33995 0 4.61741 0 4.90672C0 5.19603 0.114929 5.4735 0.319504 5.67807C0.524079 5.88265 0.801541 5.99758 1.09085 5.99758Z" fill="#C9AB7E"/>
<path d="M25.1333 17.997H3.99796L5.95058 16.0443C6.05194 15.943 6.13233 15.8227 6.18718 15.6902C6.24203 15.5578 6.27027 15.4159 6.27027 15.2726C6.27027 15.1292 6.24203 14.9873 6.18718 14.8549C6.13233 14.7225 6.05194 14.6021 5.95058 14.5008C5.84923 14.3994 5.72891 14.319 5.59649 14.2642C5.46407 14.2093 5.32214 14.1811 5.1788 14.1811C5.03547 14.1811 4.89354 14.2093 4.76112 14.2642C4.6287 14.319 4.50838 14.3994 4.40703 14.5008L0.589037 18.3188C0.487613 18.4201 0.407152 18.5404 0.352256 18.6728C0.297359 18.8052 0.269104 18.9472 0.269104 19.0905C0.269104 19.2339 0.297359 19.3759 0.352256 19.5083C0.407152 19.6407 0.487613 19.761 0.589037 19.8623L4.40703 23.6803C4.61171 23.885 4.88933 24 5.1788 24C5.46828 24 5.74589 23.885 5.95058 23.6803C6.15527 23.4756 6.27027 23.198 6.27027 22.9085C6.27027 22.6191 6.15527 22.3414 5.95058 22.1368L3.9925 20.1787H25.1333C25.4226 20.1787 25.7 20.0637 25.9046 19.8592C26.1092 19.6546 26.2241 19.3771 26.2241 19.0878C26.2241 18.7985 26.1092 18.521 25.9046 18.3165C25.7 18.1119 25.4226 17.997 25.1333 17.997Z" fill="#C9AB7E"/>
</svg>
