<svg width="33" height="24" viewBox="0 0 33 24" fill="none" xmlns="http://www.w3.org/2000/svg">
<path d="M28.0777 0.389783C27.8404 0.152465 27.5185 0.0191422 27.1829 0.0191422C26.8473 0.0191422 26.5254 0.152465 26.2881 0.389783C26.0507 0.627101 25.9174 0.948973 25.9174 1.28459C25.9174 1.62021 26.0507 1.94208 26.2881 2.1794C28.8927 4.78786 30.3557 8.32341 30.3557 12.0096C30.3557 15.6959 28.8927 19.2314 26.2881 21.8399C26.1706 21.9574 26.0773 22.0969 26.0137 22.2504C25.9502 22.404 25.9174 22.5685 25.9174 22.7347C25.9174 22.9009 25.9502 23.0654 26.0137 23.219C26.0773 23.3725 26.1706 23.512 26.2881 23.6295C26.4056 23.747 26.5451 23.8402 26.6986 23.9038C26.8521 23.9674 27.0167 24.0002 27.1829 24.0002C27.3491 24.0002 27.5136 23.9674 27.6671 23.9038C27.8207 23.8402 27.9602 23.747 28.0777 23.6295C31.1573 20.5466 32.8872 16.3672 32.8872 12.0096C32.8872 7.65206 31.1573 3.4727 28.0777 0.389783Z" fill="#C9AB7E"/>
<path d="M24.2708 4.20291C24.156 4.07574 24.0165 3.97324 23.8609 3.9016C23.7052 3.82997 23.5367 3.7907 23.3654 3.78618C23.1942 3.78167 23.0238 3.81199 22.8646 3.87532C22.7054 3.93865 22.5607 4.03367 22.4393 4.1546C22.318 4.27553 22.2225 4.41986 22.1586 4.57882C22.0947 4.73779 22.0637 4.90808 22.0677 5.07936C22.0716 5.25065 22.1102 5.41935 22.1813 5.57523C22.2524 5.73112 22.3544 5.87093 22.4812 5.9862C24.0737 7.57991 24.9683 9.74074 24.9683 11.9937C24.9683 14.2468 24.0737 16.4076 22.4812 18.0013C22.2438 18.2386 22.1105 18.5605 22.1105 18.8961C22.1105 19.2317 22.2438 19.5536 22.4812 19.7909C22.7185 20.0282 23.0404 20.1616 23.376 20.1616C23.7116 20.1616 24.0335 20.0282 24.2708 19.7909C26.3364 17.723 27.4966 14.9197 27.4966 11.9969C27.4966 9.0741 26.3364 6.27081 24.2708 4.20291Z" fill="#C9AB7E"/>
<path d="M2.52978 12.0063C2.52431 10.1769 2.88202 8.36457 3.58218 6.67441C4.28234 4.98426 5.31102 3.4499 6.60859 2.16026C6.7261 2.04275 6.81931 1.90325 6.8829 1.74972C6.9465 1.59619 6.97923 1.43163 6.97923 1.26545C6.97923 1.09927 6.9465 0.934715 6.8829 0.781183C6.81931 0.627652 6.7261 0.48815 6.60859 0.370642C6.49108 0.253134 6.35158 0.159922 6.19805 0.0963273C6.04451 0.0327325 5.87996 0 5.71378 0C5.5476 0 5.38304 0.0327325 5.22951 0.0963273C5.07598 0.159922 4.93648 0.253134 4.81897 0.370642C3.29123 1.89752 2.0793 3.71045 1.25244 5.70586C0.425586 7.70127 0 9.84005 0 12C0 14.1599 0.425586 16.2987 1.25244 18.2941C2.0793 20.2895 3.29123 22.1025 4.81897 23.6293C4.93648 23.7468 5.07598 23.8401 5.22951 23.9037C5.38304 23.9673 5.5476 24 5.71378 24C5.87996 24 6.04451 23.9673 6.19805 23.9037C6.35158 23.8401 6.49108 23.7468 6.60859 23.6293C6.7261 23.5118 6.81931 23.3723 6.8829 23.2188C6.9465 23.0653 6.97923 22.9007 6.97923 22.7345C6.97923 22.5683 6.9465 22.4038 6.8829 22.2503C6.81931 22.0967 6.7261 21.9572 6.60859 21.8397C5.31225 20.5518 4.28427 19.0195 3.58413 17.3316C2.884 15.6437 2.52563 13.8337 2.52978 12.0063Z" fill="#C9AB7E"/>
<path d="M7.91766 11.589C8.03032 9.46707 8.9326 7.464 10.4472 5.97354C10.6845 5.73622 10.8178 5.41435 10.8178 5.07873C10.8178 4.74311 10.6845 4.42124 10.4472 4.18392C10.2098 3.9466 9.88796 3.81328 9.55234 3.81328C9.21673 3.81328 8.89485 3.9466 8.65753 4.18392C7.62716 5.20878 6.80949 6.42718 6.25155 7.76909C5.6936 9.11099 5.40637 10.5499 5.40637 12.0032C5.40637 13.4565 5.6936 14.8954 6.25155 16.2374C6.80949 17.5793 7.62716 18.7977 8.65753 19.8225C8.77504 19.94 8.91454 20.0332 9.06808 20.0968C9.22161 20.1604 9.38616 20.1932 9.55234 20.1932C9.71852 20.1932 9.88308 20.1604 10.0366 20.0968C10.1901 20.0332 10.3296 19.94 10.4472 19.8225C10.5647 19.705 10.6579 19.5655 10.7215 19.412C10.7851 19.2584 10.8178 19.0939 10.8178 18.9277C10.8178 18.7615 10.7851 18.597 10.7215 18.4434C10.6579 18.2899 10.5647 18.1504 10.4472 18.0329C9.59956 17.1945 8.93667 16.1882 8.50105 15.0784C8.06543 13.9687 7.86671 12.7801 7.91766 11.589Z" fill="#C9AB7E"/>
<path d="M16.442 6.31484C15.3164 6.31484 14.216 6.64863 13.2801 7.27401C12.3441 7.89938 11.6147 8.78826 11.1839 9.82822C10.7531 10.8682 10.6404 12.0125 10.86 13.1165C11.0796 14.2206 11.6217 15.2347 12.4176 16.0306C13.2136 16.8266 14.2277 17.3686 15.3317 17.5882C16.4357 17.8078 17.5801 17.6951 18.62 17.2643C19.66 16.8336 20.5489 16.1041 21.1742 15.1682C21.7996 14.2322 22.1334 13.1318 22.1334 12.0062C22.1334 10.4968 21.5338 9.04914 20.4664 7.9818C19.3991 6.91447 17.9515 6.31484 16.442 6.31484ZM16.442 15.1681C15.8167 15.1681 15.2054 14.9826 14.6854 14.6352C14.1654 14.2878 13.7602 13.794 13.5209 13.2162C13.2815 12.6384 13.2189 12.0027 13.3409 11.3894C13.4629 10.776 13.7641 10.2126 14.2063 9.77043C14.6485 9.32823 15.2118 9.02709 15.8252 8.90509C16.4385 8.78309 17.0743 8.84571 17.652 9.08502C18.2298 9.32433 18.7236 9.7296 19.071 10.2496C19.4185 10.7695 19.6039 11.3808 19.6039 12.0062C19.6039 12.8448 19.2708 13.649 18.6778 14.242C18.0848 14.8349 17.2806 15.1681 16.442 15.1681Z" fill="#C9AB7E"/>
</svg>
