<svg width="37" height="24" viewBox="0 0 37 24" fill="none" xmlns="http://www.w3.org/2000/svg">
<path d="M31.2872 10.3246C31.2333 7.96618 30.3917 5.69362 28.8965 3.86896C27.4013 2.0443 25.3384 0.772511 23.0366 0.256189C20.7347 -0.260133 18.3263 0.00871834 16.195 1.01991C14.0636 2.03111 12.332 3.72647 11.2759 5.83593C10.8359 5.7678 10.3913 5.73282 9.94596 5.73126C7.52337 5.73126 5.20001 6.69363 3.48698 8.40665C1.77395 10.1197 0.811584 12.443 0.811584 14.8656C0.811584 17.2882 1.77395 19.6116 3.48698 21.3246C5.20001 23.0376 7.52337 24 9.94596 24H29.3415C31.0213 23.9998 32.6446 23.3935 33.9133 22.2924C35.1819 21.1913 36.0107 19.6695 36.2473 18.0064C36.4839 16.3434 36.1125 14.6508 35.2013 13.2396C34.2901 11.8284 32.9003 10.7933 31.2872 10.3246ZM29.3415 21.5371H9.94596C8.99505 21.5391 8.05469 21.3378 7.18799 20.9466C6.32128 20.5554 5.54827 19.9833 4.92081 19.2688C4.29336 18.5543 3.82598 17.7138 3.55003 16.8038C3.27408 15.8939 3.19595 14.9354 3.32087 13.9927C3.44579 13.05 3.77088 12.145 4.27432 11.3383C4.77777 10.5316 5.44792 9.84186 6.23982 9.31543C7.03172 8.789 7.92705 8.43803 8.86574 8.28606C9.80443 8.13409 10.7648 8.18464 11.6823 8.43432C11.9762 8.51208 12.2885 8.47838 12.5591 8.33969C12.8296 8.20101 13.0393 7.96715 13.1478 7.68312C13.8214 5.91244 15.0941 4.43375 16.7448 3.50406C18.3955 2.57437 20.3198 2.25244 22.1832 2.59424C24.0466 2.93603 25.7313 3.91994 26.9446 5.37495C28.1578 6.82996 28.8229 8.6641 28.8243 10.5586C28.8243 10.7803 28.8243 11.0019 28.7873 11.2236C28.7612 11.5417 28.8596 11.8574 29.0618 12.1044C29.2639 12.3513 29.5541 12.5102 29.871 12.5474C31.005 12.6929 32.0415 13.2634 32.7711 14.1436C33.5008 15.0238 33.8692 16.1481 33.802 17.2894C33.7347 18.4307 33.2369 19.504 32.4089 20.2924C31.581 21.0808 30.4847 21.5257 29.3415 21.5371Z" fill="#C9AB7E"/>
<path d="M23.098 10.3185L18.6462 14.4377L16.5281 12.3011C16.297 12.07 15.9836 11.9402 15.6569 11.9402C15.3301 11.9402 15.0167 12.07 14.7856 12.3011C14.5545 12.5322 14.4247 12.8456 14.4247 13.1724C14.4247 13.4992 14.5545 13.8126 14.7856 14.0436L17.7411 16.9991C17.9664 17.2235 18.2698 17.3519 18.5877 17.3577C18.9056 17.3634 19.2134 17.246 19.4467 17.0299L24.7666 12.1041C24.908 12.0016 25.0259 11.8702 25.1127 11.7187C25.1994 11.5671 25.2529 11.3989 25.2696 11.2251C25.2864 11.0513 25.2659 10.8759 25.2097 10.7106C25.1535 10.5453 25.0628 10.3938 24.9436 10.2662C24.8244 10.1387 24.6794 10.0379 24.5183 9.97063C24.3571 9.90337 24.1835 9.87113 24.009 9.87607C23.8345 9.88101 23.663 9.92301 23.5059 9.99928C23.3488 10.0756 23.2098 10.1844 23.098 10.3185Z" fill="#C9AB7E"/>
</svg>
