<svg width="24" height="24" viewBox="0 0 24 24" fill="none" xmlns="http://www.w3.org/2000/svg">
<path d="M12 7.68008C11.1456 7.68008 10.3104 7.93344 9.59993 8.40813C8.88951 8.88282 8.33581 9.55751 8.00884 10.3469C7.68187 11.1363 7.59631 12.0049 7.763 12.8429C7.92969 13.6809 8.34113 14.4506 8.94529 15.0548C9.54946 15.6589 10.3192 16.0704 11.1572 16.2371C11.9952 16.4038 12.8638 16.3182 13.6532 15.9912C14.4426 15.6643 15.1173 15.1106 15.5919 14.4001C16.0666 13.6897 16.32 12.8545 16.32 12.0001C16.32 10.8543 15.8649 9.75553 15.0547 8.94538C14.2445 8.13522 13.1457 7.68008 12 7.68008ZM12 14.4001C11.5253 14.4001 11.0613 14.2593 10.6666 13.9956C10.2719 13.7319 9.96433 13.3571 9.78268 12.9185C9.60103 12.48 9.55351 11.9974 9.64611 11.5319C9.73871 11.0663 9.96729 10.6387 10.3029 10.303C10.6386 9.96737 11.0662 9.7388 11.5318 9.64619C11.9973 9.55359 12.4799 9.60112 12.9184 9.78277C13.357 9.96442 13.7318 10.272 13.9955 10.6667C14.2592 11.0614 14.4 11.5254 14.4 12.0001C14.4 12.6366 14.1471 13.247 13.6971 13.6971C13.247 14.1472 12.6365 14.4001 12 14.4001Z" fill="#C9AB7E"/>
<path d="M23.04 11.04H20.5824C20.3639 9.09362 19.4907 7.27922 18.1057 5.89429C16.7208 4.50935 14.9064 3.63606 12.96 3.4176V0.96C12.96 0.705392 12.8589 0.461213 12.6788 0.281178C12.4988 0.101143 12.2546 0 12 0C11.7454 0 11.5012 0.101143 11.3212 0.281178C11.1411 0.461213 11.04 0.705392 11.04 0.96V3.4176C9.09362 3.63606 7.27922 4.50935 5.89429 5.89429C4.50935 7.27922 3.63606 9.09362 3.4176 11.04H0.96C0.705392 11.04 0.461213 11.1411 0.281178 11.3212C0.101143 11.5012 0 11.7454 0 12C0 12.2546 0.101143 12.4988 0.281178 12.6788C0.461213 12.8589 0.705392 12.96 0.96 12.96H3.4176C3.63606 14.9064 4.50935 16.7208 5.89429 18.1057C7.27922 19.4907 9.09362 20.3639 11.04 20.5824V23.04C11.04 23.2946 11.1411 23.5388 11.3212 23.7188C11.5012 23.8989 11.7454 24 12 24C12.2546 24 12.4988 23.8989 12.6788 23.7188C12.8589 23.5388 12.96 23.2946 12.96 23.04V20.5824C14.9064 20.3639 16.7208 19.4907 18.1057 18.1057C19.4907 16.7208 20.3639 14.9064 20.5824 12.96H23.04C23.2946 12.96 23.5388 12.8589 23.7188 12.6788C23.8989 12.4988 24 12.2546 24 12C24 11.7454 23.8989 11.5012 23.7188 11.3212C23.5388 11.1411 23.2946 11.04 23.04 11.04ZM12 18.72C10.6709 18.72 9.37167 18.3259 8.26657 17.5875C7.16147 16.8491 6.30015 15.7996 5.79153 14.5716C5.28291 13.3437 5.14983 11.9925 5.40912 10.689C5.66842 9.38544 6.30843 8.18805 7.24824 7.24824C8.18805 6.30843 9.38544 5.66842 10.689 5.40912C11.9925 5.14983 13.3437 5.28291 14.5716 5.79153C15.7996 6.30015 16.8491 7.16147 17.5875 8.26657C18.3259 9.37167 18.72 10.6709 18.72 12C18.72 13.7823 18.012 15.4915 16.7518 16.7518C15.4915 18.012 13.7823 18.72 12 18.72Z" fill="#C9AB7E"/>
</svg>
