<svg width="1265" height="477" viewBox="0 0 1265 477" fill="none" xmlns="http://www.w3.org/2000/svg">
<path d="M1102.85 34.0712C1099.13 38.2922 1095.31 42.5132 1091.59 46.7342C1090.61 47.8397 1089.84 47.8397 1089.29 46.4327C1088.86 45.5282 1088.53 44.5232 1088.09 43.6187C1087.55 40.7042 1086.02 38.1917 1084.59 35.5787C1083.94 34.2722 1082.95 34.9757 1082.3 35.6792C1080.55 37.4882 1079.57 39.5987 1079.35 42.0107C1079.13 44.7242 1079.13 47.3372 1080.22 49.9502C1082.19 59.0958 1085.25 68.0404 1085.8 77.3869C1086.34 86.834 1082.63 94.9745 1075.85 102.01C1074.87 103.015 1074.54 102.713 1073.99 101.708C1069.51 93.1655 1066.56 84.1204 1064.26 74.8744C1061.75 64.4223 1062.41 53.7693 1062.3 43.2167C1062.62 40.4027 1061.97 37.6892 1060.44 35.1767C1059.56 33.8701 1059.13 33.6691 1058.03 34.7747C1055.74 37.1867 1054.32 39.9002 1055.19 43.3172C1055.85 46.0307 1055.96 48.6437 1054.54 51.1563C1054.21 51.7593 1053.88 52.4628 1052.9 52.4628C1050.82 51.5583 1048.96 50.2517 1046.89 49.2467C1046.12 48.8447 1045.25 48.0407 1044.48 48.8447C1043.82 49.5482 1043.39 50.5533 1044.26 51.5583C1044.59 53.0658 1045.57 54.2718 1046.67 55.2768C1051.48 60.0003 1054.32 65.7288 1056.5 71.7589C1059.56 80.1004 1062.52 88.442 1065.58 96.7835C1067.54 102.11 1067.22 107.437 1065.36 112.763C1062.84 119.999 1060.22 127.336 1057.6 134.572C1056.83 136.682 1056.39 138.793 1055.96 141.004C1055.74 141.707 1055.63 142.511 1054.75 142.712C1053.77 142.913 1053.33 142.109 1052.9 141.506C1051.91 140.401 1051.48 139.195 1051.26 137.788C1050.6 130.652 1047.21 124.823 1041.75 119.899C1035.85 114.572 1029.62 109.447 1023.6 104.221C1019.78 100.904 1016.39 97.3865 1013.44 93.3665C1011.03 90.1505 1009.61 86.633 1009.39 82.7134C1009.28 81.9094 1009.39 81.1054 1009.61 80.2009C1010.38 77.3869 1009.61 74.2714 1011.03 71.4574C1011.91 69.8494 1012.24 67.9398 1013.33 66.4323C1015.08 63.4173 1016.17 60.2013 1017.05 56.8848C1017.26 55.9803 1017.15 54.9753 1016.28 54.4728C1015.19 53.8698 1014.31 54.6738 1013.88 55.3773C1011.91 58.0908 1010.27 61.0053 1009.5 64.2213C1009.18 65.6283 1008.52 66.9348 1007.65 68.1409C1006.01 70.4524 1004.04 70.9549 1001.42 69.6484C1000.32 69.0454 999.229 68.3419 998.245 67.5378C993.983 63.9198 990.157 60.0003 987.206 55.3773C982.834 48.5432 977.369 42.7142 970.045 38.4932C966.329 36.3827 963.597 33.1666 961.192 29.8501C960.208 27.2371 957.913 25.3276 956.383 23.0161C956.055 22.5136 955.617 21.9106 954.743 22.0111C953.759 22.3126 953.431 23.1166 953.104 23.9206C951.792 27.4381 954.197 34.0712 957.476 36.0812C957.804 36.2822 958.131 36.3827 958.569 36.3827C962.722 38.9957 966.876 41.6087 971.029 44.3222C977.041 48.3422 980.757 53.4678 980.32 60.6033C980.211 61.6083 979.992 62.6133 979.664 63.5178C978.462 66.7338 976.604 67.7389 972.997 67.1358C969.827 66.5328 966.766 66.1308 963.378 66.2313C964.143 67.8394 965.455 68.8444 966.766 69.8494C970.264 72.3619 974.417 73.1659 978.571 74.0704C982.287 74.8744 986.004 75.6784 989.392 77.2864C997.262 80.9044 1001.31 86.9345 1002.73 94.5725C1003.38 98.291 1001.2 100.502 997.043 100.603C993.327 100.703 989.501 100.502 985.785 100.201C983.38 99.3965 980.866 99.497 978.462 100.201C977.259 101.306 978.243 102.01 979.227 102.512C980.757 103.316 982.615 103.618 984.255 104.321C995.294 108.241 1006.66 111.055 1017.81 114.572C1021.75 115.778 1025.13 117.788 1028.19 120.401C1033.33 124.622 1036.17 129.949 1038.03 135.979C1040.44 143.918 1042.62 151.958 1044.92 159.998C1046.56 165.827 1048.42 171.556 1052.46 176.48C1054.86 179.395 1057.82 181.807 1060.33 184.722C1060.66 185.124 1061.09 185.425 1061.2 186.028C1060.22 185.827 1059.56 185.224 1059.02 184.621C1053.33 178.29 1046.23 173.767 1038.47 169.847C1024.37 162.913 1010.05 156.581 996.169 149.245C981.085 141.205 969.717 129.647 961.083 115.778C957.694 110.351 955.29 104.623 952.338 98.9945C951.573 97.7885 951.136 96.3815 950.371 95.1755C949.824 94.271 949.169 94.1705 948.404 94.874C947.529 95.678 946.655 96.3815 945.89 97.286C944.687 98.894 943.157 100.402 944.25 102.713C945.124 105.427 946.983 107.738 948.513 110.15C951.355 114.572 954.087 118.994 957.038 123.316C958.897 126.029 959.006 128.743 958.459 131.758C958.241 132.662 957.694 132.461 957.038 132.461C953.213 131.959 949.715 130.753 946.327 129.044C943.157 126.934 939.331 125.929 935.943 124.321C934.959 123.818 933.976 123.416 932.883 123.115C932.336 122.914 931.68 122.713 931.243 123.215C930.806 123.818 931.243 124.321 931.68 124.823C933.648 126.934 935.943 128.843 938.457 130.451C940.097 131.456 941.517 132.662 943.594 132.964C948.731 135.376 954.634 135.878 960.099 137.285C968.297 139.295 974.964 143.516 980.32 149.546C981.085 150.451 981.304 150.953 980.32 151.858C974.745 156.682 968.297 158.491 961.083 155.978C947.857 151.355 936.49 154.571 925.887 162.31C925.45 162.611 925.013 163.013 924.576 163.315C920.094 166.43 918.236 170.953 917.143 175.777C916.924 176.983 916.597 178.089 917.252 179.295C917.908 180.601 918.673 180.702 919.657 179.496C920.203 178.792 920.531 177.988 920.75 177.184C921.843 173.365 923.81 170.149 926.98 167.435C927.745 166.732 928.292 165.928 928.948 165.224C937.692 158.792 947.529 156.38 958.569 158.29C964.471 159.295 966.438 164.219 962.285 168.34C958.35 172.259 953.759 175.475 949.169 178.692C948.294 178.993 947.42 179.395 946.655 179.998C943.704 182.209 940.534 184.219 937.473 186.229C936.49 186.933 935.178 187.636 935.834 188.943C936.49 190.249 938.02 189.747 939.331 189.546C941.08 189.144 942.72 188.34 944.141 187.335C946.545 185.626 949.497 184.621 951.355 182.31C954.524 180.199 957.694 177.988 960.864 175.877C966.22 172.259 972.013 169.646 978.79 169.144C983.052 168.742 987.206 169.546 991.25 170.35C997.808 171.556 1004.48 172.159 1011.03 173.063C1021.42 174.47 1030.6 178.591 1039.12 184.219C1047.65 189.847 1055.41 196.48 1063.5 202.611C1072.79 209.746 1081.97 216.882 1091.15 224.017C1097.82 229.243 1103.18 235.273 1105.47 243.313C1106.24 246.127 1106.56 248.941 1106.45 251.856C1106.35 254.268 1106.45 256.78 1106.35 259.192C1106.24 260.599 1107 260.801 1108.2 260.499C1111.26 259.997 1113.01 258.187 1113.23 255.172C1114 243.514 1111.37 232.56 1105.58 222.309C1104.49 220.5 1103.5 218.59 1103.5 216.178C1106.89 218.791 1109.41 221.706 1110.61 225.424C1113.67 235.072 1116.62 244.821 1118.37 254.871C1118.37 254.971 1118.48 255.072 1118.48 255.172C1122.41 254.268 1125.58 251.253 1125.91 247.032C1126.35 241.605 1127.22 236.278 1127.22 230.851C1127.33 216.681 1120.45 206.329 1106.89 199.797C1101.97 197.385 1096.73 195.576 1091.48 194.068C1081.42 191.154 1073.45 185.827 1069.51 176.38C1067.43 171.254 1065.47 166.129 1063.72 160.903C1060.99 152.662 1061.53 144.622 1064.81 136.582C1066.45 132.562 1068.53 128.843 1070.71 125.125C1074.65 118.592 1080.33 114.371 1088.53 113.165C1093.89 112.462 1098.91 110.653 1103.83 108.743C1106.56 107.738 1108.64 106.03 1110.28 103.819C1113.34 100.301 1113.45 96.3815 1112.14 92.261C1111.05 90.9545 1110.83 90.9545 1109.73 92.1605C1108.75 93.266 1107.99 94.472 1107.33 95.7785C1106.13 98.492 1104.82 101.105 1102.19 102.914C1101.86 103.115 1101.86 103.517 1101.54 103.819C1095.2 107.135 1088.42 106.733 1081.32 105.628C1083.06 102.01 1084.59 98.492 1086.45 95.1755C1090.72 87.638 1092.9 79.5979 1093.34 71.0554C1093.56 66.8343 1093.99 62.5128 1095.63 58.3923C1097.82 53.1663 1101.1 48.3422 1103.61 43.2167C1104.92 40.6037 1105.91 37.7897 1106.89 34.9757C1106.89 34.8752 1107 34.7747 1107 34.6742C1107.33 33.3676 1106.78 31.7596 1105.8 31.5586C1104.49 31.3576 1103.94 32.4631 1103.29 33.2671C1102.96 33.4681 1102.85 33.7697 1102.85 34.0712Z" fill="#201C17"/>
<path d="M1193.46 147.536C1192.92 147.938 1192.48 148.44 1191.93 148.842C1189.31 150.752 1186.58 152.46 1184.17 154.47C1182.2 156.179 1181.22 156.078 1179.14 154.37C1175.54 151.355 1174.66 148.038 1176.63 143.918C1180.02 136.782 1184.94 130.651 1190.84 125.023C1194.45 121.506 1198.6 118.491 1201.88 114.672C1208.33 107.235 1212.04 98.7928 1214.12 89.5467C1215.98 81.2052 1218.27 72.9641 1221.12 64.9241C1221.55 63.8186 1221.99 62.7131 1222.86 61.8086C1222.97 61.8086 1223.19 61.7081 1223.19 61.7081C1227.35 57.487 1233.36 56.1805 1238.49 53.5675C1239.37 53.065 1241.01 52.9645 1240.9 51.7585C1240.79 50.5525 1239.15 50.854 1238.17 50.5525C1238.06 50.5525 1237.95 50.452 1237.84 50.452C1236.31 50.251 1234.78 50.05 1233.25 49.648C1231.28 49.045 1230.73 48.04 1231.28 46.231C1231.72 44.623 1232.59 43.1155 1233.03 41.5075C1233.25 40.603 1233.36 39.6985 1232.48 39.0954C1231.61 38.4924 1230.62 38.9949 1229.97 39.598C1227.24 41.9095 1224.61 44.221 1223.08 47.437C1219.48 52.9645 1216.52 58.7936 1214.88 65.0246C1212.48 74.3711 1210.08 83.7177 1207.56 93.0642C1206.58 96.5818 1205.48 99.9988 1204.17 103.416C1202.75 107.034 1200.46 110.049 1197.18 112.461C1188.98 118.692 1180.89 125.023 1172.58 131.154C1170.07 132.963 1167.45 134.571 1164.61 135.777C1160.45 137.586 1156.52 136.882 1153.78 133.465C1149.19 127.536 1146.35 120.903 1145.26 113.667C1144.17 106.23 1145.59 98.8933 1145.81 91.5567C1145.92 88.0392 1146.24 84.5217 1146.46 81.0042C1147.34 79.0947 1147.23 76.9842 1147.23 74.9741C1147.55 69.6476 1147.66 64.4216 1147.99 59.0951C1148.1 58.1906 1147.77 57.286 1147.55 56.482C1147.34 55.7785 1147.01 55.1755 1146.13 55.1755C1145.37 55.1755 1144.82 55.678 1144.6 56.3815C1143.95 57.7885 1144.06 59.2961 1143.84 60.8036C1143.4 64.7231 1142.96 68.6426 1142.53 72.4616C1142.42 73.2656 1142.75 74.3711 1141.22 74.4716C1139.03 74.1701 1137.72 72.7631 1136.52 71.2556C1135.42 69.9491 1134.55 68.6426 1133.56 67.2356C1133.13 66.7331 1132.69 66.1301 1132.14 65.7281C1131.82 65.5271 1131.49 65.3261 1131.05 65.4266C1130.72 65.6276 1130.72 66.0296 1130.72 66.4316C1130.83 67.6376 1131.49 68.7431 1131.82 69.8486C1133.67 76.1801 1135.2 82.5117 1136.08 89.0442C1137.39 97.3858 1137.61 105.928 1138.37 114.37C1139.36 124.621 1143.73 133.465 1150.72 141.405C1153.02 144.018 1155.42 146.43 1157.39 149.345C1161.11 154.772 1162.09 160.701 1161 167.033C1160.78 168.239 1160.34 169.344 1159.69 170.349C1155.21 177.786 1150.94 185.324 1144.93 191.957C1136.95 200.901 1133.02 211.454 1130.94 222.71C1129.96 228.237 1129.52 233.865 1129.41 239.393C1129.41 239.695 1129.41 239.996 1129.41 240.298C1129.3 241.202 1129.52 242.308 1130.28 242.509C1131.16 242.71 1131.92 241.805 1132.47 241.001C1134.22 238.287 1135.86 235.674 1137.5 232.961C1137.72 232.559 1137.94 231.755 1138.7 232.056C1139.58 232.358 1139.14 233.061 1139.03 233.564C1138.81 235.071 1138.26 236.579 1137.5 237.986C1131.6 248.639 1123.73 257.584 1111.92 263.011C1108.53 264.619 1104.93 265.825 1101.65 267.634C1097.17 270.046 1095.09 273.161 1095.85 278.086C1097.06 285.322 1099.02 292.357 1102.3 299.392C1103.29 297.382 1104.27 295.673 1105.15 293.864C1107.44 289.342 1109.74 284.819 1112.03 280.297C1112.25 279.895 1112.36 279.091 1113.01 279.191C1113.78 279.292 1113.34 280.096 1113.45 280.598C1113.56 281.905 1113.23 283.01 1112.69 284.216C1110.17 289.04 1107.88 293.965 1105.36 298.789C1103.4 302.507 1102.74 306.226 1103.94 310.346C1105.04 313.864 1105.69 317.482 1106.46 321.1C1107.33 321.1 1107.44 320.497 1107.66 319.994C1111.81 309.844 1118.92 301.603 1126.68 293.663C1134.44 285.724 1142.09 277.784 1148.98 269.141C1153.24 263.815 1154.99 257.785 1155.53 251.353C1155.64 250.75 1155.53 250.147 1154.99 249.544C1153.68 250.75 1152.8 252.157 1151.93 253.564C1150.51 255.674 1149.08 257.785 1147.66 259.996C1147.12 260.9 1146.46 261.503 1145.26 261.704C1144.28 259.594 1145.26 257.785 1146.57 256.277C1154.22 246.529 1155.97 235.674 1154.99 224.016C1154.44 217.986 1154 211.956 1155.42 206.027C1157.5 196.982 1163.73 190.851 1172.04 186.228C1181.22 181.203 1190.51 176.379 1199.69 171.455C1205.48 168.339 1211.39 165.324 1217.18 162.209C1218.49 162.309 1219.37 161.505 1220.35 161.003C1222.97 159.696 1225.27 157.988 1227.67 156.279C1228.33 155.877 1228.98 155.375 1228.66 154.571C1228.33 153.666 1227.45 153.666 1226.58 153.566C1224.39 153.365 1222.43 154.068 1220.24 154.068C1222.32 148.44 1225.82 143.515 1230.08 139.093C1237.73 131.154 1247.57 126.33 1258.28 122.611C1259.7 122.109 1261.12 121.707 1262.43 121.204C1262.87 121.003 1263.74 121.204 1263.52 120.4C1263.42 119.697 1262.65 119.797 1262.1 119.797C1260.35 119.797 1258.82 120.199 1257.08 120.4C1256.53 120.501 1255.87 120.601 1255.33 120.601C1252.59 120.099 1250.08 120.903 1247.46 121.204C1244.62 121.506 1241.77 121.908 1239.04 122.31C1238.6 122.41 1238.17 122.41 1237.73 122.41C1235.87 122.31 1235.32 121.707 1235.87 119.998C1236.96 116.983 1238.6 114.169 1240.68 111.657C1245.6 105.727 1251.06 99.9988 1256.2 94.2702C1256.86 93.5667 1257.51 92.7627 1257.95 91.9587C1258.28 91.2552 1258.61 90.5517 1257.84 89.9487C1257.08 89.3457 1256.2 89.7477 1255.55 90.2502C1252.92 92.4612 1250.08 94.4712 1247.57 96.7828C1242.65 101.607 1238.17 106.833 1234.45 112.461C1233.68 113.667 1233.03 114.772 1232.48 116.079C1227.45 124.521 1223.74 133.566 1218.6 141.907C1214.23 149.043 1208.22 154.772 1200.57 158.993C1195.32 161.807 1190.62 165.525 1185.81 168.842C1184.06 170.048 1182.09 170.751 1180.13 171.555C1179.14 171.957 1178.92 171.555 1178.6 170.952C1177.83 169.244 1177.83 167.636 1179.36 166.128C1184.94 160.701 1190.51 155.375 1196.19 149.948C1197.18 149.546 1197.83 148.641 1198.82 148.139C1200.02 147.335 1200.02 146.43 1199.15 145.425C1198.27 144.32 1197.29 144.32 1196.19 145.023C1195.65 145.827 1194.34 146.43 1193.46 147.536Z" fill="#201C17"/>
<path d="M1177.61 330.045C1176.63 334.367 1174.77 338.387 1172.8 342.407C1168.98 350.346 1164.17 357.683 1158.92 364.818C1158.7 365.22 1158.59 365.924 1157.72 365.522C1156.95 365.12 1157.39 364.617 1157.61 364.115C1158.59 361.2 1160.34 358.587 1162.09 356.075C1164.6 352.557 1166.9 349.04 1167.88 344.919C1168.43 342.608 1168.1 340.296 1167.01 338.186C1165.26 335.07 1162.53 332.759 1159.58 329.945C1160.12 339.492 1159.79 348.537 1154.99 357.18C1154.33 356.477 1154.55 355.974 1154.55 355.472C1155.2 349.844 1155.86 344.216 1156.62 338.588C1157.61 332.256 1155.42 326.528 1152.36 320.9C1152.14 320.498 1151.71 319.995 1151.16 320.196C1150.39 320.498 1150.07 321.201 1149.85 321.905C1149.41 323.915 1148.97 326.025 1148.65 328.035C1147.01 341.402 1140.56 352.457 1129.74 361.703C1117.17 372.456 1104.92 383.512 1092.57 394.466C1091.81 395.069 1091.04 395.572 1092.03 396.778C1093.01 397.883 1093.56 397.883 1094.65 397.079C1099.13 393.763 1103.72 390.547 1108.2 387.23C1108.53 386.929 1108.97 386.225 1109.62 386.828C1110.17 387.331 1109.52 387.632 1109.19 388.034C1105.69 392.054 1101.86 395.672 1097.05 398.486C1091.7 401.602 1087.76 406.225 1083.39 410.446C1082.63 411.25 1082.63 411.953 1083.5 412.757C1084.48 413.662 1085.03 412.757 1085.58 412.355C1088.97 410.044 1092.35 407.732 1095.85 405.32C1095.85 406.828 1095.85 408.134 1095.85 409.742C1102.08 406.828 1107.99 404.014 1114.32 400.999C1112.9 403.612 1111.15 405.421 1108.97 406.828C1106.13 408.637 1102.96 409.943 1099.57 410.446C1087.11 412.255 1079.57 419.189 1075.08 429.541C1074.43 431.048 1073.77 432.656 1073.12 434.164C1073.01 434.365 1073.01 434.566 1073.23 434.767C1073.77 435.068 1074.43 435.169 1075.08 435.169C1080.99 435.169 1086.89 435.269 1092.79 435.169C1095.74 435.269 1098.69 435.169 1101.65 435.169C1102.63 435.169 1103.61 435.269 1104.16 434.264C1106.56 420.094 1112.36 407.33 1122.3 396.175C1128.97 388.637 1137.72 385.622 1148.1 386.426C1153.89 386.929 1159.79 386.828 1165.59 386.527C1168.43 386.426 1170.07 384.517 1170.72 382.105C1171.82 378.185 1172.25 374.165 1173.02 370.145C1173.57 367.431 1174 364.617 1174.44 361.904C1174.77 359.693 1174.99 357.582 1174.77 355.271C1174.55 352.758 1173.89 349.944 1175.42 347.733C1177.28 344.919 1177.39 341.904 1177.83 338.889C1178.59 338.487 1178.59 337.683 1178.7 336.98C1179.25 333.864 1179.69 330.648 1180.12 327.533C1180.12 327.131 1180.23 326.729 1180.12 326.327C1179.91 325.221 1180.56 324.015 1179.36 323.111C1178.27 323.613 1178.38 324.618 1178.27 325.422C1178.27 326.93 1177.83 328.538 1177.61 330.045Z" fill="#201C17"/>
<path d="M1156.3 434.163C1156.08 430.043 1156.95 426.123 1158.81 422.405C1161.33 417.38 1163.84 412.254 1166.46 407.229C1167.12 405.822 1167.66 404.516 1167.77 402.807C1166.35 403.41 1165.26 404.315 1164.17 405.119C1161.87 406.727 1159.58 408.234 1157.39 409.842C1156.52 410.546 1155.64 410.948 1154.88 409.742C1154 408.536 1155.42 408.435 1155.86 408.134C1158.92 405.923 1162.2 404.013 1165.15 401.601C1168.98 398.486 1170.4 394.566 1170.18 389.943C1170.18 388.737 1169.74 388.536 1168.65 389.24C1166.9 390.345 1165.48 391.652 1164.06 393.059C1160.78 396.275 1156.95 398.988 1152.47 400.697C1152.03 400.898 1151.71 401.099 1151.27 401.199C1150.61 401.3 1149.74 401.3 1149.41 400.697C1149.08 400.094 1149.96 399.893 1150.39 399.591C1154.44 397.179 1158.48 394.868 1162.64 392.355C1159.9 390.144 1156.73 389.441 1153.35 389.139C1138.59 388.134 1127.55 393.762 1120.01 405.42C1114.22 414.365 1110.5 424.013 1108.86 434.264C1109.08 434.867 1109.73 435.068 1110.28 435.068C1113.56 435.068 1116.84 435.47 1120.01 434.766C1123.07 433.661 1126.46 433.259 1129.19 431.55C1135.64 427.53 1139.68 421.802 1142.74 415.37C1143.73 413.259 1144.49 411.149 1145.59 409.139C1144.6 410.948 1143.84 412.857 1143.07 414.767C1141.76 417.782 1140.67 420.797 1139.36 423.812C1137.72 427.53 1135.09 430.545 1131.59 432.957C1130.94 433.359 1129.63 433.661 1130.5 434.967C1131.27 435.369 1132.14 435.269 1133.02 435.269C1139.9 435.269 1146.79 435.269 1153.67 435.269C1154.44 435.068 1155.75 435.369 1156.3 434.163Z" fill="#201C17"/>
<path d="M1230.51 221.203C1221.33 225.927 1212.15 230.751 1202.97 235.475C1201.88 236.078 1200.56 236.279 1199.25 236.48C1196.74 236.882 1194.44 236.078 1192.15 235.173C1191.38 234.872 1191.49 234.47 1191.71 233.867C1195.21 224.52 1200.24 216.178 1208.98 210.048C1209.42 209.746 1209.96 209.445 1210.4 209.043C1214.45 205.224 1219.26 204.52 1224.72 206.028C1231.72 207.937 1238.82 208.54 1245.93 206.631C1247.46 206.229 1248.88 205.626 1250.41 204.621C1240.57 202.309 1230.08 203.214 1221.22 197.686C1223.52 195.174 1226.25 193.164 1229.97 192.963C1234.45 192.762 1239.04 192.762 1243.52 193.063C1248.22 193.264 1252.92 193.666 1257.62 192.561C1260.79 191.757 1262.87 189.847 1263.85 186.933C1264.07 186.229 1264.62 185.325 1263.85 184.722C1263.09 184.119 1262.32 184.822 1261.56 185.124C1257.18 187.536 1252.27 187.837 1247.35 188.139C1246.36 188.239 1245.38 188.139 1244.5 188.641C1236.63 188.641 1228.87 189.345 1221 189.948C1216.63 190.249 1213.46 192.36 1211.28 195.676C1209.2 198.691 1207.23 201.907 1205.16 205.023C1201.11 211.354 1197.07 217.585 1193.13 224.017C1189.2 230.248 1183.84 234.671 1176.3 237.083C1171.93 238.49 1167.88 240.5 1163.95 242.61C1160.34 244.52 1158.59 247.434 1158.48 251.253C1158.48 253.967 1158.48 256.58 1158.48 259.293C1158.48 259.695 1158.26 260.298 1158.92 260.499C1159.47 260.6 1159.69 260.097 1160.01 259.796C1162.53 257.183 1165.04 254.67 1167.23 251.856C1170.18 247.937 1174.33 245.826 1179.58 245.826C1185.81 245.726 1192.04 245.826 1198.27 245.625C1208.98 245.123 1216.96 240.399 1222.32 231.857C1224.28 228.64 1226.91 226.128 1230.62 224.721C1231.5 224.419 1232.37 224.218 1233.14 223.917C1234.89 224.419 1236.53 223.816 1238.06 223.314C1240.46 222.61 1242.87 221.806 1245.16 220.902C1245.82 220.6 1246.47 220.399 1246.91 219.796C1247.67 218.892 1247.46 218.088 1246.14 218.088C1241.01 217.786 1235.98 217.786 1231.39 220.299C1231.06 220.399 1230.73 220.701 1230.51 221.203Z" fill="#201C17"/>
<path d="M1059.46 295.975C1058.58 296.076 1058.14 295.473 1057.6 295.071C1054.54 292.96 1051.59 290.749 1048.53 288.538C1047.98 289.543 1048.63 290.146 1049.18 290.749C1051.7 293.362 1054.1 295.975 1057.05 298.086C1070.28 306.729 1083.5 315.271 1096.73 323.915C1099.79 325.925 1102.41 328.437 1104.82 331.05C1111.37 338.186 1114.54 346.427 1114.87 355.572C1114.98 358.688 1115.09 361.803 1115.09 364.818C1115.09 365.823 1115.42 366.024 1116.4 365.924C1119.03 365.522 1120.77 363.813 1120.66 361.401C1120.45 355.874 1119.68 350.346 1118.7 344.919C1118.59 344.015 1117.82 343.211 1117.39 342.407C1116.51 341.1 1115.96 339.794 1115.53 338.286C1115.42 337.784 1115.31 337.382 1115.86 337.08C1116.51 336.779 1116.84 336.879 1117.28 337.482C1118.15 338.487 1118.92 339.392 1119.35 340.698C1121.1 346.326 1122.96 351.854 1124.71 357.482C1125.15 358.989 1125.8 359.19 1127.22 358.587C1130.83 357.08 1132.25 354.668 1130.94 351.251C1128.97 345.924 1126.24 340.899 1123.83 335.673C1120.88 329.04 1117.71 322.508 1114.65 315.674C1112.58 319.493 1110.61 323.01 1108.75 326.729C1108.1 328.035 1107.66 328.236 1106.46 327.231C1100.66 322.508 1094.87 317.784 1089.73 312.558C1087 309.744 1085.14 306.327 1083.61 302.91C1081.32 297.583 1079.13 292.257 1076.83 287.031C1076.73 285.322 1075.96 283.815 1075.3 282.307C1073.45 278.187 1072.24 273.664 1069.07 270.046C1068.42 269.242 1067.65 267.835 1066.67 268.338C1065.47 268.941 1066.89 270.147 1067.22 270.951C1068.42 273.865 1069.51 276.78 1070.06 279.895C1070.6 282.609 1071.04 285.322 1071.48 288.136C1071.7 289.443 1071.7 290.749 1072.57 291.855C1073.01 293.965 1073.56 296.176 1073.88 298.287C1074.1 299.593 1074.32 301 1073.01 301.905C1071.59 302.809 1069.84 302.709 1068.42 301.905C1065.36 300.096 1061.97 298.588 1059.46 295.975Z" fill="#201C17"/>
<path d="M1148.76 289.945C1147.88 290.749 1147.55 291.654 1147.23 292.458C1143.07 304.719 1139.03 316.879 1134.87 329.141C1132.47 336.477 1133.13 342.708 1136.95 348.738C1138.7 347.331 1139.9 345.623 1141 343.713C1144.06 338.286 1145.59 332.457 1146.79 326.628C1148.21 319.894 1148.76 313.06 1148.1 306.226C1147.66 302.005 1148.65 297.885 1148.97 293.764C1149.08 292.558 1149.3 291.252 1148.76 289.945Z" fill="#201C17"/>
<path d="M1120.66 313.764C1120.55 314.568 1120.88 315.372 1121.21 316.176C1123.61 322.106 1126.02 328.035 1128.53 333.965C1128.86 334.668 1129.08 335.774 1129.95 335.573C1130.83 335.372 1131.16 334.467 1131.16 333.563C1131.81 325.724 1132.36 317.885 1133.12 310.046C1134 301.403 1135.86 293.061 1139.46 285.021C1139.79 284.317 1140.78 283.312 1139.57 282.81C1138.7 282.408 1137.71 283.212 1137.17 284.116C1131.81 293.061 1126.57 302.006 1121.21 311.051C1120.88 311.855 1120.66 312.759 1120.66 313.764Z" fill="#201C17"/>
<path d="M65.8113 316.916C62.3353 321.227 58.6025 325.16 54.0013 328.161C49.7948 331.485 45.1732 333.857 40.2254 335.322C35.6723 337.11 31.0689 337.883 26.3072 338.08C17.4148 338.546 9.1706 336.37 1.644 332.08C0.933806 331.722 0.401154 331.453 1.25786 330.4C4.26114 326.594 7.57034 323.065 11.4817 320.335C15.5899 317.209 19.7772 314.371 24.5474 312.816C39.0838 307.029 52.7101 308.207 65.5535 315.425C66.4412 315.872 66.3332 316.313 65.8113 316.916Z" fill="url(#paint0_linear)"/>
<path d="M456.31 54.5861C457.059 55.5317 457.748 56.3863 458.497 57.3319C461.206 61.0437 461.206 61.0437 457.253 62.359C448.473 65.3083 439.343 65.734 429.932 63.1963C423.792 61.7657 418.042 59.2883 412.728 55.4706C408.429 52.816 404.762 49.4786 401.56 45.5697C399.182 43.0818 397.307 40.26 395.598 37.327C395.766 37.2157 396.017 37.0488 396.184 36.9375C396.496 36.8616 396.868 36.8768 397.202 36.6542C407.405 32.7591 417.94 32.4495 428.891 35.6698C429.817 35.9731 430.886 36.3118 431.812 36.6152C436.478 38.3696 440.931 40.5285 444.932 43.6434C449.306 46.7733 452.987 50.4951 456.31 54.5861Z" fill="url(#paint1_linear)"/>
<path d="M656.297 142.886C657.025 142.87 657.687 142.85 658.415 142.833C661.189 142.877 661.189 142.877 660.395 145.166C658.646 150.261 655.551 154.636 650.922 158.104C648.01 160.446 644.734 162.242 640.968 163.367C638.13 164.429 635.191 164.959 632.144 165.075C630.082 165.306 628.039 165.188 626.004 164.953C626.011 164.837 626.021 164.662 626.028 164.546C626.104 164.375 626.245 164.208 626.259 163.976C628.065 157.892 631.724 152.907 637.24 148.965C637.721 148.642 638.272 148.265 638.753 147.943C641.288 146.396 643.941 145.09 646.894 144.327C649.988 143.397 653.118 142.994 656.297 142.886Z" fill="url(#paint2_linear)"/>
<path d="M1011.51 373.97C1012.7 374.163 1013.79 374.33 1014.98 374.524C1019.48 375.44 1019.48 375.44 1017.45 379.076C1012.95 387.172 1006.49 393.641 997.829 398.109C992.329 401.192 986.411 403.237 979.913 403.999C974.948 404.936 969.989 404.942 964.989 404.213C961.556 403.978 958.268 403.158 955.029 402.143C955.078 401.948 955.151 401.655 955.199 401.46C955.378 401.194 955.663 400.954 955.761 400.564C960.672 390.81 968.245 383.48 978.505 378.478C979.393 378.078 980.412 377.607 981.3 377.207C985.93 375.358 990.674 373.952 995.729 373.555C1001.07 372.919 1006.3 373.188 1011.51 373.97Z" fill="url(#paint3_linear)"/>
<path d="M252.463 434.679C252.826 434.604 253.324 434.47 253.686 434.394C261.031 433.655 268.118 434.727 274.99 437.268C279.586 439.01 283.69 441.612 287.571 444.714C288.531 445.515 288.581 446.141 287.544 446.994C286.371 447.904 285.383 449.141 284.073 449.868C280.693 452.784 276.9 455.149 272.874 456.804C266.591 459.839 260.159 461.238 253.444 461.301C242.192 461.459 232.137 457.943 223.505 450.736C222.956 450.244 222.001 449.927 223.171 448.774C227.271 444.981 231.736 441.597 236.8 439.331C241.68 436.74 246.932 435.284 252.463 434.679Z" fill="url(#paint4_linear)"/>
<path d="M852.686 283.758C852.455 284.047 852.156 284.467 851.924 284.756C846.73 290.001 840.581 293.684 833.663 296.098C829.009 297.68 824.188 298.285 819.219 298.362C817.97 298.355 817.533 297.904 817.79 296.586C818.115 295.138 818.091 293.555 818.638 292.16C819.39 287.76 820.81 283.522 822.861 279.683C825.776 273.343 829.847 268.17 834.986 263.848C843.564 256.565 853.558 252.877 864.803 252.942C865.54 252.973 866.478 252.609 866.309 254.243C865.561 259.778 864.27 265.23 861.806 270.201C859.691 275.305 856.567 279.771 852.686 283.758Z" fill="url(#paint5_linear)"/>
<path d="M132.829 88.3435C133.306 95.4184 132.241 102.525 129.708 109.733C128.208 114.334 126.101 118.698 123.537 122.963C122.711 124.304 122.333 124.117 121.591 123.432C119.507 121.669 117.585 119.731 115.824 117.619C109.15 109.512 105.624 99.783 105.402 88.413C105.074 81.4752 106.287 74.5054 108.962 67.591C110.388 62.9213 112.804 58.5192 115.604 54.1481C119.34 56.9514 122.517 60.21 125.056 64.0113C129.775 70.9595 132.597 79.068 132.829 88.3435Z" fill="url(#paint6_linear)"/>
<path d="M743.613 17.67C746.462 16.5613 749.315 15.5058 752.388 15.0208C753.125 14.6878 753.945 14.6691 754.699 14.5492C760.212 13.742 765.682 13.9036 771.002 15.1508C781.512 17.4958 789.671 22.8358 795.53 31.0592C794.967 31.3768 794.643 30.9764 794.277 30.7942C794.097 30.7045 793.659 30.7152 793.397 30.7382C793.135 30.7612 794.926 30.3859 795.53 31.0592C795.779 31.2517 795.684 31.5757 795.135 32.0315C794.636 32.3902 793.983 32.6589 793.871 32.7224C788.969 34.6017 784.131 35.4408 778.86 35.5833C776.516 35.6289 774.168 35.6212 771.899 35.124C770.367 35.0444 768.873 34.6935 767.379 34.3426C762.355 33.1229 757.689 31.2283 753.591 28.3187C752.8 27.9594 752.168 27.3717 751.482 26.8423C748.361 24.4364 745.683 21.6698 743.5 18.4842C743.309 18.2866 742.872 17.9498 743.613 17.67Z" fill="url(#paint7_linear)"/>
<path d="M908.753 22.563C905.293 19.5461 902.254 15.935 900.05 11.6954C898.755 10.5505 899.372 9.99335 900.716 9.34936C915.34 2.57196 929.473 2.89428 943.193 10.4432C948.129 13.1781 952.6 16.724 956.011 21.5297C958.176 23.4017 959.465 26.1187 961.034 28.4396C961.492 29.2008 961.233 29.4887 960.582 29.7024C959.14 30.3278 957.753 31.1885 956.256 31.5787C955.92 31.7397 955.682 31.9192 955.346 32.0802C944.752 35.9136 934.223 35.8259 924.009 32.0892C918.24 29.9827 913.053 26.9754 908.753 22.563Z" fill="url(#paint8_linear)"/>
<path d="M350.842 278.921C356.819 274.333 363.977 272.634 371.959 273.357C372.912 273.493 373.084 273.84 372.9 274.552C372.386 276.83 371.78 279.049 370.657 281.055C368.821 284.62 366.615 287.948 363.308 290.335C356.803 295.769 349.01 297.655 339.93 296.821C340.404 294.399 340.865 292.205 341.987 290.199C343.65 285.456 346.743 281.748 350.842 278.921Z" fill="url(#paint9_linear)"/>
<path d="M409 430H1157V440H409V430Z" fill="url(#paint10_linear)"/>
<defs>
<linearGradient id="paint0_linear" x1="23.8086" y1="343.343" x2="43.529" y2="304.23" gradientUnits="userSpaceOnUse">
<stop stop-color="#97C15A"/>
<stop offset="1" stop-color="#405C40"/>
</linearGradient>
<linearGradient id="paint1_linear" x1="412.795" y1="26.0639" x2="443.49" y2="72.237" gradientUnits="userSpaceOnUse">
<stop stop-color="#97C15A"/>
<stop offset="1" stop-color="#405C40"/>
</linearGradient>
<linearGradient id="paint2_linear" x1="626.777" y1="153.057" x2="660.194" y2="154.99" gradientUnits="userSpaceOnUse">
<stop stop-color="#97C15A"/>
<stop offset="1" stop-color="#405C40"/>
</linearGradient>
<linearGradient id="paint3_linear" x1="960.14" y1="382.232" x2="1013.94" y2="395.65" gradientUnits="userSpaceOnUse">
<stop stop-color="#97C15A"/>
<stop offset="1" stop-color="#405C40"/>
</linearGradient>
<linearGradient id="paint4_linear" x1="262.607" y1="431.657" x2="247.86" y2="463.883" gradientUnits="userSpaceOnUse">
<stop stop-color="#97C15A"/>
<stop offset="1" stop-color="#405C40"/>
</linearGradient>
<linearGradient id="paint5_linear" x1="846.785" y1="292.544" x2="837.65" y2="258.303" gradientUnits="userSpaceOnUse">
<stop stop-color="#97C15A"/>
<stop offset="1" stop-color="#405C40"/>
</linearGradient>
<linearGradient id="paint6_linear" x1="135.067" y1="71.7218" x2="103.07" y2="106.36" gradientUnits="userSpaceOnUse">
<stop stop-color="#97C15A"/>
<stop offset="1" stop-color="#405C40"/>
</linearGradient>
<linearGradient id="paint7_linear" x1="795.088" y1="23.9205" x2="743.966" y2="27.87" gradientUnits="userSpaceOnUse">
<stop stop-color="#97C15A"/>
<stop offset="1" stop-color="#405C40"/>
</linearGradient>
<linearGradient id="paint8_linear" x1="927.531" y1="33.386" x2="932.742" y2="5.93065" gradientUnits="userSpaceOnUse">
<stop stop-color="#97C15A"/>
<stop offset="1" stop-color="#405C40"/>
</linearGradient>
<linearGradient id="paint9_linear" x1="347.85" y1="279.705" x2="364.914" y2="290.354" gradientUnits="userSpaceOnUse">
<stop stop-color="#97C15A"/>
<stop offset="1" stop-color="#405C40"/>
</linearGradient>
<linearGradient id="paint10_linear" x1="1156.96" y1="435.041" x2="408.924" y2="435.041" gradientUnits="userSpaceOnUse">
<stop stop-color="#97C15A"/>
<stop offset="1" stop-color="#405C40"/>
</linearGradient>
</defs>
</svg>
