<svg width="16" height="11" viewBox="0 0 16 11" fill="none" xmlns="http://www.w3.org/2000/svg">
<path d="M13.7768 8.21895L13.7768 7.34316L14.9389 7.34316C15.5284 7.34316 16 6.87158 16 6.28211L16 3.70526C16 3.11579 15.5284 2.64421 14.9389 2.64421L13.7768 2.64421L13.7768 1.76842C13.7768 0.791579 12.9853 -1.31778e-07 12.0084 -1.74477e-07L1.76842 -6.22082e-07C0.791578 -6.64781e-07 -3.4601e-08 0.791578 -7.73001e-08 1.76842L-3.59998e-07 8.23579C-4.02697e-07 9.21263 0.791578 10.0042 1.76842 10.0042L11.9916 10.0042C12.9684 9.98737 13.7768 9.19579 13.7768 8.21895ZM14.8211 3.82316L14.8211 6.14737L13.7768 6.14737L13.7768 3.82316L14.8211 3.82316ZM1.76842 8.80842C1.44842 8.80842 1.17895 8.53895 1.17895 8.21895L1.17895 1.75158C1.17895 1.43158 1.44842 1.1621 1.76842 1.1621L11.9916 1.16211C12.3116 1.16211 12.5811 1.43158 12.5811 1.75158L12.5811 8.21895C12.5811 8.53895 12.3116 8.80842 11.9916 8.80842L1.76842 8.80842Z" fill="#1750E2"/>
<path d="M3.70526 6.97266L3.70526 2.99792C3.70526 2.67792 3.43579 2.40845 3.11579 2.40845C2.79579 2.40845 2.52631 2.67792 2.52631 2.99792L2.52631 6.97266C2.52631 7.29266 2.79579 7.56213 3.11579 7.56213C3.43579 7.56213 3.70526 7.29266 3.70526 6.97266Z" fill="#1750E2"/>
</svg>
