<svg width="17" height="16" viewBox="0 0 17 16" fill="none" xmlns="http://www.w3.org/2000/svg">
<path d="M13.9089 13.3973C14.9577 12.2491 15.6491 10.8202 15.8987 9.28535C16.1483 7.75046 15.9452 6.1761 15.3142 4.75481C14.6833 3.33351 13.6518 2.12687 12.346 1.28244C11.0402 0.438017 9.51666 -0.00759545 7.96163 9.79617e-05C6.4066 0.00779138 4.88751 0.468457 3.59012 1.32576C2.29273 2.18307 1.27328 3.39985 0.656433 4.82732C0.0395827 6.2548 -0.147933 7.83109 0.116818 9.36343C0.381568 10.8958 1.08711 12.3178 2.14717 13.4555C2.89583 14.2584 3.80171 14.8986 4.80843 15.3364C5.81515 15.7741 6.90118 16 7.99896 16C9.09673 16 10.1828 15.7741 11.1895 15.3364C12.1962 14.8986 13.1021 14.2584 13.8508 13.4555L13.9089 13.3973ZM8.00623 1.4537C9.20427 1.45568 10.3788 1.78638 11.4019 2.40977C12.4249 3.03317 13.2573 3.92536 13.8083 4.98915C14.3594 6.05295 14.6079 7.24755 14.5269 8.44285C14.4459 9.63814 14.0384 10.7883 13.3489 11.768C12.5692 10.9347 11.6051 10.2957 10.5339 9.90225C11.0614 9.40146 11.4266 8.75401 11.5824 8.04352C11.7382 7.33303 11.6773 6.59216 11.4077 5.91661C11.1381 5.24105 10.6722 4.66186 10.07 4.25384C9.46789 3.84582 8.75723 3.62772 8.02987 3.62772C7.30251 3.62772 6.59186 3.84582 5.98972 4.25384C5.38757 4.66186 4.92161 5.24105 4.65201 5.91661C4.38241 6.59216 4.32157 7.33303 4.47734 8.04352C4.63312 8.75401 4.99835 9.40146 5.52586 9.90225C4.44256 10.3004 3.46912 10.9498 2.68543 11.7971C1.98887 10.8188 1.57485 9.66769 1.48869 8.46982C1.40252 7.27196 1.64753 6.07347 2.1969 5.00553C2.74627 3.93759 3.57882 3.04135 4.60344 2.41489C5.62807 1.78844 6.80528 1.45591 8.00623 1.4537ZM5.84954 7.27276C5.84954 6.84118 5.97752 6.41928 6.2173 6.06043C6.45708 5.70158 6.79788 5.42188 7.19662 5.25672C7.59535 5.09156 8.03411 5.04835 8.45741 5.13255C8.8807 5.21674 9.26952 5.42457 9.5747 5.72975C9.87988 6.03493 10.0877 6.42375 10.1719 6.84705C10.2561 7.27034 10.2129 7.7091 10.0477 8.10784C9.88257 8.50657 9.60288 8.84738 9.24403 9.08715C8.88517 9.32693 8.46328 9.45491 8.03169 9.45491C7.45295 9.45491 6.89791 9.22501 6.48868 8.81578C6.07945 8.40654 5.84954 7.85151 5.84954 7.27276ZM3.6674 12.8845C4.21166 12.2637 4.88179 11.7659 5.63326 11.424C6.38474 11.0821 7.20036 10.9041 8.02594 10.9017C8.85153 10.8993 9.66817 11.0726 10.4216 11.41C11.1751 11.7475 11.8481 12.2415 12.396 12.8591C11.203 13.9444 9.6494 14.5479 8.03659 14.5526C6.42379 14.5573 4.86672 13.9629 3.6674 12.8845Z" fill="#1750E2"/>
</svg>
