<svg width="344" height="93" viewBox="0 0 344 93" fill="none" xmlns="http://www.w3.org/2000/svg">
<path d="M155.27 11.2405C147.338 11.766 139.434 12.4516 131.556 13.2973C123.679 14.143 115.836 15.1344 108.028 16.2716C92.4477 18.5449 77.0793 21.5955 62.022 25.4037C54.5076 27.3127 47.0901 29.431 39.8824 31.888C32.6761 34.2757 25.7614 37.1462 19.2198 40.4659C16.0105 42.1034 13.0012 43.9583 10.2284 46.008C7.51507 47.9621 5.30576 50.2868 3.71484 52.8618C3.02254 54.0926 2.59465 55.4004 2.44764 56.7351C2.31804 58.0442 2.5377 59.3597 3.09335 60.6022C3.36179 61.2374 3.69648 61.8552 4.0942 62.4496C4.31212 62.7452 4.54619 63.0346 4.77218 63.3302C4.88518 63.4718 4.9901 63.6258 5.11924 63.7674L5.52281 64.18C5.78916 64.4571 6.04744 64.7404 6.32994 65.0175L7.242 65.8057L7.69399 66.1998L8.18634 66.5754L9.18719 67.3205C12.0114 69.2703 15.1173 70.9685 18.445 72.3823C21.8294 73.8406 25.3161 75.1562 28.8893 76.3234C32.4971 77.4687 36.1534 78.5772 39.8582 79.5439C41.6984 80.0674 43.6032 80.4615 45.5081 80.9295C47.4129 81.3975 49.2532 81.8347 51.158 82.2596C66.3669 85.478 81.906 87.7069 97.6084 88.9224C129.03 91.4348 160.896 90.6836 192.236 87.5061C207.93 85.977 223.502 83.7897 238.88 80.9541L241.762 80.4307L244.627 79.8457L250.358 78.6818C252.271 78.3124 254.151 77.8444 256.048 77.4503C257.945 77.0562 259.842 76.6066 261.698 76.1571L267.348 74.7469L270.165 74.0449L272.949 73.2814L278.511 71.7419C280.359 71.2123 282.175 70.6335 284.007 70.0793C287.696 69.0078 291.271 67.7331 294.871 66.5323C296.663 65.9165 298.406 65.2268 300.182 64.5802L302.829 63.5888C303.701 63.2501 304.557 62.8807 305.42 62.5297C312.359 59.7751 318.97 56.565 325.179 52.9357L327.479 51.5686C327.87 51.3513 328.242 51.1147 328.593 50.8605L329.675 50.1215L331.83 48.6436C332.185 48.3973 332.564 48.1571 332.903 47.8985L333.888 47.1041L335.873 45.5031L336.866 44.7087L337.746 43.902C338.856 42.8544 339.779 41.699 340.49 40.4659C341.153 39.3329 341.457 38.0967 341.378 36.8574C341.266 35.6189 340.765 34.4192 339.917 33.3597C338.999 32.215 337.868 31.1778 336.559 30.2808C335.191 29.3133 333.719 28.4338 332.161 27.6513C328.925 26.0479 325.517 24.6554 321.975 23.4886C318.415 22.257 314.71 21.2225 311.022 20.2557C303.572 18.3221 295.928 16.7457 288.22 15.3294C272.804 12.546 257.138 10.4831 241.407 8.70349C209.929 5.08265 178.249 2.76729 146.488 1.04923C146.445 1.0461 146.404 1.03025 146.376 1.005C146.347 0.979758 146.333 0.94707 146.335 0.913757C146.336 0.897823 146.341 0.882207 146.35 0.867876C146.359 0.853544 146.372 0.840794 146.388 0.830413C146.404 0.820032 146.423 0.812235 146.443 0.807505C146.463 0.802775 146.484 0.801214 146.504 0.80291C162.413 1.4187 178.297 2.27465 194.125 3.35228C209.953 4.42991 225.821 5.76002 241.601 7.4165C257.38 9.07297 273.079 11.062 288.648 13.7591C296.413 15.1139 304.129 16.6595 311.7 18.5684C315.485 19.5229 319.23 20.5759 322.887 21.789C326.569 22.974 330.114 24.3933 333.484 26.0318C335.165 26.8647 336.755 27.7996 338.238 28.8275C339.744 29.8524 341.046 31.0389 342.104 32.3498C343.177 33.6723 343.819 35.1714 343.977 36.7219C344.097 38.2733 343.744 39.8249 342.944 41.2541C342.152 42.6683 341.112 43.9941 339.853 45.1952L338.892 46.0819L337.867 46.9132L335.809 48.5759L334.784 49.4134C334.437 49.6782 334.049 49.9245 333.686 50.1831L331.458 51.7102L330.345 52.48C329.982 52.7391 329.602 52.9837 329.207 53.2128L326.842 54.6045C320.522 58.3279 313.789 61.6246 306.72 64.4571C305.84 64.8204 304.976 65.196 304.089 65.547L301.409 66.5508C299.617 67.2158 297.849 67.9178 296.033 68.5459C292.385 69.7775 288.769 71.0707 285.056 72.1606C283.208 72.7271 281.368 73.3183 279.511 73.854L273.862 75.4181L271.053 76.2002L268.22 76.9145L262.57 78.3493C260.673 78.8112 258.752 79.2299 256.847 79.6733C254.942 80.1166 253.046 80.5723 251.117 80.9541L245.321 82.1179L242.432 82.7337L239.526 83.2695C224.048 86.1669 208.371 88.4077 192.567 89.9816C160.984 93.1159 128.901 93.7995 97.1967 91.2132C81.3375 89.9467 65.6474 87.6581 50.2944 84.3717C48.3815 83.9407 46.4928 83.4604 44.5879 83.0108C42.6831 82.5613 40.7702 82.1303 38.938 81.5945C35.1687 80.6031 31.464 79.4762 27.7916 78.2816C24.1246 77.0417 20.549 75.65 17.0809 74.1127C13.5945 72.6009 10.345 70.7911 7.39536 68.7184L6.32994 67.9117L5.79724 67.5052L5.30489 67.068L4.32826 66.1936C4.02155 65.8919 3.73905 65.5778 3.44042 65.2638L3.00456 64.7958C2.86735 64.6357 2.74629 64.4694 2.61714 64.3032C2.36693 63.9706 2.10058 63.6443 1.86651 63.3056C1.42382 62.6212 1.05403 61.9107 0.760741 61.1811C0.126736 59.7116 -0.114777 58.16 0.0504684 56.6181C0.243401 55.0847 0.752794 53.5842 1.5598 52.1721C3.30273 49.4084 5.70604 46.917 8.64641 44.8257C11.5323 42.7168 14.6634 40.8123 18.0011 39.1358C24.6815 35.8039 31.7366 32.9312 39.0833 30.5517C46.3988 28.1399 53.8689 26.0107 61.4651 24.1721C76.6575 20.499 92.1502 17.5923 107.843 15.471C123.524 13.3168 139.349 11.8243 155.246 11.0004C155.288 11.0002 155.329 11.0122 155.36 11.0338C155.391 11.0555 155.411 11.0853 155.415 11.1174C155.415 11.148 155.401 11.1776 155.374 11.2004C155.347 11.2232 155.31 11.2375 155.27 11.2405Z" fill="#C9AB7E"/>
</svg>
