<svg width="24" height="16" viewBox="0 0 24 16" fill="none" xmlns="http://www.w3.org/2000/svg">
<path d="M23.9997 0H0V16H23.9997V0Z" fill="#F0F0F0"/>
<path d="M23.9997 1.99976H0V3.99956H23.9997V1.99976Z" fill="#D80027"/>
<path d="M23.9997 6H0V7.99981H23.9997V6Z" fill="#D80027"/>
<path d="M23.9997 9.99951H0V11.9993H23.9997V9.99951Z" fill="#D80027"/>
<path d="M23.9997 13.9998H0V15.9996H23.9997V13.9998Z" fill="#D80027"/>
<path d="M11.9999 0H0V8.61539H11.9999V0Z" fill="#2E52B2"/>
<path d="M4.6791 3.5293L4.48584 4.12385H3.86072L4.36654 4.49112L4.17328 5.08562L4.6791 4.71836L5.18459 5.08562L4.99138 4.49112L5.4972 4.12385H4.87204L4.6791 3.5293Z" fill="#F0F0F0"/>
<path d="M4.87204 6.26931L4.6791 5.6748L4.48584 6.26931H3.86072L4.36654 6.63662L4.17328 7.23113L4.6791 6.86382L5.18459 7.23113L4.99138 6.63662L5.4972 6.26931H4.87204Z" fill="#F0F0F0"/>
<path d="M2.23014 6.26931L2.03716 5.6748L1.8439 6.26931H1.21878L1.7246 6.63662L1.53134 7.23113L2.03716 6.86382L2.5427 7.23113L2.34949 6.63662L2.85522 6.26931H2.23014Z" fill="#F0F0F0"/>
<path d="M2.03716 3.5293L1.8439 4.12385H1.21878L1.7246 4.49112L1.53134 5.08562L2.03716 4.71836L2.5427 5.08562L2.34949 4.49112L2.85522 4.12385H2.23014L2.03716 3.5293Z" fill="#F0F0F0"/>
<path d="M4.6791 1.38379L4.48584 1.97839H3.86072L4.36654 2.3457L4.17328 2.94021L4.6791 2.5729L5.18459 2.94021L4.99138 2.3457L5.4972 1.97839H4.87204L4.6791 1.38379Z" fill="#F0F0F0"/>
<path d="M2.03716 1.38379L1.8439 1.97839H1.21878L1.7246 2.3457L1.53134 2.94021L2.03716 2.5729L2.5427 2.94021L2.34949 2.3457L2.85522 1.97839H2.23014L2.03716 1.38379Z" fill="#F0F0F0"/>
<path d="M7.32102 3.5293L7.1278 4.12385H6.50269L7.00846 4.49112L6.81529 5.08562L7.32102 4.71836L7.82661 5.08562L7.63334 4.49112L8.13917 4.12385H7.51405L7.32102 3.5293Z" fill="#F0F0F0"/>
<path d="M7.51405 6.26931L7.32102 5.6748L7.1278 6.26931H6.50269L7.00846 6.63662L6.81529 7.23113L7.32102 6.86382L7.82661 7.23113L7.63334 6.63662L8.13917 6.26931H7.51405Z" fill="#F0F0F0"/>
<path d="M10.156 6.26931L9.96299 5.6748L9.76973 6.26931H9.14465L9.65038 6.63662L9.45717 7.23113L9.96299 6.86382L10.4685 7.23113L10.2753 6.63662L10.7811 6.26931H10.156Z" fill="#F0F0F0"/>
<path d="M9.96299 3.5293L9.76973 4.12385H9.14465L9.65038 4.49112L9.45717 5.08562L9.96299 4.71836L10.4685 5.08562L10.2753 4.49112L10.7811 4.12385H10.156L9.96299 3.5293Z" fill="#F0F0F0"/>
<path d="M7.32102 1.38379L7.1278 1.97839H6.50269L7.00846 2.3457L6.81529 2.94021L7.32102 2.5729L7.82661 2.94021L7.63334 2.3457L8.13917 1.97839H7.51405L7.32102 1.38379Z" fill="#F0F0F0"/>
<path d="M9.96299 1.38379L9.76973 1.97839H9.14465L9.65038 2.3457L9.45717 2.94021L9.96299 2.5729L10.4685 2.94021L10.2753 2.3457L10.7811 1.97839H10.156L9.96299 1.38379Z" fill="#F0F0F0"/>
</svg>
