<svg width="632" height="587" viewBox="0 0 632 587" fill="none" xmlns="http://www.w3.org/2000/svg">
<g opacity="0.1">
<path d="M446.151 376.004C419.943 385.783 408.208 391.651 402.731 433.506" stroke="#002B98" stroke-width="2"/>
<path d="M297.507 700.673C272.081 655.688 356.182 427.245 362.05 415.119C367.917 402.993 399.211 367.396 461.016 361.529C470.404 367.787 469.23 367.005 476.662 372.09" stroke="#002B98" stroke-width="2"/>
<path d="M27.9907 248.873C22.1232 259.435 1 332.584 1 332.584C1.00001 352.142 15.3168 365.911 22.5143 370.918C29.7119 375.925 63.0656 377.699 78.8428 377.959C127.217 381.219 226.47 389.538 236.484 396.735C246.498 403.933 245.351 414.86 243.525 419.423C221.881 482.271 177.496 610.158 173.115 618.92C167.638 629.873 152.774 635.74 146.906 646.693C142.212 655.455 148.862 666.512 152.774 670.946C142.995 693.633 128.913 713.583 125.001 736.271C126.565 768.738 275.21 802.77 281.469 801.987C287.727 801.205 286.554 803.161 281.469 774.214C277.401 751.057 291.248 714.496 298.68 699.11C313.023 655.299 342.804 564.078 347.185 549.683C352.662 531.689 371.438 460.887 375.741 452.673C380.043 444.458 392.17 449.544 398.037 445.632C402.731 442.503 403.122 436.244 402.731 433.506C405.6 433.375 412.589 432.802 417.596 431.55C423.854 429.985 423.463 412.382 427.766 396.735C431.208 384.218 441.979 377.438 446.934 375.612C469.882 373.005 517.266 367.554 523.212 366.615C530.644 365.442 535.729 363.095 538.858 359.574C541.362 356.758 543.813 342.754 544.726 336.104C566.501 335.191 612.242 333.131 621.004 332.192C629.766 331.254 630.914 319.805 630.392 314.199C628.958 265.302 625.933 166.728 625.307 163.598C624.681 160.469 623.643 158.954 622.178 156.166C605.357 145.996 568.587 135.747 563.893 133.87C558.026 131.522 487.615 113.138 469.621 110.008C451.628 106.879 426.593 101.794 394.517 96.7084C368.856 92.6402 255.26 67.3707 201.67 55.2444C201.67 55.2444 153.426 38.8153 152.774 40.7711C152.122 42.727 150.427 47.1081 148.862 48.9857C146.906 51.3327 144.95 54.0709 140.256 52.5062C135.562 50.9415 136.736 46.6387 136.736 45.074C136.736 43.8222 139.604 38.2937 141.039 35.6859C141.469 34.9035 115.222 25.1241 111.701 25.9066C105.051 32.9476 97.5407 56.5744 95.6631 65.0236C93.7855 73.4729 100.748 86.1468 98.0101 96.7084C95.2719 107.27 65.1518 214.45 45.2022 232.444C37.3788 241.519 33.8583 238.312 27.9907 248.873Z" stroke="#002B98" stroke-width="2"/>
<path d="M568.587 136.215C564.284 167.117 544.726 252.783 519.3 266.866C498.959 278.131 221.88 276.254 85.8835 273.907C76.8866 274.689 56.1546 280.478 45.2019 297.377C34.2491 314.275 23.9483 352.141 20.167 368.961" stroke="#002B98" stroke-width="2"/>
<path d="M79.2342 378.35C78.843 371.309 83.537 314.589 108.572 308.33C133.607 302.072 502.48 300.507 516.562 304.419C530.644 308.33 550.594 315.371 549.811 327.107C549.484 332.019 545.9 335.321 544.726 336.103M141.039 35.6406C143.777 35.6406 152.774 39.5523 153.165 40.7258" stroke="#002B98" stroke-width="2"/>
<path d="M370.321 203.351C371.402 200.73 373.957 199.02 376.793 199.02H512.898C514.316 199.02 515.284 200.453 514.753 201.768L500.443 237.232C499.375 239.879 496.806 241.613 493.952 241.613H357.535C356.111 241.613 355.143 240.167 355.686 238.851L370.321 203.351Z" stroke="#002B98" stroke-width="2"/>
<path d="M153.165 40.7258C153.165 40.7258 193.456 14.5175 216.535 2C257.999 10.997 421.507 59.8932 454.757 68.89C458.669 73.9751 475.88 110.745 475.88 110.745" stroke="#002B98" stroke-width="2"/>
<circle cx="217.317" cy="52.069" r="1.73819" stroke="#002B98" stroke-width="2"/>
<circle cx="411.337" cy="93.5351" r="1.73819" stroke="#002B98" stroke-width="2"/>
</g>
</svg>
