<svg width="24" height="16" viewBox="0 0 24 16" fill="none" xmlns="http://www.w3.org/2000/svg">
<path d="M23.9997 0H0V16H23.9997V0Z" fill="#338AF3"/>
<path d="M16.4998 8.45801H7.49991C7.49991 9.07933 8.04103 9.58295 8.66235 9.58295H8.6249C8.6249 10.2043 9.12852 10.708 9.74993 10.708C9.74993 11.3293 10.2536 11.833 10.875 11.833H13.1249C13.7463 11.833 14.25 11.3294 14.25 10.708C14.8713 10.708 15.375 10.2044 15.375 9.58295H15.3376C15.9586 9.58295 16.4998 9.07933 16.4998 8.45801Z" fill="#FFDA44"/>
<path d="M15.1152 6.98682C15.1152 8.70734 13.7204 10.1022 11.9999 10.1022C10.2793 10.1022 8.88449 8.70739 8.88449 6.98682" fill="#338AF3"/>
<path d="M15.0881 6.69525L13.8262 7.20614L14.4981 8.25805L13.1279 8.03239L12.9543 9.22371L11.9999 8.34753L11.0454 9.22371L10.8718 8.03239L9.5016 8.25795L10.1735 7.20609L8.91168 6.69525L10.1735 6.18437L9.5016 5.13255L10.8718 5.35816L11.0455 4.16675L11.9999 5.04302L12.9543 4.16675L13.1279 5.35816L14.4982 5.13255L13.8262 6.18441L15.0881 6.69525Z" fill="#FFDA44"/>
</svg>
