<svg width="222" height="41" viewBox="0 0 222 41" fill="none" xmlns="http://www.w3.org/2000/svg">
<path d="M7.14339 30.4048H5.89726C5.63492 30.4048 5.56934 30.2591 5.56934 30.0405V0.532268C5.56934 0.313689 5.70051 0.167969 5.89726 0.167969H7.14339C7.40573 0.167969 7.47131 0.313689 7.47131 0.532268V30.0405C7.47131 30.332 7.40573 30.4048 7.14339 30.4048Z" fill="white"/>
<path d="M27.4094 30.4049H26.0977C25.901 30.4049 25.7698 30.3321 25.7698 30.1135V16.9258C25.7698 16.1243 25.7042 15.3228 25.5074 14.5214C25.3107 13.7199 24.9828 13.0642 24.5892 12.5541C24.1957 11.9713 23.6055 11.5341 22.9496 11.2427C22.2282 10.8784 21.4412 10.7326 20.4574 10.7326C19.6704 10.7326 18.9489 10.8784 18.2931 11.2427C17.6372 11.5341 17.1125 12.0441 16.6534 12.5541C16.1943 13.137 15.8664 13.7199 15.6041 14.4485C15.3417 15.1771 15.2106 15.9786 15.2106 16.8529V30.1135C15.2106 30.3321 15.0794 30.4778 14.8826 30.4778H13.6365C13.4398 30.4778 13.3086 30.4049 13.3086 30.1863V9.49401C13.3086 9.27543 13.4398 9.1297 13.6365 9.1297H14.817C15.0138 9.1297 15.0794 9.27543 15.0794 9.49401V11.3155C15.0794 11.5341 15.145 11.607 15.2106 11.6798C15.2761 11.6798 15.4073 11.6798 15.5385 11.4612C16.1943 10.6598 16.9814 10.004 17.9651 9.56687C18.9489 9.12971 19.9327 8.91113 20.9165 8.91113C22.1626 8.91113 23.212 9.12971 24.0646 9.56687C24.9172 10.004 25.6386 10.5869 26.1633 11.3884C26.688 12.117 27.0815 12.9913 27.3438 13.9385C27.6062 14.8857 27.6718 15.9057 27.6718 16.9258V30.1135C27.6718 30.3321 27.5406 30.4049 27.4094 30.4049Z" fill="white"/>
<path d="M38.1653 30.6957C37.2471 30.6957 36.5257 30.55 35.9354 30.2585C35.3452 29.9671 34.8861 29.5299 34.5582 29.0199C34.2302 28.5099 33.9679 27.8541 33.8367 27.1984C33.7055 26.4698 33.64 25.7412 33.64 24.8669V11.3877C33.64 11.0963 33.5088 10.9506 33.312 10.9506H30.8854C30.6886 10.9506 30.623 10.8048 30.623 10.5863V9.49335C30.623 9.27477 30.6886 9.12905 30.8854 9.12905H33.3776C33.5744 9.12905 33.7055 8.98333 33.7055 8.76475V3.73739C33.7055 3.51881 33.8367 3.37309 34.0335 3.37309L35.214 3.00879C35.4763 3.00879 35.5419 3.08165 35.5419 3.37309V8.76475C35.5419 9.05619 35.6075 9.12905 35.8043 9.12905H40.7232C40.9199 9.12905 41.0511 9.27477 41.0511 9.49335V10.5863C41.0511 10.8048 40.9199 10.9506 40.7232 10.9506H35.8043C35.6075 10.9506 35.4763 11.0963 35.4763 11.3877V24.5026C35.4763 26.0326 35.6731 27.1255 36.1322 27.8541C36.5913 28.5827 37.3127 28.8742 38.4277 28.8742C38.8212 28.8742 39.3459 28.8013 39.8706 28.7285C40.4608 28.6556 40.8543 28.5099 41.1823 28.437C41.379 28.3642 41.4446 28.3642 41.5102 28.437C41.5758 28.5099 41.6413 28.5828 41.6413 28.7285L41.8381 29.7485C41.8381 29.9671 41.7725 30.1128 41.6413 30.1857C41.1823 30.4043 40.6576 30.55 39.9361 30.6228C39.2147 30.6228 38.6244 30.6957 38.1653 30.6957Z" fill="white"/>
<path d="M58.4966 19.1112C58.4966 19.4026 58.431 19.6212 58.2999 19.7669C58.1687 19.9126 58.0375 19.9855 57.9064 19.9855H46.6256C46.2977 19.9855 46.1009 20.2041 46.1009 20.6412V22.9727C46.1009 24.6485 46.56 26.1057 47.5438 27.1986C48.5276 28.3643 49.8393 28.8743 51.4789 28.8743C52.4627 28.8743 53.3153 28.6558 54.0368 28.2186C54.7582 27.7814 55.4141 27.1986 55.8732 26.47C56.0699 26.1785 56.2667 26.1785 56.4635 26.3242L57.3161 26.9071C57.5128 27.0529 57.5784 27.2714 57.5128 27.4171C56.9226 28.4372 56.0699 29.2386 55.0206 29.8215C53.9712 30.4044 52.7906 30.6229 51.4789 30.6229C49.249 30.6229 47.5438 29.8944 46.2321 28.51C44.9203 27.1257 44.3301 25.2314 44.3301 22.8999V16.7068C44.3301 15.4682 44.5268 14.3753 44.8548 13.3553C45.2483 12.4081 45.7074 11.5338 46.3632 10.8781C47.0191 10.2223 47.7405 9.63946 48.5932 9.27516C49.4458 8.91086 50.364 8.76514 51.4133 8.76514C52.4627 8.76514 53.3809 8.91086 54.2991 9.27516C55.1518 9.63946 55.9388 10.1495 56.5946 10.8052C57.2505 11.4609 57.7096 12.3353 58.1031 13.3553C58.4966 14.3753 58.6278 15.5411 58.6278 16.9254V19.1112H58.4966ZM56.5946 16.5611C56.5946 14.8125 56.1355 13.4282 55.1517 12.3353C54.168 11.2424 52.9218 10.6595 51.2822 10.6595C50.4952 10.6595 49.8393 10.8052 49.1834 11.0966C48.5276 11.3881 48.0029 11.8252 47.5438 12.3353C47.0847 12.8453 46.6912 13.501 46.4288 14.2296C46.1665 14.9582 46.0353 15.6868 46.0353 16.4882V17.654C46.0353 18.0183 46.2321 18.164 46.56 18.164H56.2011C56.4635 18.164 56.5946 18.0183 56.5946 17.654V16.5611Z" fill="white"/>
<path d="M75.2209 12.0441C75.3521 12.3356 75.352 12.4813 75.1553 12.627L74.3682 13.3556C74.1715 13.5013 73.9747 13.4285 73.778 13.2099C73.2533 12.4084 72.663 11.8255 71.8104 11.3884C71.0234 10.9512 70.1708 10.7326 69.2525 10.7326C67.6785 10.7326 66.3668 11.3155 65.383 12.4084C64.3992 13.5013 63.8745 14.9585 63.8745 16.7072V22.9732C63.8745 24.7947 64.3992 26.2519 65.383 27.3448C66.3668 28.3648 67.6785 28.9477 69.3181 28.9477C70.3675 28.9477 71.2857 28.7291 72.0072 28.292C72.7286 27.8548 73.3845 27.2719 73.8436 26.4705C73.9747 26.2519 74.1059 26.179 74.3027 26.3976L75.0897 26.9076C75.2209 27.0534 75.2865 27.1262 75.352 27.2719C75.352 27.3448 75.3521 27.4905 75.2865 27.5634C74.6306 28.6563 73.778 29.4577 72.7286 29.9678C71.6792 30.4778 70.4987 30.7692 69.2525 30.7692C66.957 30.7692 65.1862 30.0406 63.9401 28.6563C62.6284 27.2719 62.0381 25.3776 62.0381 23.046V16.78C62.0381 15.6143 62.2348 14.5214 62.6284 13.5742C63.0219 12.627 63.5466 11.8255 64.2024 11.0969C64.8583 10.4412 65.6453 9.93117 66.4979 9.49401C67.3505 9.1297 68.3344 8.91113 69.3837 8.91113C71.876 8.91113 73.8436 9.93117 75.2209 12.0441Z" fill="white"/>
<path d="M84.7961 30.6957C83.8779 30.6957 83.1564 30.55 82.5662 30.2585C81.9759 29.9671 81.5169 29.5299 81.1889 29.0199C80.861 28.5099 80.5987 27.8541 80.4675 27.1984C80.3363 26.4698 80.2708 25.7412 80.2708 24.8669V11.3877C80.2708 11.0963 80.1396 10.9506 79.9428 10.9506H77.5162C77.3195 10.9506 77.2539 10.8048 77.2539 10.5863V9.49335C77.2539 9.27477 77.3195 9.12905 77.5162 9.12905H80.0084C80.2052 9.12905 80.3363 8.98333 80.3363 8.76475V3.73739C80.3363 3.51881 80.4675 3.37309 80.6643 3.37309L81.8448 3.00879C82.1071 3.00879 82.1727 3.08165 82.1727 3.37309V8.76475C82.1727 9.05619 82.2383 9.12905 82.435 9.12905H87.3538C87.5506 9.12905 87.6818 9.27477 87.6818 9.49335V10.5863C87.6818 10.8048 87.5506 10.9506 87.3538 10.9506H82.5006C82.3039 10.9506 82.1727 11.0963 82.1727 11.3877V24.5026C82.1727 26.0326 82.3695 27.1255 82.8285 27.8541C83.2876 28.5827 84.0091 28.8742 85.124 28.8742C85.5175 28.8742 86.0421 28.8013 86.5668 28.7285C87.1571 28.6556 87.5506 28.5099 87.8785 28.437C88.0752 28.3642 88.1408 28.3642 88.2064 28.437C88.272 28.5099 88.3376 28.5828 88.3376 28.7285L88.5343 29.7485C88.5343 29.9671 88.4688 30.1128 88.3376 30.1857C87.8785 30.4043 87.3538 30.55 86.6324 30.6228C85.8454 30.6228 85.2551 30.6957 84.7961 30.6957Z" fill="white"/>
<path d="M93.715 2.9362C93.715 3.37336 93.5838 3.73766 93.3215 4.0291C93.0592 4.32054 92.7313 4.46627 92.4034 4.46627C92.0755 4.46627 91.7476 4.32054 91.4853 4.0291C91.223 3.73766 91.0918 3.37336 91.0918 2.9362C91.0918 2.49904 91.223 2.20761 91.4853 1.91617C91.7476 1.62473 92.0755 1.479 92.4034 1.479C92.7969 1.479 93.1248 1.62473 93.3215 1.91617C93.5838 2.13475 93.715 2.49904 93.715 2.9362ZM91.4197 9.4936C91.4197 9.27502 91.5509 9.1293 91.7476 9.1293H92.9936C93.1904 9.1293 93.3215 9.27502 93.3215 9.4936V30.1859C93.3215 30.4044 93.1904 30.4773 92.9936 30.4773H91.7476C91.5509 30.4773 91.4197 30.4044 91.4197 30.1859V9.4936Z" fill="white"/>
<path d="M111.424 12.0441C111.555 12.3356 111.555 12.4813 111.358 12.627L110.571 13.3556C110.374 13.5013 110.178 13.4285 109.981 13.2099C109.456 12.4084 108.866 11.8255 108.013 11.3884C107.226 10.9512 106.374 10.7326 105.456 10.7326C103.882 10.7326 102.57 11.3155 101.586 12.4084C100.602 13.5013 100.078 14.9585 100.078 16.7072V22.9732C100.078 24.7947 100.602 26.2519 101.586 27.3448C102.57 28.3648 103.882 28.9477 105.521 28.9477C106.57 28.9477 107.489 28.7291 108.21 28.292C108.932 27.8548 109.587 27.2719 110.047 26.4705C110.178 26.2519 110.309 26.179 110.506 26.3976L111.293 26.9076C111.424 27.0534 111.489 27.1262 111.555 27.2719C111.555 27.3448 111.555 27.4905 111.489 27.5634C110.834 28.6563 109.981 29.4577 108.932 29.9678C107.882 30.4778 106.702 30.7692 105.456 30.7692C103.16 30.7692 101.389 30.0406 100.143 28.6563C98.8315 27.2719 98.2412 25.3776 98.2412 23.046V16.78C98.2412 15.6143 98.438 14.5214 98.8315 13.5742C99.225 12.627 99.7497 11.8255 100.406 11.0969C101.061 10.4412 101.848 9.93117 102.701 9.49401C103.554 9.1297 104.537 8.91113 105.587 8.91113C108.079 8.91113 110.046 9.93117 111.424 12.0441Z" fill="white"/>
<path d="M113.851 23.7017C113.851 22.6816 113.982 21.7344 114.31 20.8601C114.572 19.9858 115.031 19.1843 115.621 18.5286C116.212 17.8729 116.867 17.3628 117.72 16.9257C118.573 16.5614 119.491 16.3428 120.606 16.3428C121.524 16.3428 122.377 16.4885 123.229 16.8528C124.082 17.2171 124.738 17.7271 125.262 18.3829C125.394 18.5286 125.459 18.5286 125.525 18.5286C125.59 18.4557 125.656 18.3829 125.656 18.2371V15.9785C125.656 15.3227 125.59 14.667 125.459 14.0112C125.328 13.3555 125.066 12.8455 124.738 12.3355C124.41 11.8254 123.885 11.4611 123.229 11.1697C122.573 10.8783 121.786 10.7325 120.803 10.7325C120.475 10.7325 120.081 10.7325 119.688 10.8054C119.294 10.8783 118.835 10.9511 118.442 11.024C117.982 11.0968 117.589 11.2425 117.195 11.3883C116.802 11.534 116.474 11.6797 116.146 11.7526C115.949 11.8983 115.818 11.8983 115.687 11.6069L115.293 10.5868C115.293 10.3682 115.359 10.2225 115.49 10.1497C116.212 9.78535 117.064 9.42104 118.114 9.27532C119.097 9.05674 120.081 8.98389 120.934 8.98389C123.295 8.98389 124.934 9.63963 125.984 10.8783C126.968 12.1169 127.492 13.9384 127.492 16.2699V30.2591C127.492 30.4777 127.361 30.6234 127.164 30.6234H126.049C125.853 30.6234 125.787 30.5505 125.787 30.332V28.4376C125.787 28.219 125.721 28.0733 125.656 28.0733C125.59 28.0733 125.459 28.1462 125.394 28.2919C124.279 30.0405 122.573 30.9149 120.278 30.9149C118.245 30.9149 116.671 30.2591 115.556 28.9476C114.441 27.4904 113.851 25.7417 113.851 23.7017ZM115.556 23.556C115.556 25.086 115.949 26.3975 116.671 27.4175C117.458 28.4376 118.704 29.0205 120.409 29.0205C121.918 29.0205 123.098 28.5104 124.016 27.4175C124.934 26.3246 125.394 25.0132 125.394 23.4831C125.394 21.953 124.934 20.7144 124.082 19.6215C123.229 18.5286 121.983 18.0186 120.475 18.0186C119.688 18.0186 118.966 18.1643 118.31 18.4557C117.655 18.7472 117.13 19.1843 116.736 19.6215C116.277 20.1315 116.015 20.7144 115.753 21.443C115.687 22.0988 115.556 22.8273 115.556 23.556Z" fill="white"/>
<path d="M156.612 34.4121C156.612 35.5778 156.349 36.5979 155.759 37.6179C155.169 38.638 154.447 39.4394 153.464 40.0223C153.332 40.0952 153.267 40.168 153.136 40.168C153.004 40.168 152.939 40.168 152.808 39.9494L152.217 39.0751C152.086 38.8565 152.152 38.638 152.414 38.4194C153.004 38.0551 153.529 37.4722 153.988 36.8164C154.513 36.1607 154.71 35.3592 154.71 34.4849C154.71 33.6835 154.513 33.0277 154.119 32.4448C153.726 31.9348 153.267 31.4977 152.611 31.2062C152.021 30.9148 151.299 30.6233 150.578 30.5505C149.856 30.4048 149.069 30.3319 148.348 30.3319C147.43 30.3319 146.38 30.4048 145.2 30.5505C144.019 30.6962 142.904 30.8419 141.789 30.9876C141.527 31.0605 141.33 31.0605 141.134 30.9876C141.002 30.9148 140.806 30.6962 140.674 30.259C140.478 29.749 140.346 29.0204 140.346 28.0732C140.346 27.4175 140.609 26.616 141.134 25.596C141.658 24.6488 142.38 23.7744 143.298 22.973C143.363 22.973 143.429 22.9001 143.429 22.7544C143.429 22.7544 143.363 22.6087 143.232 22.5358H143.167C142.183 21.8801 141.461 21.0058 140.871 19.9129C140.281 18.82 140.019 17.5813 140.019 16.197C140.019 15.2498 140.215 14.3026 140.543 13.3554C140.871 12.4811 141.396 11.6796 141.986 10.951C142.576 10.2953 143.363 9.71242 144.216 9.27526C145.069 8.83809 145.987 8.69238 147.036 8.69238C147.692 8.69238 148.479 8.8381 149.332 9.05668C150.184 9.27527 150.906 9.78528 151.627 10.3682C151.758 10.5139 151.824 10.5867 151.955 10.5867C152.021 10.5867 152.152 10.5139 152.283 10.3682C152.808 9.931 153.332 9.5667 153.988 9.27526C154.644 8.98382 155.3 8.83809 155.956 8.76523H156.087C156.284 8.76523 156.415 8.91095 156.415 9.27526V10.7325C156.415 11.0239 156.349 11.0968 156.153 11.0968H156.021C155.562 11.0968 155.103 11.1696 154.578 11.3153C154.054 11.4611 153.66 11.6068 153.398 11.6796C153.267 11.7525 153.201 11.8254 153.201 11.8982C153.201 11.9711 153.267 12.1168 153.398 12.4082C153.66 12.9183 153.923 13.5012 154.054 14.1569C154.185 14.8126 154.251 15.4684 154.251 16.0513C154.251 17.217 154.054 18.3099 153.66 19.2571C153.267 20.2043 152.742 21.0058 152.086 21.6615C151.43 22.3172 150.643 22.8273 149.791 23.1916C148.938 23.5559 148.02 23.7016 147.102 23.7016C146.839 23.7016 146.577 23.7016 146.38 23.7016C146.118 23.7016 145.921 23.7016 145.659 23.6287C145.397 23.6287 145.265 23.6287 145.134 23.7016C145.003 23.7744 144.937 23.8473 144.741 23.9202C144.478 24.1388 144.15 24.4302 143.823 24.7945C143.495 25.1588 143.232 25.4502 143.035 25.8874C142.773 26.2517 142.576 26.6889 142.445 27.0532C142.314 27.4175 142.183 27.8546 142.183 28.2189C142.183 28.729 142.248 29.0204 142.314 29.0933C142.445 29.1661 142.642 29.239 142.97 29.1661C143.363 29.0932 143.757 28.9475 144.216 28.8747C144.675 28.8018 145.134 28.729 145.659 28.6561C146.118 28.5832 146.643 28.5104 147.036 28.5104C147.495 28.5104 147.889 28.4375 148.217 28.4375C149.266 28.4375 150.315 28.5104 151.299 28.729C152.283 28.9475 153.136 29.239 153.923 29.749C154.71 30.1862 155.3 30.8419 155.759 31.5705C156.349 32.4448 156.612 33.3192 156.612 34.4121ZM152.414 16.2698C152.414 15.5412 152.283 14.8126 152.086 14.084C151.824 13.4283 151.496 12.7726 151.037 12.2625C150.578 11.7525 150.053 11.3882 149.397 11.0968C148.741 10.8053 148.02 10.6596 147.233 10.6596C146.446 10.6596 145.724 10.8053 145.069 11.0968C144.413 11.3882 143.888 11.8254 143.429 12.3354C142.97 12.8454 142.642 13.4283 142.38 14.1569C142.117 14.8126 141.986 15.5413 141.986 16.3427C141.986 17.1442 142.117 17.7999 142.314 18.5285C142.576 19.1843 142.904 19.84 143.298 20.35C143.691 20.8601 144.282 21.2972 144.872 21.6615C145.528 21.9529 146.249 22.1715 147.036 22.1715C147.889 22.1715 148.61 22.0258 149.266 21.6615C149.922 21.3701 150.512 20.9329 150.971 20.35C151.43 19.84 151.758 19.1843 152.021 18.4557C152.283 17.7999 152.414 16.9985 152.414 16.2698Z" fill="white"/>
<path d="M160.547 9.12944C160.744 9.12944 160.809 9.27515 160.809 9.49373V11.8253C160.809 12.2624 160.94 12.2624 161.137 11.8981C161.662 11.0238 162.383 10.2952 163.236 9.71233C164.089 9.05659 165.007 8.76514 166.056 8.76514C166.253 8.76514 166.45 8.76514 166.712 8.76514C166.974 8.76514 167.171 8.83801 167.302 8.91086C167.565 8.98372 167.63 9.20231 167.63 9.42089L167.302 10.8781C167.302 11.1695 167.106 11.2424 166.843 11.1695C166.712 11.1695 166.515 11.0967 166.318 11.0967C166.122 11.0967 165.925 11.0967 165.728 11.0967C164.154 11.0967 162.974 11.6795 162.187 12.8453C161.334 14.011 160.94 15.5411 160.94 17.2897V30.113C160.94 30.3316 160.875 30.4773 160.678 30.4773H159.432C159.17 30.4773 159.104 30.4045 159.104 30.1859V9.49373C159.104 9.27515 159.235 9.12944 159.432 9.12944H160.547Z" fill="white"/>
<path d="M184.289 22.8275C184.289 25.3776 183.633 27.2719 182.387 28.6563C181.14 30.0406 179.37 30.6964 177.14 30.6964C174.779 30.6964 173.008 29.9678 171.762 28.5834C170.516 27.1991 169.925 25.3047 169.925 22.9003V16.6343C169.925 14.3028 170.581 12.4813 171.827 11.0241C173.139 9.56687 174.844 8.91113 177.14 8.91113C179.37 8.91113 181.075 9.63973 182.387 11.0241C183.633 12.4084 184.289 14.3028 184.289 16.7072V22.8275ZM182.452 16.78C182.452 15.0314 181.993 13.5742 181.14 12.4084C180.288 11.2427 178.976 10.7326 177.205 10.7326C175.631 10.7326 174.32 11.3155 173.336 12.4084C172.352 13.5013 171.827 14.9586 171.827 16.7072V22.8275C171.827 24.649 172.286 26.179 173.205 27.2719C174.123 28.3649 175.435 28.9477 177.205 28.9477C178.976 28.9477 180.288 28.3649 181.14 27.2719C181.993 26.179 182.452 24.649 182.452 22.7546V16.78Z" fill="white"/>
<path d="M202.587 30.404H201.407C201.21 30.404 201.145 30.3312 201.145 30.1126V28.2911C201.145 27.7811 201.013 27.7082 200.686 28.0725C200.095 28.9468 199.243 29.5297 198.325 29.9668C197.341 30.404 196.357 30.6226 195.308 30.6226C193.996 30.6226 192.947 30.404 192.094 29.9668C191.242 29.5297 190.586 28.9468 190.061 28.1454C189.536 27.4168 189.208 26.5424 188.946 25.5953C188.749 24.6481 188.618 23.6281 188.618 22.608V9.42045C188.618 9.20187 188.684 9.05615 188.881 9.05615H190.192C190.389 9.05615 190.454 9.20187 190.454 9.42045V22.7537C190.454 23.5552 190.52 24.3567 190.717 25.0853C190.914 25.8139 191.176 26.4696 191.635 27.0525C192.028 27.6353 192.619 28.0725 193.275 28.3639C193.93 28.6554 194.783 28.8739 195.767 28.8739C196.554 28.8739 197.275 28.7282 197.931 28.4368C198.587 28.1453 199.112 27.7082 199.571 27.1253C200.03 26.5424 200.423 25.9596 200.62 25.1581C200.882 24.4295 201.013 23.6281 201.013 22.7537V9.42045C201.013 9.20187 201.145 9.05615 201.341 9.05615H202.522C202.719 9.05615 202.85 9.20187 202.85 9.42045V30.0397C202.915 30.3311 202.784 30.404 202.587 30.404Z" fill="white"/>
<path d="M221.934 22.6817C221.934 23.6289 221.803 24.6489 221.541 25.5961C221.279 26.5433 220.885 27.4176 220.36 28.2191C219.836 28.9477 219.114 29.6035 218.262 30.0406C217.409 30.4778 216.36 30.7692 215.114 30.7692C213.933 30.7692 212.949 30.5506 212.097 30.1135C211.244 29.6763 210.523 29.0934 209.932 28.292C209.67 28.0005 209.473 28.0005 209.473 28.5105V39.0753C209.473 39.2939 209.342 39.3668 209.145 39.3668H207.899C207.702 39.3668 207.571 39.2939 207.571 39.0753V9.56676C207.571 9.34818 207.702 9.20246 207.899 9.20246H209.014C209.211 9.20246 209.342 9.34818 209.342 9.56676V11.3883C209.342 11.7526 209.473 11.7526 209.801 11.4611C210.326 10.7325 211.047 10.1497 211.965 9.63963C212.884 9.20246 213.867 8.98389 214.982 8.98389C217.212 8.98389 218.917 9.71249 220.164 11.0968C221.41 12.5541 222 14.3756 222 16.6343V22.6817H221.934ZM220.098 16.7071C220.098 14.8856 219.639 13.5013 218.786 12.3355C217.934 11.2426 216.556 10.6597 214.72 10.6597C213.146 10.6597 211.834 11.2426 210.851 12.3355C209.867 13.4284 209.342 14.8127 209.342 16.5614V22.8274C209.342 23.7017 209.473 24.4303 209.736 25.1589C209.998 25.8876 210.391 26.5433 210.851 27.1262C211.31 27.7091 211.9 28.1462 212.556 28.4377C213.212 28.7291 213.933 28.9477 214.72 28.9477C215.638 28.9477 216.491 28.802 217.147 28.4377C217.803 28.1462 218.393 27.7091 218.786 27.1262C219.18 26.5433 219.508 25.8876 219.704 25.1589C219.901 24.4303 220.032 23.556 220.032 22.7545V16.7071H220.098Z" fill="white"/>
<path d="M150.059 33.7681H0V36.9681H150.059V33.7681Z" fill="url(#paint0_linear)"/>
<path d="M203.445 33.7681H158.716V36.9681H203.445V33.7681Z" fill="url(#paint1_linear)"/>
<defs>
<linearGradient id="paint0_linear" x1="0.00890628" y1="35.3811" x2="150.074" y2="35.3811" gradientUnits="userSpaceOnUse">
<stop stop-color="white"/>
<stop offset="1" stop-color="white"/>
</linearGradient>
<linearGradient id="paint1_linear" x1="158.716" y1="35.3811" x2="203.448" y2="35.3811" gradientUnits="userSpaceOnUse">
<stop stop-color="white"/>
<stop offset="1" stop-color="white"/>
</linearGradient>
</defs>
</svg>
