<svg width="160" height="28" viewBox="0 0 160 28" fill="none" xmlns="http://www.w3.org/2000/svg">
<path d="M5.14812 21.1659H4.25002C4.06094 21.1659 4.01367 21.0639 4.01367 20.9109V0.255011C4.01367 0.102004 4.10821 0 4.25002 0H5.14812C5.3372 0 5.38447 0.102004 5.38447 0.255011V20.9109C5.38447 21.1149 5.3372 21.1659 5.14812 21.1659Z" fill="#699D43"/>
<path d="M19.7546 21.1658H18.8092C18.6674 21.1658 18.5728 21.1148 18.5728 20.9618V11.7304C18.5728 11.1694 18.5256 10.6083 18.3838 10.0473C18.2419 9.48628 18.0056 9.02725 17.722 8.67024C17.4384 8.26222 17.013 7.95621 16.5403 7.7522C16.0203 7.49719 15.4531 7.39518 14.7441 7.39518C14.1769 7.39518 13.6569 7.49719 13.1842 7.7522C12.7115 7.95621 12.3334 8.31322 12.0025 8.67024C11.6716 9.07826 11.4353 9.48628 11.2462 9.9963C11.0571 10.5063 10.9626 11.0673 10.9626 11.6794V20.9618C10.9626 21.1148 10.868 21.2168 10.7262 21.2168H9.82814C9.68633 21.2168 9.5918 21.1658 9.5918 21.0128V6.52813C9.5918 6.37512 9.68633 6.27312 9.82814 6.27312H10.679C10.8208 6.27312 10.868 6.37512 10.868 6.52813V7.80319C10.868 7.9562 10.9153 8.0072 10.9626 8.0582C11.0099 8.0582 11.1044 8.05821 11.1989 7.9052C11.6716 7.34417 12.2388 6.88515 12.9479 6.57914C13.6569 6.27312 14.3659 6.12012 15.0749 6.12012C15.9731 6.12012 16.7294 6.27312 17.3438 6.57914C17.9583 6.88515 18.4783 7.29317 18.8564 7.8542C19.2346 8.36422 19.5182 8.97625 19.7073 9.63928C19.8964 10.3023 19.9436 11.0163 19.9436 11.7304V20.9618C19.9436 21.1148 19.8491 21.1658 19.7546 21.1658Z" fill="#699D43"/>
<path d="M27.5062 21.3697C26.8444 21.3697 26.3245 21.2677 25.8991 21.0637C25.4737 20.8597 25.1428 20.5536 24.9064 20.1966C24.6701 19.8396 24.481 19.3806 24.3865 18.9216C24.2919 18.4115 24.2447 17.9015 24.2447 17.2895V7.85405C24.2447 7.65004 24.1501 7.54803 24.0083 7.54803H22.2594C22.1176 7.54803 22.0703 7.44602 22.0703 7.29302V6.52798C22.0703 6.37497 22.1176 6.27297 22.2594 6.27297H24.0556C24.1974 6.27297 24.2919 6.17096 24.2919 6.01796V2.49879C24.2919 2.34579 24.3865 2.24378 24.5283 2.24378L25.3791 1.98877C25.5682 1.98877 25.6155 2.03977 25.6155 2.24378V6.01796C25.6155 6.22197 25.6627 6.27297 25.8045 6.27297H29.3497C29.4915 6.27297 29.586 6.37497 29.586 6.52798V7.29302C29.586 7.44602 29.4915 7.54803 29.3497 7.54803H25.8045C25.6627 7.54803 25.5682 7.65004 25.5682 7.85405V17.0345C25.5682 18.1055 25.71 18.8706 26.0409 19.3806C26.3718 19.8906 26.8917 20.0946 27.6953 20.0946C27.9789 20.0946 28.357 20.0436 28.7352 19.9926C29.1606 19.9416 29.4442 19.8396 29.6806 19.7886C29.8224 19.7376 29.8696 19.7376 29.9169 19.7886C29.9642 19.8396 30.0114 19.8906 30.0114 19.9926L30.1532 20.7067C30.1532 20.8597 30.106 20.9617 30.0114 21.0127C29.6805 21.1657 29.3024 21.2677 28.7824 21.3187C28.2625 21.3187 27.8371 21.3697 27.5062 21.3697Z" fill="#699D43"/>
<path d="M42.1593 13.2604C42.1593 13.4644 42.1121 13.6174 42.0175 13.7194C41.923 13.8214 41.8285 13.8724 41.7339 13.8724H33.6036C33.3673 13.8724 33.2255 14.0254 33.2255 14.3314V15.9635C33.2255 17.1365 33.5564 18.1566 34.2654 18.9216C34.9744 19.7376 35.9198 20.0946 37.1015 20.0946C37.8106 20.0946 38.4251 19.9416 38.945 19.6356C39.465 19.3296 39.9377 18.9216 40.2686 18.4116C40.4104 18.2076 40.5522 18.2076 40.694 18.3096L41.3085 18.7176C41.4503 18.8196 41.4976 18.9726 41.4503 19.0746C41.0249 19.7886 40.4104 20.3497 39.6541 20.7577C38.8978 21.1657 38.0469 21.3187 37.1015 21.3187C35.4944 21.3187 34.2654 20.8087 33.32 19.8396C32.3746 18.8706 31.9492 17.5445 31.9492 15.9125V11.5773C31.9492 10.7103 32.091 9.94523 32.3274 9.23121C32.611 8.56818 32.9419 7.95616 33.4146 7.49714C33.8873 7.03812 34.4072 6.6301 35.0217 6.37509C35.6362 6.12008 36.298 6.01807 37.0543 6.01807C37.8106 6.01807 38.4724 6.12008 39.1341 6.37509C39.7486 6.6301 40.3159 6.98711 40.7885 7.44613C41.2612 7.90515 41.5921 8.51718 41.8757 9.23121C42.1593 9.94523 42.2539 10.7613 42.2539 11.7303V13.2604H42.1593ZM40.7885 11.4753C40.7885 10.2512 40.4577 9.28221 39.7486 8.51718C39.0396 7.75215 38.1415 7.34412 36.9597 7.34412C36.3925 7.34412 35.9198 7.44613 35.4471 7.65014C34.9744 7.85415 34.5963 8.16017 34.2654 8.51718C33.9345 8.87419 33.6509 9.3332 33.4618 9.84322C33.2728 10.3532 33.1782 10.8633 33.1782 11.4243V12.2403C33.1782 12.4953 33.32 12.5973 33.5564 12.5973H40.5049C40.694 12.5973 40.7885 12.4953 40.7885 12.2403V11.4753Z" fill="#699D43"/>
<path d="M54.213 8.31322C54.3076 8.51723 54.3076 8.61924 54.1658 8.72125L53.5985 9.23127C53.4567 9.33327 53.3149 9.28227 53.1731 9.12926C52.7949 8.56823 52.3695 8.16021 51.755 7.8542C51.1878 7.54818 50.5733 7.39518 49.9115 7.39518C48.7771 7.39518 47.8317 7.80319 47.1226 8.56823C46.4136 9.33327 46.0354 10.3533 46.0354 11.5774V15.9636C46.0354 17.2386 46.4136 18.2587 47.1226 19.0237C47.8317 19.7378 48.7771 20.1458 49.9588 20.1458C50.7151 20.1458 51.3769 19.9928 51.8968 19.6868C52.4168 19.3808 52.8895 18.9727 53.2204 18.4117C53.3149 18.2587 53.4095 18.2077 53.5513 18.3607L54.1185 18.7177C54.213 18.8197 54.2603 18.8707 54.3076 18.9727C54.3076 19.0237 54.3076 19.1257 54.2603 19.1767C53.7876 19.9418 53.1731 20.5028 52.4168 20.8598C51.6605 21.2168 50.8096 21.4209 49.9115 21.4209C48.2571 21.4209 46.9808 20.9108 46.0827 19.9418C45.1373 18.9727 44.7119 17.6467 44.7119 16.0146V11.6284C44.7119 10.8123 44.8537 10.0473 45.1373 9.38427C45.4209 8.72124 45.7991 8.16022 46.2718 7.65019C46.7445 7.19117 47.3117 6.83415 47.9262 6.52813C48.5407 6.27312 49.2498 6.12012 50.0061 6.12012C51.8023 6.12012 53.2204 6.83415 54.213 8.31322Z" fill="#699D43"/>
<path d="M61.1135 21.3697C60.4518 21.3697 59.9318 21.2677 59.5064 21.0637C59.081 20.8597 58.7501 20.5536 58.5138 20.1966C58.2775 19.8396 58.0884 19.3806 57.9938 18.9216C57.8993 18.4115 57.852 17.9015 57.852 17.2895V7.85405C57.852 7.65004 57.7575 7.54803 57.6157 7.54803H55.8668C55.725 7.54803 55.6777 7.44602 55.6777 7.29302V6.52798C55.6777 6.37497 55.725 6.27297 55.8668 6.27297H57.663C57.8048 6.27297 57.8993 6.17096 57.8993 6.01796V2.49879C57.8993 2.34579 57.9938 2.24378 58.1356 2.24378L58.9865 1.98877C59.1755 1.98877 59.2228 2.03977 59.2228 2.24378V6.01796C59.2228 6.22197 59.2701 6.27297 59.4119 6.27297H62.957C63.0988 6.27297 63.1933 6.37497 63.1933 6.52798V7.29302C63.1933 7.44602 63.0988 7.54803 62.957 7.54803H59.4592C59.3173 7.54803 59.2228 7.65004 59.2228 7.85405V17.0345C59.2228 18.1055 59.3646 18.8706 59.6955 19.3806C60.0264 19.8906 60.5463 20.0946 61.3499 20.0946C61.6335 20.0946 62.0116 20.0436 62.3897 19.9926C62.8151 19.9416 63.0988 19.8396 63.3351 19.7886C63.4769 19.7376 63.5242 19.7376 63.5714 19.7886C63.6187 19.8396 63.666 19.8906 63.666 19.9926L63.8078 20.7067C63.8078 20.8597 63.7605 20.9617 63.666 21.0127C63.3351 21.1657 62.957 21.2677 62.437 21.3187C61.8698 21.3187 61.4444 21.3697 61.1135 21.3697Z" fill="#699D43"/>
<path d="M67.542 1.93752C67.542 2.24354 67.4474 2.49855 67.2584 2.70256C67.0693 2.90657 66.833 3.00857 66.5967 3.00857C66.3603 3.00857 66.124 2.90657 65.935 2.70256C65.7459 2.49855 65.6514 2.24354 65.6514 1.93752C65.6514 1.63151 65.7459 1.42751 65.935 1.2235C66.124 1.01949 66.3603 0.91748 66.5967 0.91748C66.8803 0.91748 67.1166 1.01949 67.2584 1.2235C67.4474 1.3765 67.542 1.63151 67.542 1.93752ZM65.8877 6.52772C65.8877 6.37472 65.9822 6.27271 66.124 6.27271H67.0221C67.1639 6.27271 67.2584 6.37472 67.2584 6.52772V21.0124C67.2584 21.1654 67.1639 21.2164 67.0221 21.2164H66.124C65.9822 21.2164 65.8877 21.1654 65.8877 21.0124V6.52772Z" fill="#699D43"/>
<path d="M80.3047 8.31322C80.3992 8.51723 80.3992 8.61924 80.2574 8.72125L79.6902 9.23127C79.5484 9.33327 79.4066 9.28227 79.2648 9.12926C78.8866 8.56823 78.4612 8.16021 77.8467 7.8542C77.2795 7.54818 76.665 7.39518 76.0032 7.39518C74.8688 7.39518 73.9234 7.80319 73.2144 8.56823C72.5054 9.33327 72.1272 10.3533 72.1272 11.5774V15.9636C72.1272 17.2386 72.5054 18.2587 73.2144 19.0237C73.9234 19.7378 74.8688 20.1458 76.0505 20.1458C76.8068 20.1458 77.4686 19.9928 77.9885 19.6868C78.5085 19.3808 78.9812 18.9727 79.312 18.4117C79.4066 18.2587 79.5011 18.2077 79.6429 18.3607L80.2101 18.7177C80.3047 18.8197 80.3519 18.8707 80.3992 18.9727C80.3992 19.0237 80.3992 19.1257 80.3519 19.1767C79.8793 19.9418 79.2648 20.5028 78.5085 20.8598C77.7522 21.2168 76.9013 21.4209 76.0032 21.4209C74.3488 21.4209 73.0726 20.9108 72.1745 19.9418C71.2291 18.9727 70.8037 17.6467 70.8037 16.0146V11.6284C70.8037 10.8123 70.9455 10.0473 71.2291 9.38427C71.5127 8.72124 71.8909 8.16022 72.3636 7.65019C72.8362 7.19117 73.4035 6.83415 74.018 6.52813C74.6325 6.27312 75.3415 6.12012 76.0978 6.12012C77.894 6.12012 79.312 6.83415 80.3047 8.31322Z" fill="#699D43"/>
<path d="M82.0537 16.4734C82.0537 15.7594 82.1483 15.0964 82.3846 14.4843C82.5737 13.8723 82.9046 13.3113 83.33 12.8523C83.7554 12.3932 84.2281 12.0362 84.8426 11.7302C85.457 11.4752 86.1188 11.3222 86.9224 11.3222C87.5841 11.3222 88.1986 11.4242 88.8131 11.6792C89.4276 11.9342 89.9003 12.2912 90.2784 12.7503C90.373 12.8523 90.4202 12.8523 90.4675 12.8523C90.5148 12.8013 90.562 12.7502 90.562 12.6482V11.0672C90.562 10.6081 90.5148 10.1491 90.4202 9.69009C90.3257 9.23106 90.1366 8.87405 89.9003 8.51703C89.6639 8.16001 89.2858 7.90499 88.8131 7.70098C88.3404 7.49697 87.7732 7.39496 87.0642 7.39496C86.8278 7.39496 86.5442 7.39496 86.2606 7.44597C85.977 7.49697 85.6461 7.54797 85.3625 7.59897C85.0316 7.64997 84.748 7.75198 84.4644 7.85398C84.1808 7.95599 83.9445 8.05799 83.7081 8.109C83.5663 8.211 83.4718 8.21101 83.3772 8.007L83.0936 7.29295C83.0936 7.13994 83.1409 7.03795 83.2354 6.98695C83.7554 6.73193 84.3699 6.47691 85.1262 6.37491C85.8352 6.2219 86.5442 6.1709 87.1587 6.1709C88.8604 6.1709 90.0421 6.62993 90.7984 7.49697C91.5074 8.36402 91.8856 9.63909 91.8856 11.2712V21.0637C91.8856 21.2167 91.791 21.3187 91.6492 21.3187H90.8457C90.7039 21.3187 90.6566 21.2677 90.6566 21.1147V19.7886C90.6566 19.6356 90.6093 19.5336 90.562 19.5336C90.5148 19.5336 90.4202 19.5846 90.373 19.6866C89.5694 20.9107 88.3404 21.5227 86.686 21.5227C85.2207 21.5227 84.0863 21.0637 83.2827 20.1456C82.4791 19.1256 82.0537 17.9015 82.0537 16.4734ZM83.2827 16.3714C83.2827 17.4425 83.5663 18.3605 84.0863 19.0746C84.6535 19.7886 85.5516 20.1967 86.7806 20.1967C87.8677 20.1967 88.7186 19.8396 89.3803 19.0746C90.0421 18.3095 90.373 17.3915 90.373 16.3204C90.373 15.2494 90.0421 14.3823 89.4276 13.6173C88.8131 12.8523 87.915 12.4952 86.8278 12.4952C86.2606 12.4952 85.7407 12.5972 85.268 12.8013C84.7953 13.0053 84.4171 13.3113 84.1335 13.6173C83.8026 13.9743 83.6136 14.3823 83.4245 14.8924C83.3772 15.3514 83.2827 15.8614 83.2827 16.3714Z" fill="#699D43"/>
<path d="M112.873 23.9711C112.873 24.7872 112.684 25.5012 112.259 26.2152C111.833 26.9293 111.313 27.4903 110.604 27.8983C110.51 27.9493 110.462 28.0003 110.368 28.0003C110.273 28.0003 110.226 28.0003 110.131 27.8473L109.706 27.2353C109.611 27.0823 109.659 26.9293 109.848 26.7763C110.273 26.5213 110.651 26.1132 110.982 25.6542C111.36 25.1952 111.502 24.6342 111.502 24.0221C111.502 23.4611 111.36 23.0021 111.077 22.5941C110.793 22.237 110.462 21.931 109.99 21.727C109.564 21.523 109.044 21.319 108.524 21.268C108.004 21.166 107.437 21.115 106.917 21.115C106.255 21.115 105.499 21.166 104.648 21.268C103.797 21.37 102.994 21.472 102.19 21.574C102.001 21.625 101.859 21.625 101.718 21.574C101.623 21.523 101.481 21.37 101.387 21.064C101.245 20.707 101.15 20.1969 101.15 19.5339C101.15 19.0749 101.339 18.5139 101.718 17.7998C102.096 17.1368 102.616 16.5248 103.277 15.9637C103.325 15.9637 103.372 15.9128 103.372 15.8107C103.372 15.8107 103.325 15.7087 103.23 15.6577H103.183C102.474 15.1987 101.954 14.5867 101.529 13.8217C101.103 13.0566 100.914 12.1896 100.914 11.2205C100.914 10.5575 101.056 9.89447 101.292 9.23144C101.529 8.61941 101.907 8.05837 102.332 7.54835C102.758 7.08933 103.325 6.68131 103.939 6.3753C104.554 6.06928 105.216 5.96729 105.972 5.96729C106.444 5.96729 107.012 6.06929 107.626 6.2223C108.241 6.3753 108.761 6.73232 109.281 7.14033C109.375 7.24234 109.422 7.29334 109.517 7.29334C109.564 7.29334 109.659 7.24234 109.753 7.14033C110.131 6.83432 110.51 6.57931 110.982 6.3753C111.455 6.17129 111.928 6.06928 112.4 6.01828H112.495C112.637 6.01828 112.731 6.12029 112.731 6.3753V7.39535C112.731 7.59936 112.684 7.65036 112.542 7.65036H112.448C112.117 7.65036 111.786 7.70136 111.408 7.80336C111.03 7.90536 110.746 8.00737 110.557 8.05837C110.462 8.10937 110.415 8.16039 110.415 8.21139C110.415 8.26239 110.462 8.36439 110.557 8.5684C110.746 8.92541 110.935 9.33345 111.03 9.79247C111.124 10.2515 111.171 10.7105 111.171 11.1185C111.171 11.9346 111.03 12.6996 110.746 13.3626C110.462 14.0257 110.084 14.5867 109.611 15.0457C109.139 15.5047 108.572 15.8618 107.957 16.1168C107.343 16.3718 106.681 16.4738 106.019 16.4738C105.83 16.4738 105.641 16.4738 105.499 16.4738C105.31 16.4738 105.168 16.4738 104.979 16.4228C104.79 16.4228 104.696 16.4228 104.601 16.4738C104.506 16.5248 104.459 16.5758 104.317 16.6268C104.128 16.7798 103.892 16.9838 103.656 17.2388C103.419 17.4938 103.23 17.6978 103.088 18.0038C102.899 18.2589 102.758 18.5649 102.663 18.8199C102.568 19.0749 102.474 19.3809 102.474 19.6359C102.474 19.9929 102.521 20.197 102.568 20.248C102.663 20.299 102.805 20.35 103.041 20.299C103.325 20.248 103.608 20.146 103.939 20.0949C104.27 20.0439 104.601 19.9929 104.979 19.9419C105.31 19.8909 105.688 19.8399 105.972 19.8399C106.303 19.8399 106.586 19.7889 106.823 19.7889C107.579 19.7889 108.335 19.8399 109.044 19.993C109.753 20.146 110.368 20.35 110.935 20.707C111.502 21.013 111.928 21.472 112.259 21.982C112.684 22.5941 112.873 23.2061 112.873 23.9711ZM109.848 11.2715C109.848 10.7615 109.753 10.2515 109.611 9.74146C109.422 9.28244 109.186 8.82342 108.855 8.4664C108.524 8.10938 108.146 7.85437 107.673 7.65036C107.201 7.44635 106.681 7.34434 106.114 7.34434C105.546 7.34434 105.026 7.44635 104.554 7.65036C104.081 7.85437 103.703 8.16039 103.372 8.51741C103.041 8.87442 102.805 9.28244 102.616 9.79247C102.427 10.2515 102.332 10.7615 102.332 11.3225C102.332 11.8836 102.427 12.3426 102.568 12.8526C102.758 13.3116 102.994 13.7707 103.277 14.1277C103.561 14.4847 103.987 14.7907 104.412 15.0457C104.885 15.2497 105.405 15.4027 105.972 15.4027C106.586 15.4027 107.106 15.3007 107.579 15.0457C108.052 14.8417 108.477 14.5357 108.808 14.1277C109.139 13.7707 109.375 13.3116 109.564 12.8016C109.753 12.3426 109.848 11.7816 109.848 11.2715Z" fill="#699D43"/>
<path d="M115.709 6.27308C115.851 6.27308 115.898 6.37508 115.898 6.52809V8.16016C115.898 8.46617 115.992 8.46617 116.134 8.21116C116.512 7.59914 117.032 7.08912 117.647 6.6811C118.261 6.22208 118.923 6.01807 119.68 6.01807C119.821 6.01807 119.963 6.01807 120.152 6.01807C120.341 6.01807 120.483 6.06907 120.578 6.12008C120.767 6.17108 120.814 6.32409 120.814 6.4771L120.578 7.49714C120.578 7.70114 120.436 7.75214 120.247 7.70114C120.152 7.70114 120.01 7.65014 119.869 7.65014C119.727 7.65014 119.585 7.65014 119.443 7.65014C118.309 7.65014 117.458 8.05815 116.891 8.87418C116.276 9.69021 115.992 10.7613 115.992 11.9853V20.9617C115.992 21.1147 115.945 21.2167 115.803 21.2167H114.905C114.716 21.2167 114.669 21.1657 114.669 21.0127V6.52809C114.669 6.37508 114.763 6.27308 114.905 6.27308H115.709Z" fill="#699D43"/>
<path d="M132.821 15.8616C132.821 17.6467 132.348 18.9727 131.45 19.9418C130.552 20.9108 129.276 21.3699 127.668 21.3699C125.967 21.3699 124.69 20.8598 123.792 19.8908C122.894 18.9217 122.469 17.5957 122.469 15.9126V11.5264C122.469 9.8943 122.941 8.61923 123.84 7.59919C124.785 6.57914 126.014 6.12012 127.668 6.12012C129.276 6.12012 130.505 6.63014 131.45 7.59919C132.348 8.56823 132.821 9.89431 132.821 11.5774V15.8616ZM131.497 11.6284C131.497 10.4043 131.166 9.38427 130.552 8.56823C129.937 7.75219 128.992 7.39518 127.716 7.39518C126.581 7.39518 125.636 7.80319 124.927 8.56823C124.218 9.33327 123.84 10.3533 123.84 11.5774V15.8616C123.84 17.1367 124.17 18.2077 124.832 18.9727C125.494 19.7378 126.439 20.1458 127.716 20.1458C128.992 20.1458 129.937 19.7378 130.552 18.9727C131.166 18.2077 131.497 17.1366 131.497 15.8106V11.6284Z" fill="#699D43"/>
<path d="M146.008 21.1657H145.158C145.016 21.1657 144.969 21.1147 144.969 20.9617V19.6867C144.969 19.3297 144.874 19.2786 144.638 19.5337C144.212 20.1457 143.598 20.5537 142.936 20.8597C142.227 21.1657 141.518 21.3187 140.762 21.3187C139.816 21.3187 139.06 21.1657 138.446 20.8597C137.831 20.5537 137.358 20.1457 136.98 19.5847C136.602 19.0746 136.366 18.4626 136.177 17.7996C136.035 17.1366 135.94 16.4225 135.94 15.7085V6.47718C135.94 6.32417 135.988 6.22217 136.13 6.22217H137.075C137.217 6.22217 137.264 6.32417 137.264 6.47718V15.8105C137.264 16.3715 137.311 16.9326 137.453 17.4426C137.595 17.9526 137.784 18.4116 138.115 18.8196C138.398 19.2277 138.824 19.5337 139.296 19.7377C139.769 19.9417 140.384 20.0947 141.093 20.0947C141.66 20.0947 142.18 19.9927 142.652 19.7887C143.125 19.5847 143.503 19.2787 143.834 18.8706C144.165 18.4626 144.449 18.0546 144.59 17.4936C144.779 16.9836 144.874 16.4225 144.874 15.8105V6.47718C144.874 6.32417 144.969 6.22217 145.11 6.22217H145.961C146.103 6.22217 146.197 6.32417 146.197 6.47718V20.9107C146.245 21.1147 146.15 21.1657 146.008 21.1657Z" fill="#699D43"/>
<path d="M159.952 15.7594C159.952 16.4225 159.858 17.1365 159.669 17.7996C159.48 18.4626 159.196 19.0746 158.818 19.6357C158.44 20.1457 157.92 20.6047 157.305 20.9107C156.691 21.2168 155.935 21.4208 155.036 21.4208C154.186 21.4208 153.477 21.2678 152.862 20.9617C152.248 20.6557 151.728 20.2477 151.302 19.6867C151.113 19.4827 150.971 19.4827 150.971 19.8397V27.2351C150.971 27.3881 150.877 27.4391 150.735 27.4391H149.837C149.695 27.4391 149.601 27.3881 149.601 27.2351V6.57892C149.601 6.42591 149.695 6.3239 149.837 6.3239H150.64C150.782 6.3239 150.877 6.42591 150.877 6.57892V7.85399C150.877 8.109 150.971 8.10901 151.208 7.90499C151.586 7.39497 152.106 6.98694 152.768 6.62992C153.429 6.3239 154.138 6.1709 154.942 6.1709C156.549 6.1709 157.778 6.68092 158.676 7.64998C159.574 8.67004 160 9.94512 160 11.5262V15.7594H159.952ZM158.629 11.5772C158.629 10.3021 158.298 9.33308 157.683 8.51704C157.069 7.75199 156.076 7.34396 154.753 7.34396C153.618 7.34396 152.673 7.75199 151.964 8.51704C151.255 9.28208 150.877 10.2511 150.877 11.4752V15.8615C150.877 16.4735 150.971 16.9835 151.16 17.4935C151.35 18.0036 151.633 18.4626 151.964 18.8706C152.295 19.2786 152.72 19.5847 153.193 19.7887C153.666 19.9927 154.186 20.1457 154.753 20.1457C155.415 20.1457 156.029 20.0437 156.502 19.7887C156.974 19.5847 157.4 19.2786 157.683 18.8706C157.967 18.4626 158.203 18.0036 158.345 17.4935C158.487 16.9835 158.582 16.3715 158.582 15.8104V11.5772H158.629Z" fill="#699D43"/>
<path d="M108.15 23.52H0V25.76H108.15V23.52Z" fill="url(#paint0_linear)"/>
<path d="M146.627 23.52H114.39V25.76H146.627V23.52Z" fill="url(#paint1_linear)"/>
<defs>
<linearGradient id="paint0_linear" x1="0.00641894" y1="24.6492" x2="108.161" y2="24.6492" gradientUnits="userSpaceOnUse">
<stop stop-color="#9AC477"/>
<stop offset="1" stop-color="#417D19"/>
</linearGradient>
<linearGradient id="paint1_linear" x1="114.39" y1="24.6492" x2="146.629" y2="24.6492" gradientUnits="userSpaceOnUse">
<stop stop-color="#99C376"/>
<stop offset="1" stop-color="#46811E"/>
</linearGradient>
</defs>
</svg>
