<svg width="200" height="94" viewBox="0 0 200 94" fill="none" xmlns="http://www.w3.org/2000/svg">
<path d="M42.9025 12.8885C43.6011 13.7187 44.3202 14.549 45.0188 15.3792C45.2037 15.5966 45.3475 15.5966 45.4503 15.3199C45.5324 15.142 45.5941 14.9443 45.6763 14.7664C45.779 14.1931 46.0667 13.6989 46.3338 13.185C46.457 12.928 46.642 13.0664 46.7652 13.2047C47.094 13.5606 47.2789 13.9757 47.32 14.4501C47.3611 14.9838 47.3611 15.4978 47.1556 16.0118C46.7858 17.8106 46.2105 19.57 46.1077 21.4083C46.005 23.2665 46.7036 24.8677 47.9775 26.2514C48.1624 26.4491 48.2241 26.3898 48.3268 26.1921C49.1692 24.5119 49.724 22.7328 50.1554 20.9142C50.628 18.8583 50.5047 16.7629 50.5253 14.6873C50.4636 14.1338 50.5869 13.6001 50.8746 13.1059C51.0389 12.8489 51.1211 12.8094 51.3266 13.0268C51.7581 13.5013 52.0252 14.035 51.8608 14.7071C51.7375 15.2408 51.717 15.7548 51.9841 16.249C52.0457 16.3676 52.1074 16.506 52.2923 16.506C52.6827 16.328 53.032 16.0711 53.4224 15.8734C53.5662 15.7943 53.7306 15.6362 53.8744 15.7943C53.9977 15.9327 54.0799 16.1304 53.9155 16.328C53.8539 16.6246 53.6689 16.8618 53.4635 17.0595C52.5594 17.9885 52.0252 19.1153 51.6143 20.3014C51.039 21.9421 50.4842 23.5828 49.9089 25.2235C49.539 26.2712 49.6007 27.3189 49.95 28.3666C50.4226 29.7899 50.9157 31.2329 51.4088 32.6562C51.5526 33.0713 51.6348 33.4864 51.717 33.9213C51.7581 34.0597 51.7786 34.2178 51.943 34.2574C52.1279 34.2969 52.2101 34.1388 52.2923 34.0202C52.4772 33.8027 52.5594 33.5655 52.6005 33.2887C52.7238 31.8852 53.3607 30.7387 54.3881 29.7701C55.4976 28.7224 56.6687 27.7143 57.7988 26.6863C58.5179 26.034 59.1549 25.3421 59.7097 24.5514C60.1617 23.9188 60.4288 23.227 60.4699 22.456C60.4904 22.2979 60.4699 22.1398 60.4288 21.9618C60.285 21.4084 60.4288 20.7956 60.1617 20.2421C59.9973 19.9258 59.9357 19.5502 59.7302 19.2537C59.4015 18.6606 59.196 18.0281 59.0316 17.3757C58.9905 17.1978 59.0111 17.0001 59.1754 16.9013C59.3809 16.7827 59.5453 16.9408 59.6275 17.0792C59.9973 17.6129 60.3055 18.1862 60.4493 18.8188C60.511 19.0955 60.6343 19.3525 60.7986 19.5897C61.1068 20.0444 61.4767 20.1432 61.9698 19.8862C62.1753 19.7676 62.3807 19.6293 62.5656 19.4711C63.367 18.7595 64.0861 17.9885 64.6409 17.0792C65.4627 15.735 66.4901 14.5885 67.8667 13.7582C68.5653 13.3431 69.0789 12.7106 69.531 12.0582C69.7159 11.5443 70.1474 11.1687 70.435 10.714C70.4967 10.6152 70.5789 10.4966 70.7432 10.5163C70.9281 10.5756 70.9898 10.7338 71.0514 10.8919C71.298 11.5838 70.846 12.8885 70.2296 13.2838C70.1679 13.3234 70.1063 13.3431 70.0241 13.3431C69.2433 13.8571 68.4625 14.371 67.6818 14.9048C66.5517 15.6955 65.8531 16.7036 65.9353 18.1071C65.9558 18.3048 65.9969 18.5025 66.0586 18.6804C66.2846 19.313 66.6339 19.5106 67.3119 19.392C67.9078 19.2734 68.4831 19.1944 69.12 19.2141C68.9762 19.5304 68.7297 19.7281 68.4831 19.9258C67.8256 20.42 67.0448 20.5781 66.2641 20.756C65.5655 20.9142 64.8669 21.0723 64.2299 21.3886C62.7506 22.1002 61.9903 23.2863 61.7232 24.7886C61.6 25.52 62.0109 25.9549 62.7917 25.9747C63.4902 25.9945 64.2094 25.9549 64.908 25.8956C65.36 25.7375 65.8326 25.7572 66.2846 25.8956C66.5106 26.1131 66.3257 26.2514 66.1408 26.3503C65.8531 26.5084 65.5038 26.5677 65.1956 26.7061C63.1204 27.477 60.9835 28.0305 58.8878 28.7224C58.1481 28.9596 57.5112 29.355 56.9359 29.8689C55.9702 30.6992 55.4359 31.7469 55.0866 32.9329C54.6346 34.4946 54.2237 36.076 53.7922 37.6574C53.484 38.8039 53.1347 39.9307 52.3745 40.8993C51.9225 41.4726 51.3677 41.947 50.8951 42.5203C50.8335 42.5993 50.7513 42.6586 50.7308 42.7773C50.9157 42.7377 51.039 42.6191 51.1417 42.5005C52.2101 41.2551 53.5456 40.3656 55.0045 39.5946C57.655 38.2307 60.3466 36.9853 62.956 35.5423C65.7915 33.9608 67.9283 31.6876 69.5515 28.9596C70.1885 27.8922 70.6405 26.7654 71.1953 25.6584C71.3391 25.4212 71.4213 25.1444 71.5651 24.9072C71.6678 24.7293 71.7911 24.7096 71.9349 24.8479C72.0993 25.0061 72.2637 25.1444 72.4075 25.3224C72.6335 25.6386 72.9212 25.9352 72.7157 26.3898C72.5513 26.9235 72.202 27.3782 71.9144 27.8526C71.3802 28.7224 70.8665 29.5922 70.3117 30.4422C69.9625 30.9759 69.9419 31.5097 70.0446 32.1027C70.0857 32.2806 70.1885 32.2411 70.3117 32.2411C71.0309 32.1422 71.6884 31.905 72.3253 31.569C72.9212 31.1538 73.6403 30.9562 74.2773 30.6399C74.4622 30.541 74.6471 30.462 74.8526 30.4027C74.9553 30.3631 75.0786 30.3236 75.1608 30.4224C75.243 30.541 75.1608 30.6399 75.0786 30.7387C74.7087 31.1538 74.2773 31.5294 73.8047 31.8457C73.4965 32.0434 73.2294 32.2806 72.839 32.3399C71.8733 32.8143 70.7638 32.9132 69.7364 33.1899C68.1954 33.5853 66.9421 34.4155 65.9353 35.6016C65.7915 35.7795 65.7504 35.8783 65.9353 36.0562C66.9832 37.0051 68.1954 37.3609 69.5515 36.8667C72.0377 35.9574 74.1745 36.59 76.1675 38.1121C76.2497 38.1714 76.3319 38.2504 76.4141 38.3097C77.2565 38.9225 77.6058 39.8121 77.8113 40.7609C77.8524 40.9982 77.914 41.2156 77.7907 41.4528C77.6675 41.7098 77.5236 41.7296 77.3387 41.4923C77.236 41.354 77.1743 41.1958 77.1332 41.0377C76.9278 40.2865 76.5579 39.654 75.9621 39.1202C75.8183 38.9818 75.7155 38.8237 75.5922 38.6853C73.9485 37.4202 72.0993 36.9458 70.0241 37.3214C68.9146 37.519 68.5447 38.4877 69.3255 39.2981C70.0652 40.0691 70.9281 40.7016 71.7911 41.3342C71.9555 41.3935 72.1199 41.4726 72.2637 41.5912C72.8184 42.0261 73.4143 42.4214 73.9896 42.8168C74.1745 42.9552 74.4211 43.0935 74.2978 43.3505C74.1745 43.6075 73.8869 43.5087 73.6403 43.4691C73.3116 43.39 73.0034 43.2319 72.7363 43.0342C72.2842 42.6982 71.7295 42.5005 71.3802 42.0458C70.7843 41.6307 70.1885 41.1958 69.5926 40.7807C68.5858 40.0691 67.4968 39.5551 66.223 39.4563C65.4216 39.3772 64.6409 39.5353 63.8806 39.6935C62.6478 39.9307 61.3945 40.0493 60.1617 40.2272C58.2097 40.504 56.4838 41.3144 54.8812 42.4214C53.2785 43.5284 51.8197 44.8331 50.2993 46.0389C48.5528 47.4424 46.8269 48.8459 45.101 50.2494C43.8476 51.2774 42.8408 52.4634 42.4093 54.0448C42.2655 54.5983 42.2039 55.1518 42.2244 55.7251C42.245 56.1995 42.2244 56.6937 42.245 57.1681C42.2655 57.4449 42.1217 57.4844 41.8957 57.4251C41.3204 57.3263 40.9916 56.9705 40.9505 56.3774C40.8067 54.0844 41.2998 51.9297 42.3888 49.9134C42.5943 49.5576 42.7792 49.182 42.7792 48.7076C42.1422 49.2215 41.6697 49.7948 41.4436 50.5262C40.8683 52.4239 40.3136 54.3414 39.9848 56.3181C39.9848 56.3379 39.9643 56.3577 39.9643 56.3774C39.2246 56.1995 38.6288 55.6065 38.5671 54.7762C38.4849 53.7088 38.3206 52.6611 38.3206 51.5937C38.3 48.8064 39.5944 46.7703 42.1422 45.4854C43.0668 45.011 44.0531 44.6552 45.0393 44.3587C46.9296 43.7854 48.4295 42.7377 49.1692 40.8795C49.5596 39.8714 49.9294 38.8632 50.2582 37.8353C50.7718 36.2144 50.6691 34.6329 50.0527 33.0515C49.7445 32.2608 49.3541 31.5294 48.9432 30.798C48.2035 29.5131 47.1351 28.6829 45.5941 28.4457C44.5873 28.3073 43.6421 27.9515 42.7175 27.5759C42.2039 27.3782 41.8135 27.0421 41.5053 26.6073C40.93 25.9154 40.9094 25.1444 41.156 24.334C41.3615 24.077 41.4026 24.077 41.608 24.3142C41.7929 24.5316 41.9368 24.7689 42.06 25.0258C42.2861 25.5596 42.5326 26.0735 43.0257 26.4293C43.0874 26.4689 43.0874 26.548 43.149 26.6073C44.3407 27.2596 45.6146 27.1805 46.9502 26.9631C46.6214 26.2514 46.3338 25.5596 45.9845 24.9072C45.1831 23.4247 44.7722 21.8432 44.69 20.163C44.6489 19.3327 44.5667 18.4827 44.2585 17.6723C43.8476 16.6443 43.2312 15.6955 42.7586 14.6873C42.5121 14.1734 42.3272 13.6199 42.1422 13.0664C42.1422 13.0466 42.1217 13.0268 42.1217 13.0071C42.0601 12.7501 42.1628 12.4338 42.3477 12.3943C42.5943 12.3547 42.697 12.5722 42.8203 12.7303C42.8819 12.7699 42.9025 12.8292 42.9025 12.8885Z" fill="#201C17"/>
<path d="M25.8683 35.2061C25.9711 35.2852 26.0532 35.384 26.156 35.4631C26.6491 35.8387 27.1628 36.1747 27.6148 36.5701C27.9846 36.9062 28.1696 36.8864 28.5599 36.5503C29.238 35.9573 29.4024 35.305 29.0325 34.4945C28.3956 33.091 27.471 31.8852 26.3614 30.7782C25.6834 30.0863 24.9026 29.4933 24.2862 28.7421C23.074 27.2793 22.3754 25.6188 21.985 23.8002C21.6357 22.1595 21.2042 20.5385 20.67 18.9571C20.5878 18.7396 20.5056 18.5222 20.3413 18.3443C20.3207 18.3443 20.2796 18.3245 20.2796 18.3245C19.4989 17.4943 18.3688 17.2373 17.4031 16.7233C17.2387 16.6245 16.9305 16.6047 16.9511 16.3675C16.9716 16.1303 17.2798 16.1896 17.4647 16.1303C17.4853 16.1303 17.5058 16.1105 17.5264 16.1105C17.814 16.071 18.1017 16.0315 18.3893 15.9524C18.7592 15.8338 18.8619 15.6361 18.7592 15.2803C18.677 14.964 18.5126 14.6675 18.4304 14.3512C18.3893 14.1733 18.3688 13.9954 18.5332 13.8768C18.6975 13.7582 18.8824 13.857 19.0057 13.9756C19.5194 14.4303 20.0125 14.8849 20.3002 15.5175C20.9782 16.6047 21.533 17.7513 21.8412 18.9768C22.2932 20.8152 22.7452 22.6536 23.2178 24.492C23.4027 25.1839 23.6082 25.856 23.8548 26.5281C24.1219 27.2397 24.5533 27.8328 25.1697 28.3072C26.7107 29.5328 28.2312 30.7782 29.7927 31.984C30.2653 32.3398 30.7584 32.6561 31.2927 32.8933C32.0734 33.2491 32.8131 33.1108 33.3268 32.4387C34.1897 31.2724 34.724 29.9677 34.9294 28.5444C35.1349 27.0816 34.8678 25.6386 34.8267 24.1955C34.8061 23.5037 34.7445 22.8118 34.7034 22.1199C34.539 21.7443 34.5596 21.3292 34.5596 20.9339C34.4979 19.8862 34.4774 18.8582 34.4158 17.8106C34.3952 17.6326 34.4569 17.4547 34.4979 17.2966C34.539 17.1582 34.6007 17.0396 34.765 17.0396C34.9089 17.0396 35.0116 17.1385 35.0527 17.2768C35.176 17.5536 35.1554 17.8501 35.1965 18.1466C35.2787 18.9175 35.3609 19.6885 35.4431 20.4397C35.4636 20.5978 35.402 20.8152 35.6896 20.835C36.1006 20.7757 36.3471 20.499 36.5732 20.2024C36.7786 19.9455 36.943 19.6885 37.1279 19.4117C37.2101 19.3129 37.2923 19.1943 37.395 19.1152C37.4567 19.0757 37.5183 19.0362 37.6005 19.0559C37.6621 19.0955 37.6621 19.1745 37.6621 19.2536C37.6416 19.4908 37.5183 19.7083 37.4567 19.9257C37.1074 21.1711 36.8197 22.4164 36.6553 23.7013C36.4088 25.3421 36.3677 27.0223 36.2239 28.6828C36.0389 30.6991 35.2171 32.4387 33.9021 34.0003C33.4706 34.5143 33.0186 34.9887 32.6487 35.562C31.9502 36.6294 31.7652 37.7957 31.9707 39.0411C32.0118 39.2783 32.094 39.4957 32.2173 39.6934C33.0597 41.1562 33.861 42.6388 34.9911 43.9435C36.491 45.7028 37.2307 47.7784 37.621 49.9924C37.806 51.0796 37.8881 52.1866 37.9087 53.2738C37.9087 53.3331 37.9087 53.3924 37.9087 53.4517C37.9292 53.6296 37.8881 53.8471 37.7443 53.8866C37.5799 53.9261 37.4361 53.7482 37.3334 53.5901C37.0046 53.0564 36.6964 52.5424 36.3882 52.0087C36.3471 51.9296 36.3061 51.7715 36.1622 51.8308C35.9979 51.8901 36.08 52.0284 36.1006 52.1273C36.1417 52.4238 36.2444 52.7203 36.3882 52.9971C37.4978 55.0924 38.9771 56.8518 41.1962 57.9192C41.8331 58.2355 42.5112 58.4727 43.1276 58.8285C43.97 59.303 44.3604 59.9158 44.2165 60.8844C43.9905 62.3077 43.6207 63.6914 43.0043 65.0751C42.8194 64.6798 42.6344 64.3437 42.4701 63.9879C42.0386 63.0984 41.6071 62.2088 41.1756 61.3193C41.1345 61.2402 41.114 61.0821 40.9907 61.1018C40.8469 61.1216 40.9291 61.2797 40.9085 61.3786C40.888 61.6356 40.9496 61.853 41.0523 62.0902C41.5249 63.0391 41.9564 64.0077 42.429 64.9565C42.7988 65.6879 42.9221 66.4193 42.6961 67.2298C42.4906 67.9217 42.3673 68.6333 42.2235 69.345C42.0591 69.345 42.0386 69.2263 41.9975 69.1275C41.2167 67.131 39.8812 65.51 38.4224 63.9484C36.9635 62.3867 35.5253 60.8251 34.2308 59.125C33.4295 58.0774 33.1008 56.8913 32.998 55.6262C32.9775 55.5076 32.998 55.389 33.1008 55.2703C33.3473 55.5076 33.5117 55.7843 33.6761 56.0611C33.9432 56.4762 34.2103 56.8913 34.4774 57.3262C34.5801 57.5041 34.7034 57.6227 34.9294 57.6622C35.1143 57.2471 34.9294 56.8913 34.6829 56.5948C33.2446 54.6773 32.9158 52.5424 33.1008 50.2494C33.2035 49.0633 33.2857 47.8772 33.0186 46.7109C32.6282 44.9318 31.457 43.726 29.8955 42.8167C28.1696 41.8283 26.4231 40.8795 24.6972 39.9108C23.6082 39.298 22.4987 38.705 21.4097 38.0922C21.1631 38.112 20.9988 37.9538 20.8138 37.855C20.3207 37.598 19.8892 37.262 19.4372 36.9259C19.3139 36.8469 19.1907 36.748 19.2523 36.5899C19.3139 36.412 19.4783 36.412 19.6427 36.3922C20.0536 36.3527 20.4235 36.491 20.8344 36.491C20.444 35.384 19.7865 34.4154 18.9852 33.5456C17.5469 31.984 15.6977 31.0351 13.6841 30.3037C13.417 30.2049 13.1499 30.1258 12.9034 30.027C12.8212 29.9875 12.6568 30.027 12.6979 29.8689C12.7184 29.7305 12.8623 29.7502 12.965 29.7502C13.2937 29.7502 13.5814 29.8293 13.9101 29.8689C14.0129 29.8886 14.1362 29.9084 14.2389 29.9084C14.7526 29.8096 15.2251 29.9677 15.7183 30.027C16.2525 30.0863 16.7867 30.1654 17.3004 30.2444C17.3825 30.2642 17.4647 30.2642 17.5469 30.2642C17.8962 30.2444 17.9989 30.1258 17.8962 29.7898C17.6907 29.1968 17.3825 28.6433 16.9922 28.1491C16.0676 26.9828 15.0402 25.856 14.0745 24.7293C13.9512 24.5909 13.828 24.4327 13.7458 24.2746C13.6841 24.1362 13.6225 23.9978 13.7663 23.8792C13.9101 23.7606 14.0745 23.8397 14.1978 23.9385C14.6909 24.3734 15.2251 24.7688 15.6977 25.2234C16.6223 26.1723 17.4647 27.2002 18.1633 28.3072C18.3071 28.5444 18.4304 28.7619 18.5332 29.0188C19.4783 30.6793 20.1769 32.4584 21.1426 34.0991C21.9645 35.5026 23.0945 36.6294 24.5328 37.4597C25.519 38.0131 26.4025 38.7446 27.3066 39.3969C27.6353 39.6341 28.0052 39.7725 28.375 39.9306C28.5599 40.0097 28.601 39.9306 28.6627 39.812C28.8065 39.476 28.8065 39.1597 28.5189 38.8632C27.471 37.7957 26.4231 36.748 25.3547 35.6806C25.1697 35.6015 25.0465 35.4236 24.8615 35.3247C24.6355 35.1666 24.6355 34.9887 24.7999 34.791C24.9643 34.5736 25.1492 34.5736 25.3547 34.7119C25.4574 34.8701 25.704 34.9887 25.8683 35.2061Z" fill="#201C17"/>
<path d="M28.8479 71.1044C29.0328 71.9545 29.3821 72.7452 29.752 73.5359C30.4711 75.0975 31.3752 76.5406 32.3614 77.9441C32.4025 78.0231 32.423 78.1615 32.5874 78.0824C32.7312 78.0034 32.6491 77.9045 32.608 77.8057C32.423 77.2324 32.0943 76.7185 31.7656 76.2243C31.293 75.5324 30.8615 74.8405 30.6766 74.0301C30.5738 73.5754 30.6355 73.1207 30.8409 72.7056C31.1697 72.0928 31.6834 71.6382 32.2381 71.0847C32.1354 72.9626 32.197 74.7417 33.1011 76.4417C33.2244 76.3033 33.1833 76.2045 33.1833 76.1057C33.06 74.9987 32.9367 73.8917 32.7929 72.7847C32.608 71.5393 33.0189 70.4126 33.5942 69.3056C33.6353 69.2265 33.7175 69.1277 33.8202 69.1672C33.9641 69.2265 34.0257 69.3649 34.0668 69.5033C34.149 69.8986 34.2312 70.3137 34.2928 70.7091C34.601 73.3382 35.8133 75.5126 37.8474 77.3313C40.2103 79.4464 42.5115 81.6209 44.8333 83.7755C44.9771 83.8942 45.1209 83.993 44.936 84.2302C44.7511 84.4476 44.6483 84.4477 44.4429 84.2895C43.6005 83.6372 42.7375 83.0046 41.8951 82.3523C41.8334 82.293 41.7513 82.1546 41.628 82.2732C41.5252 82.372 41.6485 82.4313 41.7102 82.5104C42.3677 83.3011 43.0868 84.0128 43.9908 84.5663C44.9976 85.1791 45.7373 86.0884 46.5592 86.9186C46.703 87.0768 46.703 87.2151 46.5386 87.3733C46.3537 87.5512 46.251 87.3733 46.1483 87.2942C45.5113 86.8395 44.8744 86.3849 44.2169 85.9105C44.2169 86.207 44.2169 86.464 44.2169 86.7802C43.0457 86.207 41.9362 85.6535 40.7445 85.0605C41.0116 85.5744 41.3403 85.9302 41.7513 86.207C42.2855 86.5628 42.8813 86.8198 43.5183 86.9186C45.8606 87.2744 47.2783 88.6384 48.1207 90.6745C48.244 90.971 48.3673 91.2873 48.4906 91.5838C48.5111 91.6233 48.5111 91.6629 48.47 91.7024C48.3673 91.7617 48.244 91.7815 48.1207 91.7815C47.0112 91.7815 45.9017 91.8012 44.7922 91.7815C44.2374 91.8012 43.6826 91.7815 43.1279 91.7815C42.943 91.7815 42.758 91.8012 42.6553 91.6036C42.2033 88.8163 41.1143 86.3058 39.2446 84.1116C37.9912 82.629 36.3475 82.036 34.3955 82.1941C33.3066 82.293 32.197 82.2732 31.1081 82.2139C30.5738 82.1941 30.2656 81.8185 30.1424 81.3441C29.9369 80.5732 29.8547 79.7825 29.7109 78.9918C29.6081 78.458 29.526 77.9045 29.4438 77.3708C29.3821 76.9359 29.341 76.5208 29.3821 76.0661C29.4232 75.5719 29.5465 75.0184 29.2589 74.5836C28.9096 74.0301 28.889 73.437 28.8068 72.844C28.663 72.7649 28.663 72.6068 28.6425 72.4684C28.5397 71.8556 28.4575 71.223 28.3753 70.6102C28.3753 70.5312 28.3548 70.4521 28.3753 70.373C28.4164 70.1556 28.2932 69.9184 28.5192 69.7405C28.7246 69.8393 28.7041 70.037 28.7246 70.1951C28.7246 70.4916 28.8068 70.8079 28.8479 71.1044Z" fill="#201C17"/>
<path d="M32.8547 91.5837C32.8958 90.7732 32.7314 90.0023 32.3821 89.2709C31.9096 88.2825 31.437 87.2744 30.9439 86.286C30.8206 86.0092 30.7179 85.7523 30.6973 85.4162C30.9644 85.5348 31.1699 85.7127 31.3753 85.8709C31.8068 86.1871 32.2383 86.4837 32.6492 86.7999C32.8136 86.9383 32.978 87.0174 33.1218 86.7802C33.2862 86.543 33.0191 86.5232 32.9369 86.4639C32.3616 86.029 31.7452 85.6534 31.1904 85.179C30.4713 84.5662 30.2042 83.7953 30.2453 82.8859C30.2453 82.6487 30.3275 82.6092 30.5329 82.7476C30.8617 82.965 31.1288 83.222 31.3959 83.4987C32.0123 84.1313 32.7314 84.665 33.5738 85.0011C33.656 85.0406 33.7177 85.0802 33.7999 85.0999C33.9231 85.1197 34.0875 85.1197 34.1492 85.0011C34.2108 84.8825 34.0464 84.8429 33.9642 84.7836C33.204 84.3092 32.4438 83.8546 31.663 83.3604C32.1767 82.9255 32.7725 82.7871 33.4095 82.7278C36.1833 82.5301 38.2585 83.6371 39.6762 85.9302C40.7652 87.6895 41.4638 89.5872 41.772 91.6035C41.7309 91.7221 41.6076 91.7616 41.5049 91.7616C40.8885 91.7616 40.2721 91.8407 39.6762 91.7023C39.1009 91.4849 38.464 91.4058 37.9503 91.0698C36.738 90.2791 35.9778 89.1523 35.4025 87.8872C35.2176 87.472 35.0738 87.0569 34.8683 86.6616C35.0532 87.0174 35.197 87.393 35.3409 87.7686C35.5874 88.3616 35.7929 88.9546 36.0395 89.5477C36.3477 90.2791 36.8408 90.8721 37.4983 91.3465C37.6215 91.4256 37.8681 91.4849 37.7037 91.7419C37.5599 91.8209 37.3955 91.8012 37.2312 91.8012C35.9367 91.8012 34.6423 91.8012 33.3478 91.8012C33.204 91.7616 32.9574 91.8209 32.8547 91.5837Z" fill="#201C17"/>
<path d="M18.9033 49.6959C20.6292 50.625 22.3552 51.5738 24.0811 52.5029C24.2865 52.6215 24.5331 52.6611 24.7797 52.7006C25.2522 52.7797 25.6837 52.6215 26.1152 52.4436C26.259 52.3843 26.2385 52.3052 26.1974 52.1866C25.5399 50.3482 24.5947 48.7075 22.951 47.5017C22.8688 47.4424 22.7661 47.3831 22.6839 47.304C21.9237 46.5528 21.0196 46.4144 19.9923 46.711C18.6773 47.0866 17.3418 47.2052 16.0062 46.8296C15.7186 46.7505 15.4515 46.6319 15.1638 46.4342C17.013 45.9796 18.9855 46.1575 20.6498 45.0702C20.2183 44.5761 19.7046 44.1807 19.006 44.1412C18.1636 44.1016 17.3007 44.1016 16.4583 44.1609C15.5747 44.2005 14.6912 44.2795 13.8077 44.0621C13.2119 43.9039 12.8215 43.5284 12.6366 42.9551C12.5955 42.8167 12.4927 42.6388 12.6366 42.5202C12.7804 42.4016 12.9242 42.54 13.0681 42.5993C13.8899 43.0737 14.8145 43.133 15.7391 43.1923C15.924 43.2121 16.109 43.1923 16.2733 43.2911C17.7527 43.2911 19.2115 43.4295 20.6909 43.5481C21.5127 43.6074 22.1086 44.0226 22.5195 44.6749C22.9099 45.2679 23.2798 45.9005 23.6701 46.5133C24.4304 47.7587 25.1906 48.9843 25.9303 50.2494C26.67 51.475 27.6768 52.3448 29.0945 52.8192C29.9163 53.0959 30.6766 53.4913 31.4163 53.9064C32.0943 54.282 32.423 54.8553 32.4436 55.6065C32.4436 56.1402 32.4436 56.6541 32.4436 57.1879C32.4436 57.2669 32.4847 57.3856 32.3614 57.4251C32.2587 57.4449 32.2176 57.346 32.1559 57.2867C31.6834 56.7728 31.2108 56.2786 30.7999 55.7251C30.2451 54.9541 29.4643 54.539 28.4781 54.539C27.3069 54.5192 26.1357 54.539 24.9646 54.4995C22.951 54.4006 21.4511 53.4715 20.4443 51.7913C20.0745 51.1587 19.5814 50.6645 18.8828 50.3878C18.7184 50.3285 18.554 50.2889 18.4102 50.2296C18.0814 50.3285 17.7732 50.2099 17.4856 50.111C17.0336 49.9726 16.5815 49.8145 16.1501 49.6366C16.0268 49.5773 15.9035 49.5378 15.8213 49.4191C15.6775 49.2412 15.7186 49.0831 15.9651 49.0831C16.9308 49.0238 17.876 49.0238 18.7389 49.518C18.8006 49.5378 18.8622 49.5971 18.9033 49.6959Z" fill="#201C17"/>
<path d="M51.059 64.4032C51.2234 64.423 51.3056 64.3044 51.4083 64.2253C51.9836 63.8102 52.5384 63.3753 53.1137 62.9404C53.2164 63.1381 53.0931 63.2567 52.9904 63.3753C52.5178 63.8893 52.0658 64.4032 51.511 64.8183C49.0249 66.5184 46.5387 68.1986 44.0526 69.8986C43.4773 70.294 42.9842 70.7882 42.5321 71.3022C41.2993 72.7057 40.7035 74.3266 40.6418 76.1255C40.6213 76.7383 40.6008 77.3511 40.6008 77.9441C40.6008 78.1418 40.5391 78.1813 40.3542 78.1616C39.8611 78.0825 39.5323 77.7464 39.5529 77.272C39.594 76.1848 39.7378 75.0976 39.9227 74.0301C39.9433 73.8522 40.0871 73.694 40.1693 73.5359C40.3336 73.2789 40.4364 73.0219 40.5186 72.7254C40.5391 72.6266 40.5597 72.5475 40.4569 72.4882C40.3336 72.4289 40.272 72.4487 40.1898 72.5673C40.0254 72.765 39.8816 72.9429 39.7994 73.1999C39.4707 74.3068 39.1214 75.3941 38.7926 76.5011C38.7105 76.7976 38.5872 76.8371 38.3201 76.7185C37.642 76.422 37.3749 75.9476 37.6215 75.2755C37.9913 74.2278 38.505 73.2394 38.957 72.2115C39.5118 70.9068 40.1076 69.6219 40.6829 68.2777C41.0733 69.0289 41.4432 69.7207 41.7925 70.4521C41.9157 70.7091 41.9979 70.7487 42.2239 70.551C43.3129 69.6219 44.4019 68.6928 45.3676 67.6649C45.8813 67.1114 46.2305 66.4393 46.5182 65.7672C46.9497 64.7195 47.3606 63.6718 47.7921 62.6439C47.8126 62.3078 47.9565 62.0113 48.0797 61.7148C48.429 60.9043 48.6551 60.0148 49.2509 59.3032C49.3742 59.145 49.518 58.8683 49.7029 58.9671C49.9289 59.0857 49.6618 59.3229 49.6002 59.4811C49.3742 60.0543 49.1687 60.6276 49.066 61.2404C48.9633 61.7741 48.8811 62.3078 48.7989 62.8613C48.7578 63.1183 48.7578 63.3753 48.5934 63.5927C48.5112 64.0079 48.4085 64.4428 48.3469 64.8579C48.3058 65.1149 48.2647 65.3916 48.5112 65.5695C48.7783 65.7474 49.1071 65.7277 49.3742 65.5695C49.9495 65.2137 50.5864 64.9172 51.059 64.4032Z" fill="#201C17"/>
<path d="M34.2719 63.2168C34.4362 63.3749 34.4979 63.5528 34.5595 63.711C35.3403 66.1227 36.1005 68.5145 36.8813 70.9262C37.3333 72.3692 37.21 73.5948 36.4909 74.7809C36.1621 74.5042 35.9361 74.1681 35.7307 73.7925C35.1554 72.7251 34.8677 71.5785 34.6417 70.432C34.3746 69.1076 34.2719 67.7634 34.3951 66.4192C34.4773 65.5889 34.2924 64.7784 34.2308 63.968C34.2102 63.7308 34.1691 63.4738 34.2719 63.2168Z" fill="#201C17"/>
<path d="M39.5525 67.9018C39.5731 68.06 39.5114 68.2181 39.4498 68.3763C38.9978 69.5426 38.5457 70.7089 38.0731 71.8752C38.0115 72.0135 37.9704 72.231 37.806 72.1914C37.6417 72.1519 37.58 71.974 37.58 71.7961C37.4567 70.2542 37.354 68.7123 37.2102 67.1704C37.0458 65.4704 36.6965 63.8297 36.0185 62.2483C35.9568 62.1099 35.7719 61.9122 35.9979 61.8134C36.1623 61.7343 36.3472 61.8925 36.45 62.0704C37.4567 63.8297 38.443 65.589 39.4498 67.3681C39.5114 67.5263 39.5525 67.7042 39.5525 67.9018Z" fill="#201C17"/>
<path d="M38.7718 10.1412C38.2787 8.02606 37.313 6.10859 35.8542 4.42833C35.7926 4.34926 35.7309 4.28996 35.6898 4.21089C35.6076 4.07251 35.5254 4.07251 35.4227 4.19112C34.8474 4.86322 34.2516 5.53532 33.8406 6.30626C33.7995 6.36557 33.7379 6.42487 33.6968 6.50394C31.8476 9.64701 31.3134 13.0075 32.0736 16.5459C32.4023 18.0681 32.9777 19.5111 33.8406 20.8158C34.0666 21.2704 34.3748 21.6856 34.7036 22.0809C34.6625 21.2309 34.6214 20.3809 34.6008 19.5309C34.5803 18.8192 34.4981 18.1076 34.5598 17.396C34.5803 17.2576 34.6008 17.0599 34.7447 17.0599C34.8885 17.0599 34.9501 17.2378 34.9912 17.3762C35.0118 17.4157 34.9912 17.475 35.0118 17.5146C35.1351 18.6611 35.2583 19.8274 35.3816 20.9739C35.546 20.9937 35.6487 20.9344 35.7515 20.8751C35.8953 20.9146 35.998 20.8158 36.1213 20.7367C36.409 20.5588 36.6144 20.282 36.7993 20.0053C37.0254 19.689 37.1897 19.3134 37.5801 19.0367C37.539 19.353 37.4979 19.6297 37.4568 19.8867C37.5185 19.8076 37.5801 19.7088 37.6212 19.6297C39.1622 16.625 39.5526 13.4424 38.7718 10.1412Z" fill="url(#paint0_linear)"/>
<path d="M48.4902 6.52335C48.0382 4.44774 47.1546 2.5698 45.7575 0.909315C45.5931 0.553496 45.2438 0.316284 45.0383 0C45.0178 0 44.9972 0 44.9561 0C44.9151 0.0593032 44.8534 0.138374 44.8123 0.197677C44.0932 1.04769 43.4562 1.93724 42.9631 2.92562C42.9015 3.04423 42.8193 3.16284 42.7577 3.28144C41.155 6.70126 40.9495 10.1804 42.1412 13.7386C42.6138 15.1618 43.3124 16.4863 44.2781 17.6526C44.237 17.3165 44.0932 17.02 43.9494 16.7235C43.3535 15.5374 42.6549 14.3711 42.2645 13.0862C42.1823 12.7897 42.1823 12.5723 42.4084 12.3746C42.6344 12.4734 42.696 12.6909 42.8604 12.8293C42.8604 12.9676 42.9426 13.0665 43.0248 13.1851C43.2302 13.4618 43.4768 13.7188 43.7028 13.9758C44.1137 14.4502 44.5041 14.9444 44.9356 15.4188C45.1411 15.656 45.3465 15.6758 45.4698 15.4584C45.6136 15.2014 45.778 14.9642 45.7369 14.6479C46.004 14.1932 46.1684 13.699 46.3944 13.2246C46.4766 13.0665 46.5382 13.0665 46.641 13.1851C46.9903 13.5607 47.1957 13.9955 47.2163 14.5095C47.2368 15.0037 47.1752 15.4781 47.1546 15.9723C47.1957 15.913 47.2574 15.8339 47.2985 15.7746C48.7778 12.8293 49.1888 9.74549 48.4902 6.52335Z" fill="url(#paint1_linear)"/>
<path d="M6.45176 23.2273C6.96542 24.1564 7.54073 25.0262 8.30096 25.7971C9.47212 27.1611 10.8693 28.2286 12.4925 29.0588C12.9445 29.3356 13.4376 29.5135 13.9102 29.7309C13.9924 29.7705 14.1568 29.7309 14.1362 29.8891C14.8554 29.9879 15.595 30.1065 16.3142 30.2054C16.7251 30.2647 17.1155 30.3635 17.547 30.3437C17.9168 30.324 18.0195 30.1856 17.9168 29.8495C17.7935 29.4542 17.6086 29.0786 17.4031 28.7228C16.8484 27.7937 16.0676 27.0227 15.369 26.1925C14.8348 25.5599 14.3006 24.9274 13.7664 24.275C13.6842 24.1762 13.5609 24.018 13.7047 23.8994C13.8486 23.7808 13.9718 23.939 14.0746 24.018C14.5677 24.4332 15.0608 24.8483 15.5539 25.2634C15.9443 25.6983 16.3347 26.153 16.7251 26.5879C17.3621 27.339 17.8552 28.1693 18.4099 28.9798C18.0401 26.9041 17.1977 25.0262 15.9032 23.3459C15.0197 22.0808 13.8691 21.0726 12.5952 20.1831C11.3213 19.2342 9.9036 18.5621 8.38315 18.1272C7.35581 17.7517 6.26684 17.6331 5.17786 17.4947C4.82857 17.4551 4.76693 17.5738 4.80802 17.8703C4.99294 19.7877 5.52716 21.5668 6.45176 23.2273Z" fill="url(#paint2_linear)"/>
<path d="M45.9012 35.5621C44.8944 35.7994 43.9287 36.1156 43.0452 36.6691C42.1412 37.1238 41.3604 37.7366 40.7029 38.4878C40.0249 39.1401 39.5112 39.8913 39.0797 40.7215C38.2578 42.2634 37.9291 43.9239 38.0113 45.6437C38.0113 45.8018 38.0113 45.9205 38.2578 45.8612C39.1413 45.6635 40.0043 45.3867 40.7851 44.9321C41.648 44.4774 42.4699 43.9832 43.1274 43.2716C45.3054 41.196 46.2505 38.6657 46.1272 35.74C46.1272 35.5424 46.045 35.5226 45.9012 35.5621Z" fill="url(#paint3_linear)"/>
<path d="M9.02 36.9458C9.24601 36.9656 9.45148 36.9853 9.67749 37.0051C10.5405 37.0446 10.5405 37.0446 10.335 36.2539C9.88296 34.4946 8.99945 32.9527 7.62282 31.6876C6.75986 30.8376 5.77362 30.1655 4.62301 29.7108C3.76004 29.2957 2.85599 29.0585 1.91084 28.9596C1.27389 28.841 0.636947 28.841 0 28.8806C0 28.9201 0 28.9794 0 29.019C0.0205467 29.0783 0.0616401 29.1376 0.0616401 29.2166C0.513667 31.312 1.56155 33.0713 3.20528 34.5144C3.34911 34.633 3.51348 34.7714 3.65731 34.89C4.41754 35.4632 5.21886 35.9574 6.12291 36.2737C7.06806 36.6493 8.03376 36.847 9.02 36.9458Z" fill="url(#paint4_linear)"/>
<path d="M60.3865 49.3404C60.3454 49.3997 60.2837 49.4788 60.2426 49.5381C59.5441 50.8032 59.1742 52.1672 59.0715 53.6103C59.0098 54.5789 59.1331 55.5277 59.3591 56.4766C59.4208 56.7138 59.5235 56.7731 59.7495 56.6545C59.9961 56.5161 60.2837 56.437 60.5098 56.2591C61.27 55.8836 61.9686 55.3894 62.5644 54.7963C63.5712 53.9068 64.3109 52.8591 64.8451 51.6533C65.7492 49.6369 65.9341 47.5416 65.3793 45.4067C65.3382 45.2683 65.3588 45.0706 65.0711 45.1892C64.1054 45.6241 63.1808 46.1578 62.4001 46.8892C61.5782 47.5613 60.9207 48.3916 60.3865 49.3404Z" fill="url(#paint5_linear)"/>
<path d="M12.1015 45.0504C12.5741 45.09 13.0467 45.0504 13.5193 44.9911C14.5466 44.8528 15.5328 44.6156 16.4574 44.1609C15.7999 44.0423 15.1425 44.1016 14.485 44.0818C13.396 44.0423 12.7179 43.469 12.6974 42.5597C12.8412 42.5202 12.9234 42.6981 13.0672 42.6981C13.17 42.8167 13.3138 42.8562 13.4371 42.9155C14.3617 43.2714 15.3274 43.3504 16.2931 43.3307C15.7178 42.5993 15.0192 42.026 14.2589 41.4923C13.3754 40.8795 12.4097 40.4841 11.3824 40.1678C10.2523 39.7725 9.06063 39.6737 7.86893 39.7527C6.94432 39.7725 6.04027 39.9504 5.15676 40.2469C4.74583 40.3458 4.39654 40.5237 4.00615 40.6818C3.80068 40.7609 3.82123 40.8399 3.94451 40.9981C4.21161 41.3539 4.49927 41.7097 4.82802 42.026C5.85535 43.0539 7.04706 43.8842 8.46478 44.3783C9.6154 44.8132 10.8276 45.0702 12.1015 45.0504Z" fill="url(#paint6_linear)"/>
<path d="M18.9646 49.2019C17.362 48.3321 15.6361 47.8775 13.7869 47.9368C12.4308 47.8973 11.1363 48.174 9.90355 48.7077C8.36254 49.3008 7.1092 50.2496 6.06131 51.4554C5.91749 51.6136 6.02022 51.6531 6.1435 51.7322C7.35576 52.4043 8.6502 52.8392 10.0474 52.9776C11.4035 53.1357 12.7184 53.0566 14.0129 52.6415C15.6977 52.1869 17.1565 51.3764 18.3893 50.1903C17.6086 50.0717 16.8689 49.7752 16.1497 49.4984C15.9854 49.4391 15.8415 49.3601 15.8004 49.1624C17.0332 49.1031 17.7524 49.0636 18.9235 49.6961C18.9646 49.538 19.3756 49.4391 18.9646 49.2019Z" fill="url(#paint7_linear)"/>
<path d="M32.649 59.0657C31.7038 58.0971 30.5532 57.4052 29.2999 56.8715C28.1081 56.3378 26.8753 56.0808 25.5604 56.1006C23.9783 56.0017 22.4783 56.3378 21.0195 56.9703C21.3072 57.4645 21.6565 57.8994 22.0469 58.3145C23.0331 59.3622 24.1837 60.2122 25.5604 60.746C26.7932 61.2994 28.0876 61.5564 29.4437 61.5762C29.5464 61.5762 29.6491 61.5762 29.7313 61.5762C29.9984 61.5762 30.2861 61.6157 30.5532 61.5169C31.6627 61.4576 32.7312 61.1611 33.7585 60.746C33.964 60.6669 33.9023 60.5878 33.8201 60.4692C33.4503 59.975 33.0804 59.5204 32.649 59.0657Z" fill="url(#paint8_linear)"/>
<path d="M51.1817 62.3669C52.1474 61.9518 52.9692 61.3192 53.75 60.6471C54.1404 60.3111 54.5513 59.9948 54.839 59.5401C54.9006 59.4017 55.065 59.3424 55.1677 59.2238C56.38 57.8006 57.3457 56.2389 57.9004 54.4598C58.6401 52.3842 58.784 50.2493 58.4758 48.0748C58.4552 47.9167 58.373 47.8969 58.2292 47.9365C57.6128 48.1341 56.9964 48.3121 56.4416 48.6086C55.0855 49.1423 53.8733 49.9132 52.7843 50.8621C51.3255 52.0482 50.1954 53.4517 49.353 55.0924C49.2708 55.2308 49.1886 55.3494 49.127 55.4877C48.0175 57.7413 47.586 60.1134 47.7709 62.6041C48.1202 61.7541 48.49 60.8843 48.8393 60.0343C49.0242 59.5797 49.353 59.1645 49.7023 58.9471C49.3324 59.6587 49.0653 60.3704 48.9626 61.1413C48.7366 61.9123 48.6955 62.7227 48.5517 63.5134C48.8804 63.3948 49.2297 63.2565 49.5585 63.1379C50.1132 62.9006 50.7091 62.7623 51.1817 62.3669Z" fill="url(#paint9_linear)"/>
<path d="M18.1634 35.1869C17.0334 34.8113 15.9033 34.7322 14.7321 34.9101C13.6637 34.9892 12.7186 35.3648 11.794 35.859C11.6501 35.938 11.6707 35.9974 11.7529 36.0962C12.7391 37.2032 13.9103 38.0334 15.3691 38.4485C16.4991 38.8241 17.6292 38.9625 18.8209 38.7846C19.7044 38.7253 20.5263 38.4881 21.3071 38.0927C20.6496 37.7171 20.0126 37.3218 19.4168 36.8671C19.3346 36.7881 19.1291 36.7683 19.2113 36.5904C19.2729 36.4322 19.4373 36.4915 19.5606 36.4915C19.7866 36.4915 19.9921 36.4915 20.2181 36.5311C20.4441 36.5706 20.5468 36.5508 20.7112 36.4718C19.9715 35.8787 19.1086 35.4834 18.1634 35.1869Z" fill="url(#paint10_linear)"/>
<path d="M28.478 69.7801C28.5602 70.2348 28.6629 70.6894 28.8273 71.1243C28.8067 69.7801 28.4369 68.5348 27.7383 67.3882C27.2452 66.4592 26.5671 65.6882 25.7042 65.0359C25.1289 64.5219 24.4508 64.1661 23.7317 63.8498C23.629 63.8103 23.5262 63.7707 23.4851 63.9289C23.1975 65.0161 23.0947 66.1033 23.3002 67.2103C23.3002 67.2696 23.3002 67.3289 23.3413 67.3882C23.4851 68.3766 23.8139 69.2859 24.3481 70.1359C24.8412 71.0255 25.4987 71.7964 26.3206 72.4092C26.8137 72.8441 27.3684 73.1604 27.9438 73.4569C28.478 73.7139 28.478 73.7139 28.6012 73.1802C28.6218 73.0813 28.6629 72.9825 28.704 72.8837C28.5807 72.1325 28.478 71.3813 28.3547 70.6301C28.3547 70.5511 28.3547 70.4918 28.3547 70.4127C28.4574 70.1952 28.3341 69.958 28.478 69.7801Z" fill="url(#paint11_linear)"/>
<path d="M26.2176 23.6621C27.06 24.6702 28.0874 25.4609 29.2996 26.054C30.0598 26.4493 30.8612 26.7261 31.7036 26.9238C31.9707 26.9831 31.9912 26.904 31.9912 26.7063C32.0118 26.1726 31.9912 25.6389 31.9296 25.1051C31.683 23.069 30.8612 21.2702 29.4434 19.7283C28.601 18.7597 27.5737 18.0085 26.382 17.4748C25.6218 17.0597 24.7793 16.8224 23.8958 16.6445C23.8136 17.5538 23.8547 18.4434 24.0397 19.3132C24.3684 20.9144 25.067 22.3969 26.2176 23.6621Z" fill="url(#paint12_linear)"/>
<path d="M68.9136 57.7611C67.8862 57.4448 66.8589 57.1483 65.7699 57.0692C65.5028 56.9704 65.2152 56.9902 64.9481 56.9704C62.9961 56.8518 61.0853 57.089 59.2566 57.7216C55.6404 58.9274 52.9283 61.1612 51.0996 64.3833C51.3051 64.4821 51.4078 64.324 51.5311 64.2449C52.0448 63.9089 52.4968 63.474 53.0515 63.1577C52.6612 63.6519 52.2297 64.1263 51.7366 64.5612C51.6544 64.6403 51.5311 64.6798 51.5311 64.838C51.5722 64.8577 51.6133 64.8775 51.6544 64.8973C53.4214 65.431 55.2089 65.6287 57.0581 65.5101C57.88 65.4508 58.7019 65.3717 59.4827 65.1147C60.0169 65.0356 60.5305 64.8577 61.0442 64.6798C62.7701 64.067 64.3522 63.217 65.7083 62.0112C65.9754 61.853 66.1809 61.6158 66.4069 61.3984C67.4342 60.41 68.2972 59.303 68.9752 58.0576C69.0368 57.9785 69.1807 57.8402 68.9136 57.7611Z" fill="url(#paint13_linear)"/>
<path d="M14.9581 14.9049C16.232 16.6445 17.9579 17.8108 20.0537 18.4829C20.1975 18.5224 20.3208 18.5224 20.3413 18.3445C20.0331 17.9492 19.6427 17.6526 19.1701 17.4352C18.5332 17.1585 17.8963 16.8619 17.2593 16.5654C17.1566 16.5061 16.9922 16.4864 16.9511 16.3677C17.1155 16.2491 17.3415 16.2887 17.5059 16.1898C17.8141 16.1898 18.1017 16.1305 18.3894 16.0515C18.8414 15.9131 18.9647 15.6956 18.8414 15.2608C18.7387 14.9642 18.6359 14.6875 18.5127 14.4107C18.451 14.2526 18.3688 14.0352 18.5537 13.9363C18.7181 13.8375 18.8825 13.9956 19.0263 14.1142C19.4989 14.5293 19.8893 15.0235 20.3002 15.498C20.2797 15.3596 20.2797 15.2212 20.2591 15.0828C19.8687 13.2049 18.9852 11.584 17.6086 10.2002C16.8895 9.42928 16.0676 8.83624 15.1019 8.38159C14.5882 8.04554 13.9924 7.86763 13.4171 7.66995C13.1705 7.59088 13.1294 7.66995 13.1089 7.86763C12.9651 8.79671 12.9856 9.74556 13.1294 10.6746C13.376 12.2165 13.9513 13.6398 14.9581 14.9049Z" fill="url(#paint14_linear)"/>
<path d="M72.3242 31.5494C73.2899 31.2331 74.1529 30.6796 75.1597 30.4226C74.5433 31.2331 73.7214 31.8064 72.8584 32.3006C73.105 32.3796 73.331 32.4785 73.5776 32.5378C74.5433 32.7948 75.5295 32.9529 76.5568 32.8738C76.5979 32.8738 76.639 32.8738 76.6801 32.8738C77.728 32.8738 78.7553 32.6761 79.7416 32.3006C79.9676 32.2215 80.1731 32.1622 80.3785 32.0831C82.2072 31.3122 83.666 30.1261 84.7755 28.5249C84.8577 28.4063 84.981 28.3273 84.7344 28.2284C83.0907 27.5563 81.3648 27.24 79.5772 27.4772C78.4471 27.5563 77.3787 27.8528 76.3514 28.3273C74.6871 29.0191 73.331 30.1063 72.3242 31.5494Z" fill="url(#paint15_linear)"/>
<path d="M26.6496 14.5688C27.0811 15.3595 27.6358 16.0909 28.3344 16.6839C28.4988 16.9805 28.6221 16.8816 28.7864 16.6444C30.5329 14.0548 30.9644 11.2874 30.0603 8.32219C29.7316 7.25474 29.2385 6.24658 28.4782 5.39657C28.2111 4.90238 27.7591 4.54656 27.3893 4.1512C27.266 4.0326 27.2043 4.07213 27.1427 4.19074C26.9783 4.44772 26.7729 4.68493 26.6496 4.96168C26.6085 5.02098 26.5674 5.06052 26.5263 5.11982C25.4579 7.03729 25.1086 9.09313 25.4373 11.228C25.6222 12.4339 25.9921 13.5606 26.6496 14.5688Z" fill="url(#paint16_linear)"/>
<path d="M50.5244 14.6674C50.6066 14.0546 50.7298 13.4616 51.0997 12.8883C51.5723 13.4023 51.9421 13.9162 51.7777 14.6476C51.6339 15.2802 51.6339 15.9128 52.0448 16.486C52.127 16.6046 52.2092 16.6837 52.353 16.5849C52.7023 16.3872 53.0516 16.2093 53.3804 16.0116C53.894 15.7151 53.894 15.7151 53.9351 16.3081C54.1406 16.2093 54.2228 16.0116 54.305 15.8139C54.4899 15.4976 54.7159 15.2011 54.8803 14.8651C56.2363 12.0581 56.2774 9.23129 54.9214 6.40451C54.6132 5.77194 54.7364 5.71264 54.0995 6.24637C53.3598 6.78009 52.764 7.43243 52.2503 8.1836C52.2092 8.22314 52.1681 8.26267 52.127 8.32197C51.3462 9.44873 50.8326 10.6941 50.586 12.0383C50.4422 12.9278 50.36 13.7976 50.5244 14.6674Z" fill="url(#paint17_linear)"/>
<path d="M86.419 45.6042C86.2957 45.2286 86.1724 44.853 86.0286 44.4774C85.6793 43.5879 85.1861 42.7576 84.5492 42.0262C83.5835 40.7809 82.3507 39.8518 80.8713 39.2192C79.4741 38.5273 77.9742 38.2703 76.4127 38.2901C77.1318 39.0611 77.6455 39.9308 77.7482 40.9983C77.7687 41.2355 77.7482 41.453 77.5633 41.6309C77.3784 41.4134 77.2962 41.1762 77.214 40.9192C76.9469 39.9901 76.3921 39.2587 75.6113 38.6855C75.6319 38.7843 75.6524 38.8831 75.6935 38.982C76.2688 40.7611 77.2551 42.303 78.755 43.5088C78.9399 43.667 79.1248 43.8251 79.3098 43.9635C80.3576 44.7147 81.4877 45.2879 82.7822 45.5647C83.9122 45.9205 85.0834 45.9403 86.2546 45.9007C86.4806 45.881 86.4806 45.7623 86.419 45.6042Z" fill="url(#paint18_linear)"/>
<path d="M38.6073 32.6566C39.1005 34.0601 40.0662 35.1078 41.4017 35.8392C41.5661 35.9183 41.6277 35.8787 41.6688 35.7404C41.8126 35.3055 41.9359 34.8706 41.9564 34.4159C42.0181 33.6252 41.9975 32.8345 41.7099 32.0833C41.2168 30.4821 40.1689 29.3356 38.6484 28.5054C38.4841 28.96 38.3402 29.3752 38.3197 29.8298C38.1142 30.7984 38.2375 31.7473 38.6073 32.6566Z" fill="url(#paint19_linear)"/>
<path d="M72.3245 25.3619C72.5505 25.6782 72.7766 25.9747 72.7149 26.3898C73.2902 26.0142 73.8244 25.5991 74.2559 25.0654C74.4614 24.8281 74.6874 24.6107 74.8929 24.3537C75.612 23.4642 76.1257 22.4758 76.475 21.4083C77.153 19.2734 77.1119 17.1583 76.3106 15.0629C76.2284 14.8455 76.1462 14.7862 75.9407 14.9245C75.2832 15.3199 74.6463 15.7548 74.0915 16.2885C73.3724 16.9013 72.7971 17.6327 72.3245 18.463C71.5643 19.649 71.1945 20.9339 71.0095 22.2979C70.6192 22.2979 70.2288 22.2386 69.8589 22.3572C69.0165 22.3967 68.2563 22.6932 67.5166 23.0886C66.3249 23.7409 65.4619 24.67 64.9277 25.8758C65.4003 25.9154 65.8729 25.7968 66.3455 25.9549C66.3865 26.1526 66.2633 26.2119 66.0989 26.2712C65.7907 26.3898 65.4414 26.4689 65.1537 26.6468C65.3181 26.8049 65.5236 26.8247 65.7291 26.8049C66.6537 26.7456 67.5577 26.5875 68.4001 26.1921C68.5234 26.1328 68.6672 26.0735 68.7289 25.9351C68.7289 25.9154 68.7289 25.9154 68.7289 25.8956C68.7905 25.9154 68.8521 25.8956 68.9138 25.8758C69.6946 25.4607 70.352 24.927 70.8452 24.1956C70.8657 24.156 70.8863 24.1165 70.9068 24.0967C70.989 24.4723 70.989 24.8677 71.0917 25.2433C71.1328 25.4014 71.1328 25.5793 71.2972 25.6782C71.441 25.3816 71.6054 25.0851 71.7698 24.7491C71.9341 24.9863 72.1191 25.184 72.3245 25.3619Z" fill="url(#paint20_linear)"/>
<path d="M57.5513 15.6955C57.8595 17.1188 58.5581 18.3246 59.7498 19.2537C59.7704 19.1549 59.7293 19.0758 59.6882 18.977C59.5033 18.463 59.3389 17.9293 59.154 17.4153C59.0923 17.2374 59.1129 17.02 59.2567 16.9409C59.4005 16.8816 59.5443 17.0595 59.6471 17.1781C59.7293 17.2769 59.7704 17.3955 59.832 17.5142C60.0375 17.949 60.2635 18.3839 60.4689 18.7991C60.736 18.3049 60.8388 17.7711 60.9004 17.2176C60.9621 16.5455 60.9826 15.8734 60.7771 15.2211C60.736 15.0432 60.6744 14.8851 60.6333 14.7071C60.284 13.4025 59.4827 12.3943 58.3937 11.5641C58.2499 11.4455 58.1883 11.5048 58.1266 11.6432C57.9828 11.9397 57.8184 12.2164 57.7568 12.5525C57.5513 13.0269 57.4691 13.5211 57.4691 14.0153C57.4486 14.0746 57.4486 14.1339 57.4486 14.1932C57.3664 14.7269 57.4486 15.2013 57.5513 15.6955Z" fill="url(#paint21_linear)"/>
<path d="M70.7013 10.5362C70.9068 10.6944 70.9889 10.9316 71.0095 11.1688C71.0917 12.0583 70.7013 12.77 70.0233 13.3432C70.0643 13.4025 70.126 13.4618 70.1465 13.5211C70.2698 13.7979 70.3931 13.7781 70.5986 13.5805C70.9479 13.2642 71.2766 12.9479 71.5437 12.5723C73.2285 10.2199 73.3724 7.76874 71.9957 5.23847C71.8519 4.98149 71.7492 4.98149 71.5643 5.17917C71.2355 5.51522 70.8862 5.81174 70.6191 6.20709C70.0643 6.85943 69.6945 7.6106 69.489 8.40131C69.1397 9.62691 69.0987 10.8525 69.5301 12.0781C69.9205 11.5641 70.3109 11.0502 70.7013 10.5362Z" fill="url(#paint22_linear)"/>
<path d="M43.2096 26.5876C43.1891 24.4724 42.2234 22.9306 40.2304 22.0015C39.6345 21.7247 39.6345 21.7445 39.614 22.3573C39.5934 22.3771 39.5934 22.3968 39.5934 22.4166C39.4907 22.891 39.5729 23.3654 39.6961 23.8201C39.9838 24.9469 40.5386 25.9155 41.5453 26.6073C41.155 25.8562 41.0522 25.0852 41.2988 24.2748C41.4015 24.1364 41.4632 24.1759 41.5659 24.2945C41.7714 24.591 41.9768 24.8876 42.1001 25.2434C42.3261 25.7969 42.6343 26.2911 43.2096 26.5876Z" fill="url(#paint23_linear)"/>
<path d="M77.7288 45.6241C77.4822 44.9717 77.1124 44.3787 76.6398 43.8647C75.407 42.3822 73.7838 41.5519 71.8113 41.3345C71.8524 41.374 71.9141 41.4333 71.9757 41.4728C72.6332 42.0066 73.3318 42.481 74.0509 42.9554C74.1947 43.0543 74.318 43.1926 74.2564 43.331C74.1947 43.4892 73.9893 43.4694 73.8249 43.4298C73.4962 43.3508 73.188 43.2322 72.9003 43.0345C72.4072 42.6984 71.8935 42.3822 71.4004 42.0461C71.4209 42.1449 71.4415 42.224 71.462 42.3229C71.7908 43.5287 72.3455 44.6159 73.2701 45.4857C73.8044 46.0787 74.4413 46.5334 75.181 46.8694C76.0645 47.3439 77.0302 47.5613 78.0164 47.6404C78.2013 47.6601 78.2424 47.6206 78.2219 47.4229C78.1192 46.8101 77.9959 46.1973 77.7288 45.6241Z" fill="url(#paint24_linear)"/>
<path d="M21.2653 32.4189C21.0598 32.4387 21.0392 32.5177 21.1009 32.6759C21.4707 33.6643 22.0666 34.455 22.9912 34.9887C23.6692 35.4236 24.4295 35.641 25.2513 35.6608C25.1075 35.4631 24.9431 35.305 24.7377 35.1666C24.4911 34.9887 24.7377 34.8899 24.7993 34.7713C24.8609 34.6329 24.9431 34.5933 25.1075 34.6922C25.3541 34.8503 25.5595 35.0678 25.8472 35.1864C25.8883 35.048 25.7855 34.9492 25.7239 34.8306C25.1691 33.7631 24.3062 33.0317 23.135 32.6363C22.5597 32.3991 21.9228 32.3794 21.2653 32.4189Z" fill="url(#paint25_linear)"/>
<path d="M35.895 36.1351C35.3403 36.3525 35.0321 36.8072 35.0937 37.3211C35.1554 37.8351 35.5663 38.2305 36.1211 38.2898C36.4703 38.3491 36.7991 38.2502 37.0662 38.013C37.4566 37.6572 37.5593 37.1235 37.3128 36.6688C37.0251 36.1944 36.532 35.9967 35.895 36.1351Z" fill="url(#paint26_linear)"/>
<path d="M76.7212 24.1756C76.5363 24.5908 76.639 25.0849 76.9678 25.4012C77.317 25.7373 77.7896 25.8163 78.2622 25.6187C78.7964 25.3419 79.0019 24.9861 78.9402 24.4721C78.858 23.8989 78.4882 23.6024 77.9129 23.5233C77.317 23.4838 76.9061 23.721 76.7212 24.1756Z" fill="url(#paint27_linear)"/>
<path d="M7.58134 47.739C7.93064 47.6006 8.1361 47.3436 8.21829 47.0076C8.36212 46.4146 8.11556 46.039 7.39642 45.6832C6.9033 45.525 6.38964 45.7029 6.10198 46.118C5.83488 46.5134 5.85542 47.0867 6.18417 47.4425C6.55401 47.8576 7.06768 47.9564 7.58134 47.739Z" fill="url(#paint28_linear)"/>
<path d="M30.5528 30.1456C31.0664 29.8886 31.2925 29.4933 31.1897 28.9596C31.1075 28.4851 30.8199 28.1886 30.3268 28.0898C29.8336 27.9712 29.3405 28.1491 29.0734 28.5642C28.8063 28.9793 28.8679 29.5526 29.1967 29.9084C29.5665 30.2642 30.0597 30.3631 30.5528 30.1456Z" fill="url(#paint29_linear)"/>
<path d="M63.9825 10.0025C64.5578 9.72577 64.8044 9.29088 64.7016 8.73739C64.5989 8.26296 64.188 7.92691 63.6127 7.88738C63.099 7.86761 62.7086 8.10482 62.5031 8.51994C62.3182 8.93507 62.4004 9.42926 62.7292 9.74554C63.0784 10.1014 63.5099 10.1804 63.9825 10.0025Z" fill="url(#paint30_linear)"/>
<path d="M21.7592 10.0024C21.9031 9.92328 22.0469 9.88375 22.1496 9.76514C22.4578 9.42909 22.5606 9.0535 22.4167 8.63838C22.2318 8.14419 21.8414 7.92674 21.3278 7.88721C20.8141 7.88721 20.4237 8.12442 20.2388 8.55931C20.0539 8.97443 20.1566 9.46863 20.4853 9.78491C20.8346 10.1012 21.2867 10.1803 21.7592 10.0024Z" fill="url(#paint31_linear)"/>
<path d="M29.5052 46.4146C29.3203 45.8216 28.6834 45.5053 28.067 45.6832C27.43 45.8611 27.1013 46.4343 27.2656 47.0471C27.4095 47.5809 27.9437 47.8972 28.4984 47.8181C28.5395 47.8181 28.6012 47.7983 28.6628 47.7983C29.3203 47.6402 29.6902 47.0274 29.5052 46.4146Z" fill="url(#paint32_linear)"/>
<path d="M8.9583 15.9722C9.04049 15.9326 9.10213 15.8931 9.18432 15.8733C9.69798 15.7547 9.924 15.0826 9.82126 14.6873C9.69798 14.1535 9.24596 13.8175 8.67065 13.8175C8.15698 13.7977 7.80768 14.0547 7.62276 14.4698C7.41729 14.9047 7.49948 15.3198 7.82823 15.6756C8.11588 15.9722 8.48573 16.1303 8.9583 15.9722Z" fill="url(#paint33_linear)"/>
<path d="M20.0741 27.2993C19.7865 27.6947 19.7865 28.2086 20.0741 28.604C20.3618 28.9796 20.8549 29.1377 21.3275 28.9993C21.9028 28.8016 22.211 28.4063 22.1904 27.9121C22.1699 27.4179 21.8411 27.0225 21.3275 26.8842C20.8344 26.7458 20.3618 26.9039 20.0741 27.2993Z" fill="url(#paint34_linear)"/>
<path d="M39.84 2.80634C40.518 2.5889 40.8468 2.13424 40.7441 1.58074C40.6413 0.987713 40.1893 0.631894 39.5524 0.651662C38.8538 0.671429 38.3812 1.20516 38.4634 1.89703C38.5045 2.50982 39.1209 2.92495 39.84 2.80634Z" fill="url(#paint35_linear)"/>
<path d="M50.442 6.12769C51.0995 6.06839 51.5721 5.55443 51.5104 4.94163C51.4283 4.24976 50.8529 3.83463 50.0722 3.95324C49.4352 4.13115 49.0859 4.62534 49.1887 5.23814C49.3119 5.81141 49.8051 6.16722 50.442 6.12769Z" fill="url(#paint36_linear)"/>
<path d="M4.49972 26.9831C5.17776 26.8052 5.5476 26.2121 5.34213 25.5796C5.15721 24.9865 4.52026 24.6702 3.90386 24.8679C3.26691 25.0458 2.93817 25.6191 3.10254 26.2319C3.28746 26.7854 3.88331 27.1214 4.49972 26.9831Z" fill="url(#paint37_linear)"/>
<path d="M40.2717 18.7201C39.7992 18.641 39.3471 18.8189 39.1006 19.2142C38.854 19.6096 38.8951 20.1631 39.2033 20.5189C39.5321 20.8747 40.0046 20.9934 40.4772 20.8352C40.9087 20.7166 41.1347 20.4201 41.2169 20.0247C41.3607 19.3922 41.0731 18.977 40.2717 18.7201Z" fill="url(#paint38_linear)"/>
<path d="M54.326 22.3179C53.8124 22.3179 53.422 22.5551 53.2371 22.99C53.0521 23.4051 53.1549 23.8993 53.5042 24.2156C53.8535 24.5516 54.3055 24.6109 54.778 24.433C55.3533 24.1563 55.5794 23.7214 55.4561 23.1876C55.3123 22.6539 54.9013 22.3376 54.326 22.3179Z" fill="url(#paint39_linear)"/>
<path d="M81.0974 33.7239C80.5632 33.7041 80.1523 33.9216 79.9468 34.3367C79.7414 34.7518 79.8441 35.2658 80.1728 35.6018C80.5221 35.9379 80.9947 36.017 81.4673 35.8193C81.9809 35.5821 82.2275 35.167 82.1659 34.6728C82.0837 34.139 81.7138 33.8227 81.0974 33.7239Z" fill="url(#paint40_linear)"/>
<path d="M59.9762 31.7668C59.7091 32.1621 59.7297 32.6959 60.0173 33.0715C60.3255 33.4471 60.7981 33.5855 61.2706 33.4273C61.8254 33.2296 62.0925 32.8738 62.0925 32.3796C62.0925 31.8459 61.8048 31.5098 61.1884 31.3121C60.7364 31.1935 60.2433 31.3714 59.9762 31.7668Z" fill="url(#paint41_linear)"/>
<path d="M150.799 90.314H31.3994V92.1571H150.799V90.314Z" fill="url(#paint42_linear)"/>
<path d="M53.0599 88.3767H52.2077C52.0283 88.3767 51.9834 88.2928 51.9834 88.1669V71.1708C51.9834 71.0449 52.0731 70.9609 52.2077 70.9609H53.0599C53.2393 70.9609 53.2842 71.0449 53.2842 71.1708V88.1669C53.2842 88.3348 53.2393 88.3767 53.0599 88.3767Z" fill="#9AC477"/>
<path d="M66.9199 88.3766H66.0228C65.8882 88.3766 65.7985 88.3346 65.7985 88.2087V80.6128C65.7985 80.1512 65.7537 79.6896 65.6191 79.228C65.4845 78.7663 65.2603 78.3886 64.9912 78.0949C64.722 77.7592 64.3184 77.5074 63.8698 77.3395C63.3764 77.1297 62.8382 77.0457 62.1654 77.0457C61.6272 77.0457 61.1338 77.1297 60.6852 77.3395C60.2367 77.5074 59.8779 77.8011 59.5639 78.0949C59.2499 78.4306 59.0257 78.7663 58.8462 79.186C58.6668 79.6057 58.5771 80.0673 58.5771 80.5709V88.2087C58.5771 88.3346 58.4874 88.4185 58.3528 88.4185H57.5006C57.3661 88.4185 57.2764 88.3766 57.2764 88.2507V76.3323C57.2764 76.2064 57.3661 76.1225 57.5006 76.1225H58.308C58.4426 76.1225 58.4874 76.2064 58.4874 76.3323V77.3815C58.4874 77.5074 58.5323 77.5493 58.5771 77.5913C58.622 77.5913 58.7117 77.5913 58.8014 77.4654C59.2499 77.0038 59.7882 76.6261 60.461 76.3743C61.1338 76.1225 61.8066 75.9966 62.4794 75.9966C63.3316 75.9966 64.0492 76.1225 64.6323 76.3743C65.2154 76.6261 65.7088 76.9618 66.0676 77.4234C66.4265 77.8431 66.6956 78.3467 66.875 78.8922C67.0544 79.4378 67.0993 80.0253 67.0993 80.6128V88.2087C67.0993 88.3346 67.0096 88.3766 66.9199 88.3766Z" fill="#9AC477"/>
<path d="M74.2753 88.5447C73.6474 88.5447 73.154 88.4608 72.7503 88.2929C72.3466 88.1251 72.0327 87.8733 71.8084 87.5795C71.5841 87.2858 71.4047 86.9081 71.315 86.5304C71.2253 86.1107 71.1804 85.691 71.1804 85.1875V77.4237C71.1804 77.2559 71.0907 77.1719 70.9562 77.1719H69.2966C69.162 77.1719 69.1172 77.088 69.1172 76.9621V76.3326C69.1172 76.2067 69.162 76.1228 69.2966 76.1228H71.001C71.1356 76.1228 71.2253 76.0389 71.2253 75.913V73.0173C71.2253 72.8914 71.315 72.8075 71.4496 72.8075L72.2569 72.5977C72.4363 72.5977 72.4812 72.6396 72.4812 72.8075V75.913C72.4812 76.0808 72.526 76.1228 72.6606 76.1228H76.0246C76.1592 76.1228 76.2489 76.2067 76.2489 76.3326V76.9621C76.2489 77.088 76.1592 77.1719 76.0246 77.1719H72.6606C72.526 77.1719 72.4363 77.2559 72.4363 77.4237V84.9776C72.4363 85.8589 72.5709 86.4884 72.8849 86.9081C73.1988 87.3277 73.6922 87.4956 74.4547 87.4956C74.7239 87.4956 75.0827 87.4536 75.4415 87.4117C75.8452 87.3697 76.1143 87.2858 76.3386 87.2438C76.4732 87.2018 76.518 87.2018 76.5629 87.2438C76.6077 87.2858 76.6526 87.3277 76.6526 87.4117L76.7871 87.9992C76.7871 88.1251 76.7423 88.209 76.6526 88.251C76.3386 88.3769 75.9798 88.4608 75.4864 88.5028C74.993 88.5028 74.5893 88.5447 74.2753 88.5447Z" fill="#9AC477"/>
<path d="M88.1806 81.8717C88.1806 82.0396 88.1358 82.1655 88.0461 82.2494C87.9564 82.3334 87.8667 82.3753 87.777 82.3753H80.0621C79.8378 82.3753 79.7032 82.5012 79.7032 82.753V84.0959C79.7032 85.0611 80.0172 85.9004 80.69 86.5299C81.3628 87.2014 82.2599 87.4951 83.3813 87.4951C84.0541 87.4951 84.6372 87.3692 85.1306 87.1174C85.624 86.8657 86.0725 86.5299 86.3865 86.1103C86.521 85.9424 86.6556 85.9424 86.7902 86.0263L87.3733 86.3621C87.5078 86.446 87.5527 86.5719 87.5078 86.6558C87.1041 87.2433 86.521 87.705 85.8034 88.0407C85.0857 88.3764 84.2783 88.5023 83.3813 88.5023C81.8562 88.5023 80.69 88.0827 79.7929 87.2853C78.8959 86.488 78.4922 85.3969 78.4922 84.054V80.4869C78.4922 79.7735 78.6267 79.144 78.851 78.5564C79.1201 78.0109 79.4341 77.5073 79.8827 77.1296C80.3312 76.7519 80.8246 76.4162 81.4077 76.2064C81.9908 75.9965 82.6187 75.9126 83.3364 75.9126C84.0541 75.9126 84.682 75.9965 85.31 76.2064C85.8931 76.4162 86.4313 76.71 86.8799 77.0876C87.3284 77.4653 87.6424 77.9689 87.9115 78.5564C88.1806 79.144 88.2703 79.8154 88.2703 80.6128V81.8717H88.1806ZM86.8799 80.4029C86.8799 79.3958 86.5659 78.5984 85.8931 77.9689C85.2203 77.3394 84.3681 77.0037 83.2467 77.0037C82.7085 77.0037 82.2599 77.0876 81.8114 77.2555C81.3628 77.4234 81.004 77.6752 80.69 77.9689C80.376 78.2627 80.1069 78.6404 79.9275 79.06C79.7481 79.4797 79.6584 79.8993 79.6584 80.361V81.0324C79.6584 81.2422 79.7929 81.3262 80.0172 81.3262H86.6107C86.7902 81.3262 86.8799 81.2422 86.8799 81.0324V80.4029Z" fill="#9AC477"/>
<path d="M99.6172 77.8011C99.7069 77.969 99.7069 78.0529 99.5724 78.1369L99.0341 78.5565C98.8995 78.6404 98.765 78.5985 98.6304 78.4726C98.2716 78.011 97.8679 77.6752 97.2848 77.4234C96.7466 77.1716 96.1635 77.0457 95.5355 77.0457C94.459 77.0457 93.5619 77.3815 92.8891 78.0109C92.2163 78.6404 91.8575 79.4798 91.8575 80.487V84.096C91.8575 85.1452 92.2163 85.9845 92.8891 86.614C93.5619 87.2015 94.459 87.5373 95.5804 87.5373C96.298 87.5373 96.926 87.4114 97.4194 87.1596C97.9128 86.9078 98.3613 86.572 98.6753 86.1104C98.765 85.9845 98.8547 85.9425 98.9893 86.0684L99.5275 86.3622C99.6172 86.4461 99.6621 86.4881 99.7069 86.572C99.7069 86.614 99.7069 86.6979 99.6621 86.7399C99.2135 87.3694 98.6304 87.831 97.9128 88.1248C97.1951 88.4185 96.3877 88.5864 95.5355 88.5864C93.9656 88.5864 92.7546 88.1667 91.9023 87.3694C91.0052 86.572 90.6016 85.4809 90.6016 84.138V80.5289C90.6016 79.8575 90.7361 79.228 91.0052 78.6824C91.2744 78.1368 91.6332 77.6752 92.0817 77.2556C92.5303 76.8779 93.0685 76.5841 93.6516 76.3323C94.2347 76.1225 94.9076 75.9966 95.6252 75.9966C97.3297 75.9966 98.6753 76.5841 99.6172 77.8011Z" fill="#9AC477"/>
<path d="M106.166 88.5447C105.538 88.5447 105.045 88.4608 104.641 88.2929C104.237 88.1251 103.923 87.8733 103.699 87.5795C103.475 87.2858 103.295 86.9081 103.206 86.5304C103.116 86.1107 103.071 85.691 103.071 85.1875V77.4237C103.071 77.2559 102.981 77.1719 102.847 77.1719H101.187C101.053 77.1719 101.008 77.088 101.008 76.9621V76.3326C101.008 76.2067 101.053 76.1228 101.187 76.1228H102.892C103.026 76.1228 103.116 76.0389 103.116 75.913V73.0173C103.116 72.8914 103.206 72.8075 103.34 72.8075L104.147 72.5977C104.327 72.5977 104.372 72.6396 104.372 72.8075V75.913C104.372 76.0808 104.417 76.1228 104.551 76.1228H107.915C108.05 76.1228 108.139 76.2067 108.139 76.3326V76.9621C108.139 77.088 108.05 77.1719 107.915 77.1719H104.596C104.461 77.1719 104.372 77.2559 104.372 77.4237V84.9776C104.372 85.8589 104.506 86.4884 104.82 86.9081C105.134 87.3277 105.628 87.4956 106.39 87.4956C106.659 87.4956 107.018 87.4536 107.377 87.4117C107.781 87.3697 108.05 87.2858 108.274 87.2438C108.408 87.2018 108.453 87.2018 108.498 87.2438C108.543 87.2858 108.588 87.3277 108.588 87.4117L108.722 87.9992C108.722 88.1251 108.678 88.209 108.588 88.251C108.274 88.3769 107.915 88.4608 107.422 88.5028C106.883 88.5028 106.48 88.5447 106.166 88.5447Z" fill="#9AC477"/>
<path d="M112.267 72.5542C112.267 72.806 112.177 73.0158 111.998 73.1836C111.818 73.3515 111.594 73.4354 111.37 73.4354C111.145 73.4354 110.921 73.3515 110.742 73.1836C110.562 73.0158 110.473 72.806 110.473 72.5542C110.473 72.3024 110.562 72.1345 110.742 71.9666C110.921 71.7988 111.145 71.7148 111.37 71.7148C111.639 71.7148 111.863 71.7988 111.998 71.9666C112.177 72.0925 112.267 72.3024 112.267 72.5542ZM110.697 76.3311C110.697 76.2052 110.787 76.1213 110.921 76.1213H111.773C111.908 76.1213 111.998 76.2052 111.998 76.3311V88.2494C111.998 88.3753 111.908 88.4173 111.773 88.4173H110.921C110.787 88.4173 110.697 88.3753 110.697 88.2494V76.3311Z" fill="#9AC477"/>
<path d="M124.377 77.8011C124.467 77.969 124.467 78.0529 124.332 78.1369L123.794 78.5565C123.659 78.6404 123.525 78.5985 123.39 78.4726C123.031 78.011 122.628 77.6752 122.044 77.4234C121.506 77.1716 120.923 77.0457 120.295 77.0457C119.219 77.0457 118.322 77.3815 117.649 78.0109C116.976 78.6404 116.617 79.4798 116.617 80.487V84.096C116.617 85.1452 116.976 85.9845 117.649 86.614C118.322 87.2015 119.219 87.5373 120.34 87.5373C121.058 87.5373 121.686 87.4114 122.179 87.1596C122.672 86.9078 123.121 86.572 123.435 86.1104C123.525 85.9845 123.614 85.9425 123.749 86.0684L124.287 86.3622C124.377 86.4461 124.422 86.4881 124.467 86.572C124.467 86.614 124.467 86.6979 124.422 86.7399C123.973 87.3694 123.39 87.831 122.672 88.1248C121.955 88.4185 121.147 88.5864 120.295 88.5864C118.725 88.5864 117.514 88.1667 116.662 87.3694C115.765 86.572 115.361 85.4809 115.361 84.138V80.5289C115.361 79.8575 115.496 79.228 115.765 78.6824C116.034 78.1368 116.393 77.6752 116.841 77.2556C117.29 76.8779 117.828 76.5841 118.411 76.3323C118.994 76.1225 119.667 75.9966 120.385 75.9966C122.089 75.9966 123.435 76.5841 124.377 77.8011Z" fill="#9AC477"/>
<path d="M126.036 84.5158C126.036 83.9282 126.126 83.3827 126.35 82.8791C126.53 82.3755 126.844 81.9139 127.247 81.5362C127.651 81.1585 128.099 80.8647 128.682 80.6129C129.266 80.4031 129.894 80.2772 130.656 80.2772C131.284 80.2772 131.867 80.3611 132.45 80.5709C133.033 80.7808 133.482 81.0745 133.841 81.4522C133.93 81.5362 133.975 81.5362 134.02 81.5362C134.065 81.4942 134.11 81.4522 134.11 81.3683V80.0673C134.11 79.6896 134.065 79.3119 133.975 78.9342C133.885 78.5566 133.706 78.2628 133.482 77.969C133.258 77.6753 132.899 77.4654 132.45 77.2976C132.002 77.1297 131.463 77.0458 130.791 77.0458C130.566 77.0458 130.297 77.0458 130.028 77.0877C129.759 77.1297 129.445 77.1717 129.176 77.2136C128.862 77.2556 128.593 77.3395 128.324 77.4235C128.055 77.5074 127.83 77.5913 127.606 77.6333C127.471 77.7172 127.382 77.7172 127.292 77.5494L127.023 76.9618C127.023 76.8359 127.068 76.752 127.157 76.71C127.651 76.5002 128.234 76.2904 128.952 76.2064C129.624 76.0805 130.297 76.0386 130.88 76.0386C132.495 76.0386 133.616 76.4163 134.334 77.1297C135.007 77.8431 135.366 78.8923 135.366 80.2352V88.2927C135.366 88.4186 135.276 88.5026 135.141 88.5026H134.379C134.244 88.5026 134.199 88.4606 134.199 88.3347V87.2436C134.199 87.1177 134.155 87.0337 134.11 87.0337C134.065 87.0337 133.975 87.0757 133.93 87.1596C133.168 88.1668 132.002 88.6704 130.432 88.6704C129.041 88.6704 127.965 88.2927 127.202 87.5373C126.44 86.698 126.036 85.6908 126.036 84.5158ZM127.202 84.4318C127.202 85.3131 127.471 86.0685 127.965 86.656C128.503 87.2436 129.355 87.5793 130.521 87.5793C131.553 87.5793 132.36 87.2855 132.988 86.656C133.616 86.0266 133.93 85.2712 133.93 84.3899C133.93 83.5086 133.616 82.7952 133.033 82.1657C132.45 81.5362 131.598 81.2424 130.566 81.2424C130.028 81.2424 129.535 81.3263 129.086 81.4942C128.638 81.6621 128.279 81.9139 128.01 82.1657C127.696 82.4594 127.516 82.7952 127.337 83.2148C127.292 83.5925 127.202 84.0122 127.202 84.4318Z" fill="#9AC477"/>
<path d="M155.281 90.6846C155.281 91.3561 155.101 91.9436 154.697 92.5311C154.294 93.1187 153.8 93.5803 153.128 93.916C153.038 93.958 152.993 93.9999 152.903 93.9999C152.814 93.9999 152.769 93.9999 152.679 93.874L152.275 93.3704C152.186 93.2446 152.23 93.1187 152.41 92.9928C152.814 92.7829 153.172 92.4472 153.486 92.0695C153.845 91.6918 153.98 91.2302 153.98 90.7266C153.98 90.265 153.845 89.8873 153.576 89.5515C153.307 89.2578 152.993 89.006 152.544 88.8381C152.141 88.6703 151.647 88.5024 151.154 88.4604C150.661 88.3765 150.122 88.3345 149.629 88.3345C149.001 88.3345 148.283 88.3765 147.476 88.4604C146.669 88.5444 145.906 88.6283 145.144 88.7122C144.964 88.7542 144.83 88.7542 144.695 88.7122C144.605 88.6702 144.471 88.5443 144.381 88.2926C144.247 87.9988 144.157 87.5791 144.157 87.0336C144.157 86.6559 144.336 86.1943 144.695 85.6067C145.054 85.0612 145.547 84.5576 146.175 84.0959C146.22 84.0959 146.265 84.054 146.265 83.9701C146.265 83.9701 146.22 83.8861 146.13 83.8442H146.086C145.413 83.4665 144.919 82.9629 144.516 82.3334C144.112 81.7039 143.933 80.9905 143.933 80.1931C143.933 79.6475 144.067 79.102 144.291 78.5564C144.516 78.0528 144.875 77.5912 145.278 77.1715C145.682 76.7938 146.22 76.4581 146.803 76.2063C147.386 75.9545 148.014 75.8706 148.732 75.8706C149.18 75.8706 149.719 75.9545 150.302 76.0804C150.885 76.2063 151.378 76.5001 151.872 76.8358C151.961 76.9198 152.006 76.9617 152.096 76.9617C152.141 76.9617 152.23 76.9198 152.32 76.8358C152.679 76.584 153.038 76.3742 153.486 76.2063C153.935 76.0385 154.383 75.9545 154.832 75.9126H154.922C155.056 75.9126 155.146 75.9965 155.146 76.2063V77.0457C155.146 77.2135 155.101 77.2555 154.967 77.2555H154.877C154.563 77.2555 154.249 77.2974 153.89 77.3814C153.531 77.4653 153.262 77.5492 153.083 77.5912C152.993 77.6332 152.948 77.6751 152.948 77.7171C152.948 77.7591 152.993 77.843 153.083 78.0109C153.262 78.3046 153.442 78.6404 153.531 79.0181C153.621 79.3958 153.666 79.7734 153.666 80.1092C153.666 80.7806 153.531 81.4101 153.262 81.9557C152.993 82.5012 152.634 82.9629 152.186 83.3406C151.737 83.7183 151.199 84.012 150.616 84.2219C150.033 84.4317 149.405 84.5156 148.777 84.5156C148.597 84.5156 148.418 84.5156 148.283 84.5156C148.104 84.5156 147.969 84.5156 147.79 84.4736C147.611 84.4736 147.521 84.4736 147.431 84.5156C147.341 84.5576 147.297 84.5995 147.162 84.6415C146.983 84.7674 146.758 84.9353 146.534 85.1451C146.31 85.3549 146.13 85.5228 145.996 85.7746C145.816 85.9844 145.682 86.2362 145.592 86.446C145.502 86.6559 145.413 86.9077 145.413 87.1175C145.413 87.4113 145.458 87.5791 145.502 87.6211C145.592 87.6631 145.727 87.705 145.951 87.6631C146.22 87.6211 146.489 87.5372 146.803 87.4952C147.117 87.4532 147.431 87.4113 147.79 87.3693C148.104 87.3273 148.463 87.2854 148.732 87.2854C149.046 87.2854 149.315 87.2434 149.539 87.2434C150.257 87.2434 150.975 87.2854 151.647 87.4113C152.32 87.5372 152.903 87.705 153.442 87.9988C153.98 88.2506 154.383 88.6283 154.697 89.0479C155.101 89.5515 155.281 90.0551 155.281 90.6846ZM152.41 80.2351C152.41 79.8154 152.32 79.3958 152.186 78.9761C152.006 78.5984 151.782 78.2207 151.468 77.9269C151.154 77.6332 150.795 77.4233 150.347 77.2555C149.898 77.0876 149.405 77.0037 148.866 77.0037C148.328 77.0037 147.835 77.0876 147.386 77.2555C146.938 77.4233 146.579 77.6751 146.265 77.9689C145.951 78.2627 145.727 78.5984 145.547 79.0181C145.368 79.3958 145.278 79.8154 145.278 80.277C145.278 80.7387 145.368 81.1164 145.502 81.536C145.682 81.9137 145.906 82.2914 146.175 82.5852C146.444 82.8789 146.848 83.1307 147.252 83.3406C147.7 83.5084 148.194 83.6343 148.732 83.6343C149.315 83.6343 149.808 83.5504 150.257 83.3406C150.705 83.1727 151.109 82.9209 151.423 82.5852C151.737 82.2914 151.961 81.9137 152.141 81.4941C152.32 81.1164 152.41 80.6547 152.41 80.2351Z" fill="#9AC477"/>
<path d="M157.972 76.1224C158.107 76.1224 158.152 76.2064 158.152 76.3323V77.6752C158.152 77.927 158.241 77.927 158.376 77.7171C158.735 77.2135 159.228 76.7939 159.811 76.4582C160.394 76.0805 161.022 75.9126 161.74 75.9126C161.874 75.9126 162.009 75.9126 162.188 75.9126C162.368 75.9126 162.502 75.9546 162.592 75.9965C162.772 76.0385 162.816 76.1644 162.816 76.2903L162.592 77.1296C162.592 77.2975 162.458 77.3394 162.278 77.2975C162.188 77.2975 162.054 77.2555 161.919 77.2555C161.785 77.2555 161.65 77.2555 161.516 77.2555C160.439 77.2555 159.632 77.5912 159.094 78.2627C158.51 78.9341 158.241 79.8154 158.241 80.8226V88.2085C158.241 88.3344 158.196 88.4184 158.062 88.4184H157.21C157.03 88.4184 156.985 88.3764 156.985 88.2505V76.3323C156.985 76.2064 157.075 76.1224 157.21 76.1224H157.972Z" fill="#9AC477"/>
<path d="M174.209 84.0121C174.209 85.4809 173.76 86.572 172.908 87.3694C172.056 88.1667 170.845 88.5444 169.32 88.5444C167.705 88.5444 166.494 88.1248 165.642 87.3274C164.789 86.5301 164.386 85.4389 164.386 84.0541V80.445C164.386 79.1021 164.834 78.0529 165.687 77.2136C166.584 76.3743 167.75 75.9966 169.32 75.9966C170.845 75.9966 172.011 76.4162 172.908 77.2136C173.76 78.0109 174.209 79.1021 174.209 80.487V84.0121ZM172.953 80.5289C172.953 79.5217 172.639 78.6824 172.056 78.0109C171.473 77.3395 170.576 77.0457 169.365 77.0457C168.288 77.0457 167.391 77.3815 166.718 78.0109C166.045 78.6404 165.687 79.4798 165.687 80.487V84.0121C165.687 85.0612 166 85.9425 166.628 86.572C167.256 87.2015 168.153 87.5372 169.365 87.5372C170.576 87.5372 171.473 87.2015 172.056 86.572C172.639 85.9425 172.953 85.0612 172.953 83.9701V80.5289Z" fill="#9AC477"/>
<path d="M186.723 88.3765H185.915C185.781 88.3765 185.736 88.3345 185.736 88.2086V87.1595C185.736 86.8657 185.646 86.8238 185.422 87.0336C185.018 87.5372 184.435 87.8729 183.807 88.1247C183.134 88.3765 182.462 88.5024 181.744 88.5024C180.847 88.5024 180.129 88.3765 179.546 88.1247C178.963 87.8729 178.515 87.5372 178.156 87.0756C177.797 86.6559 177.573 86.1523 177.393 85.6068C177.259 85.0612 177.169 84.4737 177.169 83.8862V76.2904C177.169 76.1645 177.214 76.0806 177.348 76.0806H178.245C178.38 76.0806 178.425 76.1645 178.425 76.2904V83.9701C178.425 84.4317 178.47 84.8934 178.604 85.313C178.739 85.7327 178.918 86.1103 179.232 86.4461C179.501 86.7818 179.905 87.0336 180.353 87.2015C180.802 87.3693 181.385 87.4952 182.058 87.4952C182.596 87.4952 183.089 87.4113 183.538 87.2434C183.987 87.0756 184.345 86.8238 184.659 86.488C184.973 86.1523 185.242 85.8166 185.377 85.355C185.556 84.9353 185.646 84.4737 185.646 83.9701V76.2904C185.646 76.1645 185.736 76.0806 185.87 76.0806H186.678C186.812 76.0806 186.902 76.1645 186.902 76.2904V88.1667C186.947 88.3345 186.857 88.3765 186.723 88.3765Z" fill="#9AC477"/>
<path d="M199.955 83.9283C199.955 84.4738 199.865 85.0614 199.686 85.6069C199.506 86.1525 199.237 86.6561 198.878 87.1177C198.519 87.5374 198.026 87.9151 197.443 88.1669C196.86 88.4187 196.142 88.5865 195.29 88.5865C194.483 88.5865 193.81 88.4606 193.227 88.2088C192.644 87.957 192.15 87.6213 191.747 87.1597C191.567 86.9918 191.433 86.9918 191.433 87.2856V93.3707C191.433 93.4966 191.343 93.5386 191.208 93.5386H190.356C190.222 93.5386 190.132 93.4966 190.132 93.3707V76.3743C190.132 76.2484 190.222 76.1645 190.356 76.1645H191.119C191.253 76.1645 191.343 76.2484 191.343 76.3743V77.4235C191.343 77.6333 191.433 77.6333 191.657 77.4654C192.016 77.0458 192.509 76.71 193.137 76.4163C193.765 76.1645 194.438 76.0386 195.2 76.0386C196.725 76.0386 197.891 76.4582 198.744 77.2556C199.596 78.0949 200 79.1441 200 80.445V83.9283H199.955ZM198.699 80.487C198.699 79.4379 198.385 78.6405 197.802 77.969C197.219 77.3395 196.277 77.0038 195.021 77.0038C193.944 77.0038 193.047 77.3395 192.374 77.969C191.702 78.5985 191.343 79.3959 191.343 80.4031V84.0122C191.343 84.5158 191.433 84.9355 191.612 85.3551C191.791 85.7748 192.061 86.1525 192.374 86.4882C192.688 86.8239 193.092 87.0757 193.541 87.2436C193.989 87.4115 194.483 87.5374 195.021 87.5374C195.649 87.5374 196.232 87.4534 196.68 87.2436C197.129 87.0757 197.533 86.8239 197.802 86.4882C198.071 86.1525 198.295 85.7748 198.43 85.3551C198.564 84.9355 198.654 84.4319 198.654 83.9702V80.487H198.699Z" fill="#9AC477"/>
<path d="M187.31 90.314H156.72V92.1571H187.31V90.314Z" fill="url(#paint43_linear)"/>
<defs>
<linearGradient id="paint0_linear" x1="31.7251" y1="13.1052" x2="39.1635" y2="13.1052" gradientUnits="userSpaceOnUse">
<stop stop-color="#97C15A"/>
<stop offset="1" stop-color="#405C40"/>
</linearGradient>
<linearGradient id="paint1_linear" x1="41.3812" y1="8.83226" x2="48.8243" y2="8.83226" gradientUnits="userSpaceOnUse">
<stop stop-color="#97C15A"/>
<stop offset="1" stop-color="#405C40"/>
</linearGradient>
<linearGradient id="paint2_linear" x1="4.7823" y1="23.9267" x2="18.4017" y2="23.9267" gradientUnits="userSpaceOnUse">
<stop stop-color="#97C15A"/>
<stop offset="1" stop-color="#405C40"/>
</linearGradient>
<linearGradient id="paint3_linear" x1="37.9967" y1="40.7005" x2="46.1423" y2="40.7005" gradientUnits="userSpaceOnUse">
<stop stop-color="#97C15A"/>
<stop offset="1" stop-color="#405C40"/>
</linearGradient>
<linearGradient id="paint4_linear" x1="0.026423" y1="32.9238" x2="10.449" y2="32.9238" gradientUnits="userSpaceOnUse">
<stop stop-color="#97C15A"/>
<stop offset="1" stop-color="#405C40"/>
</linearGradient>
<linearGradient id="paint5_linear" x1="59.081" y1="50.9272" x2="65.7203" y2="50.9272" gradientUnits="userSpaceOnUse">
<stop stop-color="#97C15A"/>
<stop offset="1" stop-color="#405C40"/>
</linearGradient>
<linearGradient id="paint6_linear" x1="3.85036" y1="42.3705" x2="16.4501" y2="42.3705" gradientUnits="userSpaceOnUse">
<stop stop-color="#97C15A"/>
<stop offset="1" stop-color="#405C40"/>
</linearGradient>
<linearGradient id="paint7_linear" x1="5.9915" y1="50.5025" x2="19.1447" y2="50.5025" gradientUnits="userSpaceOnUse">
<stop stop-color="#97C15A"/>
<stop offset="1" stop-color="#405C40"/>
</linearGradient>
<linearGradient id="paint8_linear" x1="21.0293" y1="58.838" x2="33.8828" y2="58.838" gradientUnits="userSpaceOnUse">
<stop stop-color="#97C15A"/>
<stop offset="1" stop-color="#405C40"/>
</linearGradient>
<linearGradient id="paint9_linear" x1="47.7282" y1="55.7497" x2="58.6284" y2="55.7497" gradientUnits="userSpaceOnUse">
<stop stop-color="#97C15A"/>
<stop offset="1" stop-color="#405C40"/>
</linearGradient>
<linearGradient id="paint10_linear" x1="11.6924" y1="36.8421" x2="21.3162" y2="36.8421" gradientUnits="userSpaceOnUse">
<stop stop-color="#97C15A"/>
<stop offset="1" stop-color="#405C40"/>
</linearGradient>
<linearGradient id="paint11_linear" x1="23.2185" y1="68.6896" x2="28.8406" y2="68.6896" gradientUnits="userSpaceOnUse">
<stop stop-color="#97C15A"/>
<stop offset="1" stop-color="#405C40"/>
</linearGradient>
<linearGradient id="paint12_linear" x1="23.8444" y1="21.7765" x2="31.9959" y2="21.7765" gradientUnits="userSpaceOnUse">
<stop stop-color="#97C15A"/>
<stop offset="1" stop-color="#405C40"/>
</linearGradient>
<linearGradient id="paint13_linear" x1="51.0631" y1="61.2535" x2="69.0678" y2="61.2535" gradientUnits="userSpaceOnUse">
<stop stop-color="#97C15A"/>
<stop offset="1" stop-color="#405C40"/>
</linearGradient>
<linearGradient id="paint14_linear" x1="13.0113" y1="13.0671" x2="20.3475" y2="13.0671" gradientUnits="userSpaceOnUse">
<stop stop-color="#97C15A"/>
<stop offset="1" stop-color="#405C40"/>
</linearGradient>
<linearGradient id="paint15_linear" x1="72.3202" y1="30.1451" x2="84.8629" y2="30.1451" gradientUnits="userSpaceOnUse">
<stop stop-color="#97C15A"/>
<stop offset="1" stop-color="#405C40"/>
</linearGradient>
<linearGradient id="paint16_linear" x1="25.3224" y1="10.4916" x2="30.5227" y2="10.4916" gradientUnits="userSpaceOnUse">
<stop stop-color="#97C15A"/>
<stop offset="1" stop-color="#405C40"/>
</linearGradient>
<linearGradient id="paint17_linear" x1="50.4312" y1="11.2666" x2="55.9273" y2="11.2666" gradientUnits="userSpaceOnUse">
<stop stop-color="#97C15A"/>
<stop offset="1" stop-color="#405C40"/>
</linearGradient>
<linearGradient id="paint18_linear" x1="75.624" y1="42.0876" x2="86.4482" y2="42.0876" gradientUnits="userSpaceOnUse">
<stop stop-color="#97C15A"/>
<stop offset="1" stop-color="#405C40"/>
</linearGradient>
<linearGradient id="paint19_linear" x1="38.211" y1="32.2065" x2="41.9661" y2="32.2065" gradientUnits="userSpaceOnUse">
<stop stop-color="#97C15A"/>
<stop offset="1" stop-color="#405C40"/>
</linearGradient>
<linearGradient id="paint20_linear" x1="64.9016" y1="20.8516" x2="76.9335" y2="20.8516" gradientUnits="userSpaceOnUse">
<stop stop-color="#97C15A"/>
<stop offset="1" stop-color="#405C40"/>
</linearGradient>
<linearGradient id="paint21_linear" x1="57.4042" y1="15.3947" x2="60.9338" y2="15.3947" gradientUnits="userSpaceOnUse">
<stop stop-color="#97C15A"/>
<stop offset="1" stop-color="#405C40"/>
</linearGradient>
<linearGradient id="paint22_linear" x1="69.2266" y1="9.37619" x2="72.9387" y2="9.37619" gradientUnits="userSpaceOnUse">
<stop stop-color="#97C15A"/>
<stop offset="1" stop-color="#405C40"/>
</linearGradient>
<linearGradient id="paint23_linear" x1="39.5503" y1="24.2279" x2="43.2015" y2="24.2279" gradientUnits="userSpaceOnUse">
<stop stop-color="#97C15A"/>
<stop offset="1" stop-color="#405C40"/>
</linearGradient>
<linearGradient id="paint24_linear" x1="71.3869" y1="44.4903" x2="78.2271" y2="44.4903" gradientUnits="userSpaceOnUse">
<stop stop-color="#97C15A"/>
<stop offset="1" stop-color="#405C40"/>
</linearGradient>
<linearGradient id="paint25_linear" x1="21.0711" y1="34.0346" x2="25.8657" y2="34.0346" gradientUnits="userSpaceOnUse">
<stop stop-color="#97C15A"/>
<stop offset="1" stop-color="#405C40"/>
</linearGradient>
<linearGradient id="paint26_linear" x1="35.075" y1="37.1959" x2="37.4164" y2="37.1959" gradientUnits="userSpaceOnUse">
<stop stop-color="#97C15A"/>
<stop offset="1" stop-color="#405C40"/>
</linearGradient>
<linearGradient id="paint27_linear" x1="76.6187" y1="24.6264" x2="78.9342" y2="24.6264" gradientUnits="userSpaceOnUse">
<stop stop-color="#97C15A"/>
<stop offset="1" stop-color="#405C40"/>
</linearGradient>
<linearGradient id="paint28_linear" x1="5.9433" y1="46.7395" x2="8.26645" y2="46.7395" gradientUnits="userSpaceOnUse">
<stop stop-color="#97C15A"/>
<stop offset="1" stop-color="#405C40"/>
</linearGradient>
<linearGradient id="paint29_linear" x1="28.9132" y1="29.1479" x2="31.2258" y2="29.1479" gradientUnits="userSpaceOnUse">
<stop stop-color="#97C15A"/>
<stop offset="1" stop-color="#405C40"/>
</linearGradient>
<linearGradient id="paint30_linear" x1="62.4063" y1="8.98755" x2="64.7313" y2="8.98755" gradientUnits="userSpaceOnUse">
<stop stop-color="#97C15A"/>
<stop offset="1" stop-color="#405C40"/>
</linearGradient>
<linearGradient id="paint31_linear" x1="20.1486" y1="8.98819" x2="22.4794" y2="8.98819" gradientUnits="userSpaceOnUse">
<stop stop-color="#97C15A"/>
<stop offset="1" stop-color="#405C40"/>
</linearGradient>
<linearGradient id="paint32_linear" x1="27.2136" y1="46.7382" x2="29.5488" y2="46.7382" gradientUnits="userSpaceOnUse">
<stop stop-color="#97C15A"/>
<stop offset="1" stop-color="#405C40"/>
</linearGradient>
<linearGradient id="paint33_linear" x1="7.49356" y1="14.9202" x2="9.83464" y2="14.9202" gradientUnits="userSpaceOnUse">
<stop stop-color="#97C15A"/>
<stop offset="1" stop-color="#405C40"/>
</linearGradient>
<linearGradient id="paint34_linear" x1="19.8581" y1="27.9455" x2="22.1905" y2="27.9455" gradientUnits="userSpaceOnUse">
<stop stop-color="#97C15A"/>
<stop offset="1" stop-color="#405C40"/>
</linearGradient>
<linearGradient id="paint35_linear" x1="38.4335" y1="1.72501" x2="40.7552" y2="1.72501" gradientUnits="userSpaceOnUse">
<stop stop-color="#97C15A"/>
<stop offset="1" stop-color="#405C40"/>
</linearGradient>
<linearGradient id="paint36_linear" x1="49.1846" y1="5.0293" x2="51.5181" y2="5.0293" gradientUnits="userSpaceOnUse">
<stop stop-color="#97C15A"/>
<stop offset="1" stop-color="#405C40"/>
</linearGradient>
<linearGradient id="paint37_linear" x1="3.06886" y1="25.905" x2="5.40348" y2="25.905" gradientUnits="userSpaceOnUse">
<stop stop-color="#97C15A"/>
<stop offset="1" stop-color="#405C40"/>
</linearGradient>
<linearGradient id="paint38_linear" x1="38.9439" y1="19.802" x2="41.2644" y2="19.802" gradientUnits="userSpaceOnUse">
<stop stop-color="#97C15A"/>
<stop offset="1" stop-color="#405C40"/>
</linearGradient>
<linearGradient id="paint39_linear" x1="53.1445" y1="23.4237" x2="55.4722" y2="23.4237" gradientUnits="userSpaceOnUse">
<stop stop-color="#97C15A"/>
<stop offset="1" stop-color="#405C40"/>
</linearGradient>
<linearGradient id="paint40_linear" x1="79.8463" y1="34.828" x2="82.1679" y2="34.828" gradientUnits="userSpaceOnUse">
<stop stop-color="#97C15A"/>
<stop offset="1" stop-color="#405C40"/>
</linearGradient>
<linearGradient id="paint41_linear" x1="59.7871" y1="32.3896" x2="62.0995" y2="32.3896" gradientUnits="userSpaceOnUse">
<stop stop-color="#97C15A"/>
<stop offset="1" stop-color="#405C40"/>
</linearGradient>
<linearGradient id="paint42_linear" x1="31.4065" y1="91.2431" x2="150.811" y2="91.2431" gradientUnits="userSpaceOnUse">
<stop stop-color="#97C15A"/>
<stop offset="1" stop-color="#405C40"/>
</linearGradient>
<linearGradient id="paint43_linear" x1="156.72" y1="91.2431" x2="187.312" y2="91.2431" gradientUnits="userSpaceOnUse">
<stop stop-color="#405C40"/>
<stop offset="1" stop-color="#97C15A"/>
</linearGradient>
</defs>
</svg>
