<svg width="112" height="22" viewBox="0 0 112 22" fill="none" xmlns="http://www.w3.org/2000/svg">
<path d="M0.864 5.096V17H4.576V12.28H12.96V9.56H4.576V7.8H13.168V5.096H0.864ZM15.2853 5.096V17H27.2853V14.04H19.0133V5.096H15.2853ZM32.9345 5.096H29.2065V17H32.9345V5.096ZM44.2276 13.032C48.4836 13.032 49.7796 11.256 49.7796 9.128V8.968C49.7796 6.792 48.4996 5.096 44.2276 5.096H35.2996V17H39.0276V13.032H44.2276ZM39.0276 7.8H44.1636C45.3476 7.8 45.8916 8.264 45.8916 9.064V9.112C45.8916 9.912 45.3316 10.36 44.1636 10.36H39.0276V7.8ZM60.477 13.032C64.733 13.032 66.029 11.256 66.029 9.128V8.968C66.029 6.792 64.749 5.096 60.477 5.096H51.549V17H55.277V13.032H60.477ZM55.277 7.8H60.413C61.597 7.8 62.141 8.264 62.141 9.064V9.112C62.141 9.912 61.581 10.36 60.413 10.36H55.277V7.8ZM67.7984 5.096V17H80.5024V14.232H71.4784V12.28H80.1344V9.56H71.4784V7.8H80.3424V5.096H67.7984ZM86.3226 12.776H91.1866C93.0266 12.776 93.6666 13.416 93.6666 14.872V16.248C93.6666 16.664 93.7306 16.856 93.8426 17H97.6346V16.92C97.5386 16.728 97.4106 16.424 97.4106 15.464V13.72C97.4106 12.2 96.3706 11.304 95.1546 10.984C95.9386 10.744 97.3626 10.072 97.3626 8.376V8.184C97.3626 6.472 96.1626 5.096 92.1946 5.096H82.5946V17H86.3226V12.776ZM86.3226 7.8H91.9706C93.0586 7.8 93.4746 8.328 93.4746 8.952V8.968C93.4746 9.624 93.0266 10.136 91.9706 10.136H86.3226V7.8Z" fill="black"/>
<path d="M98.15 1.592H100.07V5H101.48V1.592H103.406V0.536H98.15V1.592ZM104.119 5H105.463V1.91L107.221 5H107.971L109.729 1.91V5H111.109V0.536H109.195L107.647 3.314L106.105 0.536H104.119V5Z" fill="black"/>
</svg>
