<svg width="16" height="16" viewBox="0 0 16 16" fill="none" xmlns="http://www.w3.org/2000/svg">
<path d="M8 0C6.41775 0 4.87103 0.469192 3.55544 1.34824C2.23985 2.22729 1.21447 3.47672 0.608967 4.93853C0.0034663 6.40034 -0.15496 8.00887 0.153721 9.56072C0.462403 11.1126 1.22433 12.538 2.34315 13.6569C3.46197 14.7757 4.88743 15.5376 6.43928 15.8463C7.99113 16.155 9.59966 15.9965 11.0615 15.391C12.5233 14.7855 13.7727 13.7602 14.6518 12.4446C15.5308 11.129 16 9.58225 16 8C16 5.87827 15.1571 3.84344 13.6569 2.34314C12.1566 0.842854 10.1217 0 8 0ZM14.5455 8C14.5406 9.48617 14.0273 10.9259 13.0909 12.08L3.92 2.90909C4.88153 2.14259 6.03954 1.66245 7.26134 1.52367C8.48314 1.38489 9.71933 1.59309 10.8283 2.12441C11.9372 2.65573 12.8741 3.48869 13.5315 4.52785C14.1889 5.56701 14.5403 6.77035 14.5455 8ZM1.45455 8C1.4594 6.51382 1.97268 5.07406 2.90909 3.92L12.08 13.0909C11.1185 13.8574 9.96047 14.3375 8.73866 14.4763C7.51686 14.6151 6.28067 14.4069 5.17173 13.8756C4.06278 13.3443 3.12593 12.5113 2.46851 11.4721C1.81108 10.433 1.45968 9.22965 1.45455 8Z" fill="#DC0A17"/>
</svg>
