<svg width="1181" height="146" viewBox="0 0 1181 146" fill="none" xmlns="http://www.w3.org/2000/svg">
<path d="M0.841402 0.919997V146H46.0814V88.475H148.261V55.325H46.0814V33.875H150.796V0.919997H0.841402ZM176.6 0.919997V146H322.85V109.925H222.035V0.919997H176.6ZM391.701 0.919997H346.266V146H391.701V0.919997ZM529.336 97.64C581.206 97.64 597.001 75.995 597.001 50.06V48.11C597.001 21.59 581.401 0.919997 529.336 0.919997H420.526V146H465.961V97.64H529.336ZM465.961 33.875H528.556C542.986 33.875 549.616 39.53 549.616 49.28V49.865C549.616 59.615 542.791 65.075 528.556 65.075H465.961V33.875ZM727.375 97.64C779.245 97.64 795.04 75.995 795.04 50.06V48.11C795.04 21.59 779.44 0.919997 727.375 0.919997H618.565V146H664V97.64H727.375ZM664 33.875H726.595C741.025 33.875 747.655 39.53 747.655 49.28V49.865C747.655 59.615 740.83 65.075 726.595 65.075H664V33.875ZM816.604 0.919997V146H971.434V112.265H861.454V88.475H966.949V55.325H861.454V33.875H969.484V0.919997H816.604ZM1042.37 94.52H1101.65C1124.07 94.52 1131.87 102.32 1131.87 120.065V136.835C1131.87 141.905 1132.65 144.245 1134.02 146H1180.23V145.025C1179.06 142.685 1177.5 138.98 1177.5 127.28V106.025C1177.5 87.5 1164.83 76.58 1150.01 72.68C1159.56 69.755 1176.92 61.565 1176.92 40.895V38.555C1176.92 17.69 1162.29 0.919997 1113.93 0.919997H996.933V146H1042.37V94.52ZM1042.37 33.875H1111.2C1124.46 33.875 1129.53 40.31 1129.53 47.915V48.11C1129.53 56.105 1124.07 62.345 1111.2 62.345H1042.37V33.875Z" fill="#F0F0F0"/>
</svg>
