<svg width="16" height="16" viewBox="0 0 16 16" fill="none" xmlns="http://www.w3.org/2000/svg">
<g clip-path="url(#clip0)">
<path d="M14.3832 6.38394C14.3832 2.7824 11.4013 -0.119485 7.77314 0.0037873C4.59473 0.113733 1.95271 2.59583 1.64619 5.76092C1.58622 6.39394 1.61954 7.00697 1.73282 7.59334C1.73282 7.59334 1.74281 7.66331 1.7728 7.79324C1.87275 8.23302 2.01601 8.65948 2.20258 9.05928C2.8456 10.5785 4.32486 13.1173 7.64321 15.8726C7.84977 16.0425 8.14629 16.0425 8.35285 15.8726C11.6745 13.1173 13.1505 10.5785 13.7935 9.05928C13.9801 8.65948 14.1233 8.23302 14.2233 7.79324C14.2532 7.66331 14.2632 7.59334 14.2632 7.59334C14.3432 7.2002 14.3832 6.79707 14.3832 6.38394ZM7.9997 10.3386C5.8541 10.3386 4.1183 8.59951 4.1183 6.45724C4.1183 4.31164 5.85743 2.57584 7.9997 2.57584C10.142 2.57584 11.8811 4.31497 11.8811 6.45724C11.8811 8.59951 10.1453 10.3386 7.9997 10.3386Z" fill="#405C40"/>
</g>
<defs>
<clipPath id="clip0">
<rect width="16" height="16" fill="white"/>
</clipPath>
</defs>
</svg>
