<svg width="24" height="24" viewBox="0 0 24 24" fill="none" xmlns="http://www.w3.org/2000/svg">
<path d="M12 0C9.62663 0 7.30655 0.703787 5.33316 2.02236C3.35977 3.34094 1.8217 5.21508 0.913451 7.4078C0.00519945 9.60051 -0.232441 12.0133 0.230582 14.3411C0.693604 16.6689 1.83649 18.807 3.51472 20.4853C5.19295 22.1635 7.33115 23.3064 9.65892 23.7694C11.9867 24.2324 14.3995 23.9948 16.5922 23.0865C18.7849 22.1783 20.6591 20.6402 21.9776 18.6668C23.2962 16.6934 24 14.3734 24 12C24 8.8174 22.7357 5.76515 20.4853 3.51472C18.2348 1.26428 15.1826 0 12 0ZM12 21.8182C10.0581 21.8182 8.15991 21.2423 6.54531 20.1635C4.93072 19.0847 3.6723 17.5513 2.92919 15.7573C2.18607 13.9632 1.99164 11.9891 2.37048 10.0846C2.74931 8.18002 3.6844 6.43059 5.0575 5.0575C6.4306 3.6844 8.18003 2.74931 10.0846 2.37047C11.9891 1.99163 13.9632 2.18607 15.7573 2.92918C17.5513 3.6723 19.0847 4.93072 20.1635 6.54531C21.2424 8.1599 21.8182 10.0581 21.8182 12C21.8182 14.6039 20.7838 17.1012 18.9425 18.9425C17.1012 20.7838 14.6039 21.8182 12 21.8182Z" fill="#C9AB7E"/>
<path d="M18.8018 8.25821C18.7056 8.15162 18.5893 8.06506 18.4596 8.00351C18.3299 7.94196 18.1893 7.90662 18.0458 7.89953C17.9024 7.89243 17.759 7.91372 17.6239 7.96216C17.4887 8.01061 17.3644 8.08527 17.2582 8.18185L10.6636 14.3018L7.31454 10.9528C7.10984 10.7481 6.8322 10.6331 6.54272 10.6331C6.25323 10.6331 5.9756 10.7481 5.7709 10.9528C5.5662 11.1575 5.4512 11.4351 5.4512 11.7246C5.4512 12.0141 5.5662 12.2917 5.7709 12.4964L9.86181 16.5873C10.0614 16.786 10.3302 16.8998 10.6118 16.9049C10.8934 16.91 11.1661 16.806 11.3727 16.6146L18.7418 9.81821C18.8497 9.72067 18.937 9.60253 18.9986 9.47075C19.0602 9.33897 19.0948 9.1962 19.1004 9.05085C19.106 8.9055 19.0824 8.76049 19.0312 8.62437C18.9799 8.48825 18.9019 8.36375 18.8018 8.25821Z" fill="#C9AB7E"/>
</svg>
