<svg width="26" height="24" viewBox="0 0 26 24" fill="none" xmlns="http://www.w3.org/2000/svg">
<path d="M7.63052 7.09091C7.63073 6.26849 7.36539 5.46799 6.87399 4.80852C6.38258 4.14906 5.69138 3.66589 4.90325 3.43091V1.09091C4.90325 0.801582 4.78831 0.524105 4.58373 0.31952C4.37914 0.114935 4.10166 0 3.81234 0C3.52301 0 3.24553 0.114935 3.04095 0.31952C2.83636 0.524105 2.72143 0.801582 2.72143 1.09091V3.43091C1.93483 3.6668 1.24524 4.15001 0.755004 4.80883C0.264765 5.46765 0 6.26697 0 7.08818C0 7.90939 0.264765 8.70871 0.755004 9.36754C1.24524 10.0264 1.93483 10.5096 2.72143 10.7455V22.9091C2.72143 23.1984 2.83636 23.4759 3.04095 23.6805C3.24553 23.8851 3.52301 24 3.81234 24C4.10166 24 4.37914 23.8851 4.58373 23.6805C4.78831 23.4759 4.90325 23.1984 4.90325 22.9091V10.7509C5.69138 10.5159 6.38258 10.0328 6.87399 9.3733C7.36539 8.71383 7.63073 7.91333 7.63052 7.09091ZM3.81234 8.72727C3.48869 8.72727 3.17232 8.6313 2.90322 8.4515C2.63412 8.27169 2.42439 8.01612 2.30053 7.71712C2.17668 7.41811 2.14428 7.08909 2.20742 6.77167C2.27056 6.45425 2.4264 6.16268 2.65525 5.93383C2.8841 5.70498 3.17568 5.54913 3.4931 5.48599C3.81052 5.42285 4.13954 5.45525 4.43855 5.57911C4.73755 5.70296 4.99312 5.9127 5.17292 6.18179C5.35273 6.45089 5.4487 6.76727 5.4487 7.09091C5.4487 7.5249 5.2763 7.94111 4.96942 8.24799C4.66254 8.55487 4.24633 8.72727 3.81234 8.72727Z" fill="#C9AB7E"/>
<path d="M16.3578 16.9091C16.358 16.0867 16.0927 15.2862 15.6012 14.6267C15.1098 13.9672 14.4186 13.4841 13.6305 13.2491V1.09091C13.6305 0.801582 13.5156 0.524105 13.311 0.31952C13.1064 0.114935 12.8289 0 12.5396 0C12.2503 0 11.9728 0.114935 11.7682 0.31952C11.5636 0.524105 11.4487 0.801582 11.4487 1.09091V13.2491C10.6621 13.485 9.97251 13.9682 9.48227 14.627C8.99203 15.2858 8.72726 16.0852 8.72726 16.9064C8.72726 17.7276 8.99203 18.5269 9.48227 19.1857C9.97251 19.8445 10.6621 20.3277 11.4487 20.5636V22.9091C11.4487 23.1984 11.5636 23.4759 11.7682 23.6805C11.9728 23.8851 12.2503 24 12.5396 24C12.8289 24 13.1064 23.8851 13.311 23.6805C13.5156 23.4759 13.6305 23.1984 13.6305 22.9091V20.5691C14.4186 20.3341 15.1098 19.8509 15.6012 19.1915C16.0927 18.532 16.358 17.7315 16.3578 16.9091ZM12.5396 18.5455C12.216 18.5455 11.8996 18.4495 11.6305 18.2697C11.3614 18.0899 11.1517 17.8343 11.0278 17.5353C10.9039 17.2363 10.8715 16.9073 10.9347 16.5899C10.9978 16.2724 11.1537 15.9809 11.3825 15.752C11.6114 15.5232 11.9029 15.3673 12.2204 15.3042C12.5378 15.241 12.8668 15.2734 13.1658 15.3973C13.4648 15.5211 13.7204 15.7309 13.9002 16C14.08 16.2691 14.176 16.5854 14.176 16.9091C14.176 17.3431 14.0036 17.7593 13.6967 18.0662C13.3898 18.3731 12.9736 18.5455 12.5396 18.5455Z" fill="#C9AB7E"/>
<path d="M25.0851 7.09091C25.0853 6.26849 24.8199 5.46799 24.3285 4.80852C23.8371 4.14906 23.1459 3.66589 22.3578 3.43091V1.09091C22.3578 0.801582 22.2429 0.524105 22.0383 0.31952C21.8337 0.114935 21.5562 0 21.2669 0C20.9776 0 20.7001 0.114935 20.4955 0.31952C20.2909 0.524105 20.176 0.801582 20.176 1.09091V3.43091C19.3894 3.6668 18.6998 4.15001 18.2096 4.80883C17.7193 5.46765 17.4546 6.26697 17.4546 7.08818C17.4546 7.90939 17.7193 8.70871 18.2096 9.36754C18.6998 10.0264 19.3894 10.5096 20.176 10.7455V22.9091C20.176 23.1984 20.2909 23.4759 20.4955 23.6805C20.7001 23.8851 20.9776 24 21.2669 24C21.5562 24 21.8337 23.8851 22.0383 23.6805C22.2429 23.4759 22.3578 23.1984 22.3578 22.9091V10.7509C23.1459 10.5159 23.8371 10.0328 24.3285 9.3733C24.8199 8.71383 25.0853 7.91333 25.0851 7.09091ZM21.2669 8.72727C20.9433 8.72727 20.6269 8.6313 20.3578 8.4515C20.0887 8.27169 19.8789 8.01612 19.7551 7.71712C19.6312 7.41811 19.5988 7.08909 19.662 6.77167C19.7251 6.45425 19.881 6.16268 20.1098 5.93383C20.3387 5.70498 20.6302 5.54913 20.9477 5.48599C21.2651 5.42285 21.5941 5.45525 21.8931 5.57911C22.1921 5.70296 22.4477 5.9127 22.6275 6.18179C22.8073 6.45089 22.9033 6.76727 22.9033 7.09091C22.9033 7.5249 22.7309 7.94111 22.424 8.24799C22.1171 8.55487 21.7009 8.72727 21.2669 8.72727Z" fill="#C9AB7E"/>
</svg>
