<svg width="19" height="24" viewBox="0 0 19 24" fill="none" xmlns="http://www.w3.org/2000/svg">
<path d="M9.10348 18.2069C8.89639 18.2063 8.69707 18.128 8.54486 17.9876C8.27589 17.76 2.48279 12.3517 2.48279 6.62069C2.48279 4.86477 3.18032 3.18077 4.42194 1.93915C5.66356 0.697535 7.34756 0 9.10348 0C10.8594 0 12.5434 0.697535 13.785 1.93915C15.0266 3.18077 15.7242 4.86477 15.7242 6.62069C15.7242 12.2772 9.93106 17.7559 9.66624 17.9834C9.51361 18.1263 9.31256 18.2062 9.10348 18.2069ZM9.10348 1.65517C7.78654 1.65517 6.52354 2.17832 5.59233 3.10954C4.66111 4.04075 4.13796 5.30375 4.13796 6.62069C4.13796 10.651 7.69244 14.7476 9.10348 16.2083C10.5062 14.731 14.069 10.6014 14.069 6.62069C14.069 5.30375 13.5458 4.04075 12.6146 3.10954C11.6834 2.17832 10.4204 1.65517 9.10348 1.65517Z" fill="#C9AB7E"/>
<path d="M9.10346 9.51723C8.53058 9.51723 7.97056 9.34735 7.49422 9.02907C7.01789 8.71079 6.64663 8.25841 6.4274 7.72914C6.20816 7.19986 6.1508 6.61746 6.26257 6.05558C6.37433 5.49371 6.6502 4.97759 7.05529 4.5725C7.46038 4.16741 7.9765 3.89154 8.53837 3.77978C9.10025 3.66801 9.68265 3.72538 10.2119 3.94461C10.7412 4.16384 11.1936 4.5351 11.5119 5.01144C11.8301 5.48777 12 6.04779 12 6.62067C12 7.38889 11.6948 8.12564 11.1516 8.66885C10.6084 9.21206 9.87168 9.51723 9.10346 9.51723ZM9.10346 5.3793C8.85794 5.3793 8.61793 5.4521 8.41379 5.58851C8.20965 5.72491 8.05054 5.91879 7.95658 6.14562C7.86262 6.37245 7.83804 6.62205 7.88594 6.86286C7.93383 7.10366 8.05207 7.32485 8.22568 7.49846C8.39929 7.67207 8.62048 7.7903 8.86128 7.8382C9.10209 7.8861 9.35168 7.86152 9.57852 7.76756C9.80535 7.6736 9.99923 7.51449 10.1356 7.31035C10.272 7.1062 10.3448 6.8662 10.3448 6.62067C10.3448 6.29144 10.2141 5.97569 9.98125 5.74289C9.74845 5.51008 9.4327 5.3793 9.10346 5.3793Z" fill="#C9AB7E"/>
<path d="M15.7241 24H2.48276C1.82429 24 1.19279 23.7384 0.727183 23.2728C0.261575 22.8072 0 22.1757 0 21.5172V8.27585C0 7.61738 0.261575 6.98588 0.727183 6.52027C1.19279 6.05467 1.82429 5.79309 2.48276 5.79309H3.31034C3.52983 5.79309 3.74033 5.88028 3.89554 6.03549C4.05074 6.19069 4.13793 6.40119 4.13793 6.62068C4.13793 6.84017 4.05074 7.05067 3.89554 7.20587C3.74033 7.36107 3.52983 7.44826 3.31034 7.44826H2.48276C2.26327 7.44826 2.05277 7.53545 1.89757 7.69066C1.74236 7.84586 1.65517 8.05636 1.65517 8.27585V21.5172C1.65517 21.7367 1.74236 21.9472 1.89757 22.1024C2.05277 22.2576 2.26327 22.3448 2.48276 22.3448H15.7241C15.9436 22.3448 16.1541 22.2576 16.3093 22.1024C16.4645 21.9472 16.5517 21.7367 16.5517 21.5172V8.27585C16.5517 8.05636 16.4645 7.84586 16.3093 7.69066C16.1541 7.53545 15.9436 7.44826 15.7241 7.44826H14.8966C14.6771 7.44826 14.4666 7.36107 14.3114 7.20587C14.1562 7.05067 14.069 6.84017 14.069 6.62068C14.069 6.40119 14.1562 6.19069 14.3114 6.03549C14.4666 5.88028 14.6771 5.79309 14.8966 5.79309H15.7241C16.3826 5.79309 17.0141 6.05467 17.4797 6.52027C17.9453 6.98588 18.2069 7.61738 18.2069 8.27585V21.5172C18.2069 22.1757 17.9453 22.8072 17.4797 23.2728C17.0141 23.7384 16.3826 24 15.7241 24Z" fill="#C9AB7E"/>
</svg>
