<svg width="25" height="24" viewBox="0 0 25 24" fill="none" xmlns="http://www.w3.org/2000/svg">
<path d="M20.8634 20.096C22.4365 18.3737 23.4737 16.2304 23.8481 13.928C24.2224 11.6257 23.9178 9.26416 22.9713 7.13221C22.0249 5.00026 20.4778 3.1903 18.5191 1.92366C16.5604 0.657025 14.275 -0.0113932 11.9424 0.000146942C9.6099 0.0116871 7.33126 0.702686 5.38518 1.98864C3.4391 3.2746 1.90993 5.09978 0.98465 7.24099C0.059374 9.38219 -0.2219 11.7466 0.175226 14.0451C0.572353 16.3437 1.63067 18.4767 3.22075 20.1833C4.34375 21.3876 5.70256 22.3479 7.21265 23.0045C8.72273 23.6612 10.3518 24 11.9984 24C13.6451 24 15.2741 23.6612 16.7842 23.0045C18.2943 22.3479 19.6531 21.3876 20.7761 20.1833L20.8634 20.096ZM12.0093 2.18056C13.8064 2.18352 15.5682 2.67957 17.1028 3.61466C18.6374 4.54975 19.886 5.88803 20.7125 7.48373C21.539 9.07942 21.9119 10.8713 21.7903 12.6643C21.6688 14.4572 21.0576 16.1824 20.0233 17.652C18.8538 16.402 17.4076 15.4435 15.8008 14.8534C16.5921 14.1022 17.1399 13.131 17.3736 12.0653C17.6073 10.9996 17.516 9.88824 17.1116 8.87491C16.7072 7.86158 16.0083 6.99278 15.105 6.38075C14.2018 5.76872 13.1359 5.44158 12.0448 5.44158C10.9538 5.44158 9.88779 5.76872 8.98457 6.38075C8.08136 6.99278 7.38241 7.86158 6.97801 8.87491C6.57362 9.88824 6.48236 10.9996 6.71602 12.0653C6.94968 13.131 7.49752 14.1022 8.28879 14.8534C6.66384 15.4506 5.20368 16.4247 4.02814 17.6956C2.98331 16.2281 2.36228 14.5015 2.23303 12.7047C2.10379 10.9079 2.4713 9.11021 3.29535 7.5083C4.1194 5.90639 5.36823 4.56202 6.90516 3.62234C8.4421 2.68266 10.2079 2.18387 12.0093 2.18056ZM8.77431 10.9091C8.77431 10.2618 8.96628 9.62892 9.32595 9.09064C9.68562 8.55236 10.1968 8.13283 10.7949 7.88508C11.393 7.63734 12.0512 7.57252 12.6861 7.69882C13.3211 7.82512 13.9043 8.13686 14.3621 8.59463C14.8198 9.0524 15.1316 9.63563 15.2579 10.2706C15.3842 10.9055 15.3193 11.5637 15.0716 12.1618C14.8239 12.7599 14.4043 13.2711 13.866 13.6307C13.3278 13.9904 12.6949 14.1824 12.0475 14.1824C11.1794 14.1824 10.3469 13.8375 9.73302 13.2237C9.11917 12.6098 8.77431 11.7773 8.77431 10.9091ZM5.50109 19.3268C6.31749 18.3956 7.32268 17.6488 8.44989 17.136C9.57711 16.6232 10.8005 16.3561 12.0389 16.3525C13.2773 16.3489 14.5023 16.6088 15.6324 17.1151C16.7626 17.6213 17.7722 18.3622 18.594 19.2886C16.8045 20.9166 14.4741 21.8219 12.0549 21.8289C9.63568 21.836 7.30007 20.9443 5.50109 19.3268Z" fill="#C9AB7E"/>
</svg>
