<svg width="24" height="24" viewBox="0 0 24 24" fill="none" xmlns="http://www.w3.org/2000/svg">
<path d="M20.7273 0H8.72727C7.85929 0 7.02686 0.344804 6.41311 0.958559C5.79935 1.57231 5.45455 2.40475 5.45455 3.27273V5.45455H3.27273C2.40475 5.45455 1.57231 5.79935 0.958559 6.41311C0.344804 7.02686 0 7.85929 0 8.72727V20.7273C0 21.5953 0.344804 22.4277 0.958559 23.0414C1.57231 23.6552 2.40475 24 3.27273 24H15.2727C16.1407 24 16.9731 23.6552 17.5869 23.0414C18.2007 22.4277 18.5455 21.5953 18.5455 20.7273V18.5455H20.7273C21.5953 18.5455 22.4277 18.2007 23.0414 17.5869C23.6552 16.9731 24 16.1407 24 15.2727V3.27273C24 2.40475 23.6552 1.57231 23.0414 0.958559C22.4277 0.344804 21.5953 0 20.7273 0ZM16.3636 20.7273C16.3636 21.0166 16.2487 21.2941 16.0441 21.4987C15.8395 21.7032 15.5621 21.8182 15.2727 21.8182H3.27273C2.9834 21.8182 2.70592 21.7032 2.50134 21.4987C2.29675 21.2941 2.18182 21.0166 2.18182 20.7273V8.72727C2.18182 8.43795 2.29675 8.16047 2.50134 7.95588C2.70592 7.7513 2.9834 7.63636 3.27273 7.63636H5.45455V15.2727C5.45455 16.1407 5.79935 16.9731 6.41311 17.5869C7.02686 18.2007 7.85929 18.5455 8.72727 18.5455H16.3636V20.7273ZM21.8182 15.2727C21.8182 15.5621 21.7032 15.8395 21.4987 16.0441C21.2941 16.2487 21.0166 16.3636 20.7273 16.3636H8.72727C8.43795 16.3636 8.16047 16.2487 7.95588 16.0441C7.7513 15.8395 7.63636 15.5621 7.63636 15.2727V3.27273C7.63636 2.9834 7.7513 2.70592 7.95588 2.50134C8.16047 2.29675 8.43795 2.18182 8.72727 2.18182H20.7273C21.0166 2.18182 21.2941 2.29675 21.4987 2.50134C21.7032 2.70592 21.8182 2.9834 21.8182 3.27273V15.2727Z" fill="#C9AB7E"/>
</svg>
