<svg width="20" height="24" viewBox="0 0 20 24" fill="none" xmlns="http://www.w3.org/2000/svg">
<path d="M9.96221 24C7.99187 24 6.06578 23.4157 4.4275 22.321C2.78923 21.2264 1.51235 19.6705 0.758332 17.8501C0.0043165 16.0298 -0.192968 14.0267 0.191425 12.0942C0.575819 10.1618 1.52463 8.38667 2.91787 6.99343C4.3111 5.60019 6.0862 4.65138 8.01868 4.26699C9.95116 3.88259 11.9542 4.07988 13.7746 4.83389C15.5949 5.58791 17.1508 6.86479 18.2455 8.50307C19.3401 10.1413 19.9244 12.0674 19.9244 14.0378C19.9244 16.6799 18.8748 19.2138 17.0065 21.0821C15.1383 22.9504 12.6043 24 9.96221 24ZM9.96221 5.88688C8.35011 5.88688 6.77422 6.36492 5.43381 7.26055C4.09341 8.15618 3.04869 9.42918 2.43176 10.9186C1.81484 12.4079 1.65343 14.0468 1.96793 15.6279C2.28243 17.209 3.05873 18.6614 4.19866 19.8013C5.33858 20.9412 6.79093 21.7175 8.37205 22.032C9.95317 22.3466 11.592 22.1851 13.0814 21.5682C14.5708 20.9513 15.8438 19.9066 16.7394 18.5662C17.6351 17.2258 18.1131 15.6499 18.1131 14.0378C18.1131 11.876 17.2543 9.80281 15.7258 8.27422C14.1972 6.74563 12.124 5.88688 9.96221 5.88688Z" fill="#C9AB7E"/>
<path d="M9.96217 14.9433C9.72198 14.9433 9.49162 14.8479 9.32178 14.678C9.15193 14.5082 9.05652 14.2778 9.05652 14.0376V9.50935C9.05652 9.26916 9.15193 9.0388 9.32178 8.86896C9.49162 8.69911 9.72198 8.6037 9.96217 8.6037C10.2024 8.6037 10.4327 8.69911 10.6026 8.86896C10.7724 9.0388 10.8678 9.26916 10.8678 9.50935V14.0376C10.8678 14.2778 10.7724 14.5082 10.6026 14.678C10.4327 14.8479 10.2024 14.9433 9.96217 14.9433Z" fill="#C9AB7E"/>
<path d="M13.132 1.81131H6.79243C6.55224 1.81131 6.32188 1.71589 6.15204 1.54605C5.9822 1.37621 5.88678 1.14585 5.88678 0.905655C5.88678 0.66546 5.9822 0.435104 6.15204 0.26526C6.32188 0.0954171 6.55224 0 6.79243 0H13.132C13.3722 0 13.6026 0.0954171 13.7724 0.26526C13.9423 0.435104 14.0377 0.66546 14.0377 0.905655C14.0377 1.14585 13.9423 1.37621 13.7724 1.54605C13.6026 1.71589 13.3722 1.81131 13.132 1.81131Z" fill="#C9AB7E"/>
<path d="M15.6815 7.85207C15.5053 7.85431 15.3323 7.80512 15.1837 7.71054C15.0351 7.61596 14.9173 7.48009 14.8447 7.31957C14.7721 7.15905 14.7479 6.98085 14.7751 6.80679C14.8023 6.63274 14.8796 6.47039 14.9977 6.33962L17.8912 2.99323C17.965 2.89113 18.0593 2.80554 18.168 2.74194C18.2767 2.67833 18.3975 2.6381 18.5227 2.62382C18.6478 2.60954 18.7746 2.62152 18.8948 2.65901C19.0151 2.69649 19.1262 2.75864 19.2211 2.8415C19.3159 2.92435 19.3925 3.02609 19.4458 3.14021C19.4991 3.25432 19.5281 3.37831 19.5308 3.50424C19.5335 3.63017 19.5099 3.75528 19.4615 3.87158C19.4131 3.98787 19.341 4.09279 19.2497 4.17964L16.3562 7.52603C16.2735 7.62537 16.1705 7.70587 16.0541 7.76211C15.9377 7.81834 15.8107 7.84902 15.6815 7.85207Z" fill="#C9AB7E"/>
</svg>
