<svg width="20" height="24" viewBox="0 0 20 24" fill="none" xmlns="http://www.w3.org/2000/svg">
<path d="M19.5743 9.5764C19.5743 4.17409 15.1016 -0.178739 9.65929 0.00616923C4.89166 0.171087 0.928635 3.89423 0.468864 8.64187C0.378909 9.5914 0.428884 10.5109 0.598799 11.3905C0.598799 11.3905 0.613792 11.4954 0.658769 11.6904C0.808695 12.35 1.02359 12.9897 1.30345 13.5894C2.26797 15.8683 4.48686 19.6764 9.46438 23.8093C9.77423 24.0642 10.219 24.0642 10.5289 23.8093C15.5114 19.6764 17.7253 15.8683 18.6898 13.5894C18.9697 12.9897 19.1845 12.35 19.3345 11.6904C19.3794 11.4954 19.3944 11.3905 19.3944 11.3905C19.5144 10.8008 19.5743 10.1961 19.5743 9.5764ZM9.99912 15.5085C6.78072 15.5085 4.17702 12.8997 4.17702 9.68635C4.17702 6.46795 6.78572 3.86425 9.99912 3.86425C13.2125 3.86425 15.8212 6.47295 15.8212 9.68635C15.8212 12.8997 13.2175 15.5085 9.99912 15.5085Z" fill="#417D19"/>
</svg>
