<svg width="750" height="796" viewBox="0 0 750 796" fill="none" xmlns="http://www.w3.org/2000/svg">
<path d="M371.774 111.69C377.828 118.885 384.06 126.079 390.113 133.274C391.716 135.158 392.962 135.158 393.853 132.76C394.565 131.218 395.099 129.505 395.811 127.963C396.701 122.996 399.194 118.713 401.509 114.259C402.577 112.032 404.18 113.232 405.248 114.431C408.097 117.514 409.699 121.111 410.055 125.223C410.411 129.848 410.411 134.302 408.631 138.755C405.426 154.344 400.44 169.59 399.55 185.521C398.66 201.623 404.714 215.499 415.753 227.49C417.355 229.203 417.89 228.689 418.78 226.976C426.08 212.415 430.887 196.998 434.626 181.238C438.722 163.423 437.653 145.265 437.831 127.278C437.297 122.482 438.366 117.857 440.858 113.574C442.283 111.347 442.995 111.005 444.775 112.889C448.515 117 450.829 121.625 449.405 127.45C448.336 132.075 448.158 136.529 450.473 140.811C451.007 141.839 451.541 143.038 453.144 143.038C456.527 141.496 459.554 139.269 462.937 137.556C464.183 136.871 465.607 135.501 466.854 136.871C467.922 138.07 468.634 139.783 467.21 141.496C466.676 144.066 465.073 146.121 463.293 147.834C455.459 155.886 450.829 165.65 447.268 175.928C442.283 190.146 437.475 204.364 432.49 218.582C429.285 227.661 429.819 236.74 432.846 245.819C436.941 258.153 441.214 270.658 445.488 282.991C446.734 286.589 447.446 290.186 448.158 293.955C448.515 295.154 448.693 296.524 450.117 296.867C451.719 297.21 452.432 295.839 453.144 294.811C454.746 292.927 455.459 290.871 455.815 288.473C456.883 276.311 462.403 266.375 471.305 257.981C480.92 248.902 491.069 240.166 500.862 231.258C507.094 225.605 512.613 219.61 517.421 212.758C521.338 207.276 523.652 201.281 524.009 194.6C524.187 193.229 524.009 191.859 523.652 190.317C522.406 185.521 523.652 180.21 521.338 175.414C519.913 172.673 519.379 169.418 517.599 166.849C514.75 161.71 512.969 156.228 511.545 150.575C511.189 149.034 511.367 147.321 512.791 146.464C514.572 145.436 515.996 146.807 516.708 148.006C519.913 152.631 522.584 157.599 523.831 163.08C524.365 165.479 525.433 167.705 526.857 169.761C529.528 173.701 532.733 174.558 537.006 172.331C538.787 171.303 540.567 170.104 542.17 168.733C549.114 162.566 555.346 155.886 560.153 148.006C567.275 136.357 576.178 126.422 588.107 119.227C594.161 115.63 598.612 110.148 602.53 104.495C604.132 100.041 607.871 96.7866 610.364 92.8466C610.898 91.9901 611.61 90.9623 613.035 91.1336C614.637 91.6475 615.171 93.018 615.705 94.3884C617.842 100.384 613.925 111.69 608.583 115.116C608.049 115.458 607.515 115.63 606.803 115.63C600.037 120.084 593.271 124.537 586.505 129.163C576.712 136.015 570.658 144.751 571.37 156.913C571.548 158.626 571.905 160.339 572.439 161.881C574.397 167.363 577.424 169.076 583.3 168.048C588.463 167.02 593.449 166.335 598.968 166.506C597.722 169.247 595.585 170.96 593.449 172.673C587.751 176.956 580.985 178.326 574.219 179.868C568.165 181.238 562.112 182.609 556.592 185.35C543.772 191.516 537.184 201.795 534.87 214.813C533.801 221.152 537.362 224.92 544.128 225.092C550.182 225.263 556.414 224.92 562.468 224.406C566.385 223.036 570.48 223.207 574.397 224.406C576.356 226.291 574.753 227.49 573.151 228.346C570.658 229.717 567.631 230.231 564.961 231.43C546.977 238.11 528.46 242.907 510.299 248.902C503.889 250.958 498.369 254.384 493.384 258.838C485.015 266.033 480.386 275.112 477.359 285.39C473.442 298.923 469.881 312.627 466.142 326.331C463.471 336.266 460.444 346.031 453.856 354.424C449.939 359.392 445.132 363.503 441.036 368.471C440.502 369.156 439.79 369.67 439.612 370.698C441.214 370.355 442.283 369.328 443.173 368.3C452.432 357.508 464.005 349.799 476.647 343.118C499.615 331.299 522.94 320.507 545.553 308.002C570.124 294.297 588.641 274.598 602.708 250.958C608.227 241.708 612.144 231.944 616.952 222.351C618.198 220.295 618.91 217.897 620.157 215.841C621.047 214.3 622.115 214.128 623.362 215.327C624.786 216.698 626.21 217.897 627.457 219.439C629.415 222.179 631.908 224.749 630.128 228.689C628.703 233.314 625.676 237.254 623.184 241.365C618.554 248.902 614.103 256.44 609.295 263.806C606.269 268.431 606.091 273.056 606.981 278.195C607.337 279.737 608.227 279.394 609.295 279.394C615.527 278.538 621.225 276.482 626.745 273.57C631.908 269.973 638.14 268.26 643.66 265.519C645.262 264.662 646.864 263.977 648.645 263.463C649.535 263.12 650.604 262.778 651.316 263.634C652.028 264.662 651.316 265.519 650.604 266.375C647.399 269.973 643.66 273.227 639.564 275.968C636.894 277.681 634.579 279.737 631.196 280.251C622.827 284.362 613.213 285.218 604.31 287.617C590.956 291.043 580.095 298.237 571.37 308.515C570.124 310.057 569.768 310.914 571.37 312.455C580.451 320.678 590.956 323.761 602.708 319.479C624.252 311.599 642.769 317.081 660.04 330.271C660.753 330.785 661.465 331.47 662.177 331.984C669.477 337.294 672.504 345.003 674.284 353.225C674.641 355.281 675.175 357.165 674.106 359.221C673.038 361.448 671.792 361.619 670.189 359.563C669.299 358.364 668.765 356.994 668.409 355.623C666.628 349.114 663.423 343.632 658.26 339.007C657.013 337.808 656.123 336.438 655.055 335.238C640.811 324.275 624.786 320.164 606.803 323.419C597.188 325.132 593.983 333.525 600.749 340.549C607.159 347.23 614.637 352.711 622.115 358.193C623.54 358.707 624.964 359.392 626.21 360.42C631.018 364.188 636.181 367.615 641.167 371.041C642.769 372.24 644.906 373.439 643.838 375.666C642.769 377.893 640.277 377.036 638.14 376.693C635.291 376.008 632.62 374.638 630.306 372.925C626.388 370.013 621.581 368.3 618.554 364.36C613.391 360.762 608.227 356.994 603.064 353.396C594.339 347.23 584.902 342.776 573.863 341.919C566.919 341.234 560.153 342.604 553.565 343.975C542.882 346.03 532.021 347.058 521.338 348.6C504.423 350.998 489.466 358.022 475.578 367.615C461.69 377.207 449.049 388.513 435.873 398.963C420.738 411.125 405.782 423.288 390.826 435.45C379.964 444.358 371.24 454.636 367.501 468.34C366.254 473.136 365.72 477.933 365.898 482.901C366.076 487.012 365.898 491.294 366.076 495.406C366.254 497.804 365.008 498.146 363.05 497.632C358.064 496.776 355.215 493.693 354.859 488.553C353.613 468.682 357.886 450.011 367.323 432.538C369.103 429.454 370.706 426.2 370.706 422.088C365.186 426.542 361.091 431.51 359.132 437.848C354.147 454.293 349.34 470.909 346.491 488.04C346.491 488.211 346.313 488.382 346.313 488.553C339.903 487.012 334.739 481.873 334.205 474.678C333.493 465.428 332.068 456.349 332.068 447.098C331.89 422.945 343.108 405.301 365.186 394.166C373.199 390.055 381.745 386.972 390.291 384.402C406.672 379.434 419.67 370.355 426.08 354.253C429.463 345.517 432.668 336.78 435.517 327.873C439.968 313.826 439.078 300.122 433.736 286.417C431.065 279.565 427.682 273.227 424.121 266.889C417.712 255.755 408.453 248.56 395.099 246.504C386.374 245.305 378.184 242.222 370.172 238.967C365.72 237.254 362.337 234.342 359.667 230.573C354.681 224.578 354.503 217.897 356.64 210.873C358.42 208.647 358.776 208.647 360.557 210.702C362.159 212.586 363.406 214.642 364.474 216.869C366.433 221.494 368.569 225.948 372.842 229.031C373.377 229.374 373.377 230.059 373.911 230.573C384.238 236.226 395.277 235.541 406.85 233.657C404.002 227.49 401.509 221.494 398.482 215.841C391.538 202.994 387.977 189.289 387.265 174.729C386.909 167.534 386.196 160.168 383.526 153.145C379.964 144.237 374.623 136.015 370.528 127.278C368.391 122.824 366.789 118.028 365.186 113.232C365.186 113.06 365.008 112.889 365.008 112.718C364.474 110.491 365.364 107.75 366.967 107.407C369.103 107.065 369.994 108.949 371.062 110.319C371.596 110.662 371.774 111.176 371.774 111.69Z" fill="#201C17" fill-opacity="0.3"/>
<path d="M224.166 305.089C225.056 305.774 225.769 306.631 226.659 307.316C230.932 310.57 235.383 313.483 239.301 316.909C242.506 319.821 244.108 319.649 247.491 316.737C253.367 311.598 254.791 305.945 251.586 298.922C246.067 286.76 238.054 276.31 228.439 266.717C222.564 260.722 215.798 255.583 210.456 249.073C199.951 236.397 193.897 222.008 190.514 206.248C187.487 192.03 183.748 177.983 179.119 164.279C178.407 162.395 177.695 160.51 176.27 158.969C176.092 158.969 175.736 158.797 175.736 158.797C168.97 151.603 159.177 149.376 150.809 144.922C149.384 144.065 146.713 143.894 146.892 141.838C147.07 139.783 149.74 140.297 151.343 139.783C151.521 139.783 151.699 139.612 151.877 139.612C154.37 139.269 156.862 138.926 159.355 138.241C162.56 137.213 163.45 135.5 162.56 132.417C161.848 129.676 160.423 127.107 159.711 124.366C159.355 122.824 159.177 121.282 160.602 120.254C162.026 119.227 163.628 120.083 164.697 121.111C169.148 125.051 173.421 128.991 175.914 134.473C181.79 143.894 186.597 153.83 189.268 164.45C193.185 180.381 197.102 196.312 201.197 212.243C202.8 218.239 204.58 224.063 206.717 229.887C209.032 236.054 212.771 241.193 218.112 245.305C231.466 255.925 244.642 266.717 258.174 277.167C262.269 280.25 266.543 282.991 271.172 285.047C277.938 288.13 284.348 286.931 288.799 281.107C296.277 271 300.907 259.694 302.687 247.36C304.468 234.684 302.153 222.179 301.797 209.674C301.619 203.678 301.085 197.683 300.729 191.687C299.304 188.433 299.482 184.835 299.482 181.409C298.948 172.33 298.77 163.422 298.236 154.344C298.058 152.802 298.592 151.26 298.948 149.89C299.304 148.691 299.838 147.663 301.263 147.663C302.509 147.663 303.399 148.519 303.755 149.718C304.824 152.117 304.646 154.686 305.002 157.256C305.714 163.936 306.426 170.617 307.138 177.127C307.316 178.497 306.782 180.381 309.275 180.553C312.836 180.039 314.973 177.64 316.931 175.071C318.712 172.844 320.136 170.617 321.739 168.219C322.451 167.362 323.163 166.335 324.053 165.649C324.588 165.307 325.122 164.964 325.834 165.135C326.368 165.478 326.368 166.163 326.368 166.849C326.19 168.904 325.122 170.788 324.588 172.673C321.561 183.465 319.068 194.257 317.644 205.391C315.507 219.609 315.151 234.17 313.904 248.559C312.302 266.032 305.18 281.107 293.785 294.639C290.045 299.093 286.128 303.205 282.923 308.172C276.87 317.423 275.267 327.529 277.048 338.321C277.404 340.377 278.116 342.261 279.184 343.974C286.484 356.651 293.428 369.498 303.221 380.804C316.219 396.05 322.629 414.037 326.012 433.222C327.614 442.644 328.327 452.237 328.505 461.658C328.505 462.172 328.505 462.686 328.505 463.2C328.683 464.742 328.327 466.626 327.08 466.969C325.656 467.311 324.409 465.77 323.519 464.399C320.67 459.774 318 455.32 315.329 450.695C314.973 450.01 314.617 448.639 313.37 449.153C311.946 449.667 312.658 450.866 312.836 451.723C313.192 454.292 314.082 456.862 315.329 459.26C324.944 477.418 337.763 492.664 356.993 501.914C362.513 504.655 368.388 506.711 373.73 509.794C381.03 513.905 384.413 519.216 383.167 527.61C381.208 539.943 378.003 551.934 372.662 563.925C371.059 560.499 369.457 557.587 368.032 554.504C364.293 546.795 360.554 539.087 356.815 531.378C356.459 530.693 356.281 529.323 355.212 529.494C353.966 529.665 354.678 531.036 354.5 531.892C354.322 534.119 354.856 536.003 355.747 538.059C359.842 546.281 363.581 554.675 367.676 562.898C370.881 569.236 371.949 575.574 369.991 582.597C368.21 588.593 367.142 594.76 365.896 600.927C364.471 600.927 364.293 599.899 363.937 599.042C357.171 581.741 345.598 567.694 332.956 554.161C320.314 540.628 307.851 527.096 296.633 512.364C289.689 503.285 286.84 493.007 285.95 482.043C285.772 481.016 285.95 479.988 286.84 478.96C288.977 481.015 290.402 483.414 291.826 485.812C294.141 489.409 296.455 493.007 298.77 496.775C299.66 498.317 300.729 499.345 302.687 499.687C304.29 496.09 302.687 493.007 300.551 490.437C288.087 473.821 285.238 455.32 286.84 435.449C287.731 425.171 288.443 414.893 286.128 404.786C282.745 389.369 272.596 378.92 259.064 371.04C244.108 362.475 228.974 354.252 214.017 345.859C204.58 340.548 194.966 335.409 185.529 330.099C183.392 330.27 181.968 328.9 180.365 328.043C176.092 325.816 172.353 322.904 168.436 319.992C167.368 319.307 166.299 318.45 166.833 317.08C167.368 315.538 168.792 315.538 170.216 315.367C173.777 315.024 176.982 316.223 180.543 316.223C177.16 306.631 171.463 298.237 164.519 290.699C152.055 277.167 136.03 268.944 118.581 262.606C116.267 261.75 113.952 261.064 111.815 260.208C111.103 259.865 109.679 260.208 110.035 258.837C110.213 257.638 111.459 257.81 112.349 257.81C115.198 257.81 117.691 258.495 120.54 258.837C121.43 259.009 122.498 259.18 123.389 259.18C127.84 258.324 131.935 259.694 136.208 260.208C140.838 260.722 145.467 261.407 149.918 262.092C150.631 262.263 151.343 262.263 152.055 262.263C155.082 262.092 155.972 261.064 155.082 258.152C153.301 253.013 150.631 248.217 147.248 243.934C139.235 233.827 130.333 224.063 121.964 214.299C120.896 213.1 119.828 211.73 119.115 210.359C118.581 209.16 118.047 207.961 119.293 206.933C120.54 205.905 121.964 206.59 123.033 207.447C127.306 211.216 131.935 214.642 136.03 218.582C144.043 226.804 151.343 235.712 157.397 245.305C158.643 247.36 159.711 249.245 160.602 251.471C168.792 265.861 174.846 281.278 183.214 295.496C190.336 307.658 200.129 317.423 212.593 324.617C221.139 329.414 228.796 335.752 236.63 341.405C239.479 343.46 242.684 344.659 245.889 346.03C247.491 346.715 247.847 346.03 248.381 345.002C249.628 342.09 249.628 339.349 247.135 336.78C238.054 327.529 228.974 318.45 219.715 309.2C218.112 308.515 217.044 306.973 215.442 306.117C213.483 304.746 213.483 303.205 214.907 301.492C216.332 299.607 217.934 299.607 219.715 300.806C220.605 302.177 222.742 303.205 224.166 305.089Z" fill="#201C17" fill-opacity="0.3"/>
<path d="M249.986 616.172C251.588 623.538 254.615 630.39 257.82 637.242C264.052 650.775 271.886 663.28 280.433 675.442C280.789 676.127 280.967 677.326 282.391 676.641C283.638 675.956 282.926 675.099 282.569 674.243C280.967 669.275 278.118 664.821 275.269 660.539C271.174 654.543 267.435 648.548 265.833 641.524C264.942 637.584 265.476 633.644 267.257 630.047C270.106 624.737 274.557 620.797 279.364 616C278.474 632.274 279.008 647.691 286.843 662.423C287.911 661.224 287.555 660.368 287.555 659.511C286.487 649.918 285.418 640.325 284.172 630.732C282.569 619.94 286.13 610.176 291.116 600.583C291.472 599.898 292.184 599.042 293.075 599.384C294.321 599.898 294.855 601.097 295.211 602.296C295.923 605.722 296.636 609.32 297.17 612.746C299.841 635.529 310.346 654.372 327.973 670.132C348.449 688.461 368.391 707.304 388.511 725.976C389.757 727.004 391.003 727.86 389.401 729.916C387.798 731.8 386.908 731.8 385.128 730.43C377.827 724.777 370.349 719.295 363.049 713.642C362.515 713.128 361.803 711.929 360.734 712.957C359.844 713.814 360.912 714.328 361.447 715.013C367.144 721.865 373.376 728.032 381.21 732.828C389.935 738.139 396.345 746.018 403.467 753.213C404.713 754.583 404.713 755.783 403.289 757.153C401.686 758.695 400.796 757.153 399.906 756.468C394.386 752.528 388.867 748.588 383.169 744.477C383.169 747.046 383.169 749.273 383.169 752.014C373.02 747.046 363.405 742.25 353.078 737.111C355.393 741.565 358.242 744.648 361.803 747.046C366.432 750.13 371.596 752.357 377.115 753.213C397.413 756.296 409.699 768.116 416.999 785.76C418.067 788.33 419.136 791.071 420.204 793.64C420.382 793.983 420.382 794.326 420.026 794.668C419.136 795.182 418.067 795.353 416.999 795.353C407.384 795.353 397.769 795.525 388.154 795.353C383.347 795.525 378.54 795.353 373.732 795.353C372.13 795.353 370.527 795.525 369.637 793.812C365.72 769.658 356.283 747.903 340.08 728.888C329.219 716.041 314.975 710.902 298.06 712.272C288.623 713.128 279.008 712.957 269.572 712.443C264.942 712.272 262.271 709.017 261.203 704.906C259.423 698.225 258.71 691.373 257.464 684.521C256.574 679.896 255.862 675.1 255.149 670.474C254.615 666.706 254.259 663.108 254.615 659.168C254.971 654.886 256.04 650.089 253.547 646.321C250.52 641.524 250.342 636.385 249.63 631.246C248.383 630.561 248.383 629.191 248.205 627.992C247.315 622.681 246.603 617.2 245.891 611.889C245.891 611.204 245.713 610.519 245.891 609.834C246.247 607.949 245.178 605.894 247.137 604.352C248.918 605.208 248.739 606.921 248.918 608.292C248.918 610.861 249.63 613.602 249.986 616.172Z" fill="#201C17" fill-opacity="0.3"/>
<path d="M284.705 793.641C285.061 786.618 283.636 779.937 280.609 773.599C276.514 765.034 272.419 756.298 268.146 747.733C267.077 745.334 266.187 743.107 266.009 740.195C268.324 741.223 270.104 742.765 271.885 744.135C275.624 746.876 279.363 749.446 282.924 752.186C284.348 753.386 285.773 754.071 287.019 752.015C288.444 749.96 286.129 749.788 285.417 749.274C280.431 745.506 275.09 742.251 270.282 738.14C264.05 732.829 261.736 726.149 262.092 718.269C262.092 716.213 262.804 715.87 264.585 717.07C267.433 718.954 269.748 721.181 272.063 723.579C277.404 729.061 283.636 733.686 290.936 736.598C291.649 736.941 292.183 737.283 292.895 737.455C293.963 737.626 295.388 737.626 295.922 736.598C296.456 735.57 295.032 735.228 294.319 734.714C287.731 730.602 281.143 726.662 274.378 722.38C278.829 718.611 283.992 717.412 289.512 716.898C313.549 715.185 331.532 724.778 343.818 744.649C353.255 759.895 359.308 776.34 361.979 793.813C361.623 794.841 360.555 795.183 359.665 795.183C354.323 795.183 348.981 795.868 343.818 794.669C338.832 792.785 333.313 792.1 328.861 789.188C318.356 782.335 311.768 772.571 306.783 761.608C305.181 758.011 303.934 754.413 302.154 750.987C303.756 754.071 305.002 757.325 306.249 760.58C308.385 765.719 310.166 770.858 312.303 775.997C314.973 782.336 319.247 787.475 324.944 791.586C326.013 792.271 328.149 792.785 326.725 795.012C325.478 795.697 324.054 795.526 322.63 795.526C311.412 795.526 300.195 795.526 288.978 795.526C287.731 795.183 285.595 795.697 284.705 793.641Z" fill="#201C17" fill-opacity="0.3"/>
<path d="M163.806 430.653C178.763 438.704 193.719 446.927 208.675 454.978C210.456 456.006 212.592 456.348 214.729 456.691C218.824 457.376 222.563 456.006 226.302 454.464C227.549 453.95 227.371 453.265 227.015 452.237C221.317 436.306 213.127 422.088 198.882 411.639C198.17 411.125 197.28 410.611 196.568 409.926C189.98 403.416 182.146 402.217 173.243 404.786C161.848 408.041 150.274 409.069 138.701 405.814C136.208 405.129 133.893 404.101 131.401 402.388C147.425 398.448 164.518 399.99 178.941 390.568C175.201 386.286 170.75 382.86 164.696 382.517C157.396 382.175 149.918 382.175 142.618 382.689C134.962 383.031 127.305 383.716 119.649 381.832C114.486 380.462 111.103 377.207 109.5 372.239C109.144 371.04 108.254 369.498 109.5 368.47C110.747 367.443 111.993 368.642 113.239 369.156C120.361 373.267 128.374 373.781 136.386 374.295C137.989 374.466 139.591 374.295 141.015 375.151C153.835 375.151 166.477 376.35 179.297 377.378C186.419 377.892 191.582 381.489 195.143 387.142C198.526 392.281 201.731 397.763 205.114 403.073C211.702 413.865 218.29 424.486 224.7 435.45C231.11 446.07 239.834 453.608 252.12 457.719C259.242 460.117 265.83 463.543 272.24 467.14C278.116 470.395 280.964 475.363 281.143 481.872C281.143 486.497 281.143 490.951 281.143 495.576C281.143 496.262 281.499 497.29 280.43 497.632C279.54 497.803 279.184 496.947 278.65 496.433C274.555 491.979 270.459 487.697 266.898 482.9C262.091 476.219 255.325 472.622 246.778 472.622C236.629 472.451 226.48 472.622 216.332 472.279C198.882 471.423 185.885 463.372 177.16 448.811C173.955 443.329 169.682 439.047 163.628 436.649C162.204 436.135 160.779 435.792 159.533 435.278C156.684 436.135 154.013 435.107 151.521 434.25C147.603 433.051 143.686 431.681 139.947 430.139C138.879 429.625 137.811 429.283 137.098 428.255C135.852 426.713 136.208 425.343 138.345 425.343C146.713 424.829 154.904 424.829 162.382 429.111C162.916 429.283 163.45 429.797 163.806 430.653Z" fill="#201C17" fill-opacity="0.3"/>
<path d="M442.457 558.101C443.882 558.272 444.594 557.244 445.484 556.559C450.47 552.962 455.277 549.193 460.263 545.424C461.153 547.138 460.085 548.165 459.194 549.193C455.099 553.647 451.182 558.101 446.375 561.698C424.83 576.43 403.286 590.991 381.742 605.723C376.756 609.149 372.483 613.431 368.566 617.885C357.883 630.047 352.719 644.094 352.185 659.683C352.007 664.993 351.829 670.303 351.829 675.442C351.829 677.155 351.295 677.498 349.692 677.327C345.419 676.642 342.57 673.729 342.748 669.618C343.104 660.197 344.351 650.775 345.953 641.525C346.131 639.983 347.378 638.613 348.09 637.242C349.514 635.015 350.405 632.788 351.117 630.219C351.295 629.362 351.473 628.677 350.583 628.163C349.514 627.649 348.98 627.821 348.268 628.848C346.844 630.561 345.597 632.103 344.885 634.33C342.036 643.923 339.009 653.345 336.16 662.937C335.448 665.507 334.38 665.85 332.065 664.822C326.189 662.252 323.875 658.141 326.011 652.317C329.216 643.238 333.668 634.673 337.585 625.765C342.392 614.459 347.556 603.324 352.541 591.676C355.924 598.185 359.129 604.181 362.156 610.519C363.224 612.746 363.937 613.089 365.895 611.376C375.332 603.324 384.769 595.273 393.137 586.366C397.588 581.569 400.615 575.745 403.108 569.921C406.847 560.842 410.408 551.763 414.147 542.855C414.325 539.943 415.572 537.373 416.64 534.804C419.667 527.78 421.625 520.072 426.789 513.905C427.857 512.535 429.104 510.136 430.706 510.993C432.665 512.021 430.35 514.076 429.816 515.447C427.857 520.414 426.077 525.382 425.186 530.693C424.296 535.318 423.584 539.943 422.872 544.739C422.516 546.966 422.516 549.193 421.091 551.077C420.379 554.675 419.489 558.443 418.955 562.041C418.598 564.268 418.242 566.666 420.379 568.208C422.694 569.749 425.542 569.578 427.857 568.208C432.843 565.124 438.362 562.555 442.457 558.101Z" fill="#201C17" fill-opacity="0.3"/>
<path d="M296.99 547.824C298.414 549.194 298.948 550.736 299.483 552.106C306.248 573.005 312.836 593.733 319.602 614.631C323.519 627.136 322.451 637.757 316.219 648.035C313.371 645.637 311.412 642.725 309.631 639.47C304.646 630.22 302.153 620.284 300.195 610.349C297.88 598.872 296.99 587.223 298.058 575.575C298.77 568.38 297.168 561.357 296.634 554.333C296.456 552.278 296.1 550.051 296.99 547.824Z" fill="#201C17" fill-opacity="0.3"/>
<path d="M342.751 588.421C342.929 589.792 342.395 591.162 341.861 592.532C337.943 602.639 334.026 612.746 329.931 622.853C329.397 624.052 329.041 625.936 327.616 625.594C326.192 625.251 325.658 623.709 325.658 622.168C324.589 608.806 323.699 595.444 322.453 582.083C321.028 567.351 318.002 553.133 312.126 539.429C311.592 538.23 309.989 536.517 311.948 535.66C313.372 534.975 314.975 536.345 315.865 537.887C324.589 553.133 333.136 568.379 341.861 583.796C342.395 585.166 342.751 586.708 342.751 588.421Z" fill="#201C17" fill-opacity="0.3"/>
<path d="M335.983 87.8789C331.71 69.5496 323.342 52.9334 310.7 38.3727C310.166 37.6875 309.632 37.1736 309.276 36.4884C308.563 35.2893 307.851 35.2893 306.961 36.3171C301.975 42.1413 296.812 47.9656 293.251 54.6464C292.895 55.1603 292.361 55.6742 292.004 56.3594C275.98 83.5964 271.35 112.718 277.938 143.381C280.787 156.571 285.773 169.076 293.251 180.382C295.209 184.322 297.88 187.919 300.729 191.345C300.373 183.979 300.017 176.613 299.839 169.247C299.661 163.08 298.948 156.914 299.483 150.747C299.661 149.548 299.839 147.835 301.085 147.835C302.332 147.835 302.866 149.376 303.222 150.575C303.4 150.918 303.222 151.432 303.4 151.774C304.468 161.71 305.536 171.817 306.605 181.752C308.029 181.924 308.919 181.41 309.81 180.896C311.056 181.238 311.946 180.382 313.015 179.697C315.507 178.155 317.288 175.757 318.89 173.358C320.849 170.618 322.273 167.363 325.656 164.965C325.3 167.706 324.944 170.104 324.588 172.331C325.122 171.645 325.656 170.789 326.012 170.104C339.366 144.066 342.749 116.486 335.983 87.8789Z" fill="url(#paint0_linear)" fill-opacity="0.3"/>
<path d="M420.202 56.5296C416.285 38.5429 408.629 22.2692 396.522 7.87988C395.097 4.79644 392.07 2.74083 390.29 0C390.112 0 389.934 0 389.578 0C389.221 0.513905 388.687 1.19911 388.331 1.71302C382.099 9.07899 376.58 16.7876 372.306 25.3526C371.772 26.3805 371.06 27.4083 370.526 28.4361C356.638 58.0713 354.857 88.2204 365.184 119.055C369.28 131.388 375.333 142.866 383.702 152.972C383.346 150.06 382.099 147.491 380.853 144.921C375.689 134.643 369.636 124.536 366.253 113.402C365.54 110.832 365.54 108.948 367.499 107.235C369.458 108.091 369.992 109.976 371.416 111.175C371.416 112.374 372.128 113.23 372.841 114.258C374.621 116.656 376.758 118.883 378.716 121.11C382.277 125.222 385.66 129.504 389.399 133.615C391.18 135.671 392.961 135.842 394.029 133.958C395.275 131.731 396.7 129.675 396.344 126.935C398.658 122.995 400.083 118.712 402.041 114.601C402.753 113.23 403.288 113.23 404.178 114.258C407.205 117.513 408.985 121.282 409.163 125.735C409.341 130.018 408.807 134.129 408.629 138.412C408.985 137.898 409.519 137.213 409.875 136.699C422.695 111.175 426.256 84.4517 420.202 56.5296Z" fill="url(#paint1_linear)" fill-opacity="0.33"/>
<path d="M57.0702 200.35C61.5215 208.401 66.507 215.938 73.0949 222.619C83.2439 234.439 95.3514 243.689 109.418 250.884C113.335 253.282 117.608 254.824 121.703 256.708C122.415 257.051 123.84 256.708 123.662 258.079C129.894 258.935 136.303 259.963 142.535 260.82C146.096 261.334 149.479 262.19 153.218 262.019C156.423 261.847 157.314 260.648 156.423 257.736C155.355 254.31 153.753 251.055 151.972 247.972C147.165 239.921 140.399 233.24 134.345 226.045C129.715 220.564 125.086 215.082 120.457 209.429C119.745 208.572 118.676 207.202 119.923 206.174C121.169 205.146 122.237 206.517 123.128 207.202C127.401 210.799 131.674 214.397 135.947 217.994C139.33 221.763 142.713 225.703 146.096 229.471C151.616 235.981 155.889 243.175 160.697 250.199C157.492 232.212 150.191 215.938 138.974 201.378C131.318 190.414 121.347 181.678 110.308 173.969C99.2686 165.747 86.983 159.923 73.8071 156.154C64.9045 152.899 55.4678 151.871 46.031 150.672C43.0041 150.33 42.47 151.358 42.8261 153.927C44.4285 170.543 49.0579 185.961 57.0702 200.35Z" fill="url(#paint2_linear)" fill-opacity="0.3"/>
<path d="M397.767 308.172C389.043 310.227 380.674 312.968 373.018 317.765C365.184 321.705 358.418 327.015 352.72 333.525C346.844 339.178 342.393 345.687 338.654 352.882C331.532 366.243 328.683 380.633 329.395 395.536C329.395 396.906 329.395 397.934 331.532 397.42C339.188 395.707 346.666 393.309 353.432 389.369C360.91 385.429 368.033 381.147 373.73 374.98C392.604 356.993 400.794 335.066 399.726 309.714C399.726 308.001 399.014 307.829 397.767 308.172Z" fill="url(#paint3_linear)" fill-opacity="0.3"/>
<path d="M78.1649 320.164C80.1234 320.336 81.9039 320.507 83.8625 320.678C91.3407 321.021 91.3407 321.021 89.5602 314.169C85.643 298.923 77.9868 285.561 66.0573 274.598C58.5791 267.232 50.0326 261.408 40.0617 257.468C32.5835 253.871 24.7492 251.815 16.5588 250.958C11.0392 249.931 5.51961 249.931 0 250.273C0 250.616 0 251.13 0 251.472C0.178052 251.986 0.534157 252.5 0.534157 253.185C4.4513 271.343 13.532 286.589 27.7761 299.094C29.0225 300.122 30.4469 301.321 31.6933 302.349C38.2812 307.317 45.2252 311.599 53.0595 314.34C61.2499 317.595 69.6184 319.308 78.1649 320.164Z" fill="url(#paint4_linear)" fill-opacity="0.3"/>
<path d="M523.295 427.568C522.939 428.082 522.405 428.767 522.049 429.281C515.995 440.245 512.79 452.065 511.9 464.57C511.366 472.963 512.434 481.186 514.392 489.408C514.927 491.464 515.817 491.978 517.775 490.95C519.912 489.751 522.405 489.066 524.363 487.524C530.951 484.269 537.005 479.987 542.169 474.848C550.893 467.139 557.303 458.06 561.933 447.611C569.767 430.138 571.369 411.98 566.562 393.479C566.206 392.28 566.384 390.567 563.891 391.595C555.523 395.364 547.51 399.989 540.744 406.327C533.622 412.151 527.924 419.346 523.295 427.568Z" fill="url(#paint5_linear)" fill-opacity="0.3"/>
<path d="M104.873 390.395C108.968 390.738 113.063 390.395 117.159 389.881C126.061 388.682 134.608 386.626 142.62 382.686C136.922 381.659 131.225 382.173 125.527 382.001C116.09 381.659 110.215 376.691 110.036 368.811C111.283 368.468 111.995 370.01 113.241 370.01C114.132 371.038 115.378 371.381 116.446 371.894C124.459 374.978 132.827 375.663 141.196 375.492C136.21 369.154 130.156 364.186 123.568 359.561C115.912 354.25 107.544 350.824 98.6411 348.084C88.8483 344.658 78.5213 343.801 68.1942 344.486C60.1819 344.658 52.3476 346.199 44.6914 348.769C41.1303 349.625 38.1034 351.167 34.7205 352.537C32.9399 353.223 33.118 353.908 34.1863 355.278C36.501 358.362 38.9937 361.445 41.8425 364.186C50.7451 373.094 61.0722 380.288 73.3578 384.571C83.3287 388.339 93.8337 390.566 104.873 390.395Z" fill="url(#paint6_linear)" fill-opacity="0.3"/>
<path d="M164.342 426.371C150.454 418.833 135.498 414.894 119.473 415.407C107.722 415.065 96.5043 417.463 85.8212 422.088C72.4673 427.227 61.6061 435.45 52.5255 445.899C51.2791 447.27 52.1694 447.612 53.2377 448.297C63.7427 454.122 74.96 457.89 87.0676 459.089C98.819 460.46 110.214 459.775 121.432 456.177C136.032 452.237 148.674 445.214 159.357 434.936C152.591 433.908 146.181 431.339 139.949 428.94C138.525 428.426 137.278 427.741 136.922 426.028C147.605 425.514 153.837 425.172 163.986 430.653C164.342 429.283 167.903 428.426 164.342 426.371Z" fill="url(#paint7_linear)" fill-opacity="0.3"/>
<path d="M282.925 511.849C274.735 503.456 264.764 497.46 253.902 492.835C243.575 488.21 232.892 485.983 221.497 486.154C207.787 485.298 194.789 488.21 182.147 493.691C184.64 497.974 187.667 501.743 191.05 505.34C199.597 514.419 209.567 521.785 221.497 526.41C232.18 531.206 243.397 533.433 255.149 533.605C256.039 533.605 256.929 533.605 257.642 533.605C259.956 533.605 262.449 533.947 264.764 533.091C274.378 532.577 283.637 530.007 292.54 526.41C294.32 525.725 293.786 525.04 293.074 524.012C289.869 519.729 286.664 515.789 282.925 511.849Z" fill="url(#paint8_linear)" fill-opacity="0.3"/>
<path d="M443.527 540.457C451.895 536.86 459.017 531.378 465.783 525.554C469.166 522.642 472.727 519.901 475.22 515.961C475.754 514.762 477.179 514.248 478.069 513.22C488.574 500.886 496.943 487.353 501.75 471.936C508.16 453.95 509.406 435.449 506.736 416.606C506.557 415.235 505.845 415.064 504.599 415.407C499.257 417.12 493.916 418.661 489.108 421.231C477.357 425.856 466.852 432.537 457.415 440.759C444.773 451.038 434.98 463.2 427.68 477.418C426.968 478.617 426.256 479.645 425.722 480.844C416.107 500.372 412.368 520.929 413.97 542.513C416.997 535.147 420.202 527.609 423.229 520.243C424.831 516.303 427.68 512.706 430.707 510.822C427.502 516.989 425.187 523.156 424.297 529.836C422.339 536.517 421.982 543.54 420.736 550.393C423.585 549.365 426.612 548.166 429.461 547.138C434.268 545.082 439.432 543.883 443.527 540.457Z" fill="url(#paint9_linear)" fill-opacity="0.3"/>
<path d="M157.396 304.918C147.603 301.663 137.811 300.978 127.662 302.52C118.403 303.205 110.213 306.46 102.2 310.742C100.954 311.427 101.132 311.941 101.844 312.798C110.391 322.391 120.54 329.585 133.181 333.183C142.974 336.437 152.767 337.636 163.094 336.095C170.75 335.581 177.872 333.525 184.638 330.099C178.941 326.844 173.421 323.418 168.257 319.478C167.545 318.793 165.765 318.622 166.477 317.08C167.011 315.71 168.435 316.224 169.504 316.224C171.462 316.224 173.243 316.224 175.201 316.566C177.16 316.909 178.05 316.738 179.475 316.052C173.065 310.913 165.587 307.487 157.396 304.918Z" fill="url(#paint10_linear)" fill-opacity="0.3"/>
<path d="M246.78 604.695C247.492 608.635 248.382 612.575 249.807 616.344C249.629 604.695 246.424 593.903 240.37 583.968C236.097 575.917 230.221 569.236 222.743 563.583C217.758 559.129 211.882 556.046 205.65 553.305C204.76 552.962 203.87 552.62 203.513 553.99C201.021 563.412 200.13 572.833 201.911 582.426C201.911 582.94 201.911 583.454 202.267 583.968C203.513 592.533 206.362 600.413 210.992 607.779C215.265 615.487 220.963 622.168 228.085 627.479C232.358 631.247 237.165 633.988 242.151 636.557C246.78 638.784 246.78 638.784 247.848 634.159C248.026 633.303 248.382 632.446 248.739 631.59C247.67 625.08 246.78 618.571 245.712 612.061C245.712 611.376 245.712 610.862 245.712 610.177C246.602 608.293 245.534 606.237 246.78 604.695Z" fill="url(#paint11_linear)" fill-opacity="0.3"/>
<path d="M227.193 205.049C234.493 213.785 243.396 220.637 253.901 225.777C260.489 229.203 267.433 231.601 274.733 233.314C277.048 233.828 277.226 233.143 277.226 231.43C277.404 226.804 277.226 222.179 276.692 217.554C274.555 199.91 267.433 184.321 255.147 170.96C247.847 162.566 238.945 156.057 228.618 151.431C222.03 147.834 214.73 145.779 207.073 144.237C206.361 152.117 206.717 159.825 208.32 167.363C211.169 181.238 217.222 194.086 227.193 205.049Z" fill="url(#paint12_linear)" fill-opacity="0.3"/>
<path d="M597.186 500.544C588.284 497.803 579.381 495.234 569.944 494.548C567.63 493.692 565.137 493.863 562.822 493.692C545.907 492.664 529.349 494.72 513.502 500.201C482.165 510.651 458.662 530.008 442.815 557.93C444.596 558.787 445.486 557.416 446.555 556.731C451.006 553.819 454.923 550.05 459.73 547.309C456.347 551.592 452.608 555.703 448.335 559.472C447.623 560.157 446.555 560.5 446.555 561.87C446.911 562.041 447.267 562.213 447.623 562.384C462.935 567.009 478.426 568.722 494.45 567.694C501.573 567.18 508.695 566.495 515.461 564.268C520.09 563.583 524.541 562.041 528.992 560.5C543.949 555.189 557.659 547.823 569.41 537.374C571.725 536.004 573.505 533.948 575.464 532.064C584.367 523.498 591.845 513.906 597.72 503.114C598.255 502.428 599.501 501.229 597.186 500.544Z" fill="url(#paint13_linear)" fill-opacity="0.3"/>
<path d="M129.623 129.162C140.662 144.237 155.619 154.343 173.78 160.168C175.026 160.51 176.095 160.51 176.273 158.969C173.602 155.543 170.219 152.973 166.124 151.089C160.604 148.691 155.085 146.121 149.565 143.551C148.675 143.038 147.25 142.866 146.894 141.838C148.319 140.811 150.277 141.153 151.702 140.297C154.372 140.297 156.865 139.783 159.358 139.098C163.275 137.898 164.343 136.014 163.275 132.246C162.385 129.676 161.494 127.278 160.426 124.88C159.892 123.509 159.18 121.625 160.782 120.768C162.207 119.912 163.631 121.282 164.877 122.31C168.973 125.907 172.356 130.19 175.917 134.301C175.739 133.102 175.739 131.903 175.561 130.704C172.178 114.43 164.521 100.383 152.592 88.3923C146.36 81.7116 139.238 76.5725 130.87 72.6326C126.418 69.7204 121.255 68.1787 116.269 66.4657C114.133 65.7805 113.777 66.4657 113.599 68.1787C112.352 76.2299 112.53 84.4524 113.777 92.5035C115.913 105.865 120.899 118.199 129.623 129.162Z" fill="url(#paint14_linear)" fill-opacity="0.3"/>
<path d="M626.744 273.396C635.113 270.656 642.591 265.859 651.315 263.632C645.974 270.656 638.852 275.623 631.373 279.906C633.51 280.591 635.469 281.448 637.605 281.962C645.974 284.188 654.52 285.559 663.423 284.874C663.779 284.874 664.135 284.874 664.491 284.874C673.572 284.874 682.474 283.161 691.021 279.906C692.979 279.221 694.76 278.707 696.541 278.022C712.387 271.341 725.029 261.063 734.644 247.187C735.356 246.16 736.424 245.474 734.288 244.618C720.043 238.794 705.087 236.053 689.596 238.108C679.804 238.794 670.545 241.363 661.642 245.474C647.22 251.47 635.469 260.891 626.744 273.396Z" fill="url(#paint15_linear)" fill-opacity="0.3"/>
<path d="M230.933 126.249C234.673 133.101 239.48 139.439 245.534 144.578C246.958 147.148 248.026 146.291 249.451 144.236C264.585 121.795 268.324 97.813 260.49 72.1178C257.641 62.8675 253.368 54.1311 246.78 46.7651C244.465 42.4826 240.548 39.3992 237.343 35.9731C236.275 34.9453 235.741 35.2879 235.207 36.3157C233.782 38.5427 232.002 40.5983 230.933 42.9965C230.577 43.5104 230.221 43.853 229.865 44.3669C220.606 60.9832 217.58 78.7985 220.428 97.2991C222.031 107.749 225.236 117.513 230.933 126.249Z" fill="url(#paint16_linear)" fill-opacity="0.3"/>
<path d="M437.828 127.106C438.54 121.796 439.608 116.656 442.813 111.689C446.908 116.143 450.113 120.596 448.689 126.935C447.443 132.416 447.442 137.898 451.004 142.866C451.716 143.893 452.428 144.579 453.674 143.722C456.701 142.009 459.728 140.467 462.577 138.754C467.028 136.185 467.028 136.185 467.384 141.324C469.165 140.467 469.877 138.754 470.589 137.041C472.192 134.301 474.15 131.731 475.575 128.819C487.326 104.494 487.682 79.9979 475.931 55.5018C473.26 50.0202 474.328 49.5063 468.809 54.1314C462.399 58.7566 457.235 64.4095 452.784 70.919C452.428 71.2616 452.072 71.6042 451.716 72.1181C444.95 81.8823 440.498 92.6743 438.362 104.323C437.115 112.031 436.403 119.569 437.828 127.106Z" fill="url(#paint17_linear)" fill-opacity="0.3"/>
<path d="M748.887 395.194C747.819 391.939 746.751 388.684 745.504 385.43C742.477 377.721 738.204 370.526 732.685 364.188C724.316 353.396 713.633 345.345 700.813 339.863C688.705 333.868 675.708 331.641 662.176 331.812C668.407 338.493 672.859 346.03 673.749 355.28C673.927 357.336 673.749 359.22 672.146 360.762C670.544 358.878 669.832 356.822 669.12 354.595C666.805 346.544 661.997 340.206 655.231 335.238C655.409 336.094 655.588 336.951 655.944 337.807C660.929 353.225 669.476 366.586 682.474 377.036C684.076 378.406 685.679 379.777 687.281 380.976C696.362 387.485 706.155 392.453 717.372 394.851C727.165 397.935 737.314 398.106 747.463 397.763C749.422 397.592 749.422 396.564 748.887 395.194Z" fill="url(#paint18_linear)" fill-opacity="0.3"/>
<path d="M334.561 282.991C338.835 295.153 347.203 304.232 358.776 310.57C360.201 311.256 360.735 310.913 361.091 309.714C362.337 305.945 363.406 302.177 363.584 298.237C364.118 291.385 363.94 284.533 361.447 278.023C357.174 264.148 348.093 254.212 334.918 247.018C333.493 250.958 332.247 254.555 332.069 258.495C330.288 266.889 331.356 275.111 334.561 282.991Z" fill="url(#paint19_linear)" fill-opacity="0.3"/>
<path d="M626.744 219.781C628.703 222.522 630.661 225.092 630.127 228.689C635.113 225.434 639.742 221.837 643.481 217.212C645.262 215.156 647.22 213.272 649.001 211.045C655.232 203.336 659.684 194.771 662.711 185.521C668.586 167.02 668.23 148.691 661.286 130.533C660.574 128.649 659.862 128.135 658.081 129.334C652.384 132.76 646.864 136.529 642.057 141.154C635.825 146.464 630.839 152.802 626.744 159.997C620.156 170.275 616.951 181.41 615.349 193.229C611.966 193.229 608.583 192.716 605.378 193.743C598.078 194.086 591.49 196.655 585.08 200.082C574.753 205.734 567.275 213.786 562.646 224.235C566.741 224.578 570.836 223.55 574.931 224.92C575.287 226.633 574.219 227.147 572.794 227.661C570.124 228.689 567.097 229.374 564.604 230.916C566.028 232.286 567.809 232.458 569.59 232.286C577.602 231.772 585.436 230.402 592.736 226.976C593.805 226.462 595.051 225.948 595.585 224.749C595.585 224.578 595.585 224.578 595.585 224.406C596.119 224.578 596.653 224.406 597.188 224.235C603.953 220.638 609.651 216.013 613.924 209.674C614.102 209.332 614.28 208.989 614.459 208.818C615.171 212.073 615.171 215.499 616.061 218.753C616.417 220.124 616.417 221.666 617.842 222.522C619.088 219.952 620.512 217.383 621.937 214.471C623.361 216.526 624.964 218.239 626.744 219.781Z" fill="url(#paint20_linear)" fill-opacity="0.3"/>
<path d="M498.724 136.013C501.395 148.347 507.448 158.796 517.775 166.847C517.953 165.991 517.597 165.306 517.241 164.449C515.639 159.995 514.214 155.37 512.612 150.916C512.078 149.375 512.256 147.49 513.502 146.805C514.749 146.291 515.995 147.833 516.885 148.861C517.597 149.717 517.953 150.745 518.488 151.773C520.268 155.542 522.227 159.31 524.007 162.908C526.322 158.625 527.212 154 527.746 149.203C528.28 143.379 528.459 137.555 526.678 131.902C526.322 130.36 525.788 128.99 525.432 127.448C522.405 116.142 515.461 107.406 506.024 100.211C504.778 99.1834 504.244 99.6973 503.709 100.896C502.463 103.466 501.039 105.864 500.504 108.776C498.724 112.888 498.012 117.17 498.012 121.453C497.834 121.967 497.834 122.48 497.834 122.994C497.121 127.619 497.834 131.731 498.724 136.013Z" fill="url(#paint21_linear)" fill-opacity="0.3"/>
<path d="M612.675 91.3039C614.455 92.6743 615.168 94.7299 615.346 96.7855C616.058 104.494 612.675 110.661 606.799 115.629C607.155 116.143 607.689 116.657 607.867 117.17C608.936 119.569 610.004 119.397 611.785 117.684C614.811 114.944 617.66 112.203 619.975 108.948C634.575 88.5631 635.822 67.3217 623.892 45.395C622.646 43.1681 621.755 43.1681 620.153 44.8811C617.304 47.7933 614.277 50.3628 611.963 53.7888C607.155 59.4418 603.95 65.9512 602.17 72.8033C599.143 83.424 598.787 94.0447 602.526 104.665C605.909 100.212 609.292 95.7577 612.675 91.3039Z" fill="url(#paint22_linear)" fill-opacity="0.3"/>
<path d="M374.444 230.401C374.266 212.071 365.897 198.71 348.626 190.659C343.462 188.261 343.462 188.432 343.284 193.742C343.106 193.913 343.106 194.085 343.106 194.256C342.216 198.367 342.928 202.479 343.997 206.419C346.489 216.183 351.297 224.576 360.021 230.572C356.638 224.063 355.748 217.382 357.885 210.358C358.775 209.159 359.309 209.502 360.199 210.53C361.98 213.099 363.76 215.669 364.829 218.752C366.787 223.549 369.458 227.831 374.444 230.401Z" fill="url(#paint23_linear)" fill-opacity="0.3"/>
<path d="M673.572 395.363C671.435 389.71 668.23 384.571 664.135 380.118C653.452 367.27 639.386 360.075 622.292 358.191C622.649 358.534 623.183 359.047 623.717 359.39C629.415 364.015 635.468 368.126 641.7 372.238C642.947 373.094 644.015 374.293 643.481 375.492C642.947 376.863 641.166 376.691 639.742 376.349C636.893 375.664 634.222 374.636 631.729 372.923C627.456 370.011 623.005 367.27 618.731 364.358C618.909 365.214 619.088 365.899 619.266 366.756C622.114 377.205 626.922 386.627 634.934 394.164C639.564 399.303 645.083 403.243 651.493 406.155C659.149 410.267 667.518 412.151 676.064 412.836C677.667 413.007 678.023 412.665 677.845 410.952C676.954 405.641 675.886 400.331 673.572 395.363Z" fill="url(#paint24_linear)" fill-opacity="0.3"/>
<path d="M184.284 280.936C182.504 281.107 182.326 281.792 182.86 283.163C186.065 291.728 191.228 298.58 199.241 303.205C205.116 306.974 211.704 308.858 218.826 309.029C217.58 307.316 216.156 305.946 214.375 304.747C212.238 303.205 214.375 302.348 214.909 301.321C215.443 300.121 216.155 299.779 217.58 300.635C219.717 302.006 221.497 303.89 223.99 304.918C224.346 303.719 223.456 302.862 222.921 301.834C218.114 292.584 210.636 286.246 200.487 282.82C195.501 280.764 189.982 280.593 184.284 280.936Z" fill="url(#paint25_linear)" fill-opacity="0.3"/>
<path d="M311.057 313.139C306.25 315.023 303.579 318.963 304.113 323.417C304.647 327.871 308.208 331.297 313.016 331.811C316.043 332.324 318.892 331.468 321.206 329.412C324.589 326.329 325.48 321.704 323.343 317.764C320.85 313.653 316.577 311.939 311.057 313.139Z" fill="url(#paint26_linear)" fill-opacity="0.3"/>
<path d="M664.845 209.501C663.243 213.099 664.133 217.381 666.982 220.122C670.008 223.034 674.104 223.719 678.199 222.006C682.828 219.608 684.609 216.525 684.074 212.071C683.362 207.103 680.157 204.534 675.172 203.848C670.008 203.506 666.448 205.561 664.845 209.501Z" fill="url(#paint27_linear)" fill-opacity="0.3"/>
<path d="M65.7005 413.693C68.7274 412.494 70.5079 410.267 71.2201 407.355C72.4665 402.216 70.3298 398.961 64.098 395.878C59.8248 394.507 55.3735 396.049 52.8807 399.646C50.5661 403.072 50.7441 408.04 53.593 411.124C56.7979 414.721 61.2492 415.578 65.7005 413.693Z" fill="url(#paint28_linear)" fill-opacity="0.3"/>
<path d="M264.764 261.236C269.216 259.009 271.174 255.583 270.284 250.958C269.572 246.847 267.079 244.277 262.806 243.42C258.533 242.393 254.259 243.934 251.945 247.532C249.63 251.129 250.164 256.097 253.013 259.18C256.218 262.264 260.491 263.12 264.764 261.236Z" fill="url(#paint29_linear)" fill-opacity="0.3"/>
<path d="M554.454 86.6791C559.44 84.2808 561.576 80.5122 560.686 75.7157C559.796 71.6045 556.235 68.6924 551.249 68.3498C546.798 68.1785 543.415 70.2341 541.635 73.8314C540.032 77.4288 540.744 81.7113 543.593 84.4521C546.62 87.5356 550.359 88.2208 554.454 86.6791Z" fill="url(#paint30_linear)" fill-opacity="0.3"/>
<path d="M188.557 86.6775C189.803 85.9922 191.05 85.6496 191.94 84.6218C194.611 81.7097 195.501 78.455 194.255 74.8576C192.652 70.5751 189.269 68.6907 184.818 68.3481C180.367 68.3481 176.984 70.4038 175.381 74.1724C173.779 77.7697 174.669 82.0523 177.518 84.7931C180.545 87.5339 184.462 88.2192 188.557 86.6775Z" fill="url(#paint31_linear)" fill-opacity="0.3"/>
<path d="M255.684 402.216C254.081 397.077 248.562 394.336 243.22 395.878C237.7 397.42 234.852 402.388 236.276 407.698C237.522 412.323 242.152 415.064 246.959 414.379C247.315 414.379 247.85 414.207 248.384 414.207C254.081 412.837 257.286 407.527 255.684 402.216Z" fill="url(#paint32_linear)" fill-opacity="0.3"/>
<path d="M77.633 138.41C78.3452 138.068 78.8794 137.725 79.5916 137.554C84.0429 136.526 86.0015 130.702 85.1112 127.276C84.0429 122.65 80.1258 119.738 75.1403 119.738C70.689 119.567 67.6621 121.794 66.0596 125.391C64.2791 129.16 64.9913 132.757 67.8401 135.841C70.3329 138.41 73.5378 139.781 77.633 138.41Z" fill="url(#paint33_linear)" fill-opacity="0.3"/>
<path d="M173.956 236.566C171.464 239.992 171.464 244.446 173.956 247.872C176.449 251.127 180.722 252.497 184.818 251.298C189.803 249.585 192.474 246.159 192.296 241.877C192.118 237.594 189.269 234.168 184.818 232.969C180.544 231.77 176.449 233.14 173.956 236.566Z" fill="url(#paint34_linear)" fill-opacity="0.3"/>
<path d="M345.243 24.3188C351.119 22.4345 353.968 18.4945 353.078 13.6981C352.187 8.55905 348.27 5.47562 342.751 5.64692C336.697 5.81822 332.602 10.4434 333.314 16.4389C333.67 21.7493 339.011 25.3466 345.243 24.3188Z" fill="url(#paint35_linear)" fill-opacity="0.3"/>
<path d="M437.119 53.1031C442.816 52.5892 446.912 48.1354 446.377 42.825C445.665 36.8295 440.68 33.2321 433.914 34.2599C428.394 35.8016 425.367 40.0842 426.257 45.3945C427.326 50.3623 431.599 53.4457 437.119 53.1031Z" fill="url(#paint36_linear)" fill-opacity="0.3"/>
<path d="M38.9939 233.826C44.8696 232.284 48.0746 227.145 46.2941 221.664C44.6916 216.524 39.172 213.784 33.8304 215.497C28.3108 217.038 25.4619 222.006 26.8864 227.316C28.4888 232.113 33.6523 235.025 38.9939 233.826Z" fill="url(#paint37_linear)" fill-opacity="0.3"/>
<path d="M348.981 162.223C344.886 161.538 340.969 163.079 338.832 166.505C336.696 169.931 337.052 174.728 339.722 177.811C342.571 180.895 346.667 181.923 350.762 180.552C354.501 179.524 356.459 176.955 357.172 173.529C358.418 168.047 355.925 164.45 348.981 162.223Z" fill="url(#paint38_linear)" fill-opacity="0.3"/>
<path d="M470.771 193.398C466.32 193.398 462.937 195.454 461.335 199.223C459.732 202.82 460.622 207.102 463.649 209.843C466.676 212.755 470.593 213.269 474.688 211.728C479.674 209.329 481.632 205.561 480.564 200.936C479.318 196.311 475.757 193.57 470.771 193.398Z" fill="url(#paint39_linear)" fill-opacity="0.3"/>
<path d="M702.77 292.24C698.141 292.069 694.58 293.953 692.799 297.551C691.019 301.148 691.909 305.602 694.758 308.514C697.785 311.426 701.88 312.111 705.975 310.398C710.427 308.343 712.563 304.745 712.029 300.463C711.317 295.838 708.112 293.097 702.77 292.24Z" fill="url(#paint40_linear)" fill-opacity="0.3"/>
<path d="M519.736 275.282C517.421 278.708 517.599 283.334 520.092 286.589C522.763 289.843 526.858 291.042 530.953 289.672C535.76 287.959 538.075 284.875 538.075 280.593C538.075 275.968 535.582 273.055 530.241 271.342C526.324 270.315 522.05 271.856 519.736 275.282Z" fill="url(#paint41_linear)" fill-opacity="0.3"/>
<defs>
<linearGradient id="paint0_linear" x1="274.918" y1="113.564" x2="339.377" y2="113.564" gradientUnits="userSpaceOnUse">
<stop stop-color="#97C15A"/>
<stop offset="1" stop-color="#405C40"/>
</linearGradient>
<linearGradient id="paint1_linear" x1="358.598" y1="76.5379" x2="423.098" y2="76.5379" gradientUnits="userSpaceOnUse">
<stop stop-color="#97C15A"/>
<stop offset="1" stop-color="#405C40"/>
</linearGradient>
<linearGradient id="paint2_linear" x1="42.6032" y1="206.41" x2="160.625" y2="206.41" gradientUnits="userSpaceOnUse">
<stop stop-color="#97C15A"/>
<stop offset="1" stop-color="#405C40"/>
</linearGradient>
<linearGradient id="paint3_linear" x1="329.269" y1="352.699" x2="399.856" y2="352.699" gradientUnits="userSpaceOnUse">
<stop stop-color="#97C15A"/>
<stop offset="1" stop-color="#405C40"/>
</linearGradient>
<linearGradient id="paint4_linear" x1="0.228975" y1="285.311" x2="90.548" y2="285.311" gradientUnits="userSpaceOnUse">
<stop stop-color="#97C15A"/>
<stop offset="1" stop-color="#405C40"/>
</linearGradient>
<linearGradient id="paint5_linear" x1="511.982" y1="441.319" x2="569.517" y2="441.319" gradientUnits="userSpaceOnUse">
<stop stop-color="#97C15A"/>
<stop offset="1" stop-color="#405C40"/>
</linearGradient>
<linearGradient id="paint6_linear" x1="33.3705" y1="367.171" x2="142.556" y2="367.171" gradientUnits="userSpaceOnUse">
<stop stop-color="#97C15A"/>
<stop offset="1" stop-color="#405C40"/>
</linearGradient>
<linearGradient id="paint7_linear" x1="51.9204" y1="437.641" x2="165.902" y2="437.641" gradientUnits="userSpaceOnUse">
<stop stop-color="#97C15A"/>
<stop offset="1" stop-color="#405C40"/>
</linearGradient>
<linearGradient id="paint8_linear" x1="182.232" y1="509.876" x2="293.617" y2="509.876" gradientUnits="userSpaceOnUse">
<stop stop-color="#97C15A"/>
<stop offset="1" stop-color="#405C40"/>
</linearGradient>
<linearGradient id="paint9_linear" x1="413.6" y1="483.114" x2="508.058" y2="483.114" gradientUnits="userSpaceOnUse">
<stop stop-color="#97C15A"/>
<stop offset="1" stop-color="#405C40"/>
</linearGradient>
<linearGradient id="paint10_linear" x1="101.32" y1="319.261" x2="184.718" y2="319.261" gradientUnits="userSpaceOnUse">
<stop stop-color="#97C15A"/>
<stop offset="1" stop-color="#405C40"/>
</linearGradient>
<linearGradient id="paint11_linear" x1="201.203" y1="595.246" x2="249.923" y2="595.246" gradientUnits="userSpaceOnUse">
<stop stop-color="#97C15A"/>
<stop offset="1" stop-color="#405C40"/>
</linearGradient>
<linearGradient id="paint12_linear" x1="206.628" y1="188.709" x2="277.266" y2="188.709" gradientUnits="userSpaceOnUse">
<stop stop-color="#97C15A"/>
<stop offset="1" stop-color="#405C40"/>
</linearGradient>
<linearGradient id="paint13_linear" x1="442.499" y1="530.808" x2="598.523" y2="530.808" gradientUnits="userSpaceOnUse">
<stop stop-color="#97C15A"/>
<stop offset="1" stop-color="#405C40"/>
</linearGradient>
<linearGradient id="paint14_linear" x1="112.753" y1="113.236" x2="176.326" y2="113.236" gradientUnits="userSpaceOnUse">
<stop stop-color="#97C15A"/>
<stop offset="1" stop-color="#405C40"/>
</linearGradient>
<linearGradient id="paint15_linear" x1="626.709" y1="261.228" x2="735.401" y2="261.228" gradientUnits="userSpaceOnUse">
<stop stop-color="#97C15A"/>
<stop offset="1" stop-color="#405C40"/>
</linearGradient>
<linearGradient id="paint16_linear" x1="219.433" y1="90.9171" x2="264.497" y2="90.9171" gradientUnits="userSpaceOnUse">
<stop stop-color="#97C15A"/>
<stop offset="1" stop-color="#405C40"/>
</linearGradient>
<linearGradient id="paint17_linear" x1="437.02" y1="97.6357" x2="484.648" y2="97.6357" gradientUnits="userSpaceOnUse">
<stop stop-color="#97C15A"/>
<stop offset="1" stop-color="#405C40"/>
</linearGradient>
<linearGradient id="paint18_linear" x1="655.341" y1="364.719" x2="749.141" y2="364.719" gradientUnits="userSpaceOnUse">
<stop stop-color="#97C15A"/>
<stop offset="1" stop-color="#405C40"/>
</linearGradient>
<linearGradient id="paint19_linear" x1="331.126" y1="279.09" x2="363.668" y2="279.09" gradientUnits="userSpaceOnUse">
<stop stop-color="#97C15A"/>
<stop offset="1" stop-color="#405C40"/>
</linearGradient>
<linearGradient id="paint20_linear" x1="562.419" y1="180.697" x2="666.684" y2="180.697" gradientUnits="userSpaceOnUse">
<stop stop-color="#97C15A"/>
<stop offset="1" stop-color="#405C40"/>
</linearGradient>
<linearGradient id="paint21_linear" x1="497.449" y1="133.407" x2="528.036" y2="133.407" gradientUnits="userSpaceOnUse">
<stop stop-color="#97C15A"/>
<stop offset="1" stop-color="#405C40"/>
</linearGradient>
<linearGradient id="paint22_linear" x1="599.895" y1="81.2514" x2="632.064" y2="81.2514" gradientUnits="userSpaceOnUse">
<stop stop-color="#97C15A"/>
<stop offset="1" stop-color="#405C40"/>
</linearGradient>
<linearGradient id="paint23_linear" x1="342.733" y1="209.953" x2="374.373" y2="209.953" gradientUnits="userSpaceOnUse">
<stop stop-color="#97C15A"/>
<stop offset="1" stop-color="#405C40"/>
</linearGradient>
<linearGradient id="paint24_linear" x1="618.614" y1="385.539" x2="677.889" y2="385.539" gradientUnits="userSpaceOnUse">
<stop stop-color="#97C15A"/>
<stop offset="1" stop-color="#405C40"/>
</linearGradient>
<linearGradient id="paint25_linear" x1="182.601" y1="294.936" x2="224.15" y2="294.936" gradientUnits="userSpaceOnUse">
<stop stop-color="#97C15A"/>
<stop offset="1" stop-color="#405C40"/>
</linearGradient>
<linearGradient id="paint26_linear" x1="303.951" y1="322.331" x2="324.241" y2="322.331" gradientUnits="userSpaceOnUse">
<stop stop-color="#97C15A"/>
<stop offset="1" stop-color="#405C40"/>
</linearGradient>
<linearGradient id="paint27_linear" x1="663.957" y1="213.408" x2="684.022" y2="213.408" gradientUnits="userSpaceOnUse">
<stop stop-color="#97C15A"/>
<stop offset="1" stop-color="#405C40"/>
</linearGradient>
<linearGradient id="paint28_linear" x1="51.5057" y1="405.032" x2="71.6374" y2="405.032" gradientUnits="userSpaceOnUse">
<stop stop-color="#97C15A"/>
<stop offset="1" stop-color="#405C40"/>
</linearGradient>
<linearGradient id="paint29_linear" x1="250.556" y1="252.59" x2="270.596" y2="252.59" gradientUnits="userSpaceOnUse">
<stop stop-color="#97C15A"/>
<stop offset="1" stop-color="#405C40"/>
</linearGradient>
<linearGradient id="paint30_linear" x1="540.795" y1="77.8836" x2="560.944" y2="77.8836" gradientUnits="userSpaceOnUse">
<stop stop-color="#97C15A"/>
<stop offset="1" stop-color="#405C40"/>
</linearGradient>
<linearGradient id="paint31_linear" x1="174.6" y1="77.889" x2="194.798" y2="77.889" gradientUnits="userSpaceOnUse">
<stop stop-color="#97C15A"/>
<stop offset="1" stop-color="#405C40"/>
</linearGradient>
<linearGradient id="paint32_linear" x1="235.826" y1="405.021" x2="256.062" y2="405.021" gradientUnits="userSpaceOnUse">
<stop stop-color="#97C15A"/>
<stop offset="1" stop-color="#405C40"/>
</linearGradient>
<linearGradient id="paint33_linear" x1="64.94" y1="129.294" x2="85.2271" y2="129.294" gradientUnits="userSpaceOnUse">
<stop stop-color="#97C15A"/>
<stop offset="1" stop-color="#405C40"/>
</linearGradient>
<linearGradient id="paint34_linear" x1="172.085" y1="242.166" x2="192.297" y2="242.166" gradientUnits="userSpaceOnUse">
<stop stop-color="#97C15A"/>
<stop offset="1" stop-color="#405C40"/>
</linearGradient>
<linearGradient id="paint35_linear" x1="333.055" y1="14.9482" x2="353.174" y2="14.9482" gradientUnits="userSpaceOnUse">
<stop stop-color="#97C15A"/>
<stop offset="1" stop-color="#405C40"/>
</linearGradient>
<linearGradient id="paint36_linear" x1="426.223" y1="43.5847" x2="446.444" y2="43.5847" gradientUnits="userSpaceOnUse">
<stop stop-color="#97C15A"/>
<stop offset="1" stop-color="#405C40"/>
</linearGradient>
<linearGradient id="paint37_linear" x1="26.5945" y1="224.484" x2="46.8257" y2="224.484" gradientUnits="userSpaceOnUse">
<stop stop-color="#97C15A"/>
<stop offset="1" stop-color="#405C40"/>
</linearGradient>
<linearGradient id="paint38_linear" x1="337.474" y1="171.599" x2="357.583" y2="171.599" gradientUnits="userSpaceOnUse">
<stop stop-color="#97C15A"/>
<stop offset="1" stop-color="#405C40"/>
</linearGradient>
<linearGradient id="paint39_linear" x1="460.532" y1="202.982" x2="480.704" y2="202.982" gradientUnits="userSpaceOnUse">
<stop stop-color="#97C15A"/>
<stop offset="1" stop-color="#405C40"/>
</linearGradient>
<linearGradient id="paint40_linear" x1="691.929" y1="301.808" x2="712.047" y2="301.808" gradientUnits="userSpaceOnUse">
<stop stop-color="#97C15A"/>
<stop offset="1" stop-color="#405C40"/>
</linearGradient>
<linearGradient id="paint41_linear" x1="518.097" y1="280.679" x2="538.136" y2="280.679" gradientUnits="userSpaceOnUse">
<stop stop-color="#97C15A"/>
<stop offset="1" stop-color="#405C40"/>
</linearGradient>
</defs>
</svg>
