<svg width="24" height="24" viewBox="0 0 24 24" fill="none" xmlns="http://www.w3.org/2000/svg">
<g clip-path="url(#clip0)">
<path d="M21.8569 21.4287C22.3963 21.4287 22.8638 21.2506 23.2612 20.8989L16.4616 14.099C16.2985 14.2158 16.1403 14.3294 15.991 14.4374C15.4821 14.8123 15.0691 15.1049 14.752 15.3145C14.4349 15.5246 14.013 15.7388 13.4864 15.9574C12.9594 16.1764 12.4685 16.2855 12.0131 16.2855H11.9997H11.9864C11.5309 16.2855 11.04 16.1764 10.5131 15.9574C9.98612 15.7388 9.56424 15.5246 9.24747 15.3145C8.93038 15.1049 8.51761 14.8124 8.0085 14.4374C7.86663 14.3334 7.70928 14.2193 7.53917 14.0972L0.738281 20.8989C1.13563 21.2506 1.60339 21.4287 2.14283 21.4287H21.8569Z" fill="#417D19"/>
<path d="M1.35282 9.81718C0.844016 9.47796 0.392814 9.08946 0 8.65186V18.9973L5.99313 13.0041C4.79416 12.1671 3.24935 11.106 1.35282 9.81718Z" fill="#417D19"/>
<path d="M22.6602 9.81718C20.836 11.0519 19.2856 12.1148 18.0088 13.0065L23.9995 18.9975V8.65186C23.6154 9.08066 23.1691 9.4689 22.6602 9.81718Z" fill="#417D19"/>
<path d="M21.8567 2.57129H2.14272C1.45496 2.57129 0.926195 2.80353 0.555778 3.26755C0.185056 3.73178 0 4.31235 0 5.00861C0 5.57101 0.245579 6.18038 0.73652 6.83691C1.22746 7.49316 1.74986 8.00864 2.30346 8.38359C2.60695 8.59801 3.52217 9.23427 5.04911 10.2921C5.87338 10.8633 6.59021 11.3612 7.20621 11.7908C7.73126 12.1567 8.18408 12.4735 8.55794 12.7364C8.60086 12.7665 8.66835 12.8148 8.75794 12.8789C8.85445 12.9482 8.97659 13.0362 9.12727 13.145C9.41742 13.3548 9.65847 13.5245 9.85046 13.654C10.0422 13.7837 10.2745 13.9285 10.547 14.0893C10.8193 14.2498 11.0761 14.3706 11.3171 14.4509C11.5582 14.5311 11.7814 14.5714 11.9867 14.5714H12.0001H12.0134C12.2187 14.5714 12.4419 14.5311 12.683 14.4509C12.924 14.3706 13.1806 14.2501 13.4531 14.0893C13.7254 13.9285 13.9574 13.7834 14.1497 13.654C14.3417 13.5245 14.5827 13.3549 14.8729 13.145C15.0233 13.0362 15.1454 12.9482 15.242 12.8791C15.3316 12.8148 15.399 12.7668 15.4422 12.7364C15.7335 12.5338 16.1873 12.2183 16.7975 11.7946C17.9079 11.0231 19.5431 9.88761 21.7101 8.38359C22.3618 7.92837 22.9063 7.37904 23.3439 6.73638C23.7807 6.09372 23.9997 5.41959 23.9997 4.71423C23.9997 4.1249 23.7874 3.62062 23.3636 3.20062C22.9394 2.78114 22.4371 2.57129 21.8567 2.57129Z" fill="#417D19"/>
</g>
<defs>
<clipPath id="clip0">
<rect width="24" height="24" fill="white"/>
</clipPath>
</defs>
</svg>
