<svg width="24" height="24" viewBox="0 0 24 24" fill="none" xmlns="http://www.w3.org/2000/svg">
<path d="M23.309 14.5469C25.047 6.73689 18.205 -0.358114 10.17 1.00389C5.808 -1.70311 0 1.35589 0 6.54589C0 7.75289 0.333 8.88289 0.912 9.85689C-0.703 17.6849 6.195 24.6779 14.223 23.2229C15.159 23.7179 16.227 23.9999 17.362 23.9999C22.311 23.9999 25.48 18.8669 23.309 14.5469ZM12.096 19.8789C9.754 19.8789 7.466 19.3139 6.112 17.3799C4.094 14.5259 6.755 13.0979 8.061 14.1859C9.151 15.1049 8.809 17.3279 12.01 17.3279C13.421 17.3279 15.163 16.7259 15.163 15.3269C15.163 12.5119 8.918 13.8439 6.435 10.7749C5.523 9.65089 5.351 7.66789 6.471 6.22989C8.423 3.71789 14.151 3.56489 16.614 5.46189C18.888 7.22189 18.274 9.55789 16.439 9.55789C14.232 9.55789 15.392 6.66989 11.829 6.66989C9.246 6.66989 8.23 8.50689 10.049 9.40089C12.47 10.6029 18.799 10.2279 18.799 15.0039C18.791 18.3609 15.552 19.8789 12.096 19.8789Z" fill="#417D19"/>
</svg>
